<?xml version="1.0" encoding="utf-8"?>
<!-- Generator: Adobe Illustrator 17.1.0, SVG Export Plug-In . SVG Version: 6.00 Build 0)  -->
<!DOCTYPE svg PUBLIC "-//W3C//DTD SVG 1.1//EN" "http://www.w3.org/Graphics/SVG/1.1/DTD/svg11.dtd">
<svg version="1.1" id="Layer_1" xmlns="http://www.w3.org/2000/svg" xmlns:xlink="http://www.w3.org/1999/xlink" x="0px" y="0px"
	 viewBox="0 0 178.1 453" enable-background="new 0 0 178.1 453" xml:space="preserve">
<g id="XMLID_1_">
	<path id="XMLID_28_" fill="#231F20" stroke="#231F20" stroke-width="1.5222" stroke-miterlimit="3.8637" d="M72.6,211.5
		c5.5-81.7,41.5-89.6,65.1-75.6c19.1,11.3,21,60.6,20.9,81.5l3.6,0.2c0,0,3.2,70.2,6.7,90c3.4,19.8-10.5,78.1-34.6,123.3
		c0,0-9.8,20-34.3,17.9c-23.9-0.9-31.6-22.4-31.6-22.4c-17.7-48-23.5-107.7-17.4-126.8c6.1-19.1,19-88.2,19-88.2L72.6,211.5
		L72.6,211.5z"/>
	<path id="XMLID_27_" fill="#231F20" d="M47.1,298.3c6.1-19,22.4-86.3,22.4-86.3c17,1.2,47.9,3.3,92.8,6.4
		c0.6,5.2,7.4,69.7,10.7,88.6c3.7,21.2-10.8,80.5-35.1,125.9c-7,13.7-22.9,21.3-38.1,20c-15.1-0.6-30.1-10.7-35.2-25.1
		C46.8,379.5,40.6,318.8,47.1,298.3L47.1,298.3z"/>
	<path id="XMLID_26_" fill="#AF6745" stroke="#231F20" stroke-width="1.5222" stroke-miterlimit="3.8637" d="M162.8,228.8
		c1.1,20.6,3.5,64,6.1,78.9c3.4,19.8-10.5,78.1-34.6,123.3c0,0-9.8,20-34.3,17.9c-23.9-0.9-31.6-22.4-31.6-22.4
		c-17.7-48-23.5-107.7-17.4-126.8c4.2-13.2,11.6-50.2,15.8-71.8c8.6,12.5,31.5,38.7,54.7,41.5C141.8,271.7,156.8,242.9,162.8,228.8
		L162.8,228.8z"/>
	
		<path id="XMLID_25_" fill="none" stroke="#2E2A25" stroke-width="0.7611" stroke-miterlimit="3.8637" stroke-dasharray="3.0445,3.0445" d="
		M161.1,222.4c1.6,15.2,7.4,68.1,10.3,85c3.6,20.5-10.7,79.3-34.9,124.6c-6.6,12.9-21.7,20.1-36.2,18.9
		c-14.3-0.6-28.6-10.3-33.4-23.8C49.2,379,43.2,318.8,49.5,299c5.2-16.3,18-68.4,21.5-82.7"/>
	<path id="XMLID_24_" fill="#AF6745" stroke="#231F20" stroke-width="1.5222" stroke-miterlimit="3.8637" d="M139.7,145.6
		c0,0-17.3-16.5-38.1-2.6c0,0-6.6-10.5,6.4-19.7c0,0,11.5-5.2,29,2.3C136.9,125.6,143.5,133.4,139.7,145.6L139.7,145.6z"/>
	<path id="XMLID_23_" fill="#AF6745" stroke="#231F20" stroke-width="1.5222" stroke-miterlimit="3.8637" d="M79.4,306.6l59.9,4.1
		l3.1-45.3l-3.5-18.2c0,0-2-5.2-6.6-4.6c-4.6,0.6-9,4.7-18.6,4.6c-8.7-1.5-13.3-5.9-17.8-7.1c-4.5-1.2-7.2,3.6-7.2,3.6l-5.9,17.6
		L79.4,306.6L79.4,306.6z"/>
	
		<path id="XMLID_20_" fill="none" stroke="#231F20" stroke-width="0.7611" stroke-miterlimit="3.8637" stroke-dasharray="3.0445,3.0445" d="
		M139.9,143.4c0,0-17.3-16.5-38.1-2.6 M85,264.7l0.2-2.9l5.8-17.1c0.4-0.7,2.3-3.2,4.8-2.5c0.9,0.2,1.9,0.7,3,1.3
		c1.2,0.6,2.5,1.3,3.8,2c2.9,1.5,6.4,3.1,11.1,3.9l0.3,0c5.1,0,8.9-1.1,11.9-2.2c1.4-0.5,2.7-1.1,3.9-1.6c1.2-0.4,2.1-0.7,3-0.9
		c2.6-0.3,4.1,2.5,4.4,3.2l3.4,17.8l-0.2,2.9"/>
	<path id="XMLID_19_" fill="#AF6745" stroke="#231F20" stroke-width="1.5222" stroke-miterlimit="3.8637" d="M64.1,306.1
		c0,0-3.7-177.7,44.1-182.8c0,0-8.5,7.4-6.1,20.1c0,0-26.5,47.7-23.1,80.4c3.5,32.7,29.4,26.3,28.2,44.8s-7.3,38-7.3,38
		S89.7,323.5,64.1,306.1L64.1,306.1z"/>
	<path id="XMLID_18_" fill="#AF6745" stroke="#231F20" stroke-width="1.5222" stroke-miterlimit="3.8637" d="M154.8,312.3
		c0,0,28-175.5-18.7-187.1c0,0,7.4,8.4,3.3,20.7c0,0,19.8,50.9,11.8,82.8c-7.9,31.9-32.8,22.1-34,40.5c-1.3,18.5,2.1,38.6,2.1,38.6
		S127.1,326,154.8,312.3L154.8,312.3z"/>
	
		<path id="XMLID_13_" fill="none" stroke="#231F20" stroke-width="0.7611" stroke-miterlimit="3.8637" stroke-dasharray="3.0445,3.0445" d="
		M100.3,143c-1.4,2.7-7.2,13.6-12.6,27.5c-6.2,16-12.1,36.5-10.3,53.4c1.8,17.1,9.6,24.1,16.7,29.2c1.7,1.2,3.3,2.3,4.8,3.4
		c1.5,1.1,2.7,2.1,3.8,3.2c1.9,2.1,3.1,4.7,2.8,8.7c-1.2,17-6.5,34.9-7.2,37.2l-0.2,0.3c-0.3,0.4-0.7,0.9-1.3,1.5
		c-1.2,1.2-3,2.6-5.6,3.5c-4.9,1.8-12.9,1.9-24.8-5.9 M141.6,146.1c1.1,2.8,5.3,14.4,8.7,29c4,16.7,7,37.8,2.9,54.3
		c-4.2,16.7-12.9,22.6-20.5,26.6c-1.8,1-3.6,1.8-5.3,2.7c-1.6,0.9-3,1.7-4.2,2.7c-2.2,1.8-3.7,4.2-4,8.2c-1.2,17,1.6,35.4,2,37.9
		l0.2,0.4c0.2,0.4,0.6,1,1.1,1.6c1,1.3,2.6,3,5,4.2c4.6,2.4,12.5,3.7,25.4-2.5 M87.6,245.2l-8.3,33.2c0,0-0.8,5.9-5.7,3.4
		c-4.9-2.4-9-4.5-9-4.5 M140.4,248.8l3.7,34c0,0,0,5.9,5.2,4.2c5.1-1.7,9.5-3.2,9.5-3.2"/>
	<path id="XMLID_12_" fill="#231F20" d="M95.8,266.5c0,0,18.3,8,33.9,2.4c1.3-0.5,2,1.4,0.7,1.9c-10.5,3.8-25.2,2.1-35.4-2.4
		C93.7,267.8,94.5,265.9,95.8,266.5L95.8,266.5z"/>
	<path id="XMLID_11_" fill="#231F20" d="M94.6,283.6c0,0,18.3,8,33.9,2.4c1.3-0.5,2,1.4,0.7,1.9c-10.5,3.8-25.2,2.1-35.4-2.4
		C92.5,284.9,93.3,283.1,94.6,283.6L94.6,283.6z"/>
	<path id="XMLID_10_" fill="#231F20" d="M90.9,297.6c0,0,21.1,9.3,39.1,2.7c1.5-0.5,2.3,1.7,0.8,2.2c-12.2,4.4-29.1,2.4-40.9-2.8
		C88.5,299.1,89.4,297,90.9,297.6L90.9,297.6z"/>
	<path id="XMLID_9_" fill="#231F20" d="M130.2,267.7c1.1,0.1,2,1.1,1.9,2.2s-1.1,2-2.2,1.9c-1.1-0.1-2-1.1-1.9-2.2
		S129,267.7,130.2,267.7L130.2,267.7z"/>
	<path id="XMLID_8_" fill="#231F20" d="M131.1,284.6c1.1,0.1,2,1.1,1.9,2.2c-0.1,1.1-1.1,2-2.2,1.9c-1.1-0.1-2-1.1-1.9-2.2
		S129.9,284.5,131.1,284.6L131.1,284.6z"/>
	<polygon id="XMLID_7_" fill="#2E2A25" stroke="#231F20" stroke-width="1.5222" stroke-miterlimit="3.8637" points="128.9,148.8 
		123.9,222.5 107.3,221.4 112.4,147.6 128.9,148.8 	"/>
	
		<path id="XMLID_2_" fill="none" stroke="#231F20" stroke-width="0.7611" stroke-miterlimit="3.8637" stroke-dasharray="3.0445,3.0445" d="
		M122,220.4l-12.5-0.9l4.8-69.7l12.5,0.9L122,220.4L122,220.4z M101.4,305.6l17.5,1.2 M66.1,303.3l7.9,3.3l1.8-8.4 M64.9,300.9
		l7.9,3.3l1.4-6.6"/>
</g>
<g>
	<path fill="#566745" d="M178,0.4l-3.7,236.5c0,0-7.9,23.2-26.4,31.8S115,281,115,281h-2c0,0-14.5-3.7-32.9-12.3
		s-26.4-31.6-26.4-31.6L0,0.5l147.3-0.1L178,0.4z"/>
	<path fill="#104313" d="M158.5,1.2c0.4-0.4,1.3-0.1,4.1-0.7c4.6-1,10.6-0.1,15.4-0.1c0,0-2.5,236.3-2.5,236.5
		c-0.1,9.5-13,20.7-19.5,26.2c2.3-17.1-3-34.2-3.6-51.4c-1-30.2,12.5-59.4,11.9-89.6c-0.3-16.9-5-33.2-7-49.9
		c-2.1-17.9,1.8-35.4,1.6-53.3c-0.1-4.2-1.7-9.7-1-13.8C158.3,2.5,158.2,1.5,158.5,1.2z"/>
	<g>
		<path fill="#2A4C2E" d="M174.3,216.9c-0.9,3.3-2,6.5-3.3,9.7c-1.3,3.2-2.8,6.3-4.4,9.2c-0.8,1.5-1.8,2.9-2.8,4.3
			c-1,1.4-2,2.8-3.1,4.1c-1.1,1.3-2.3,2.6-3.5,3.8c-1.2,1.2-2.6,2.3-4,3.3c-1.4,1-2.9,1.9-4.4,2.7c-1.6,0.8-3.1,1.4-4.7,2.1l-4.7,2
			c-1.6,0.7-3.1,1.4-4.7,2l-9.6,3.5l-4.9,1.6l-2.4,0.8l-2.5,0.9l-0.1,0.2H115h-2H113l-0.1-0.2l-2.5-0.8l-2.5-0.8
			c-1.7-0.5-3.3-1.1-5-1.6l-9.8-3.6l-4.8-2.1l-4.8-2.1l-2.4-1c-0.4-0.2-0.8-0.3-1.2-0.5l-1.1-0.6c-0.8-0.4-1.5-0.8-2.3-1.3l-2.2-1.5
			c-0.4-0.3-0.7-0.5-1.1-0.8l-1-0.8c-0.7-0.6-1.4-1.1-2-1.7l-1.9-1.8l-0.9-0.9l-0.9-1l-1.8-1.9l-1.7-2c-0.6-0.7-1.1-1.4-1.6-2.1
			l-1.6-2.1c-0.9-1.5-1.9-2.9-2.8-4.4c-0.9-1.5-1.8-3-2.6-4.5c-0.8-1.5-1.6-3.1-2.4-4.7c-0.7-1.6-1.5-3.2-2.1-4.8
			c0.7,1.6,1.5,3.1,2.4,4.7c0.8,1.5,1.7,3,2.6,4.5c0.9,1.5,1.8,3,2.8,4.4c0.9,1.5,2,2.8,3,4.3c1.1,1.4,2,2.8,3.1,4.1l1.6,2L67,243
			l0.9,1l0.9,0.9l1.9,1.8c0.7,0.6,1.3,1.1,2,1.7l1,0.8c0.3,0.3,0.7,0.5,1,0.7l2.1,1.5c0.7,0.4,1.5,0.8,2.3,1.3l1.1,0.6l1.2,0.5
			l2.4,1l4.8,2.1l4.8,2l9.8,3.6c1.6,0.6,3.3,1.1,5,1.6l2.5,0.8l2.5,0.9L113,266h2l-0.1-0.2l2.4-0.8l2.4-0.8l4.9-1.6l9.6-3.5
			c1.6-0.6,3.1-1.3,4.7-2l4.7-2c1.5-0.7,3.2-1.3,4.7-2c1.5-0.7,2.9-1.6,4.3-2.6c1.3-1,2.7-2,3.9-3.2c1.2-1.2,2.4-2.4,3.5-3.7
			c1.1-1.3,2.1-2.6,3.1-4c1-1.4,1.9-2.8,2.7-4.3c1.8-2.9,3.4-5.9,4.8-8.9C171.9,223.3,173.2,220.1,174.3,216.9z"/>
	</g>
	<path fill="none" stroke="#2A4C2E" stroke-miterlimit="10" d="M113,266.1c0.6-10.9-8.9-130.3-7.7-146.6c0.4-4.8-3.2-7.6-6.6-10.3
		c1.5-1.4,3-2.7,4.5-4.1c1.1-1,2.2-2,2.9-3.2c2.5-4.1-4-89.4-3.2-101.4"/>
</g>
</svg>
