<?xml version="1.0" encoding="utf-8"?>
<!-- Generator: Adobe Illustrator 17.1.0, SVG Export Plug-In . SVG Version: 6.00 Build 0)  -->
<!DOCTYPE svg PUBLIC "-//W3C//DTD SVG 1.1//EN" "http://www.w3.org/Graphics/SVG/1.1/DTD/svg11.dtd">
<svg version="1.1" xmlns="http://www.w3.org/2000/svg" xmlns:xlink="http://www.w3.org/1999/xlink" x="0px" y="0px"
	 viewBox="0 0 178.1 453" enable-background="new 0 0 178.1 453" xml:space="preserve">
<g id="FANCY_MAN">
	<g id="XMLID_30_">
		<path id="XMLID_57_" fill="#231F20" stroke="#231F20" stroke-width="1.5222" stroke-miterlimit="3.8637" d="M106.5,211.5
			C101,129.8,65,122,41.3,135.9c-19.1,11.3-21,60.6-20.9,81.5l-3.6,0.2c0,0-3.2,70.2-6.7,90c-3.4,19.8,10.5,78.1,34.6,123.3
			c0,0,9.8,20,34.3,17.9c23.9-0.9,31.6-22.4,31.6-22.4c17.7-48,23.5-107.7,17.4-126.8c-6.1-19.1-19-88.2-19-88.2L106.5,211.5
			L106.5,211.5z"/>
		<path id="XMLID_56_" fill="#231F20" d="M132,298.3c-6.1-19-22.4-86.3-22.4-86.3c-17,1.2-47.9,3.3-92.8,6.4
			c-0.6,5.2-7.4,69.7-10.7,88.6C2.4,328.1,17,387.5,41.2,432.8c7,13.7,22.9,21.3,38.1,20c15.1-0.6,30.1-10.7,35.2-25.1
			C132.3,379.5,138.5,318.8,132,298.3L132,298.3z"/>
		<path id="XMLID_55_" fill="#AF6745" stroke="#231F20" stroke-width="1.5222" stroke-miterlimit="3.8637" d="M16.2,228.8
			c-1.1,20.6-3.5,64-6.1,78.9c-3.4,19.8,10.5,78.1,34.6,123.3c0,0,9.8,20,34.3,17.9c23.9-0.9,31.6-22.4,31.6-22.4
			c17.7-48,23.5-107.7,17.4-126.8c-4.2-13.2-11.6-50.2-15.8-71.8c-8.6,12.5-31.5,38.7-54.7,41.5C37.2,271.7,22.3,242.9,16.2,228.8
			L16.2,228.8z"/>
		
			<path id="XMLID_54_" fill="none" stroke="#2E2A25" stroke-width="0.7611" stroke-miterlimit="3.8637" stroke-dasharray="3.0445,3.0445" d="
			M18,222.4c-1.6,15.2-7.4,68.1-10.3,85c-3.6,20.5,10.7,79.3,34.9,124.6c6.6,12.9,21.7,20.1,36.2,18.9c14.3-0.6,28.6-10.3,33.4-23.8
			c17.7-48.1,23.8-108.4,17.4-128.1c-5.2-16.3-18-68.4-21.5-82.7"/>
		<path id="XMLID_53_" fill="#AF6745" stroke="#231F20" stroke-width="1.5222" stroke-miterlimit="3.8637" d="M39.4,145.6
			c0,0,17.3-16.5,38.1-2.6c0,0,6.6-10.5-6.4-19.7c0,0-11.5-5.2-29,2.3C42.1,125.6,35.6,133.4,39.4,145.6L39.4,145.6z"/>
		<path id="XMLID_52_" fill="#AF6745" stroke="#231F20" stroke-width="1.5222" stroke-miterlimit="3.8637" d="M99.7,306.6l-59.9,4.1
			l-3.1-45.3l3.5-18.2c0,0,2-5.2,6.6-4.6c4.6,0.6,9,4.7,18.6,4.6c8.7-1.5,13.3-5.9,17.8-7.1c4.5-1.2,7.2,3.6,7.2,3.6l5.9,17.6
			L99.7,306.6L99.7,306.6z"/>
		
			<path id="XMLID_49_" fill="none" stroke="#231F20" stroke-width="0.7611" stroke-miterlimit="3.8637" stroke-dasharray="3.0445,3.0445" d="
			M77.4,140.8c-20.8-13.9-38.1,2.6-38.1,2.6 M38.5,268.6l-0.2-2.9l3.4-17.8c0.3-0.7,1.8-3.5,4.4-3.2c0.9,0.1,1.9,0.4,3,0.9
			c1.2,0.5,2.5,1,3.9,1.6c3,1.2,6.8,2.2,11.9,2.2l0.3,0c4.6-0.8,8.2-2.4,11.1-3.9c1.4-0.7,2.7-1.4,3.8-2c1.2-0.6,2.1-1,3-1.3
			c2.5-0.7,4.4,1.9,4.8,2.5l5.8,17.1l0.2,2.9"/>
		<path id="XMLID_48_" fill="#AF6745" stroke="#231F20" stroke-width="1.5222" stroke-miterlimit="3.8637" d="M115,306.1
			c0,0,3.7-177.7-44.1-182.8c0,0,8.5,7.4,6.1,20.1c0,0,26.5,47.7,23.1,80.4c-3.5,32.7-29.4,26.3-28.2,44.8c1.3,18.5,7.3,38,7.3,38
			S89.3,323.5,115,306.1L115,306.1z"/>
		<path id="XMLID_47_" fill="#AF6745" stroke="#231F20" stroke-width="1.5222" stroke-miterlimit="3.8637" d="M24.2,312.3
			c0,0-28-175.5,18.7-187.1c0,0-7.4,8.4-3.3,20.7c0,0-19.8,50.9-11.8,82.8c7.9,31.9,32.8,22.1,34,40.5c1.3,18.5-2.1,38.6-2.1,38.6
			S52,326,24.2,312.3L24.2,312.3z"/>
		
			<path id="XMLID_42_" fill="none" stroke="#231F20" stroke-width="0.7611" stroke-miterlimit="3.8637" stroke-dasharray="3.0445,3.0445" d="
			M112.7,305c-11.9,7.8-19.9,7.7-24.8,5.9c-2.5-0.9-4.4-2.3-5.6-3.5c-0.6-0.6-1-1.1-1.3-1.5l-0.2-0.3c-0.7-2.4-6-20.2-7.2-37.2
			c-0.3-4,0.9-6.6,2.8-8.7c1-1.1,2.3-2.1,3.8-3.2c1.5-1.1,3.2-2.2,4.8-3.4c7.1-5,14.9-12.1,16.7-29.2c1.8-16.8-4.1-37.3-10.3-53.4
			c-5.4-14-11.2-24.9-12.6-27.5 M26.1,311.3c12.9,6.1,20.8,4.9,25.4,2.5c2.4-1.3,4-2.9,5-4.2c0.5-0.6,0.9-1.2,1.1-1.6l0.2-0.4
			c0.4-2.4,3.2-20.8,2-37.9c-0.3-4-1.8-6.4-4-8.2c-1.2-1-2.6-1.8-4.2-2.7c-1.6-0.9-3.4-1.7-5.3-2.7c-7.7-4-16.4-9.9-20.5-26.6
			c-4.1-16.4-1-37.5,2.9-54.3c3.4-14.6,7.6-26.2,8.7-29 M114.5,277.4c0,0-4.1,2.1-9,4.5c-4.9,2.4-5.7-3.4-5.7-3.4l-8.3-33.2
			 M20.3,283.8c0,0,4.4,1.5,9.5,3.2c5.1,1.7,5.2-4.2,5.2-4.2l3.7-34"/>
		<path id="XMLID_41_" fill="#231F20" d="M83.3,266.5c0,0-18.3,8-33.9,2.4c-1.3-0.5-2,1.4-0.7,1.9c10.5,3.8,25.2,2.1,35.4-2.4
			C85.4,267.8,84.5,265.9,83.3,266.5L83.3,266.5z"/>
		<path id="XMLID_40_" fill="#231F20" d="M84.5,283.6c0,0-18.3,8-33.9,2.4c-1.3-0.5-2,1.4-0.7,1.9c10.5,3.8,25.2,2.1,35.4-2.4
			C86.5,284.9,85.7,283.1,84.5,283.6L84.5,283.6z"/>
		<path id="XMLID_39_" fill="#231F20" d="M88.2,297.6c0,0-21.1,9.3-39.1,2.7c-1.5-0.5-2.3,1.7-0.8,2.2c12.2,4.4,29.1,2.4,40.9-2.8
			C90.6,299.1,89.6,297,88.2,297.6L88.2,297.6z"/>
		<path id="XMLID_38_" fill="#231F20" d="M48.9,267.7c-1.1,0.1-2,1.1-1.9,2.2c0.1,1.1,1.1,2,2.2,1.9c1.1-0.1,2-1.1,1.9-2.2
			S50,267.7,48.9,267.7L48.9,267.7z"/>
		<path id="XMLID_37_" fill="#231F20" d="M48,284.6c-1.1,0.1-2,1.1-1.9,2.2c0.1,1.1,1.1,2,2.2,1.9c1.1-0.1,2-1.1,1.9-2.2
			C50.1,285.4,49.1,284.5,48,284.6L48,284.6z"/>
		<polygon id="XMLID_36_" fill="#2E2A25" stroke="#231F20" stroke-width="1.5222" stroke-miterlimit="3.8637" points="50.1,148.8 
			55.2,222.5 71.7,221.4 66.7,147.6 50.1,148.8 		"/>
		
			<path id="XMLID_31_" fill="none" stroke="#231F20" stroke-width="0.7611" stroke-miterlimit="3.8637" stroke-dasharray="3.0445,3.0445" d="
			M57.1,220.4l-4.8-69.7l12.5-0.9l4.8,69.7L57.1,220.4L57.1,220.4z M60.2,306.8l17.5-1.2 M103.3,298.1l1.8,8.4l7.9-3.3 M105,297.6
			l1.4,6.6l7.9-3.3"/>
	</g>
</g>
<g id="Layer_4">
	<g>
		<path fill="#566745" d="M0,0.4l3.7,236.5c0,0,7.9,23,26.4,31.6s32.9,12.1,32.9,12.1h2c0,0,14.5-3.5,32.9-12.1s26.4-31.5,26.4-31.5
			L178.1,0.4l-147.3,0L0,0.4z"/>
		<path fill="#104313" d="M19.5,1.2c-0.4-0.4-1.3-0.1-4.1-0.7C10.7-0.5,4.8,0.4,0,0.4c0,0,2.5,236.3,2.5,236.5
			c0.1,9.5,13,20.7,19.5,26.2c-2.3-17.1,3-34.2,3.6-51.4c1-30.2-12.5-59.4-11.9-89.6c0.3-16.9,5-33.2,7-49.9
			c2.1-17.9-1.8-35.4-1.6-53.3c0.1-4.2,1.7-9.7,1-13.8C19.7,2.5,19.8,1.5,19.5,1.2z"/>
		<g>
			<path fill="#2A4C2E" d="M3.8,216.9c1.1,3.2,2.4,6.4,3.8,9.5c1.4,3.1,3.1,6.1,4.8,8.9c0.9,1.4,1.8,2.9,2.7,4.3c1,1.4,2,2.7,3.1,4
				c1.1,1.3,2.2,2.5,3.5,3.7c1.2,1.2,2.5,2.2,3.9,3.2c1.4,0.9,2.8,1.9,4.3,2.6c1.5,0.7,3.1,1.4,4.6,2.1c3.1,1.4,6.2,2.7,9.4,3.9
				c3.2,1.2,6.4,2.4,9.6,3.5c3.2,1.1,6.5,2.1,9.7,3l-0.1,0h2l-0.1,0c3.3-0.9,6.7-2,10-3.1c3.3-1.1,6.6-2.3,9.8-3.6
				c3.2-1.3,6.4-2.6,9.6-4l2.4-1.1l1.2-0.5l1.1-0.6c0.8-0.4,1.5-0.8,2.3-1.3l2.1-1.5c0.3-0.2,0.7-0.5,1-0.7l1-0.8
				c0.7-0.6,1.3-1.1,2-1.7l1.9-1.8l0.9-0.9l0.9-1l1.7-1.9l1.6-2c1.1-1.3,2.1-2.8,3.1-4.1c1-1.4,2.1-2.8,3-4.3c1-1.4,1.9-2.9,2.8-4.4
				c0.9-1.5,1.8-3,2.6-4.5c0.8-1.5,1.6-3.1,2.4-4.7c-0.7,1.6-1.4,3.2-2.1,4.8c-0.8,1.6-1.6,3.1-2.4,4.7c-0.9,1.5-1.7,3.1-2.6,4.5
				c-0.9,1.5-1.9,3-2.8,4.4l-1.6,2.1c-0.5,0.7-1.1,1.4-1.6,2.1l-1.7,2l-1.8,1.9l-0.9,1l-0.9,0.9l-1.9,1.8c-0.7,0.6-1.4,1.1-2,1.7
				l-1,0.8c-0.3,0.3-0.7,0.5-1.1,0.8l-2.2,1.5c-0.8,0.4-1.5,0.8-2.3,1.3l-1.1,0.6l-1.2,0.6l-2.4,1.1c-3.2,1.4-6.4,2.8-9.7,4.1
				c-3.3,1.3-6.5,2.5-9.8,3.6c-3.3,1.1-6.6,2.2-10,3.1l-0.1,0H65h-2H63l-0.1,0c-3.3-0.9-6.6-1.9-9.8-3c-3.2-1.1-6.4-2.3-9.6-3.5
				c-3.2-1.3-6.3-2.5-9.5-3.9c-1.6-0.7-3.1-1.4-4.7-2.1c-1.6-0.7-3-1.7-4.4-2.7c-1.4-1-2.7-2.1-4-3.3c-1.3-1.2-2.4-2.4-3.5-3.8
				c-1.1-1.3-2.1-2.7-3.1-4.1c-1-1.4-1.9-2.8-2.8-4.3c-1.7-3-3.1-6.1-4.5-9.2C5.8,223.4,4.7,220.2,3.8,216.9z"/>
		</g>
		<path fill="none" stroke="#2A4C2E" stroke-miterlimit="10" d="M65,266.1c-0.6-10.9,8.9-130.3,7.7-146.6c-0.4-4.8,3.2-7.6,6.6-10.3
			c-1.5-1.4-3-2.7-4.5-4.1c-1.1-1-2.2-2-2.9-3.2c-2.5-4.1,4-89.4,3.2-101.4"/>
	</g>
</g>
</svg>
