<?xml version="1.0" encoding="utf-8"?>
<!-- Generator: Adobe Illustrator 17.1.0, SVG Export Plug-In . SVG Version: 6.00 Build 0)  -->
<!DOCTYPE svg PUBLIC "-//W3C//DTD SVG 1.1//EN" "http://www.w3.org/Graphics/SVG/1.1/DTD/svg11.dtd">
<svg version="1.1" xmlns="http://www.w3.org/2000/svg" xmlns:xlink="http://www.w3.org/1999/xlink" x="0px" y="0px"
	 viewBox="0 0 332 129" enable-background="new 0 0 332 129" xml:space="preserve">
<g id="Layer_1">
</g>
<g id="FANCY_MAN">
	<g id="XMLID_26356_">
		<path id="XMLID_26387_" fill="#231F20" stroke="#231F20" stroke-width="1.5222" stroke-miterlimit="3.8637" d="M93.1,108.1
			c-81.9,0.1-92.2-35.2-79.9-59.8c10-19.9,59-25.1,79.9-26.5l0-3.6c0,0,69.8-8.1,89.3-12.8c19.5-4.8,78.7,5.1,125.3,26.1
			c0,0,20.6,8.4,20.2,33c0.8,23.9-20.2,33.1-20.2,33.1c-46.7,21-105.9,30.9-125.3,26.1c-19.5-4.8-89.3-12.8-89.3-12.8V108.1
			L93.1,108.1z"/>
		<path id="XMLID_26386_" fill="#231F20" d="M181.4,127.6c-19.4-4.8-87.7-16.4-87.7-16.4c0-17.1,0-48,0-93
			c5.2-0.9,69.1-12.2,87.7-16.7c20.9-5.1,81.1,5.3,128,26.3c14.2,6.1,22.8,21.4,22.6,36.7c0.4,15.1-8.6,30.8-22.6,36.8
			C262.5,122.3,202.3,132.7,181.4,127.6L181.4,127.6z"/>
		<path id="XMLID_26385_" fill="#AF6745" stroke="#231F20" stroke-width="1.5222" stroke-miterlimit="3.8637" d="M104.1,16.9
			c20.5-2.5,63.6-7.9,78.3-11.5c19.5-4.8,78.7,5.1,125.3,26.1c0,0,20.6,8.4,20.2,33c0.8,23.9-20.2,33.1-20.2,33.1
			c-46.7,21-105.9,30.9-125.3,26.1c-13.4-3.3-50.8-8.2-72.7-10.9c11.9-9.5,36.5-34.1,37.7-57.4C148.3,34.9,118.6,21.9,104.1,16.9
			L104.1,16.9z"/>
		
			<path id="XMLID_26384_" fill="none" stroke="#2E2A25" stroke-width="0.7611" stroke-miterlimit="3.8637" stroke-dasharray="3.0445,3.0445" d="
			M97.9,19.1c15-2.7,67.5-12,84-16.1c20.2-5,79.9,5.2,126.7,26.2c13.3,5.7,21.6,20.2,21.4,34.8c0.4,14.3-8.3,29.3-21.4,34.9
			c-46.8,21-106.5,31.2-126.6,26.2c-16.7-4.1-69.4-13.3-84-15.8"/>
		<path id="XMLID_26383_" fill="#AF6745" stroke="#231F20" stroke-width="1.5222" stroke-miterlimit="3.8637" d="M22.7,45.7
			c0,0-15.3,18.4,0,38.2c0,0-10,7.3-20.1-5c0,0-6-11.2,0.3-29.1C2.9,49.8,10.2,42.7,22.7,45.7L22.7,45.7z"/>
		<path id="XMLID_26382_" fill="#AF6745" stroke="#231F20" stroke-width="1.5222" stroke-miterlimit="3.8637" d="M187.5,94.8V34.7
			h-45.4l-17.9,4.7c0,0-5,2.4-4.1,6.9c0.9,4.5,5.3,8.7,5.9,18.2c-0.9,8.8-5,13.7-5.9,18.2c-0.9,4.5,4.1,6.9,4.1,6.9l17.9,4.7
			L187.5,94.8L187.5,94.8z"/>
		
			<path id="XMLID_26379_" fill="none" stroke="#231F20" stroke-width="0.7611" stroke-miterlimit="3.8637" stroke-dasharray="3.0445,3.0445" d="
			M20.5,45.7c0,0-15.3,18.4,0,38.2 M145.3,92.1l-2.9,0l-17.5-4.6c-0.7-0.4-3.4-2-2.9-4.6c0.2-0.9,0.5-1.9,1-3.1
			c0.5-1.2,1.1-2.5,1.8-4c1.3-3,2.6-6.6,3.1-11.3l0-0.3c-0.3-5.1-1.7-8.8-3-11.7c-0.6-1.4-1.3-2.6-1.9-3.8c-0.5-1.1-0.9-2.1-1.1-3
			c-0.5-2.6,2.2-4.2,2.9-4.6l17.5-4.6h3"/>
		<path id="XMLID_26378_" fill="#AF6745" stroke="#231F20" stroke-width="1.5222" stroke-miterlimit="3.8637" d="M188,110.1
			c0,0-177,15.9-185.4-31.5c0,0,7.9,8,20.4,4.7c0,0,49.4,23.2,81.7,17.5c32.3-5.7,24.3-31.2,42.8-31.2c18.5,0,38.4,4.7,38.4,4.7
			S203.6,83.3,188,110.1L188,110.1z"/>
		<path id="XMLID_26377_" fill="#AF6745" stroke="#231F20" stroke-width="1.5222" stroke-miterlimit="3.8637" d="M188,19.1
			c0,0-177-15.9-185.4,31.5c0,0,7.9-8,20.4-4.7c0,0,49.4-23.2,81.7-17.5c32.3,5.7,24.3,31.2,42.8,31.2c18.5,0,38.4-4.7,38.4-4.7
			S203.6,45.9,188,19.1L188,19.1z"/>
		
			<path id="XMLID_26372_" fill="none" stroke="#231F20" stroke-width="0.7611" stroke-miterlimit="3.8637" stroke-dasharray="3.0445,3.0445" d="
			M22.8,85.2c2.8,1.3,14,6.2,28.3,10.7c16.4,5.1,37.3,9.6,54,6.7c16.9-3,23.4-11.3,27.9-18.7c1.1-1.8,2.1-3.5,3-5.1
			c1-1.5,1.9-2.9,3-4c2-2.1,4.4-3.4,8.5-3.4c17,0,35.2,4,37.6,4.6l0.4,0.2c0.4,0.3,0.9,0.7,1.6,1.2c1.2,1.1,2.8,2.8,3.9,5.3
			c2.1,4.7,2.8,12.7-4.2,25.1 M23.1,43.7c2.8-1.3,14-6.2,28.3-10.7c16.4-5.1,37.3-9.6,54-6.7c16.9,3,23.4,11.3,27.9,18.7
			c1.1,1.8,2.1,3.5,3,5.1c1,1.5,1.9,2.9,3,4c2,2.1,4.4,3.4,8.5,3.4c17,0,35.2-4,37.6-4.6l0.4-0.2c0.4-0.3,0.9-0.7,1.6-1.2
			c1.2-1.1,2.8-2.8,3.9-5.3c2.1-4.7,2.8-12.7-4.2-25.1 M125.7,90.8l33.7,6c0,0,5.9,0.4,3.8,5.4c-2.1,5-3.8,9.3-3.8,9.3 M125.7,37.9
			l33.7-6c0,0,5.9-0.4,3.8-5.4c-2.1-5-3.8-9.3-3.8-9.3"/>
		<path id="XMLID_26371_" fill="#231F20" d="M146.3,81.2c0,0,6.8-18.8,0-33.9c-0.5-1.2,1.3-2.1,1.8-0.8c4.5,10.2,3.8,25,0,35.5
			C147.8,83.2,145.9,82.5,146.3,81.2L146.3,81.2z"/>
		<path id="XMLID_26370_" fill="#231F20" d="M163.5,81.2c0,0,6.8-18.8,0-33.9c-0.5-1.2,1.3-2.1,1.8-0.8c4.5,10.2,3.8,25,0,35.5
			C164.9,83.2,163,82.5,163.5,81.2L163.5,81.2z"/>
		<path id="XMLID_26369_" fill="#231F20" d="M177.7,84c0,0,7.8-21.7,0-39.2c-0.6-1.4,1.5-2.4,2.1-0.9c5.2,11.8,4.4,28.9,0,41
			C179.4,86.2,177.2,85.4,177.7,84L177.7,84z"/>
		<path id="XMLID_26368_" fill="#231F20" d="M145.2,46.8c0-1.1,0.9-2.1,2.1-2.1c1.1,0,2.1,0.9,2.1,2.1c0,1.1-0.9,2.1-2.1,2.1
			C146.1,48.9,145.2,48,145.2,46.8L145.2,46.8z"/>
		<path id="XMLID_26367_" fill="#231F20" d="M162,44.8c0-1.1,0.9-2.1,2.1-2.1s2.1,0.9,2.1,2.1c0,1.1-0.9,2.1-2.1,2.1
			S162,45.9,162,44.8L162,44.8z"/>
		<polygon id="XMLID_26366_" fill="#2E2A25" stroke="#231F20" stroke-width="1.5222" stroke-miterlimit="3.8637" points="26.6,56.2 
			100.5,56.2 100.5,72.8 26.6,72.8 26.6,56.2 		"/>
		
			<path id="XMLID_26358_" fill="none" stroke="#231F20" stroke-width="0.7611" stroke-miterlimit="3.8637" stroke-dasharray="3.0445,3.0445" d="
			M98.5,58.2v12.5H28.6V58.2H98.5L98.5,58.2z M185,72.9V55.4 M185.1,108.3l2.7-8.1l-8.5-1.2 M182.8,109.7l2.7-8.1l-6.7-0.9"/>
	</g>
</g>
</svg>
