<?xml version="1.0" encoding="utf-8"?>
<!-- Generator: Adobe Illustrator 17.1.0, SVG Export Plug-In . SVG Version: 6.00 Build 0)  -->
<!DOCTYPE svg PUBLIC "-//W3C//DTD SVG 1.1//EN" "http://www.w3.org/Graphics/SVG/1.1/DTD/svg11.dtd">
<svg version="1.1" id="Layer_1" xmlns="http://www.w3.org/2000/svg" xmlns:xlink="http://www.w3.org/1999/xlink" x="0px" y="0px"
	 viewBox="0 0 602.8 361.9" enable-background="new 0 0 602.8 361.9" xml:space="preserve">
<g>
	<g>
		<path fill="#D6145A" d="M221.6,50.6L40.2,236.8c0.5,0.7,0.9,1.3,1.3,2c12.2,19.2,12.6,49.7,34,65c12.5,8.9,31.3,9.8,49.7,11.9
			L251.9,72.2C239.9,66.7,229.6,59.3,221.6,50.6z"/>
		<path fill="#D6145A" d="M203.9,7.4c0-2.5,0.2-5,0.5-7.4c-17.9,9.6-32.8,26.5-50.4,33.2c-25.1,9.6-59.2,4.2-78.5,18
			c-21.4,15.3-21.8,45.8-34,65C28.5,136.7,0,154.1,0,177.5c0,6.1,2,11.9,5.1,17.3L220.5,49.4C210,37.4,203.9,22.9,203.9,7.4z"/>
		<path fill="#D6145A" d="M301.4,82.6c-16.8,0-32.6-3.3-46.4-9l-78.8,261.5c14.1,10.6,28.1,23.1,45.6,26.1
			c17.8,3.1,37.4-5.4,57.1-10.4l24.2-268.3C302.5,82.6,302,82.6,301.4,82.6z"/>
		<path fill="#D6145A" d="M561.3,116.2c-12.2-19.2-12.6-49.7-34-65c-19.3-13.7-53.4-8.4-78.5-18C431.2,26.5,416.3,9.6,398.4,0
			c0.3,2.4,0.5,4.9,0.5,7.4c0,8.3-1.8,16.3-5,23.8L591,197.2l0.1,7.1c6.7-8.3,11.7-17.1,11.7-26.8
			C602.8,154.1,574.3,136.7,561.3,116.2z"/>
		<path fill="#D6145A" d="M360,67.5l121.4,247.8c17.2-1.9,34.3-3.2,45.9-11.5c21.4-15.3,21.8-45.8,34-65c2.3-3.5,5-7,7.9-10.4
			L392.1,35C385.5,48,374.3,59.2,360,67.5z"/>
		<path fill="#D6145A" d="M305.7,82.5L326,351.4c18.9,5,37.8,12.8,55,9.8c23-4,39.9-24.2,58.9-35.2l-80-258.5
			C344.7,76.4,326,81.8,305.7,82.5z"/>
	</g>
	<g>
		<path fill="#9F1717" d="M220.5,49.4L5.1,194.8c8.4,14.7,25.2,27.6,35.1,42L221.6,50.6C221.2,50.2,220.9,49.8,220.5,49.4z"/>
		<path fill="#9F1717" d="M360,67.5C360,67.5,360,67.5,360,67.5L439.9,326c2.9-1.7,5.8-3.1,8.8-4.3c9.9-3.8,21.3-5.3,32.6-6.5
			L360,67.5z"/>
		<path fill="#9F1717" d="M591,197.2L393.9,31.2c-0.6,1.3-1.2,2.6-1.8,3.8l177.1,193.4c7-8.1,15.3-15.9,21.9-24.1L591,197.2z"/>
		<path fill="#9F1717" d="M303.1,82.6l-24.2,268.3c7.5-1.9,15.1-3.3,22.5-3.3c8.1,0,16.4,1.6,24.6,3.8L305.7,82.5
			C304.8,82.5,304,82.6,303.1,82.6z"/>
		<path fill="#9F1717" d="M251.9,72.2L125.3,315.7c10,1.2,19.9,2.7,28.7,6c7.7,3,15,7.9,22.2,13.4L255,73.5
			C254,73.1,252.9,72.6,251.9,72.2z"/>
	</g>
</g>
</svg>
