<?xml version="1.0" encoding="utf-8"?>
<!-- Generator: Adobe Illustrator 17.1.0, SVG Export Plug-In . SVG Version: 6.00 Build 0)  -->
<!DOCTYPE svg PUBLIC "-//W3C//DTD SVG 1.1//EN" "http://www.w3.org/Graphics/SVG/1.1/DTD/svg11.dtd">
<svg version="1.1" xmlns="http://www.w3.org/2000/svg" xmlns:xlink="http://www.w3.org/1999/xlink" x="0px" y="0px"
	 viewBox="0 0 640 425" enable-background="new 0 0 640 425" xml:space="preserve">
<g id="RED_SHOES">
	<g id="XMLID_27053_">
		<path id="XMLID_27061_" fill="#9F1717" d="M304.5,192.7c0,0,5.6,35.3,6.5,53.4c0.7,13.8-6.5,76.6-13.8,100.1
			c-5.7,18.3-13.4,54-25.2,66.2s-24.1,7.5-28.2,7.3s-23.5-5.1-29.1-13.7c-5.6-8.6-16.8-40.5-18.3-70.2
			c-1.5-29.7,6.6-82.1,13.9-103.6s21.5-50.6,21.5-50.6s43.2-27,49.1-25.5C286.7,157.7,285.7,143.3,304.5,192.7z"/>
		<path id="XMLID_27055_" fill="#FEBFAD" d="M304.9,160.1c0,0-1.1,21.8-0.9,26.4c0.2,4.6,0.3,62.5-0.6,70.9
			c-1,8.5-2.8,71.6-27.6,89.1c-24.9,17.5-52.9,1-58-11.1c-11.6-27.8-10.9-59.9-7.2-78.4C213,245,227.7,184,231.4,175l2-20.5
			l-0.6-67.1l87,13.1L304.9,160.1z"/>
		<path id="XMLID_27054_" opacity="0.18" fill="#FFFFFF" d="M203.5,324.6c-0.1-0.7-1.1-0.6-1.1,0.1c1,13.2,2.7,34,4.5,42
			c3.5,15.2,8.8,30.5,14.8,34c3.4,2,7.1-5.8,6.6-11.1C227.8,384.7,213.8,383.2,203.5,324.6z"/>
	</g>
	<g id="XMLID_29_">
		<path id="XMLID_60_" fill="#9F1717" d="M344.3,192.1c0,0-5.8,35.3-6.7,53.4c-0.7,13.8,6.1,76.6,13.3,100.2
			c5.6,18.3,13.2,54.1,24.9,66.3c11.7,12.2,24.1,7.6,28.1,7.4s23.5-5,29.2-13.5c5.7-8.6,17-40.4,18.6-70.1
			c1.6-29.7-6.2-82.1-13.4-103.7s-21.2-50.7-21.2-50.7s-43.1-27.2-49-25.7C362.3,157.1,363.4,142.7,344.3,192.1z"/>
		<path id="XMLID_59_" fill="#FEBFAD" d="M344.1,159.5c0,0,1,21.8,0.7,26.4c-0.2,4.6-0.6,62.5,0.3,70.9c0.9,8.5,2.4,71.6,27.2,89.2
			c24.8,17.6,52.9,1.2,58-10.8c11.7-27.7,11.2-59.9,7.6-78.3c-2.4-12.1-16.7-73.2-20.4-82.2l-1.9-20.5l0.9-67.1l-87.1,12.6
			L344.1,159.5z"/>
		<path id="XMLID_58_" opacity="0.18" fill="#FFFFFF" d="M444.7,324.5c0.1-0.7,1.1-0.6,1.1,0.1c-1,13.2-2.8,34-4.7,42
			c-3.5,15.1-8.9,30.5-14.9,33.9c-3.4,2-7.1-5.8-6.6-11.1C420.1,384.4,434.1,383.1,444.7,324.5z"/>
	</g>
</g>
<g id="Dress">
	<g>
		<g>
			<path fill="#D6145A" d="M241.8-124.1L60.4,62.1c0.5,0.7,0.9,1.3,1.3,2c12.2,19.2,12.6,49.7,34,65c12.5,8.9,31.3,9.8,49.7,11.9
				l126.6-243.5C260.1-108,249.8-115.4,241.8-124.1z"/>
			<path fill="#D6145A" d="M224.1-167.3c0-2.5,0.2-5,0.5-7.4c-17.9,9.6-32.8,26.5-50.4,33.2c-25.1,9.6-59.2,4.2-78.5,18
				c-21.4,15.3-21.8,45.8-34,65C48.7-38,20.2-20.7,20.2,2.8c0,6.1,2,11.9,5.1,17.3l215.4-145.5C230.2-137.3,224.1-151.8,224.1-167.3
				z"/>
			<path fill="#D6145A" d="M321.6-92.1c-16.8,0-32.6-3.3-46.4-9l-78.8,261.5c14.1,10.6,28.1,23.1,45.6,26.1
				c17.8,3.1,37.4-5.4,57.1-10.4l24.2-268.3C322.7-92.1,322.2-92.1,321.6-92.1z"/>
			<path fill="#D6145A" d="M581.4-58.5c-12.2-19.2-12.6-49.7-34-65c-19.3-13.7-53.4-8.4-78.5-18c-17.5-6.7-32.4-23.6-50.4-33.2
				c0.3,2.4,0.5,4.9,0.5,7.4c0,8.3-1.8,16.3-5,23.8L611.2,22.5l0.1,7.1C618,21.3,623,12.5,623,2.8C623-20.7,594.5-38,581.4-58.5z"/>
			<path fill="#D6145A" d="M380.2-107.2l121.4,247.8c17.2-1.9,34.3-3.2,45.9-11.5c21.4-15.3,21.8-45.8,34-65c2.3-3.5,5-7,7.9-10.4
				L412.3-139.7C405.7-126.7,394.4-115.5,380.2-107.2z"/>
			<path fill="#D6145A" d="M325.9-92.2l20.3,268.9c18.9,5,37.8,12.8,55,9.8c23-4,39.9-24.2,58.9-35.2l-80-258.5
				C364.9-98.4,346.2-92.9,325.9-92.2z"/>
		</g>
		<g>
			<path fill="#9F1717" d="M240.7-125.4L25.3,20.1c8.4,14.7,25.2,27.6,35.1,42l181.4-186.2C241.4-124.5,241-125,240.7-125.4z"/>
			<path fill="#9F1717" d="M380.2-107.2C380.2-107.2,380.1-107.2,380.2-107.2l79.9,258.5c2.9-1.7,5.8-3.1,8.8-4.3
				c9.9-3.8,21.3-5.3,32.6-6.5L380.2-107.2z"/>
			<path fill="#9F1717" d="M611.2,22.5L414.1-143.5c-0.6,1.3-1.2,2.6-1.8,3.8L589.4,53.7c7-8.1,15.3-15.9,21.9-24.1L611.2,22.5z"/>
			<path fill="#9F1717" d="M323.3-92.1l-24.2,268.3c7.5-1.9,15.1-3.3,22.5-3.3c8.1,0,16.4,1.6,24.6,3.8L325.9-92.2
				C325-92.2,324.2-92.2,323.3-92.1z"/>
			<path fill="#9F1717" d="M272.1-102.6L145.5,141c10,1.2,19.9,2.7,28.7,6c7.7,3,15,7.9,22.2,13.4l78.8-261.5
				C274.1-101.6,273.1-102.1,272.1-102.6z"/>
		</g>
	</g>
</g>
</svg>
