<?xml version="1.0" encoding="utf-8"?>
<!-- Generator: Adobe Illustrator 17.1.0, SVG Export Plug-In . SVG Version: 6.00 Build 0)  -->
<!DOCTYPE svg PUBLIC "-//W3C//DTD SVG 1.1//EN" "http://www.w3.org/Graphics/SVG/1.1/DTD/svg11.dtd">
<svg version="1.1" id="Layer_1" xmlns="http://www.w3.org/2000/svg" xmlns:xlink="http://www.w3.org/1999/xlink" x="0px" y="0px"
	 viewBox="0 0 122.6 333.2" enable-background="new 0 0 122.6 333.2" xml:space="preserve">
<g id="XMLID_29_">
	<path id="XMLID_60_" fill="#9F1717" d="M15,104.9c0,0-5.8,35.3-6.7,53.4c-0.7,13.8,6.1,76.6,13.3,100.2
		c5.6,18.3,13.2,54.1,24.9,66.3s24.1,7.6,28.1,7.4s23.5-5,29.2-13.5c5.7-8.6,17-40.4,18.6-70.1c1.6-29.7-6.2-82.1-13.4-103.7
		S87.8,94.2,87.8,94.2S44.6,67,38.8,68.5C33,70,34.1,55.6,15,104.9z"/>
	<path id="XMLID_59_" fill="#FEBFAD" d="M14.8,72.3c0,0,1,21.8,0.7,26.4s-0.6,62.5,0.3,70.9c0.9,8.5,2.4,71.6,27.2,89.2
		c24.8,17.6,52.9,1.2,58-10.8c11.7-27.7,11.2-59.9,7.6-78.3c-2.4-12.1-16.7-73.2-20.4-82.2l-1.9-20.5L87.1,0L0,12.6L14.8,72.3z"/>
	<path id="XMLID_58_" opacity="0.18" fill="#FFFFFF" d="M115.4,237.3c0.1-0.7,1.1-0.6,1.1,0.1c-1,13.2-2.8,34-4.7,42
		c-3.5,15.1-8.9,30.5-14.9,33.9c-3.4,2-7.1-5.8-6.6-11.1C90.8,297.3,104.8,295.9,115.4,237.3z"/>
</g>
</svg>
