<?xml version="1.0" encoding="utf-8"?>
<!-- Generator: Adobe Illustrator 17.1.0, SVG Export Plug-In . SVG Version: 6.00 Build 0)  -->
<!DOCTYPE svg PUBLIC "-//W3C//DTD SVG 1.1//EN" "http://www.w3.org/Graphics/SVG/1.1/DTD/svg11.dtd">
<svg version="1.1" id="Layer_1" xmlns="http://www.w3.org/2000/svg" xmlns:xlink="http://www.w3.org/1999/xlink" x="0px" y="0px"
	 viewBox="0 0 123.7 333.3" enable-background="new 0 0 123.7 333.3" xml:space="preserve">
<g id="XMLID_27053_">
	<path id="XMLID_27061_" fill="#9F1717" d="M108.2,105.3c0,0,5.6,35.3,6.5,53.4c0.7,13.8-6.5,76.6-13.8,100.1
		c-5.7,18.3-13.4,54-25.2,66.2s-24.1,7.5-28.2,7.3s-23.5-5.1-29.1-13.7S1.6,278.1,0.2,248.4s6.6-82.1,13.9-103.6
		s21.5-50.6,21.5-50.6s43.2-27,49.1-25.5S89.4,55.8,108.2,105.3z"/>
	<path id="XMLID_27055_" fill="#FEBFAD" d="M108.6,72.7c0,0-1.1,21.8-0.9,26.4c0.2,4.6,0.3,62.5-0.6,70.9s-2.8,71.6-27.6,89.1
		s-52.9,1-58-11.1c-11.6-27.8-10.9-59.9-7.2-78.4c2.4-12.1,17.1-73.2,20.8-82.1l2-20.5L36.6,0l87,13.1L108.6,72.7z"/>
	<path id="XMLID_27054_" opacity="0.18" fill="#FFFFFF" d="M7.2,237.2c-0.1-0.7-1.1-0.6-1.1,0.1c1,13.2,2.7,34,4.5,42
		c3.5,15.2,8.8,30.5,14.8,34c3.4,2,7.1-5.8,6.6-11.1C31.5,297.3,17.5,295.8,7.2,237.2z"/>
</g>
</svg>
