<?xml version="1.0" encoding="utf-8"?>
<!-- Generator: Adobe Illustrator 17.1.0, SVG Export Plug-In . SVG Version: 6.00 Build 0)  -->
<!DOCTYPE svg PUBLIC "-//W3C//DTD SVG 1.1//EN" "http://www.w3.org/Graphics/SVG/1.1/DTD/svg11.dtd">
<svg version="1.1" xmlns="http://www.w3.org/2000/svg" xmlns:xlink="http://www.w3.org/1999/xlink" x="0px" y="0px"
	 viewBox="0 0 328 109" enable-background="new 0 0 328 109" xml:space="preserve">
<g id="Layer_1">
</g>
<g id="RED_SHOES">
	<g id="XMLID_14_">
		<path id="XMLID_38_" fill="#9F1717" d="M93.7,20.5c0,0,33.9-11.6,51.5-15.5c13.5-3,76.6-6.7,101-3.5c19,2.5,55.5,4,69.5,13.5
			s11.5,22.5,12,26.5s-1,24-8.5,31s-37,23.5-66,30s-82,7.5-104.5,4S95.2,94,95.2,94s-34-38-33.5-44S48.2,47.5,93.7,20.5z"/>
		<path id="XMLID_32_" fill="#FEBFAD" d="M61.5,25.7c0,0,21.7-2.7,26.2-3.7s61.5-11,70-11.5s71-9.5,92.5,12s10,52-1,59
			c-25.4,16.2-57.2,21-76,20.5c-12.3-0.3-75-4.3-84.5-6.5L68.2,97l-66,12l-2-88L61.5,25.7z"/>
		<path id="XMLID_30_" opacity="0.18" fill="#FFFFFF" d="M240.9,97.8c-0.6,0.2-0.4,1.2,0.3,1c12.8-3.2,33.1-8.5,40.6-11.6
			c14.3-6,28.6-13.9,31-20.4c1.4-3.7-6.9-6-12-4.6C296,63.5,296.9,77.6,240.9,97.8z"/>
	</g>
</g>
</svg>
