<?xml version="1.0" encoding="utf-8"?>
<!-- Generator: Adobe Illustrator 17.1.0, SVG Export Plug-In . SVG Version: 6.00 Build 0)  -->
<!DOCTYPE svg PUBLIC "-//W3C//DTD SVG 1.1//EN" "http://www.w3.org/Graphics/SVG/1.1/DTD/svg11.dtd">
<svg version="1.1" id="Layer_1" xmlns="http://www.w3.org/2000/svg" xmlns:xlink="http://www.w3.org/1999/xlink" x="0px" y="0px"
	 viewBox="2 94.3 610 588.5" enable-background="new 2 94.3 610 588.5" xml:space="preserve">
<g id="CHUCKS">
	<path id="XMLID_23870_" fill="#000005" d="M462.2,403.3c4.7,11.1,9.5,32.5,12.5,50.1c3,17.6,5.4,40.6,3.8,56.6
		c-1.6,16-4.9,28.6-4.9,28.6s0.8,9.3-2.7,22.6c-3.7,13.3-17.3,54.4-23.4,66c-6.1,11.8-20,32.2-40.3,34.8
		c-20.3,2.4-50.1,3.1-61.6-12.9c-11.5-16-25-49-27.5-63.6s-1.8-42.6-1.8-49s0.3-42.6,1.4-54.1s5-24.4,4.3-36.3
		c-0.7-11.9-5.8-29.5-5.8-35.5c0-6,128.3-9.5,128.3-9.5L462.2,403.3z"/>
	<path id="XMLID_23869_" fill="#000005" d="M307.5,422.8c0.4,24.8-0.4,35.6,0.9,55.1c1.4,19.4,4.6,48.3,3.7,61.8
		c-0.8,10.3-0.8,20-2.3,30.9c-0.5,3.4-1.2,7-2,10.7C304,596.8,290.2,637,276,653c-14.2,16-32.8,25.4-49.4,24.4s-46-12.5-56.8-43.3
		c-10.8-30.9-14.6-66.6-15.6-78.5c-0.9-11.9-0.3-52.5,2-71.5s14.6-70.1,17.3-77.8L307.5,422.8z"/>
	<path id="XMLID_23868_" fill="#000005" d="M307.5,422.8c0.4,24.8-0.4,35.6,0.9,55.1c1.4,19.4,4.6,48.3,3.7,61.8
		c-0.8,10.3-0.8,20-2.3,30.9c-0.5,3.4-1.2,7-2,10.7C304,596.8,290.2,637,276,653c-14.2,16-32.8,25.4-49.4,24.4s-46-12.5-56.8-43.3
		c-10.8-30.9-14.6-66.6-15.6-78.5c-0.9-11.9-0.3-52.5,2-71.5s14.6-70.1,17.3-77.8L307.5,422.8z"/>
	<path id="XMLID_23867_" fill="#021F31" stroke="#FFFFFF" stroke-linecap="round" stroke-dasharray="1,3" d="M302.1,434.4
		c0.5,5,2,32.8,2.6,38.7c0.5,6,3.4,36.1,4.2,51.3c0.5,10.8,0.7,23.4,1.9,35.6c0.5-6.9,0.7-13.5,1.2-20.4c1.1-13.5-2.3-42.4-3.7-61.8
		c-1.4-18.9-0.5-29.8-0.8-53.6C304.9,427.3,301.7,431.5,302.1,434.4z"/>
	<path id="XMLID_23866_" fill="#021F31" d="M454.7,590.9l3.7-3c0,0,0.7-9.5,1.1-11.9c0.4-2.4-1.8-1.6-1.8-1.6l-6.1-2.7
		c0,0,3.4-13.8,3-24.4c-0.4-10.6-0.4-22.6-0.4-27.5c0-5-1.4-13.9,0.9-18.9c2.3-5,1.4-22.6,1.1-29.8c-0.3-7.2-0.7-28.2-2.7-32.8
		c-2-4.5-6.4-10.4-6.4-10.4l-39,36.3c0,0-0.7,9.9,0.9,18.9s1.4,14.9,1.6,18.7c0.3,3.8-1.1,8.4-2.7,12.5c-1.6,4.1-5,22.7-0.3,33.4
		c4.7,10.6,19.6,23,22.6,25c3,2,20.3,14.6,20.3,14.6L454.7,590.9z"/>
	<path id="XMLID_23865_" fill="#021F31" stroke="#FFFFFF" stroke-linecap="round" stroke-dasharray="1,3" d="M327.5,588.3l-0.7-5.1
		c0,0,15.6-9.2,24.4-14.2c8.8-5,18-5.1,21.2-31.8c3.1-26.7,2.7-48.7-2-63.3s-43.3-45.7-43.3-45.7s4.1,20,4.3,29.4
		c0.3,9.2,0,42.4,0,47.6c0,5.1,1.4,20.6,2,25.3c0.7,4.7-0.3,25.7-1.4,30.5c-1.1,4.7-1.6,8.8-1.6,8.8l-8.4,4.7c0,0,1.1,9.9,3.7,12.5
		C328.2,589,327.5,588.3,327.5,588.3z"/>
	<path id="XMLID_23864_" fill="#021F31" stroke="#FFFFFF" stroke-linecap="round" stroke-dasharray="1,3" d="M334.4,440.8
		c13.5,11.9,28.7,27.1,31.1,34.5c4.3,13.4,5,34.6,1.8,61.3c-2.4,20-7.7,22.6-14.6,26c-1.4,0.7-2.7,1.4-4.1,2
		c-6.4,3.5-16.1,9.3-21.2,12.3v-0.1l7.6-4.3l0.3-2.6c0,0,0.4-3.8,1.5-8.3c1.2-5.1,2.2-26.9,1.5-32.3c-0.7-4.6-2-19.8-2-24.5
		c0-1.2,0-3.8,0-7.2c0-11.6,0.1-33.3,0-40.5C336.2,452.8,335.4,446.5,334.4,440.8L334.4,440.8z"/>
	<path id="XMLID_23863_" fill="#021F31" d="M319.8,581.1c0,0-0.3-109.2,2.7-121.8l-7,44.4v13.1l0.4,48.7L319.8,581.1z"/>
	<path id="XMLID_23862_" fill="#021F31" d="M464.2,414.4c15.2,40.6,10.6,92.4,7.8,115.7c-2.3,20.3-10.2,55.8-12,64.6
		c4.6-13.4,9.1-27.1,10.8-33.7c3.7-13.3,4.2-22.5,4.2-22.5s1.8-12.9,3.5-28.7c1.8-15.8-0.7-39-3.8-56.6c-3-17.6-7.8-39-12.5-50.1
		l-1.2-0.1L464.2,414.4z"/>
	<path id="XMLID_23861_" fill="#021F31" stroke="#FFFFFF" stroke-linecap="round" stroke-dasharray="1,3" d="M293.5,604.6
		c2.4-4.1,5.4-14.1,5.4-15.4s-7.3-2-8-4.3c-0.7-2.3,5.1-31.7,4.6-46.2c-0.5-14.5-1.9-28.7-2.2-37.6s3-50.8,3-56.2l-44,10.8
		c0,0-6.5,36.3-6.8,54.1c-0.3,17.9,0.5,39,2.2,47.1c1.6,8.1,8.4,20.4,19.2,25.4c10.8,5,17.3,8.1,19.1,8.9c1.8,0.8,0.1,10.2,0.1,10.2
		L293.5,604.6z"/>
	<path id="XMLID_23794_" fill="#021F31" stroke="#FFFFFF" stroke-linecap="round" stroke-dasharray="1,3" d="M291.1,451.4
		c-0.3,3.2-0.5,7.4-0.8,11.8c-1.1,15.3-2.2,32.5-1.9,38.2c0.1,3.8,0.4,8.5,0.8,13.9c0.5,7.2,1.1,15.4,1.4,23.7
		c0.3,8.5-1.8,22.6-3.1,32.9c-1.4,9.6-1.6,12.2-1.4,13.9c-0.1,0-0.3-0.1-0.4-0.1c-3.2-1.6-8.7-4.2-16.5-7.7
		c-9.6-4.3-15.2-15.7-16.5-21.8c-1.5-7.3-2.4-27.5-2-45.9c0.3-14.3,4.6-41,6.1-50.2L291.1,451.4z M291.8,591.4
		c0.4,0.1,0.9,0.4,1.4,0.5c-0.3,0.9-0.7,2-1.1,3.1C292.2,593.6,292.1,592.5,291.8,591.4L291.8,591.4z"/>
	<path id="XMLID_23793_" fill="#021F31" stroke="#FFFFFF" stroke-linecap="round" stroke-dasharray="1,3" d="M164.8,592.4
		c0-4.1,1.4-13.8,3.5-15.7c2.2-1.9,2.8-2.4,3.9-6c1.1-3.5,5.1-44.7,4.6-54s-0.8-18.3,0-22.3s0.1-22.7-0.3-24.9
		c-0.4-2.2-0.7-26.9,1.9-31.1c2.6-4.2,7-3,7-3l23.7,19.6c0,0,5.4,30.2,5.4,43.7s4.1,49.4-3.4,62c-7.4,12.6-20,12.9-21,19.2
		c-0.9,6.4-3,11.1-3,11.1L164.8,592.4z"/>
	<path id="XMLID_23792_" fill="#021F31" stroke="#FFFFFF" stroke-linecap="round" stroke-dasharray="1,3" d="M204.5,457.7
		c1.1,6.6,5,29.9,5,41c0,3.1,0.1,7.3,0.4,12c0.7,14.5,1.9,38.8-3.1,47.2c-3.4,5.7-8,8.4-12.2,10.8c-4.2,2.4-8.7,5-9.5,10.3
		c-0.4,2.8-1.1,5.4-1.8,7.2l-13.3,0.8c0.4-3,1.1-5.8,1.6-6.9c2.7-2.3,3.9-3.7,5.1-8.1c1.2-4.3,5.3-46,4.7-55.6
		c-0.3-5.1-0.9-17.1-0.1-21c0.9-4.7,0.3-23.5-0.3-26.8c-0.5-3.4-0.3-24.1,1.4-27.6c0.3-0.4,0.4-0.5,0.8-0.7L204.5,457.7z"/>
	<path id="XMLID_20975_" fill="#FFFFFF" d="M446.6,427.7c0.1,0,0.4,0.1,0.5,0.3c0.3,0.3,0.3,0.7,0,0.9l-0.9,0.9
		c-0.3,0.3-0.7,0.3-0.9,0c-0.3-0.3-0.3-0.7,0-0.9l0.9-0.9C446.3,427.8,446.5,427.7,446.6,427.7z M449.1,430.1c0.3,0,0.4,0.1,0.5,0.3
		c0.3,0.4,0.5,0.7,0.8,1.1c0.1,0.3,0.1,0.7-0.1,0.9c-0.3,0.1-0.7,0.1-0.9-0.3s-0.5-0.8-0.7-1.1c-0.3-0.3-0.1-0.7,0.1-0.9
		C448.8,430.1,448.9,430.1,449.1,430.1z M442.7,431.5c0.1,0,0.4,0.1,0.5,0.3c0.3,0.3,0.3,0.7,0,0.9l-0.9,0.9c-0.3,0.3-0.7,0.3-0.9,0
		c-0.3-0.3-0.3-0.7,0-0.9l0.9-0.9C442.3,431.5,442.4,431.5,442.7,431.5z M451.9,434.7c0.3,0,0.4,0.1,0.5,0.4
		c0.3,0.4,0.4,0.8,0.7,1.2c0.1,0.3,0,0.7-0.3,0.9c-0.3,0.1-0.7,0-0.9-0.3c-0.3-0.4-0.4-0.8-0.7-1.2c-0.1-0.3-0.1-0.7,0.3-0.9
		C451.6,434.7,451.8,434.7,451.9,434.7z M438.6,435.1c0.1,0,0.4,0.1,0.5,0.3c0.3,0.3,0.3,0.7,0,0.9l-0.9,0.9c-0.3,0.3-0.7,0.3-0.9,0
		c-0.3-0.3-0.3-0.7,0-0.9l0.9-0.9C438.4,435.1,438.5,435.1,438.6,435.1z M434.7,438.8c0.1,0,0.4,0.1,0.5,0.3c0.3,0.3,0.3,0.7,0,0.9
		l-0.9,0.9c-0.3,0.3-0.7,0.3-0.9,0c-0.3-0.3-0.3-0.7,0-0.9l0.9-0.9C434.4,438.9,434.6,438.8,434.7,438.8z M454.1,439.7
		c0.3,0,0.5,0.3,0.7,0.5c0.1,0.4,0.1,0.8,0.3,1.4c0,0.4-0.1,0.7-0.5,0.8c-0.4,0-0.7-0.1-0.8-0.5s-0.1-0.9-0.3-1.4
		c-0.1-0.4,0.1-0.7,0.5-0.8C453.9,439.7,453.9,439.7,454.1,439.7z M430.8,442.4c0.1,0,0.4,0.1,0.5,0.3c0.3,0.3,0.3,0.7,0,0.9
		l-0.9,0.9c-0.3,0.3-0.7,0.3-0.9,0c-0.3-0.3-0.3-0.7,0-0.9l0.9-0.9C430.4,442.6,430.6,442.4,430.8,442.4z M454.7,445.1
		c0.4,0,0.7,0.3,0.7,0.5c0,0.4,0.1,0.9,0.1,1.4c0,0.4-0.3,0.7-0.7,0.7c-0.4,0-0.7-0.3-0.7-0.7c0-0.4-0.1-0.9-0.1-1.4
		C454.1,445.4,454.3,445.1,454.7,445.1L454.7,445.1z M426.9,446.2c0.1,0,0.4,0.1,0.5,0.3c0.3,0.3,0.3,0.7,0,0.9l-0.9,0.9
		c-0.3,0.3-0.7,0.3-0.9,0c-0.3-0.3-0.3-0.7,0-0.9l0.9-0.9C426.5,446.2,426.6,446.2,426.9,446.2z M422.8,449.9c0.1,0,0.4,0.1,0.5,0.3
		c0.3,0.3,0.3,0.7,0,0.9l-0.9,0.9c-0.3,0.3-0.7,0.3-0.9,0c-0.3-0.3-0.3-0.7,0-0.9l0.9-0.9C422.5,449.9,422.7,449.9,422.8,449.9z
		 M455.3,450.4c0.4,0,0.7,0.3,0.7,0.7l0.1,1.4c0,0.4-0.3,0.7-0.7,0.7c-0.4,0-0.7-0.3-0.7-0.7l-0.1-1.4
		C454.6,450.8,454.9,450.5,455.3,450.4L455.3,450.4z M418.9,453.5c0.1,0,0.4,0.1,0.5,0.3c0.3,0.3,0.3,0.7,0,0.9l-0.9,0.9
		c-0.3,0.3-0.7,0.3-0.9,0c-0.3-0.3-0.3-0.7,0-0.9l0.9-0.9C418.6,453.7,418.7,453.5,418.9,453.5z M455.5,455.8c0.4,0,0.7,0.3,0.7,0.7
		v1.4c0,0.4-0.3,0.7-0.7,0.7c-0.4,0-0.7-0.3-0.7-0.7v-1.4C454.9,456.2,455.1,456,455.5,455.8L455.5,455.8z M414.9,457.2
		c0.1,0,0.4,0.1,0.5,0.3c0.3,0.3,0.3,0.7,0,0.9l-0.9,0.9c-0.3,0.3-0.7,0.3-0.9,0s-0.3-0.7,0-0.9l0.9-0.9
		C414.5,457.3,414.8,457.2,414.9,457.2z M410.9,461c0.1,0,0.4,0.1,0.5,0.3c0.3,0.3,0.3,0.7,0,0.9l-0.9,0.9c-0.3,0.3-0.7,0.3-0.9,0
		s-0.3-0.7,0-0.9l0.9-0.9C410.6,461,410.8,461,410.9,461z M455.8,461.2c0.4,0,0.7,0.3,0.7,0.7v1.4c0,0.4-0.3,0.7-0.7,0.7
		s-0.7-0.3-0.7-0.7v-1.4C455.1,461.6,455.4,461.4,455.8,461.2L455.8,461.2z M407.9,465C408,465,408,465,407.9,465
		c0.4,0,0.7,0.3,0.7,0.7c0,0.4,0,0.8,0,1.4c0,0.4-0.3,0.7-0.7,0.7s-0.7-0.3-0.7-0.7c0-0.5,0-0.9,0-1.4
		C407.4,465.3,407.6,465,407.9,465z M456,466.8c0.4,0,0.7,0.3,0.7,0.7v1.4c0,0.4-0.3,0.7-0.7,0.7c-0.3,0-0.7-0.3-0.7-0.7v-1.4
		C455.3,467.1,455.5,466.8,456,466.8L456,466.8z M407.9,470.4c0.4,0,0.7,0.3,0.7,0.7s0,0.9,0,1.4s-0.3,0.7-0.7,0.7s-0.7-0.3-0.7-0.7
		s0-0.9,0-1.4C407.2,470.8,407.5,470.4,407.9,470.4L407.9,470.4z M456.1,472.2c0.4,0,0.7,0.3,0.7,0.7v1.4c0,0.4-0.3,0.7-0.7,0.7
		s-0.7-0.3-0.7-0.7v-1.4C455.4,472.5,455.8,472.2,456.1,472.2L456.1,472.2z M408.2,475.8c0.4,0,0.7,0.3,0.7,0.7s0.1,0.9,0.1,1.4
		c0,0.4-0.3,0.7-0.7,0.7s-0.7-0.3-0.7-0.7c0-0.4-0.1-0.9-0.1-1.4C407.5,476.3,407.8,475.8,408.2,475.8L408.2,475.8z M456.4,477.6
		c0.4,0,0.7,0.3,0.7,0.7v1.4c0,0.4-0.3,0.7-0.7,0.7s-0.7-0.3-0.7-0.7v-1.4C455.7,477.9,456,477.6,456.4,477.6L456.4,477.6z
		 M408.7,481.3c0.3,0,0.7,0.3,0.7,0.5c0,0.4,0.1,0.8,0.3,1.2c0,0.4-0.1,0.7-0.5,0.8c-0.4,0-0.7-0.1-0.8-0.5
		c-0.1-0.5-0.1-0.9-0.3-1.4C408,481.7,408.3,481.3,408.7,481.3L408.7,481.3z M456.5,483c0.4,0,0.7,0.3,0.7,0.7v1.4
		c0,0.4-0.3,0.7-0.7,0.7l0,0c-0.4,0-0.7-0.3-0.7-0.7v-1.4C455.8,483.3,456.1,483,456.5,483L456.5,483z M409.5,486.7
		c0.3,0,0.7,0.3,0.7,0.5c0,0.4,0.1,0.9,0.1,1.4s-0.3,0.7-0.5,0.8c-0.4,0-0.7-0.3-0.8-0.5c0-0.4-0.1-0.9-0.1-1.4
		C408.9,486.9,409.1,486.7,409.5,486.7L409.5,486.7z M456.5,488.4L456.5,488.4c0.4,0,0.7,0.3,0.7,0.7s0,0.9,0,1.4
		c0,0.4-0.3,0.7-0.7,0.7s-0.7-0.3-0.7-0.7c0-0.4,0-0.9,0-1.4C455.8,488.7,456.1,488.4,456.5,488.4z M410.1,492
		c0.4,0,0.7,0.3,0.7,0.7s0,0.9,0.1,1.4c0,0.4-0.3,0.7-0.7,0.7c-0.4,0-0.7-0.3-0.7-0.7c0-0.4,0-0.9-0.1-1.4
		C409.4,492.4,409.7,492.1,410.1,492L410.1,492z M456.2,493.8L456.2,493.8c0.4,0,0.7,0.4,0.7,0.7c0,0.4-0.1,0.9-0.1,1.4
		c0,0.4-0.4,0.7-0.8,0.5c-0.4,0-0.7-0.4-0.5-0.8c0-0.4,0.1-0.8,0.1-1.4C455.5,494.1,455.8,493.8,456.2,493.8z M410.3,497.4
		c0.4,0,0.7,0.3,0.7,0.7v1.4c0,0.4-0.3,0.7-0.7,0.7c-0.4,0-0.7-0.3-0.7-0.7V498C409.7,497.8,409.9,497.4,410.3,497.4L410.3,497.4z
		 M455.3,499.1h0.1c0.4,0.1,0.5,0.5,0.4,0.8c-0.1,0.4-0.3,0.8-0.4,1.1l-0.1,0.3c-0.1,0.4-0.5,0.5-0.9,0.4c-0.4-0.1-0.5-0.5-0.4-0.9
		l0.1-0.3c0.1-0.3,0.3-0.5,0.4-0.9C454.7,499.3,455,499.1,455.3,499.1z M410.5,502.8C410.5,502.8,410.6,502.8,410.5,502.8
		c0.4,0,0.7,0.3,0.7,0.7s0,0.9-0.1,1.4c0,0.4-0.4,0.7-0.8,0.5c-0.4,0-0.7-0.4-0.5-0.8c0-0.4,0.1-0.8,0.1-1.4
		C409.9,503.1,410.2,502.8,410.5,502.8z M453.9,504.3L453.9,504.3c0.4,0,0.7,0.4,0.7,0.8c0,0.4-0.1,0.8-0.1,1.4
		c0,0.4-0.4,0.7-0.7,0.7c-0.4,0-0.7-0.4-0.7-0.7c0-0.4,0.1-0.9,0.1-1.4C453.2,504.5,453.5,504.3,453.9,504.3z M409.7,508.2h0.1
		c0.4,0.1,0.5,0.4,0.5,0.8c-0.1,0.4-0.3,0.9-0.4,1.4c-0.1,0.4-0.5,0.5-0.8,0.4c-0.4-0.1-0.5-0.5-0.4-0.8c0.1-0.4,0.3-0.8,0.4-1.2
		C409.1,508.3,409.4,508.2,409.7,508.2z M453.7,509.7c0.4,0,0.7,0.3,0.7,0.7c0,0.4,0,0.9,0,1.4c0,0.4-0.3,0.7-0.7,0.7
		s-0.7-0.3-0.7-0.7c0-0.4,0-0.9,0-1.4C453,510.1,453.2,509.7,453.7,509.7L453.7,509.7z M407.9,513.3c0.1,0,0.1,0,0.3,0
		c0.4,0.1,0.5,0.5,0.4,0.8l-0.1,0.4c-0.1,0.3-0.1,0.5-0.3,0.8c-0.1,0.4-0.5,0.5-0.8,0.4c-0.4-0.1-0.5-0.5-0.4-0.8
		c0.1-0.4,0.3-0.7,0.3-0.9l0.1-0.4C407.5,513.5,407.6,513.3,407.9,513.3z M453.9,515.1c0.4,0,0.7,0.3,0.7,0.7l0.1,1.4
		c0,0.4-0.3,0.7-0.7,0.7c-0.4,0-0.7-0.3-0.7-0.7l-0.1-1.4C453.2,515.5,453.5,515.1,453.9,515.1L453.9,515.1z M406.6,518.5
		C406.6,518.5,406.7,518.5,406.6,518.5c0.5,0.1,0.7,0.4,0.7,0.8c-0.1,0.4-0.1,0.8-0.3,1.4c0,0.4-0.4,0.7-0.8,0.5
		c-0.4,0-0.7-0.4-0.5-0.8c0.1-0.4,0.1-0.9,0.3-1.4C406,518.8,406.3,518.5,406.6,518.5z M454.1,520.5L454.1,520.5
		c0.4,0,0.7,0.3,0.7,0.7v1.4h-1.4h0.7h-0.7v-1.4C453.4,520.9,453.7,520.5,454.1,520.5z M405.7,523.9L405.7,523.9
		c0.4,0,0.7,0.4,0.7,0.8c0,0.4-0.1,0.9-0.1,1.4c0,0.4-0.4,0.7-0.7,0.5c-0.4,0-0.7-0.4-0.5-0.7c0-0.4,0.1-0.9,0.1-1.4
		C405.1,524.2,405.3,523.9,405.7,523.9z M454.1,525.9c0.4,0,0.7,0.3,0.7,0.7v1.4c0,0.4-0.3,0.7-0.7,0.7c-0.4,0-0.7-0.3-0.7-0.7v-1.4
		C453.4,526.3,453.7,525.9,454.1,525.9L454.1,525.9z M405.2,529.3C405.2,529.3,405.3,529.3,405.2,529.3c0.4,0,0.7,0.3,0.7,0.7
		c0,0.4,0,0.9,0,1.4s-0.4,0.7-0.7,0.7c-0.4,0-0.7-0.3-0.7-0.7s0-0.9,0-1.4C404.7,529.6,404.9,529.3,405.2,529.3z M454.1,531.3
		c0.4,0,0.7,0.3,0.7,0.7v1.4c0,0.4-0.3,0.7-0.7,0.7c-0.4,0-0.7-0.3-0.7-0.7V532C453.4,531.7,453.8,531.3,454.1,531.3L454.1,531.3z
		 M405.2,534.7c0.4,0,0.7,0.3,0.7,0.7s0,0.9,0,1.4c0,0.4-0.3,0.7-0.7,0.7c-0.4,0-0.7-0.3-0.7-0.7c0-0.4,0-0.9,0-1.4
		S404.8,534.7,405.2,534.7L405.2,534.7z M454.2,536.8c0.4,0,0.7,0.3,0.7,0.7v1.4c0,0.4-0.3,0.7-0.7,0.7c-0.4,0-0.7-0.3-0.7-0.7v-1.4
		C453.5,537.2,453.8,536.8,454.2,536.8L454.2,536.8z M405.6,540c0.3,0,0.7,0.3,0.7,0.5c0,0.4,0.1,0.8,0.3,1.4
		c0.1,0.4-0.1,0.7-0.5,0.8c-0.4,0-0.7-0.1-0.8-0.5s-0.1-0.9-0.3-1.4C404.9,540.4,405.2,540.1,405.6,540L405.6,540z M454.3,542.3
		c0.4,0,0.7,0.3,0.7,0.7v1.4c0,0.4-0.3,0.7-0.7,0.7c-0.4,0-0.7-0.3-0.7-0.7V543C453.7,542.6,453.9,542.3,454.3,542.3L454.3,542.3z
		 M407,545.3c0.3,0,0.5,0.1,0.7,0.4c0.1,0.4,0.3,0.8,0.4,1.2c0.1,0.4,0,0.7-0.4,0.9c-0.4,0.1-0.7,0-0.9-0.4
		c-0.1-0.4-0.4-0.8-0.5-1.4c-0.1-0.4,0-0.7,0.4-0.8C406.8,545.3,406.8,545.3,407,545.3z M454.6,547.6c0.4,0,0.7,0.3,0.7,0.7
		s0,0.7,0,1.1v0.4c0,0.4-0.3,0.7-0.7,0.7l0,0c-0.4,0-0.7-0.3-0.7-0.7v-0.3c0-0.3,0-0.7,0-0.9C453.9,548,454.2,547.6,454.6,547.6
		L454.6,547.6z M409.3,550.2c0.3,0,0.4,0.1,0.5,0.3c0.3,0.4,0.4,0.8,0.7,1.1c0.3,0.3,0.1,0.7-0.1,0.9s-0.7,0.1-0.9-0.1
		c-0.3-0.4-0.5-0.8-0.7-1.2c-0.1-0.3-0.1-0.7,0.3-0.9C409,550.3,409.1,550.2,409.3,550.2z M454.3,553C454.5,553,454.5,553,454.3,553
		c0.4,0,0.7,0.4,0.7,0.7c0,0.4,0,0.9-0.1,1.4c0,0.4-0.4,0.7-0.7,0.7c-0.4,0-0.7-0.4-0.7-0.7c0-0.4,0.1-0.9,0.1-1.4
		C453.8,553.3,454.1,553,454.3,553z M412.2,554.6c0.3,0,0.4,0.1,0.5,0.3c0.3,0.4,0.5,0.7,0.8,1.1c0.3,0.3,0.1,0.7-0.1,0.9
		c-0.3,0.3-0.7,0.1-0.9-0.1c-0.3-0.4-0.5-0.7-0.8-1.1c-0.3-0.3-0.1-0.7,0.1-0.9C412,554.8,412.1,554.6,412.2,554.6z M453.8,558.4
		C453.9,558.4,453.9,558.4,453.8,558.4c0.4,0,0.7,0.4,0.7,0.8s-0.1,0.9-0.1,1.4s-0.4,0.7-0.8,0.5c-0.4,0-0.7-0.4-0.5-0.8
		c0-0.4,0.1-0.9,0.1-1.4C453.2,558.7,453.5,558.4,453.8,558.4z M415.8,558.8c0.1,0,0.4,0.1,0.5,0.3c0.3,0.3,0.5,0.7,0.9,0.9
		c0.3,0.3,0.3,0.7,0,0.9s-0.7,0.3-0.9,0s-0.7-0.7-0.9-0.9s-0.3-0.7,0-0.9C415.5,558.8,415.6,558.8,415.8,558.8z M419.5,562.7
		c0.1,0,0.4,0,0.5,0.1c0.3,0.3,0.7,0.7,0.9,0.9s0.3,0.7,0,0.9s-0.7,0.3-0.9,0s-0.7-0.7-0.9-0.9s-0.3-0.7,0-0.9
		C419.1,562.9,419.3,562.7,419.5,562.7z M453,563.8C453.1,563.8,453.1,563.8,453,563.8c0.5,0.1,0.7,0.4,0.7,0.8l-0.3,1.4
		c0,0.4-0.4,0.7-0.8,0.5c-0.4,0-0.7-0.4-0.5-0.8l0.3-1.4C452.4,564,452.7,563.8,453,563.8z M423.5,566.5c0.1,0,0.3,0,0.4,0.1
		c0.4,0.3,0.7,0.7,0.9,0.9s0.3,0.7,0,0.9s-0.7,0.3-0.9,0s-0.7-0.5-0.9-0.9c-0.3-0.3-0.3-0.7,0-0.9
		C423.1,566.5,423.2,566.5,423.5,566.5z M452,569.1h0.1c0.4,0.1,0.5,0.4,0.5,0.8c-0.1,0.5-0.3,0.9-0.3,1.4c-0.1,0.4-0.4,0.5-0.8,0.5
		c-0.4-0.1-0.5-0.4-0.5-0.8c0.1-0.3,0.1-0.8,0.3-1.4C451.4,569.4,451.8,569.1,452,569.1z M427.5,570c0.1,0,0.3,0,0.4,0.1
		c0.4,0.3,0.7,0.5,1.1,0.8c0.3,0.3,0.4,0.7,0.1,0.9c-0.3,0.3-0.7,0.4-0.9,0.1c-0.3-0.3-0.7-0.5-1.1-0.8c-0.3-0.3-0.3-0.7-0.1-0.9
		C427.1,570.2,427.3,570,427.5,570z M454.7,572.3c0.1,0,0.1,0,0.3,0l1.2,0.5c0.4,0.1,0.5,0.5,0.4,0.9s-0.5,0.5-0.9,0.4l-1.2-0.5
		c-0.4-0.1-0.5-0.5-0.4-0.9C454.3,572.6,454.5,572.3,454.7,572.3z M431.9,573.3c0.1,0,0.3,0,0.4,0.1l1.1,0.8
		c0.3,0.3,0.4,0.7,0.1,0.9c-0.3,0.3-0.7,0.4-0.9,0.1l-1.1-0.8c-0.3-0.3-0.4-0.7-0.1-0.9C431.5,573.4,431.6,573.3,431.9,573.3z
		 M459.5,574.2c0.3,0,0.5,0.3,0.7,0.5c0,0.1,0,0.3,0,0.5s0,0.4-0.1,0.7v0.4c0,0.4-0.4,0.7-0.8,0.5c-0.4,0-0.7-0.4-0.5-0.8v-0.4
		c0-0.1,0-0.3,0-0.5c0-0.1,0-0.1,0-0.3C458.8,574.8,459.1,574.4,459.5,574.2C459.5,574.4,459.5,574.2,459.5,574.2z M436.3,576.5
		c0.1,0,0.3,0,0.4,0.1l1.1,0.8c0.3,0.3,0.4,0.7,0.1,0.9c-0.3,0.3-0.7,0.4-0.9,0.1l-1.1-0.8c-0.3-0.3-0.4-0.7-0.1-0.9
		C435.8,576.5,436.1,576.5,436.3,576.5z M440.7,579.7c0.1,0,0.3,0,0.4,0.1l1.1,0.8c0.3,0.3,0.4,0.7,0.1,0.9
		c-0.3,0.3-0.7,0.4-0.9,0.1l-1.1-0.8c-0.3-0.3-0.4-0.7-0.1-0.9C440.3,579.8,440.4,579.7,440.7,579.7z M458.9,579.7
		C458.9,579.7,459.1,579.7,458.9,579.7c0.4,0,0.7,0.4,0.7,0.7l-0.1,1.4c0,0.4-0.4,0.7-0.7,0.7c-0.4,0-0.7-0.4-0.7-0.7l0.1-1.4
		C458.3,579.9,458.7,579.7,458.9,579.7z M445,582.9c0.1,0,0.3,0,0.4,0.1l1.1,0.8c0.3,0.3,0.4,0.7,0.1,0.9c-0.3,0.3-0.7,0.4-0.9,0.1
		l-1.1-0.8c-0.3-0.3-0.4-0.7-0.1-0.9C444.6,582.9,444.9,582.9,445,582.9z M458.5,585.1L458.5,585.1c0.4,0,0.7,0.4,0.7,0.7l-0.1,1.4
		c0,0.4-0.4,0.7-0.7,0.7c-0.4,0-0.7-0.4-0.7-0.7l0.1-1.4C457.8,585.3,458.1,585.1,458.5,585.1z M449.5,586c0.1,0,0.3,0,0.4,0.1
		c1.1,0.8,1.1,0.8,1.1,0.8c0.3,0.3,0.4,0.7,0.1,0.9c-0.3,0.3-0.7,0.4-0.9,0.1l-1.1-0.8c-0.3-0.3-0.4-0.7-0.1-0.9
		C449.1,586.2,449.2,586,449.5,586z M455.8,589.3c0.1,0,0.4,0.1,0.5,0.3c0.3,0.3,0.1,0.7-0.1,0.9l-1.5,1.2l-1.5-1.1
		c-0.3-0.3-0.4-0.7-0.1-0.9c0.3-0.3,0.7-0.4,0.9-0.1l0.5,0.4l0.7-0.5C455.5,589.4,455.7,589.3,455.8,589.3z"/>
	<path id="XMLID_769_" fill="#FFFFFF" d="M446.1,435.5c0.3,0,0.4,0.1,0.5,0.3c0.3,0.4,0.5,0.8,0.7,1.2c0.1,0.3,0.1,0.7-0.3,0.9
		c-0.3,0.1-0.7,0.1-0.9-0.3c-0.1-0.1-0.1-0.3-0.3-0.4c0,0,0,0-0.1,0.1l-0.9,0.9c-0.3,0.3-0.7,0.3-0.9,0c-0.3-0.3-0.3-0.7,0-0.9
		l0.9-0.9c0.1-0.1,0.3-0.1,0.5-0.1c0-0.3,0.1-0.4,0.3-0.5C445.8,435.5,445.9,435.5,446.1,435.5z M441.5,439.8c0.1,0,0.4,0.1,0.5,0.3
		c0.3,0.3,0.3,0.7,0,0.9l-0.9,0.9c-0.3,0.3-0.7,0.3-0.9,0c-0.3-0.3-0.3-0.7,0-0.9l0.9-0.9C441.1,440,441.3,439.8,441.5,439.8z
		 M448.6,440.3c0.3,0,0.5,0.1,0.7,0.5s0.3,0.8,0.3,1.4c0.1,0.4-0.1,0.7-0.5,0.8s-0.7-0.1-0.8-0.5c-0.1-0.5-0.1-0.9-0.3-1.2
		c-0.1-0.4,0.1-0.7,0.4-0.8C448.5,440.3,448.5,440.3,448.6,440.3z M437.5,443.5c0.1,0,0.4,0.1,0.5,0.3c0.3,0.3,0.3,0.7,0,0.9
		l-0.9,0.9c-0.3,0.3-0.7,0.3-0.9,0c-0.3-0.3-0.3-0.7,0-0.9l0.9-0.9C437.1,443.6,437.3,443.5,437.5,443.5z M449.5,445.7
		c0.4,0,0.7,0.3,0.7,0.7c0,0.4,0.1,0.9,0.1,1.4c0,0.4-0.3,0.7-0.7,0.7s-0.7-0.3-0.7-0.7c0-0.4-0.1-0.9-0.1-1.4
		C448.8,446.1,449.1,445.7,449.5,445.7L449.5,445.7z M433.5,447.3c0.1,0,0.4,0.1,0.5,0.3c0.3,0.3,0.3,0.7,0,0.9l-0.9,0.9
		c-0.3,0.3-0.7,0.3-0.9,0c-0.3-0.3-0.3-0.7,0-0.9l0.9-0.9C433.2,447.3,433.4,447.3,433.5,447.3z M429.6,450.9c0.1,0,0.4,0.1,0.5,0.3
		c0.3,0.3,0.3,0.7,0,0.9L429,453c-0.3,0.3-0.7,0.3-0.9,0c-0.3-0.3-0.3-0.7,0-0.9l0.9-0.9C429.3,450.9,429.4,450.9,429.6,450.9z
		 M449.9,451.1c0.4,0,0.7,0.3,0.7,0.7l0.1,1.4c0,0.4-0.3,0.7-0.7,0.7c-0.4,0-0.7-0.3-0.7-0.7l-0.1-1.4
		C449.2,451.4,449.5,451.1,449.9,451.1L449.9,451.1z M425.6,454.6c0.1,0,0.4,0.1,0.5,0.3c0.3,0.3,0.3,0.7,0,0.9l-0.9,0.9
		c-0.3,0.3-0.7,0.3-0.9,0c-0.3-0.3-0.3-0.7,0-0.9l0.9-0.9C425.2,454.7,425.4,454.6,425.6,454.6z M450.3,456.5c0.4,0,0.7,0.3,0.7,0.7
		v1.4c0,0.4-0.3,0.7-0.7,0.7c-0.4,0-0.7-0.3-0.7-0.7v-1.4C449.5,456.8,449.9,456.5,450.3,456.5C450.1,456.5,450.1,456.5,450.3,456.5
		z M421.6,458.3c0.1,0,0.4,0.1,0.5,0.3c0.3,0.3,0.3,0.7,0,0.9l-0.9,0.9c-0.3,0.3-0.7,0.3-0.9,0c-0.3-0.3-0.3-0.7,0-0.9l0.9-0.9
		C421.3,458.4,421.4,458.3,421.6,458.3z M450.4,461.9c0.4,0,0.7,0.3,0.7,0.7v1.4c0,0.4-0.3,0.7-0.7,0.7c-0.4,0-0.7-0.3-0.7-0.7v-1.4
		C449.7,462.2,450,461.9,450.4,461.9L450.4,461.9z M417.7,462c0.1,0,0.4,0.1,0.5,0.3c0.3,0.3,0.3,0.7,0,0.9l-0.9,0.9
		c-0.3,0.3-0.7,0.3-0.9,0c-0.3-0.3-0.3-0.7,0-0.9l0.9-0.9C417.4,462,417.5,462,417.7,462z M413.7,465.7c0.1,0,0.4,0.1,0.5,0.3
		c0.3,0.3,0.3,0.7,0,0.9l-0.1,0.1v0.5c0,0.4-0.4,0.7-0.7,0.7c-0.4,0-0.7-0.3-0.7-0.7v-1.1l0.5-0.5
		C413.3,465.7,413.6,465.7,413.7,465.7z M450.7,467.3c0.4,0,0.7,0.3,0.7,0.7v1.4c0,0.4-0.3,0.7-0.7,0.7c-0.4,0-0.7-0.3-0.7-0.7V468
		C450,467.6,450.3,467.3,450.7,467.3L450.7,467.3z M413.3,471c0.4,0,0.7,0.3,0.7,0.7s0,0.9,0,1.4c0,0.4-0.3,0.7-0.7,0.7
		c-0.4,0-0.7-0.3-0.7-0.7c0-0.4,0-0.9,0-1.4S412.9,471,413.3,471L413.3,471z M450.8,472.7c0.4,0,0.7,0.3,0.7,0.7v1.4
		c0,0.4-0.3,0.7-0.7,0.7c-0.4,0-0.7-0.3-0.7-0.7v-1.4C450.1,473,450.4,472.7,450.8,472.7L450.8,472.7z M413.6,476.4
		c0.4,0,0.7,0.3,0.7,0.7c0,0.4,0.1,0.9,0.1,1.4c0,0.4-0.3,0.7-0.5,0.7c-0.4,0-0.7-0.3-0.7-0.5c0-0.4-0.1-0.9-0.1-1.4
		C412.9,476.7,413.2,476.4,413.6,476.4L413.6,476.4z M450.9,478.2c0.4,0,0.7,0.3,0.7,0.7v1.4c0,0.4-0.3,0.7-0.7,0.7l0,0
		c-0.4,0-0.7-0.3-0.7-0.7v-1.4C450.3,478.4,450.5,478.2,450.9,478.2L450.9,478.2z M414.3,481.7c0.3,0,0.7,0.3,0.7,0.5
		c0.1,0.4,0.1,0.9,0.3,1.4c0,0.4-0.1,0.7-0.5,0.8c-0.4,0.1-0.7-0.1-0.8-0.5c-0.1-0.4-0.1-0.8-0.3-1.4
		C413.5,482.1,413.7,481.8,414.3,481.7C414.1,481.7,414.3,481.7,414.3,481.7z M451.1,483.6c0.4,0,0.7,0.3,0.7,0.7v1.4
		c0,0.4-0.3,0.7-0.7,0.7l0,0c-0.4,0-0.7-0.3-0.7-0.7v-1.4C450.4,483.8,450.7,483.6,451.1,483.6L451.1,483.6z M415.1,487.1
		c0.3,0,0.7,0.3,0.7,0.5c0,0.4,0.1,0.9,0.1,1.4s-0.3,0.7-0.5,0.7c-0.4,0-0.7-0.3-0.8-0.5c0-0.4-0.1-0.9-0.1-1.4
		C414.3,487.5,414.5,487.1,415.1,487.1C414.9,487.1,414.9,487.1,415.1,487.1z M451.1,489L451.1,489c0.4,0,0.7,0.3,0.7,0.7
		s0,0.9,0,1.4c0,0.4-0.3,0.7-0.7,0.7s-0.7-0.3-0.7-0.7c0-0.4,0-0.9,0-1.4C450.4,489.2,450.7,489,451.1,489z M415.5,492.5
		c0.4,0,0.7,0.3,0.7,0.7s0,0.9,0.1,1.4c0,0.4-0.3,0.7-0.7,0.7s-0.7-0.3-0.7-0.7c0-0.4,0-0.9-0.1-1.4
		C414.8,492.8,415.1,492.5,415.5,492.5L415.5,492.5z M450.8,494.4L450.8,494.4c0.4,0,0.7,0.4,0.7,0.7c0,0.5-0.1,0.9-0.1,1.4
		s-0.4,0.7-0.8,0.5c-0.4,0-0.7-0.4-0.5-0.8c0-0.4,0.1-0.8,0.1-1.4C450.1,494.5,450.4,494.4,450.8,494.4z M415.8,497.9
		c0.4,0,0.7,0.3,0.7,0.7v1.4c0,0.4-0.3,0.7-0.7,0.7s-0.7-0.3-0.7-0.7v-1.4C415.1,498.2,415.4,497.9,415.8,497.9L415.8,497.9z
		 M449.5,499.5c0.1,0,0.1,0,0.3,0c0.4,0.1,0.5,0.5,0.4,0.8c-0.1,0.4-0.3,0.8-0.4,1.2c-0.1,0.4-0.4,0.5-0.8,0.5
		c-0.4-0.1-0.5-0.4-0.5-0.8c0.1-0.4,0.3-0.9,0.4-1.4C448.9,499.7,449.2,499.5,449.5,499.5z M415.9,503.3L415.9,503.3
		c0.4,0,0.7,0.3,0.7,0.7c0,0.4,0,0.9-0.1,1.4c0,0.4-0.4,0.7-0.7,0.5c-0.4,0-0.7-0.4-0.5-0.7c0-0.4,0.1-0.9,0.1-1.4
		C415.2,503.6,415.5,503.3,415.9,503.3z M448.4,504.8C448.5,504.8,448.5,504.8,448.4,504.8c0.4,0,0.7,0.4,0.7,0.7
		c0,0.4-0.1,0.9-0.1,1.4c0,0.4-0.3,0.7-0.7,0.7s-0.7-0.3-0.7-0.7c0-0.4,0-0.9,0.1-1.4C447.8,505.1,448.1,504.8,448.4,504.8z
		 M415.1,508.6h0.1c0.4,0.1,0.5,0.4,0.5,0.8c-0.1,0.4-0.3,0.9-0.4,1.4c-0.1,0.4-0.4,0.5-0.8,0.4c-0.4-0.1-0.5-0.4-0.4-0.8
		c0.1-0.4,0.3-0.8,0.3-1.4C414.5,508.9,414.8,508.6,415.1,508.6z M448.2,510.2c0.4,0,0.7,0.3,0.7,0.7c0,0.4,0,0.9,0,1.4
		s-0.3,0.7-0.7,0.7s-0.7-0.3-0.7-0.7s0-0.9,0-1.4C447.6,510.6,448,510.2,448.2,510.2L448.2,510.2z M413.5,513.7c0.1,0,0.1,0,0.3,0
		c0.4,0.1,0.5,0.5,0.4,0.8c-0.1,0.4-0.3,0.8-0.4,1.2c-0.1,0.4-0.5,0.5-0.8,0.4c-0.4-0.1-0.5-0.5-0.4-0.8c0.1-0.4,0.3-0.8,0.4-1.2
		C412.9,514,413.2,513.7,413.5,513.7z M448.5,515.6c0.4,0,0.7,0.3,0.7,0.7l0.1,1.4c0,0.4-0.3,0.7-0.7,0.7s-0.7-0.3-0.7-0.7l-0.1-1.4
		C447.8,516,448.1,515.6,448.5,515.6L448.5,515.6z M412,518.9h0.1c0.4,0.1,0.5,0.4,0.5,0.8c-0.1,0.4-0.1,0.8-0.3,1.4
		c0,0.4-0.4,0.5-0.8,0.5c-0.4,0-0.7-0.4-0.5-0.8s0.1-0.9,0.3-1.4C411.3,519.2,411.6,518.9,412,518.9z M448.6,521.1
		c0.4,0,0.7,0.3,0.7,0.7v1.4c0,0.4-0.3,0.7-0.7,0.7l0,0c-0.4,0-0.7-0.3-0.7-0.7v-1.4C448,521.3,448.4,521.1,448.6,521.1L448.6,521.1
		z M411,524.3C411.2,524.3,411.2,524.3,411,524.3c0.4,0,0.7,0.4,0.7,0.8s-0.1,0.9-0.1,1.4s-0.4,0.7-0.7,0.5c-0.4,0-0.7-0.4-0.5-0.7
		c0-0.4,0.1-0.9,0.1-1.4C410.5,524.6,410.8,524.3,411,524.3z M448.6,526.5c0.4,0,0.7,0.3,0.7,0.7v1.2l-0.7,0.1H448v-1.4
		C448,526.9,448.4,526.5,448.6,526.5L448.6,526.5z M410.6,529.7L410.6,529.7c0.4,0,0.7,0.3,0.7,0.7s0,0.9,0,1.4s-0.3,0.7-0.7,0.7
		s-0.7-0.3-0.7-0.7s0-0.9,0-1.4C409.9,530,410.2,529.7,410.6,529.7z M448.8,532c0.4,0,0.7,0.3,0.7,0.5v1.4c0,0.4-0.3,0.7-0.7,0.7
		s-0.7-0.3-0.7-0.7v-1.2C448.1,532.3,448.4,532,448.8,532L448.8,532z M410.6,535.1c0.4,0,0.7,0.3,0.7,0.7s0,0.9,0.1,1.4
		c0,0.4-0.3,0.7-0.7,0.7s-0.7-0.3-0.7-0.7s0-0.9-0.1-1.4C409.9,535.4,410.2,535.1,410.6,535.1L410.6,535.1z M448.9,537.3
		c0.4,0,0.7,0.3,0.7,0.7v1.4c0,0.4-0.3,0.7-0.7,0.7s-0.7-0.3-0.7-0.7V538C448.1,537.7,448.5,537.3,448.9,537.3
		C448.8,537.3,448.8,537.3,448.9,537.3z M411.2,540.5c0.3,0,0.5,0.3,0.7,0.5c0.1,0.4,0.1,0.8,0.3,1.4c0.1,0.4-0.1,0.7-0.5,0.8
		c-0.4,0.1-0.7-0.1-0.8-0.5s-0.3-0.9-0.3-1.4S410.8,540.5,411.2,540.5L411.2,540.5z M449.1,542.7c0.4,0,0.7,0.3,0.7,0.7v1.4
		c0,0.4-0.3,0.7-0.7,0.7c-0.4,0-0.7-0.3-0.7-0.7v-1.4C448.2,543.1,448.6,542.7,449.1,542.7C448.9,542.7,449.1,542.7,449.1,542.7z
		 M412.8,545.7c0.3,0,0.5,0.1,0.5,0.4c0.1,0.4,0.4,0.8,0.7,1.2c0.1,0.3,0.1,0.7-0.3,0.9c-0.3,0.1-0.7,0.1-0.9-0.3
		c-0.3-0.4-0.4-0.8-0.7-1.2c-0.1-0.3,0-0.7,0.3-0.9C412.6,545.7,412.8,545.7,412.8,545.7z M449.2,548.1c0.4,0,0.7,0.3,0.7,0.7v0.5
		c0,0.3,0,0.5,0,0.8c0,0.4-0.3,0.7-0.7,0.7l0,0c-0.4,0-0.7-0.3-0.7-0.7c0-0.3,0-0.5,0-0.8v-0.5C448.5,548.5,448.8,548.1,449.2,548.1
		L449.2,548.1z M415.6,550.3c0.3,0,0.4,0.1,0.5,0.3c0.3,0.4,0.5,0.7,0.8,1.1c0.3,0.3,0.1,0.7-0.1,0.9s-0.7,0.1-0.9-0.1
		c-0.3-0.4-0.5-0.7-0.8-1.1c-0.3-0.3-0.1-0.7,0.1-0.9C415.4,550.3,415.5,550.3,415.6,550.3z M448.9,553.5
		C449.1,553.5,449.1,553.5,448.9,553.5c0.4,0,0.7,0.4,0.7,0.7c0,0.4-0.1,0.9-0.1,1.4s-0.4,0.7-0.7,0.5c-0.4,0-0.7-0.4-0.5-0.7
		c0-0.4,0.1-0.9,0.1-1.4C448.4,553.8,448.6,553.5,448.9,553.5z M419,554.5c0.1,0,0.4,0.1,0.5,0.3c0.3,0.3,0.5,0.7,0.9,0.9
		c0.3,0.3,0.3,0.7,0,0.9s-0.7,0.3-0.9,0c-0.3-0.4-0.5-0.7-0.9-1.1c-0.3-0.3-0.3-0.7,0-0.9C418.7,554.5,418.9,554.5,419,554.5z
		 M422.8,558.4c0.1,0,0.4,0,0.5,0.1c0.3,0.3,0.7,0.7,0.9,0.9s0.3,0.7,0,0.9s-0.7,0.3-0.9,0s-0.7-0.7-0.9-0.9s-0.3-0.7,0-0.9
		C422.4,558.5,422.5,558.4,422.8,558.4z M448.4,558.9L448.4,558.9c0.4,0,0.7,0.4,0.7,0.8c0,0.4-0.1,0.9-0.1,1.4
		c0,0.4-0.4,0.7-0.8,0.5c-0.4,0-0.7-0.4-0.5-0.8c0-0.4,0.1-0.9,0.1-1.4C447.7,559.2,448,558.9,448.4,558.9z M426.7,562.2
		c0.1,0,0.3,0,0.4,0.1l0.9,0.9c0.3,0.3,0.3,0.7,0,0.9c-0.3,0.3-0.7,0.3-0.9,0l-0.9-0.9c-0.3-0.3-0.3-0.7,0-0.9
		C426.3,562.3,426.5,562.2,426.7,562.2z M447.4,564.4C447.6,564.4,447.6,564.4,447.4,564.4c0.5,0.1,0.7,0.4,0.7,0.8
		c-0.1,0.4-0.1,0.9-0.3,1.4s-0.4,0.5-0.8,0.5c-0.4-0.1-0.5-0.4-0.5-0.8c0.1-0.4,0.1-0.8,0.3-1.4
		C446.9,564.5,447.2,564.4,447.4,564.4z M430.8,565.7c0.1,0,0.3,0,0.4,0.1c0.4,0.3,0.7,0.5,1.1,0.8c0.3,0.3,0.4,0.7,0.1,0.9
		c-0.3,0.3-0.7,0.4-0.9,0.1c-0.3-0.3-0.7-0.5-1.1-0.8c-0.3-0.3-0.3-0.7-0.1-0.9C430.4,565.8,430.5,565.7,430.8,565.7z M435.1,569
		c0.1,0,0.3,0,0.4,0.1l1.1,0.8c0.3,0.3,0.4,0.7,0.1,0.9c-0.3,0.3-0.7,0.4-0.9,0.1l-1.1-0.8c-0.3-0.3-0.4-0.7-0.1-0.9
		C434.7,569.1,434.8,569,435.1,569z M446.3,569.6h0.1c0.4,0.1,0.5,0.4,0.5,0.8l-0.7-0.1l0.7,0.3c-0.1,0.4-0.1,0.7-0.1,1.1
		s-0.3,0.7-0.7,0.7l0,0c-0.4,0-0.7-0.3-0.7-0.7c0-0.5,0-0.9,0.1-1.4C445.8,569.9,446.1,569.6,446.3,569.6z M439.4,572.2
		c0.1,0,0.3,0,0.4,0.1l1.1,0.8c0.3,0.3,0.4,0.7,0.1,0.9c-0.3,0.3-0.7,0.4-0.9,0.1l-1.1-0.8c-0.3-0.3-0.4-0.7-0.1-0.9
		C439,572.3,439.3,572.2,439.4,572.2z M447.7,574.6c0.1,0,0.4,0.1,0.5,0.3c0.3,0.3,0.5,0.5,0.9,0.8c0.3,0.1,0.4,0.7,0.3,0.9
		c-0.1,0.3-0.7,0.4-0.9,0.3c-0.4-0.3-0.8-0.5-1.2-0.9c-0.3-0.3-0.3-0.7,0-0.9C447.3,574.6,447.4,574.6,447.7,574.6z M443.9,575.3
		c0.1,0,0.3,0,0.4,0.1l1.1,0.8c0.3,0.3,0.4,0.7,0.1,0.9c-0.3,0.3-0.7,0.4-0.9,0.1l-1.1-0.8c-0.3-0.3-0.4-0.7-0.1-0.9
		C443.5,575.5,443.6,575.3,443.9,575.3z M452.4,577.2c0.1,0,0.1,0,0.3,0l1.2,0.5c0.4,0.1,0.5,0.5,0.4,0.9s-0.5,0.5-0.9,0.4l-1.2-0.5
		c-0.4-0.1-0.5-0.5-0.4-0.9C451.9,577.4,452.2,577.2,452.4,577.2z M448.2,578.6c0.1,0,0.3,0,0.4,0.1l1.1,0.8
		c0.3,0.3,0.4,0.7,0.1,0.9c-0.3,0.3-0.7,0.4-0.9,0.1l-1.1-0.8c-0.3-0.3-0.4-0.7-0.1-0.9C447.8,578.7,448.1,578.6,448.2,578.6z
		 M452.7,581.7c0.1,0,0.3,0,0.4,0.1c0.1-0.1,0.3-0.1,0.4-0.1c0.4,0,0.7,0.3,0.7,0.7v0.1l-0.1,1.6l-1.6-1.2c-0.3-0.3-0.4-0.7-0.1-0.9
		C452.3,581.8,452.4,581.7,452.7,581.7z"/>
	<path id="XMLID_742_" fill="#FFFFFF" d="M326.6,442.7c0.3,0,0.7,0.3,0.7,0.5v0.4c0,0.4-0.3,0.7-0.5,0.8c-0.4,0-0.7-0.3-0.8-0.5
		v-0.4C325.8,443.1,326,442.7,326.6,442.7C326.4,442.7,326.4,442.7,326.6,442.7z M327,447.2c0.4,0,0.7,0.3,0.7,0.7l0.1,1.4
		c0,0.4-0.3,0.7-0.7,0.7c-0.4,0-0.7-0.3-0.7-0.7l-0.1-1.4C326.3,447.6,326.6,447.2,327,447.2L327,447.2z M327.4,452.6
		c0.4,0,0.7,0.3,0.7,0.7l0.1,1.4c0,0.4-0.3,0.7-0.7,0.7c-0.4,0-0.7-0.3-0.7-0.7l-0.1-1.4C326.7,453,327,452.6,327.4,452.6
		L327.4,452.6z M327.7,458c0.4,0,0.7,0.3,0.7,0.7v1.4c0,0.4-0.3,0.7-0.7,0.7c-0.4,0-0.7-0.3-0.7-0.7v-1.4
		C327,458.3,327.2,458,327.7,458L327.7,458z M327.7,463.4L327.7,463.4c0.4,0,0.7,0.3,0.7,0.7v1.4c0,0.4-0.3,0.7-0.7,0.7l0,0
		c-0.4,0-0.7-0.3-0.7-0.7v-1.4C327,463.7,327.4,463.4,327.7,463.4z M327.7,468.8L327.7,468.8c0.4,0,0.7,0.3,0.7,0.7v1.4
		c0,0.4-0.4,0.7-0.7,0.7c-0.4,0-0.7-0.3-0.7-0.7v-1.4C327,469.1,327.2,468.8,327.7,468.8z M327.4,474.2L327.4,474.2
		c0.4,0,0.7,0.3,0.7,0.7l-0.1,1.4c0,0.4-0.4,0.7-0.7,0.7c-0.4,0-0.7-0.3-0.7-0.7l0.1-1.4C326.7,474.5,327.1,474.2,327.4,474.2z
		 M327.1,479.6L327.1,479.6c0.4,0,0.7,0.4,0.7,0.7l-0.1,1.4c0,0.4-0.4,0.7-0.7,0.7c-0.4,0-0.7-0.4-0.7-0.7l0.1-1.4
		C326.4,479.9,326.7,479.6,327.1,479.6z M326.7,485.1L326.7,485.1c0.4,0,0.7,0.4,0.7,0.7l-0.1,1.4c0,0.4-0.4,0.7-0.7,0.7
		c-0.4,0-0.7-0.4-0.7-0.7l0.1-1.4C326,485.3,326.4,485.1,326.7,485.1z M326.3,490.5C326.3,490.5,326.4,490.5,326.3,490.5
		c0.4,0,0.7,0.4,0.7,0.7l-0.1,1.4c0,0.4-0.4,0.7-0.7,0.7c-0.4,0-0.7-0.4-0.7-0.7l0.1-1.4C325.8,490.7,326,490.5,326.3,490.5z
		 M325.9,495.9C326,495.9,326,495.9,325.9,495.9c0.4,0,0.7,0.4,0.7,0.7l-0.1,1.4c0,0.4-0.3,0.7-0.7,0.7c-0.4,0-0.7-0.4-0.7-0.7
		l0.1-1.4C325.4,496.2,325.6,495.9,325.9,495.9z M325.6,501.2L325.6,501.2c0.4,0,0.7,0.3,0.7,0.7v1.4c0,0.4-0.3,0.7-0.7,0.7
		c-0.4,0-0.7-0.3-0.7-0.7v-1.4C324.9,501.6,325.4,501.2,325.6,501.2z M325.5,506.6L325.5,506.6c0.4,0,0.7,0.3,0.7,0.7v1.2v0.1
		c0,0.4-0.3,0.7-0.7,0.7c-0.4,0-0.7-0.3-0.7-0.7v-0.1v-1.2C324.8,507,325.2,506.6,325.5,506.6z M325.6,512c0.4,0,0.7,0.3,0.7,0.7
		c0,0.4,0,0.9,0,1.4c0,0.4-0.3,0.7-0.7,0.7c-0.4,0-0.7-0.3-0.7-0.7c0-0.4,0-0.9,0-1.4C324.9,512.4,325.2,512,325.6,512L325.6,512z
		 M325.9,517.4c0.4,0,0.7,0.3,0.7,0.7l0.1,1.4c0,0.4-0.3,0.7-0.7,0.7c-0.4,0-0.7-0.3-0.7-0.7l-0.1-1.4
		C325.2,517.8,325.5,517.5,325.9,517.4L325.9,517.4z M326.4,522.8c0.3,0,0.7,0.3,0.7,0.5l0.1,1.4c0,0.4-0.3,0.7-0.5,0.8
		c-0.4,0-0.7-0.3-0.8-0.5l-0.1-1.4C325.6,523.2,325.9,522.8,326.4,522.8C326.3,522.8,326.4,522.8,326.4,522.8z M327.1,528.2
		c0.3,0,0.7,0.3,0.7,0.5l0.1,1.4c0,0.4-0.3,0.7-0.5,0.8c-0.4,0-0.7-0.3-0.8-0.5l-0.1-1.4C326.4,528.6,326.7,528.2,327.1,528.2
		L327.1,528.2z M327.8,533.5c0.4,0,0.7,0.3,0.7,0.7l0.1,1.4c0,0.4-0.3,0.7-0.7,0.7c-0.4,0-0.7-0.3-0.7-0.7l-0.1-1.4
		C327.1,533.9,327.4,533.6,327.8,533.5C327.7,533.5,327.8,533.5,327.8,533.5z M328.1,538.9c0.4,0,0.7,0.3,0.7,0.7s0,0.9,0,1.4
		c0,0.4-0.3,0.7-0.7,0.7l0,0c-0.4,0-0.7-0.3-0.7-0.7c0-0.4,0-0.9,0-1.4C327.4,539.3,327.7,538.9,328.1,538.9L328.1,538.9z
		 M328.1,544.3L328.1,544.3c0.4,0,0.7,0.3,0.7,0.7v1.4c0,0.4-0.3,0.7-0.7,0.7c-0.4,0-0.7-0.3-0.7-0.7V545
		C327.4,544.7,327.8,544.3,328.1,544.3z M327.9,549.7L327.9,549.7c0.4,0,0.7,0.3,0.7,0.7v1.4c0,0.4-0.4,0.7-0.7,0.7
		c-0.4,0-0.7-0.3-0.7-0.7v-1.4C327.2,550,327.7,549.7,327.9,549.7z M327.7,555.2C327.7,555.2,327.8,555.2,327.7,555.2
		c0.4,0,0.7,0.3,0.7,0.7l-0.1,1.4c0,0.4-0.3,0.7-0.7,0.7c-0.4,0-0.7-0.3-0.7-0.7l0.1-1.4C327,555.4,327.4,555.2,327.7,555.2z
		 M327.4,560.6L327.4,560.6c0.4,0,0.7,0.3,0.7,0.7v1.4c0,0.4-0.4,0.7-0.7,0.7c-0.4,0-0.7-0.3-0.7-0.7v-1.4
		C326.7,560.8,327.1,560.6,327.4,560.6z M327.2,566L327.2,566c0.4,0,0.7,0.3,0.7,0.7v1.4c0,0.4-0.3,0.7-0.7,0.7
		c-0.4,0-0.7-0.3-0.7-0.7v-1.4C326.6,566.3,326.8,566,327.2,566z"/>
	<path id="XMLID_715_" fill="#FFFFFF" d="M323.1,458.3L323.1,458.3c0.3,0,0.5,0.3,0.4,0.5v1.4c0,0.3-0.3,0.4-0.5,0.4
		c-0.3,0-0.4-0.3-0.4-0.5v-1.4C322.6,458.4,322.8,458.3,323.1,458.3z M322.9,462.3L322.9,462.3c0.3,0,0.5,0.3,0.4,0.5v1.4
		c0,0.3-0.3,0.5-0.5,0.4c-0.3,0-0.4-0.3-0.4-0.5v-1.4C322.5,462.5,322.6,462.3,322.9,462.3z M322.8,466.4L322.8,466.4
		c0.3,0,0.5,0.3,0.4,0.5v1.4c0,0.3-0.1,0.4-0.5,0.4c-0.3,0-0.4-0.3-0.4-0.5v-1.4C322.4,466.5,322.5,466.4,322.8,466.4z M322.6,470.4
		L322.6,470.4c0.3,0,0.5,0.3,0.4,0.5v1.2c0,0.3-0.3,0.5-0.5,0.5c-0.3,0-0.4-0.1-0.4-0.4v-0.1V471
		C322.2,470.7,322.4,470.4,322.6,470.4z M322.5,474.5L322.5,474.5c0.3,0,0.5,0.3,0.4,0.5v1.4c0,0.3-0.1,0.4-0.5,0.4
		c-0.3,0-0.4-0.3-0.4-0.5v-1.4C322.1,474.8,322.4,474.5,322.5,474.5z M322.5,478.6L322.5,478.6c0.3,0,0.5,0.3,0.4,0.5v1.4
		c0,0.3-0.1,0.5-0.5,0.4c-0.3,0-0.4-0.3-0.4-0.5V479C322,478.8,322.2,478.6,322.5,478.6z M322.4,482.6L322.4,482.6
		c0.3,0,0.5,0.3,0.4,0.5v1.4c0,0.3-0.3,0.4-0.5,0.4s-0.4-0.3-0.4-0.5V483C322,482.9,322.1,482.6,322.4,482.6z M322.4,486.7
		L322.4,486.7c0.3,0,0.5,0.3,0.4,0.5v1.4h-0.4H322v-1.4C321.8,486.9,322.1,486.7,322.4,486.7z M322.2,490.7L322.2,490.7
		c0.3,0,0.5,0.3,0.4,0.5v1.4h-0.4h-0.4v-1.4C321.8,491,322.1,490.7,322.2,490.7z M322.2,494.8L322.2,494.8c0.3,0,0.5,0.3,0.4,0.5
		v1.4h-0.4h-0.4v-1.4C321.8,495.1,322,494.8,322.2,494.8z M322.2,498.9L322.2,498.9c0.3,0,0.5,0.3,0.4,0.5v1.4
		c0,0.3-0.3,0.4-0.4,0.4l0,0c-0.3,0-0.4-0.3-0.4-0.5v-1.4C321.8,499.1,322,498.9,322.2,498.9z M322.2,502.9c0.3,0,0.4,0.3,0.4,0.4
		v1.4c0,0.3-0.3,0.5-0.4,0.5l0,0c-0.3,0-0.4-0.3-0.4-0.4v-1.4C321.7,503.2,322,502.9,322.2,502.9L322.2,502.9z M322.2,507
		c0.3,0,0.4,0.3,0.4,0.4v1.4c0,0.3-0.3,0.5-0.4,0.5l0,0c-0.3,0-0.4-0.3-0.4-0.4v-1.4C321.8,507.2,322,507,322.2,507L322.2,507z
		 M322.4,511c0.3,0,0.4,0.3,0.4,0.4v1.4c0,0.3-0.1,0.5-0.4,0.5c-0.3,0-0.5-0.1-0.5-0.4v-1.4C321.8,511.3,322.1,511,322.4,511
		L322.4,511z M322.5,515.1c0.3,0,0.4,0.1,0.4,0.4c0,0.4,0,0.8,0,1.4c0,0.3-0.1,0.5-0.4,0.5l0,0c-0.3,0-0.4-0.1-0.4-0.4
		c0-0.5,0-0.9,0-1.4C322,515.4,322.2,515.1,322.5,515.1L322.5,515.1z M322.5,519.2c0.3,0,0.4,0.3,0.4,0.4v1.4c0,0.3-0.3,0.5-0.4,0.5
		l0,0c-0.3,0-0.4-0.3-0.4-0.4v-1.4C322.1,519.4,322.2,519.2,322.5,519.2z M322.5,523.8h0.4v1.4c0,0.3-0.3,0.4-0.5,0.4
		s-0.4-0.3-0.4-0.5v-1.2H322.5z M322.5,527.8h0.4v1.4c0,0.3-0.3,0.4-0.5,0.4s-0.4-0.3-0.4-0.5v-1.2H322.5z M322.4,531.3L322.4,531.3
		c0.3,0,0.5,0.3,0.4,0.5v1.4c0,0.3-0.3,0.5-0.5,0.5s-0.4-0.1-0.4-0.4V532C322,531.6,322.1,531.3,322.4,531.3z M322.4,535.9h0.4v1.4
		c0,0.3-0.3,0.4-0.5,0.4s-0.4-0.3-0.4-0.5v-1.4L322.4,535.9z M322.2,539.5L322.2,539.5c0.3,0,0.5,0.3,0.4,0.5v1.4
		c0,0.3-0.3,0.4-0.4,0.4l0,0c-0.3,0-0.4-0.3-0.4-0.5v-1.4C321.7,539.7,322,539.5,322.2,539.5z M322,543.5
		C322.1,543.5,322.1,543.5,322,543.5c0.3,0,0.5,0.3,0.4,0.5v1.4c0,0.3-0.3,0.5-0.5,0.4c-0.3,0-0.4-0.3-0.4-0.5v-1.4
		C321.6,543.8,321.8,543.5,322,543.5z M321.8,547.6L321.8,547.6c0.3,0,0.5,0.3,0.4,0.5v1.4c0,0.3-0.3,0.4-0.5,0.4
		c-0.3,0-0.4-0.3-0.4-0.5V548C321.4,547.8,321.6,547.6,321.8,547.6z M321.7,551.6L321.7,551.6c0.3,0,0.5,0.3,0.4,0.5l-0.1,1.4
		c0,0.3-0.3,0.5-0.5,0.4c-0.3,0-0.4-0.3-0.4-0.5l0.1-1.4C321.2,551.9,321.4,551.6,321.7,551.6z M321.4,555.7L321.4,555.7
		c0.3,0,0.5,0.3,0.4,0.5l-0.1,1.4c0,0.3-0.1,0.4-0.5,0.4c-0.3,0-0.4-0.3-0.4-0.5l0.1-1.4C321,556,321.2,555.7,321.4,555.7z
		 M321.2,559.8L321.2,559.8c0.3,0,0.5,0.3,0.4,0.5c0,0.5-0.1,0.9-0.1,1.4c0,0.3-0.3,0.4-0.5,0.4c-0.3,0-0.4-0.3-0.4-0.5
		c0-0.4,0.1-0.8,0.1-1.4C320.8,560,320.9,559.8,321.2,559.8z"/>
	<path id="XMLID_688_" fill="#FFFFFF" d="M161.5,456.6h0.1c0.4,0.1,0.5,0.4,0.5,0.8c0,0.3-0.1,0.5-0.1,0.9c0,0.4-0.4,0.7-0.8,0.5
		c-0.4,0-0.7-0.4-0.5-0.8c0-0.4,0.1-0.7,0.1-1.1C160.9,456.8,161.2,456.6,161.5,456.6z M161.1,461.6L161.1,461.6
		c0.4,0,0.7,0.3,0.7,0.7v0.4c0,0.3,0,0.7,0,0.9c0,0.4-0.3,0.7-0.7,0.7l0,0c-0.4,0-0.7-0.3-0.7-0.7c0-0.3,0-0.7,0-0.9v-0.4
		C160.4,461.9,160.6,461.6,161.1,461.6z M161.2,467.1c0.4,0,0.7,0.3,0.7,0.7s0,0.9,0.1,1.4c0,0.4-0.3,0.7-0.7,0.7s-0.7-0.3-0.7-0.7
		c0-0.4-0.1-0.9-0.1-1.4C160.5,467.5,160.8,467.1,161.2,467.1L161.2,467.1z M161.7,472.5c0.4,0,0.7,0.3,0.7,0.5l0.1,1.4
		c0,0.4-0.3,0.7-0.5,0.8c-0.4,0-0.7-0.3-0.8-0.5l-0.1-1.4C161.1,472.9,161.3,472.5,161.7,472.5C161.6,472.5,161.7,472.5,161.7,472.5
		z M162.3,477.9c0.3,0,0.7,0.3,0.7,0.5l0.1,1.4c0,0.4-0.3,0.7-0.5,0.8c-0.4,0-0.7-0.3-0.8-0.5l-0.1-1.4
		C161.6,478.3,161.9,477.9,162.3,477.9L162.3,477.9z M163.1,483.2c0.3,0,0.7,0.3,0.7,0.5l0.1,1.4c0,0.4-0.3,0.7-0.5,0.8
		c-0.4,0-0.7-0.1-0.8-0.5l-0.1-1.4C162.3,483.6,162.5,483.3,163.1,483.2C162.9,483.2,163.1,483.2,163.1,483.2z M163.9,488.6
		c0.3,0,0.7,0.3,0.7,0.5l0.1,1.4c0,0.4-0.1,0.7-0.5,0.8c-0.4,0-0.7-0.1-0.8-0.5l-0.1-1.4C163.1,489,163.4,488.6,163.9,488.6
		C163.8,488.6,163.8,488.6,163.9,488.6z M164.7,494c0.3,0,0.7,0.3,0.7,0.5l0.3,1.4c0,0.4-0.1,0.7-0.5,0.8c-0.4,0-0.7-0.1-0.8-0.5
		l-0.3-1.4C163.9,494.4,164.2,494,164.7,494C164.6,494,164.6,494,164.7,494z M165.5,499.3c0.3,0,0.7,0.3,0.7,0.5l0.3,1.4
		c0,0.4-0.1,0.7-0.5,0.8c-0.4,0-0.7-0.1-0.8-0.5l-0.3-1.4C164.7,499.7,165,499.4,165.5,499.3C165.4,499.3,165.5,499.3,165.5,499.3z
		 M166.3,504.7c0.3,0,0.7,0.3,0.7,0.5l0.1,1.4c0,0.4-0.3,0.7-0.5,0.8c-0.4,0-0.7-0.3-0.8-0.5l-0.1-1.4
		C165.5,505.1,165.8,504.7,166.3,504.7C166.2,504.7,166.2,504.7,166.3,504.7z M167,510c0.3,0,0.7,0.3,0.7,0.5c0,0.4,0.1,0.9,0.1,1.4
		c0,0.4-0.3,0.7-0.5,0.8c-0.4,0-0.7-0.3-0.8-0.5c0-0.4-0.1-0.9-0.1-1.4C166.3,510.4,166.6,510.1,167,510L167,510z M167.5,515.4
		c0.4,0,0.7,0.3,0.7,0.7s0,0.9,0,1.4s-0.3,0.7-0.7,0.7s-0.7-0.3-0.7-0.7s0-0.9,0-1.4C166.9,515.8,167.1,515.4,167.5,515.4
		L167.5,515.4z M167.7,520.8L167.7,520.8c0.4,0,0.7,0.3,0.7,0.7v1.4c0,0.4-0.4,0.7-0.7,0.7c-0.4,0-0.7-0.3-0.7-0.7v-1.4
		C167,521.1,167.3,520.8,167.7,520.8z M167.4,526.2L167.4,526.2c0.4,0,0.7,0.4,0.7,0.7l-0.1,1.4c0,0.4-0.4,0.7-0.7,0.7
		c-0.4,0-0.7-0.4-0.7-0.7l0.1-1.4C166.7,526.5,167,526.2,167.4,526.2z M167,531.6L167,531.6c0.4,0,0.7,0.4,0.7,0.7l-0.1,1.4
		c0,0.4-0.4,0.7-0.7,0.7c-0.4,0-0.7-0.4-0.7-0.7l0.1-1.4C166.3,531.9,166.7,531.6,167,531.6z M166.5,537
		C166.5,537,166.6,537,166.5,537c0.4,0,0.7,0.4,0.7,0.8l-0.1,1.4c0,0.4-0.4,0.7-0.8,0.5c-0.4,0-0.7-0.4-0.5-0.8l0.1-1.4
		C165.9,537.3,166.2,537,166.5,537z M165.8,542.4C165.9,542.4,165.9,542.4,165.8,542.4c0.4,0,0.7,0.4,0.7,0.8l-0.1,1.4
		c0,0.4-0.4,0.7-0.8,0.5c-0.4,0-0.7-0.4-0.5-0.8l0.1-1.4C165.2,542.6,165.5,542.4,165.8,542.4z M165.1,547.7L165.1,547.7
		c0.5,0,0.7,0.4,0.7,0.8l-0.3,1.4c0,0.4-0.4,0.7-0.8,0.5c-0.4,0-0.7-0.4-0.5-0.8l0.3-1.4C164.4,548,164.7,547.7,165.1,547.7z
		 M164.2,553.1C164.3,553.1,164.3,553.1,164.2,553.1c0.5,0.1,0.7,0.4,0.7,0.8l-0.3,1.4c0,0.4-0.4,0.7-0.8,0.5
		c-0.4,0-0.7-0.4-0.5-0.8l0.3-1.4C163.6,553.3,163.9,553.1,164.2,553.1z M163.2,558.4C163.2,558.4,163.4,558.4,163.2,558.4
		c0.5,0.1,0.7,0.4,0.7,0.8c-0.1,0.4-0.1,0.9-0.3,1.4c-0.1,0.4-0.4,0.5-0.8,0.5c-0.4-0.1-0.5-0.4-0.5-0.8c0.1-0.4,0.1-0.8,0.3-1.4
		C162.5,558.7,162.9,558.4,163.2,558.4z M162,563.7h0.1c0.4,0.1,0.5,0.4,0.5,0.8v0.1c-0.1,0.4-0.1,0.8-0.3,1.1
		c-0.1,0.4-0.4,0.5-0.8,0.5c-0.4-0.1-0.5-0.4-0.5-0.8c0.1-0.4,0.1-0.7,0.3-1.1v-0.3C161.5,564,161.7,563.7,162,563.7z M161.2,569.1
		L161.2,569.1c0.4,0,0.7,0.4,0.7,0.7c0,0.4,0,0.9,0,1.4s-0.3,0.7-0.7,0.7s-0.7-0.3-0.7-0.7s0-0.9,0-1.4S160.8,569.1,161.2,569.1z
		 M161.2,574.5c0.4,0,0.7,0.3,0.7,0.7s0.1,0.9,0.1,1.4s-0.3,0.7-0.5,0.8c-0.4,0-0.7-0.3-0.8-0.5c0-0.4-0.1-0.9-0.1-1.4
		C160.5,574.8,160.8,574.5,161.2,574.5L161.2,574.5z M162,579.8c0.3,0,0.5,0.3,0.7,0.5c0.1,0.4,0.1,0.8,0.3,1.4
		c0.1,0.4-0.1,0.7-0.5,0.8c-0.4,0.1-0.7-0.1-0.8-0.5c-0.1-0.4-0.1-0.9-0.3-1.4C161.2,580.2,161.5,579.9,162,579.8
		C161.9,579.8,161.9,579.8,162,579.8z M163.2,585.1c0.3,0,0.5,0.1,0.7,0.5s0.3,0.8,0.4,1.4c0.1,0.4-0.1,0.7-0.4,0.8
		c-0.4,0.1-0.7-0.1-0.8-0.4c-0.1-0.4-0.3-0.8-0.4-1.4c-0.1-0.4,0.1-0.7,0.4-0.8C163.1,585.1,163.1,585.1,163.2,585.1z M164.8,590.2
		c0.3,0,0.5,0.1,0.7,0.4c0.1,0.4,0.3,0.9,0.4,1.2c0.1,0.4,0,0.7-0.4,0.8c-0.4,0.1-0.7,0-0.8-0.4c-0.1-0.4-0.3-0.8-0.5-1.2
		c-0.1-0.4,0-0.7,0.4-0.8C164.7,590.2,164.8,590.2,164.8,590.2z"/>
	<path id="XMLID_678_" fill="#FFFFFF" d="M176.6,508.3c0.3,0,0.4,0.1,0.5,0.3c0.3,0.3,0.1,0.7-0.1,0.9c-0.3,0.1-0.5,0.4-0.8,0.7
		c-0.3,0.3-0.7,0.3-0.9,0c-0.3-0.3-0.3-0.7,0-0.9c0.4-0.3,0.7-0.5,0.9-0.8C176.3,508.3,176.5,508.3,176.6,508.3z M173.1,512.1
		c0.1,0,0.3,0,0.4,0.1c0.3,0.3,0.4,0.7,0.1,0.9c-0.3,0.4-0.5,0.7-0.8,1.1c-0.3,0.3-0.7,0.4-0.9,0.1c-0.3-0.3-0.4-0.7-0.1-0.9
		c0.3-0.4,0.5-0.8,0.8-1.1C172.7,512.1,172.8,512.1,173.1,512.1z M170,516.6c0.1,0,0.3,0,0.4,0.1c0.3,0.3,0.4,0.7,0.1,0.9
		c-0.3,0.4-0.5,0.8-0.7,1.1c-0.1,0.3-0.7,0.4-0.9,0.3c-0.3-0.1-0.4-0.7-0.3-0.9c0.3-0.4,0.5-0.8,0.7-1.1
		C169.4,516.6,169.7,516.6,170,516.6z M167.1,521.2c0.1,0,0.3,0,0.4,0.1c0.3,0.1,0.4,0.5,0.3,0.9l-0.7,1.2c-0.1,0.3-0.5,0.4-0.9,0.3
		c-0.3-0.1-0.4-0.5-0.3-0.9l0.7-1.2C166.6,521.3,166.9,521.2,167.1,521.2z M164.4,525.9c0.1,0,0.3,0,0.3,0.1
		c0.3,0.1,0.4,0.5,0.3,0.9l-0.7,1.2c-0.1,0.3-0.5,0.4-0.9,0.3c-0.3-0.1-0.4-0.5-0.3-0.9l0.7-1.2
		C163.9,526.1,164.2,525.9,164.4,525.9z M161.9,530.7c0.1,0,0.3,0,0.3,0.1c0.3,0.1,0.4,0.5,0.3,0.9l-0.7,1.2
		c-0.1,0.3-0.5,0.4-0.9,0.3c-0.3-0.1-0.4-0.5-0.3-0.9l0.7-1.2C161.5,530.8,161.6,530.7,161.9,530.7z M159.4,535.5c0.1,0,0.1,0,0.3,0
		c0.3,0.1,0.5,0.5,0.3,0.9l-0.5,1.2c-0.1,0.3-0.5,0.5-0.9,0.3c-0.3-0.1-0.5-0.5-0.3-0.9l0.5-1.2C159,535.7,159.3,535.5,159.4,535.5z
		 M157.3,540.4c0.1,0,0.1,0,0.3,0c0.4,0.1,0.5,0.5,0.4,0.9c-0.1,0.4-0.4,0.8-0.5,1.2c-0.1,0.4-0.5,0.5-0.9,0.4
		c-0.4-0.1-0.5-0.5-0.4-0.9c0.1-0.4,0.4-0.8,0.5-1.2C156.7,540.7,157,540.4,157.3,540.4z M155.4,545.5c0,0,0.1,0,0.3,0
		c0.4,0.1,0.5,0.5,0.4,0.8c-0.1,0.4-0.3,0.8-0.4,1.2s-0.4,0.5-0.8,0.5c-0.4-0.1-0.5-0.4-0.5-0.8c0.1-0.4,0.3-0.8,0.4-1.4
		C154.8,545.7,155.1,545.5,155.4,545.5z"/>
	<path id="XMLID_646_" fill="#FFFFFF" d="M308,486.7h0.1c0.3,0.1,0.4,0.4,0.3,0.7s-0.3,0.7-0.4,1.2c-0.1,0.3-0.4,0.4-0.5,0.3
		c-0.3-0.1-0.4-0.4-0.3-0.5c0.1-0.5,0.4-1.1,0.4-1.4C307.6,486.8,307.8,486.7,308,486.7z M306.7,490.6
		C306.8,490.6,306.8,490.6,306.7,490.6c0.4,0.1,0.5,0.4,0.4,0.5c-0.1,0.4-0.3,0.8-0.4,1.4c0,0.3-0.3,0.4-0.5,0.4s-0.4-0.3-0.4-0.5
		c0.1-0.4,0.3-0.9,0.4-1.4C306.3,490.7,306.5,490.6,306.7,490.6z M305.7,494.5C305.7,494.5,305.9,494.5,305.7,494.5
		c0.4,0,0.5,0.3,0.4,0.5c-0.1,0.4-0.1,0.8-0.3,1.4c0,0.3-0.3,0.4-0.5,0.4c-0.3,0-0.4-0.3-0.4-0.5c0.1-0.4,0.1-0.9,0.3-1.4
		C305.3,494.7,305.6,494.5,305.7,494.5z M305.2,498.6L305.2,498.6c0.3,0,0.5,0.3,0.4,0.5c0,0.4-0.1,0.8-0.1,1.4
		c0,0.3-0.3,0.4-0.5,0.4c-0.3,0-0.4-0.3-0.4-0.5c0-0.5,0.1-0.9,0.1-1.4C304.6,498.7,304.9,498.6,305.2,498.6z M304.8,502.5
		L304.8,502.5c0.3,0,0.5,0.3,0.4,0.5l-0.1,1.4c0,0.3-0.3,0.4-0.5,0.4c-0.3,0-0.4-0.3-0.4-0.5l0.1-1.4
		C304.2,502.8,304.5,502.5,304.8,502.5z M304.4,506.6L304.4,506.6c0.3,0,0.5,0.3,0.4,0.5l-0.1,1.4c0,0.3-0.3,0.4-0.5,0.4
		c-0.3,0-0.4-0.3-0.4-0.5l0.1-1.4C304,506.8,304.1,506.6,304.4,506.6z M304,510.6C304.1,510.6,304.1,510.6,304,510.6
		c0.3,0,0.5,0.3,0.4,0.5l-0.1,1.4c0,0.3-0.3,0.4-0.5,0.4s-0.4-0.3-0.4-0.5l0.1-1.4C303.6,510.9,303.8,510.6,304,510.6z M303.7,514.7
		L303.7,514.7c0.3,0,0.5,0.3,0.4,0.5l-0.1,1.4c0,0.3-0.3,0.4-0.5,0.4s-0.4-0.3-0.4-0.5l0.1-1.4C303.2,514.8,303.4,514.7,303.7,514.7
		z M303.3,518.8L303.3,518.8c0.3,0,0.5,0.3,0.4,0.5l-0.1,1.4c0,0.3-0.3,0.4-0.5,0.4c-0.3,0-0.4-0.3-0.4-0.5l0.1-1.4
		C302.9,518.9,303,518.8,303.3,518.8z M302.9,522.8L302.9,522.8c0.3,0,0.5,0.3,0.4,0.5l-0.1,1.4c0,0.3-0.3,0.4-0.5,0.4
		c-0.3,0-0.4-0.3-0.4-0.5l0.1-1.4C302.5,522.9,302.6,522.8,302.9,522.8z M302.5,526.9L302.5,526.9c0.3,0,0.5,0.3,0.4,0.5l-0.1,1.4
		c0,0.3-0.3,0.4-0.5,0.4c-0.3,0-0.4-0.3-0.4-0.5l0.1-1.4C302.1,527,302.2,526.9,302.5,526.9z M302.1,530.9L302.1,530.9
		c0.3,0,0.5,0.3,0.4,0.5c0,0.4-0.1,0.8-0.1,1.4c0,0.3-0.3,0.4-0.5,0.4s-0.4-0.3-0.4-0.5c0-0.4,0.1-0.9,0.1-1.4
		C301.5,531.1,301.8,530.9,302.1,530.9z M301.7,534.9L301.7,534.9c0.3,0,0.5,0.3,0.4,0.5l-0.1,1.4c0,0.3-0.3,0.4-0.5,0.4
		c-0.3,0-0.4-0.3-0.4-0.5l0.1-1.4C301.1,535.1,301.4,534.9,301.7,534.9z M301.3,538.9L301.3,538.9c0.3,0,0.5,0.3,0.4,0.5l-0.1,1.4
		c0,0.3-0.3,0.4-0.5,0.4c-0.3,0-0.4-0.3-0.4-0.5l0.1-1.4C300.9,539.2,301,538.9,301.3,538.9z M301,543C301,543,301.1,543,301,543
		c0.3,0,0.5,0.3,0.4,0.5l-0.1,1.4c0,0.3-0.1,0.4-0.5,0.4c-0.3,0-0.4-0.3-0.4-0.5l0.1-1.4C300.6,543.2,300.9,543,301,543z M300.9,547
		L300.9,547c0.3,0,0.5,0.3,0.4,0.5v1.4c0,0.3-0.1,0.5-0.5,0.4c-0.3,0-0.4-0.3-0.4-0.5v-1.4C300.3,547.3,300.6,547,300.9,547z
		 M300.6,551.1L300.6,551.1c0.3,0,0.5,0.3,0.4,0.5v1.4c0,0.3-0.3,0.4-0.4,0.4l0,0c-0.3,0-0.4-0.3-0.4-0.5v-1.4
		C300.2,551.4,300.5,551.1,300.6,551.1z M300.5,555.2L300.5,555.2c0.3,0,0.5,0.3,0.4,0.5v1.2l-0.5,0.1l-0.4-0.1v-1.2
		C300,555.4,300.2,555.2,300.5,555.2z M300.3,559.2L300.3,559.2c0.3,0,0.5,0.3,0.4,0.5v1.4c0,0.3-0.3,0.5-0.5,0.4
		c-0.3,0-0.4-0.3-0.4-0.5v-1.4C299.9,559.5,300,559.2,300.3,559.2z M300.3,563.3L300.3,563.3c0.3,0,0.5,0.3,0.4,0.5v1.4
		c0,0.3-0.3,0.4-0.4,0.4l0,0c-0.3,0-0.4-0.3-0.4-0.5v-1.4C299.8,563.5,300,563.3,300.3,563.3z M300.2,567.3L300.2,567.3
		c0.3,0,0.5,0.3,0.4,0.4v1.4c0,0.3-0.3,0.5-0.4,0.5c-0.3,0-0.4-0.3-0.4-0.5v-1.4C299.8,567.6,299.9,567.3,300.2,567.3z M300.3,571.4
		c0.3,0,0.4,0.3,0.4,0.4c0,0.5,0,0.9,0,1.4c0,0.3-0.1,0.5-0.4,0.5c-0.3,0-0.5-0.1-0.5-0.4c0-0.4,0-0.8,0-1.4
		C299.8,571.7,299.9,571.4,300.3,571.4C300.2,571.4,300.2,571.4,300.3,571.4z M300.5,575.5c0.3,0,0.4,0.1,0.4,0.4
		c0,0.4,0.1,0.8,0.1,1.4c0,0.3-0.1,0.5-0.4,0.5c-0.3,0-0.5-0.1-0.5-0.4c0-0.5,0-0.9-0.1-1.4C300,575.7,300.2,575.6,300.5,575.5
		L300.5,575.5z M300.7,579.5c0.3,0,0.4,0.3,0.4,0.4c0,0.3,0,0.7,0,1.1v0.3c0,0.3-0.3,0.5-0.4,0.5c-0.3,0-0.4-0.3-0.4-0.5V581
		c0-0.4,0-0.7,0-1.1C300.2,579.8,300.5,579.5,300.7,579.5L300.7,579.5z M300.6,583.6C300.7,583.6,300.7,583.6,300.6,583.6
		c0.3,0,0.5,0.3,0.4,0.5v1.4c0,0.3-0.3,0.5-0.5,0.4c-0.3,0-0.4-0.3-0.4-0.5V584C300.2,583.8,300.5,583.6,300.6,583.6z M300.5,587.6
		C300.6,587.6,300.6,587.6,300.5,587.6c0.3,0,0.5,0.3,0.4,0.5v1.4c0,0.3-0.1,0.5-0.5,0.4c-0.3,0-0.4-0.3-0.4-0.5V588
		C300,587.9,300.3,587.6,300.5,587.6z M300.3,591.7L300.3,591.7c0.3,0,0.5,0.3,0.4,0.5l-0.1,1.4c0,0.3-0.3,0.4-0.5,0.4
		c-0.3,0-0.4-0.3-0.4-0.5l0.1-1.4C299.9,592,300,591.7,300.3,591.7z M300,595.8L300,595.8c0.3,0,0.5,0.3,0.4,0.5l-0.1,1.4
		c0,0.3-0.3,0.4-0.5,0.4c-0.3,0-0.4-0.3-0.4-0.5l0.1-1.4C299.6,596,299.8,595.8,300,595.8z M299.8,599.8L299.8,599.8
		c0.3,0,0.5,0.3,0.4,0.5l-0.1,1.4c0,0.3-0.3,0.4-0.5,0.4s-0.4-0.3-0.4-0.5l0.1-1.4C299.4,600.1,299.5,599.8,299.8,599.8z
		 M299.5,603.9L299.5,603.9c0.3,0,0.5,0.3,0.4,0.5l-0.1,1.4c0,0.3-0.3,0.4-0.5,0.4c-0.3,0-0.4-0.3-0.4-0.5l0.1-1.4
		C299,604,299.2,603.9,299.5,603.9z"/>
	<path id="XMLID_645_" fill="#FFFFFF" d="M473.7,557.5c1.8-9.3,2.4-18.7,0.9-18.9c-1.6-0.3-3,9.1-5.1,19.4
		c-2.3,10.4-10.8,41-17.9,55.1c-7,13.9-23.4,44-52.8,46.3s-44.3-2.7-60.9-34.9s-19.9-54.5-20-71.5c-0.3-16.9,1.4-17.3-0.7-27.1
		c-2-9.7-1.8-15.6-1.8-15.6s-2,41.3-1.1,60.5c0.9,19.2,9.5,53.1,16.5,65c7,11.9,22.7,39.9,54.4,39.9c31.5,0,46-13.3,58.6-34.2
		C456.4,620.1,472.1,565.6,473.7,557.5z"/>
	<path id="XMLID_644_" fill="#FFFFFF" d="M340,623.1c15,29,27.9,34.2,47.9,34.2c3.1,0,6.6-0.1,10.7-0.4
		c29.5-2.3,45.6-34.4,50.9-44.9c3-6,6.2-14.9,9.1-24c-4.3-6.6-18.5-17.6-64.8-17.6c-25.6,0-49.5-2-69.4,14.1
		C327.4,595.2,332.1,608.1,340,623.1z"/>
	<path id="XMLID_643_" fill="#FFFFFF" d="M315.2,510.6c-1.2-10.2,1.1-23.7,2.3-31.9c1.6-10.7,4.9-21.5,1.9-35.7
		c-3.2-15.3-5.5-23.1-3.9-25.6c1.6-2.4,7,10.6,8.3,18.1c1.2,7.6-1.9,38-3.2,49.8s-4.5,29.8-4.9,34.4
		C314.8,516.5,315.2,510.6,315.2,510.6z"/>
	<path id="XMLID_642_" fill="#FFFFFF" d="M308.4,555.7c0.3-3,3.7-6,3.9-2c0.3,3.9-0.7,23.8-4.2,37.9s-18.7,65.2-44.9,81.1
		c-26.3,15.8-53.1,11.5-69.3-1.4c-16.2-12.9-32.2-32.5-37.9-83.9s-5.7-52.9-4.6-55.5c1.1-2.6,3.5-2.6,3.5,1.1s2.8,35.3,4.9,49.4
		c2,14.1,4.3,42,20.6,65.2c16.2,23.3,43.3,24.4,49.8,23.8s29.1-1.6,48.7-33.3c19.6-31.7,24.6-43.2,26.8-60.8
		C307.9,559.8,308.4,555.7,308.4,555.7z"/>
	<path id="XMLID_641_" fill="#FFFFFF" d="M182.7,646c15,21.7,40.2,22.7,45.1,22.7c1.1,0,1.9,0,2.3-0.1h0.4
		c6.9-0.5,27.7-2.2,46.3-32.1c9.1-14.5,14.9-24.6,18.8-33.2c-7.2-6.9-20.8-12.7-58.6-15.8c-48.7-4.1-60.6-4.1-73.2,2
		C165.7,604.6,169.4,626.9,182.7,646z"/>
	<path id="XMLID_638_" fill="#E4E5E6" d="M425.1,541.1c3.4,0,5.8-3.2,6.2-7.8c0.3-4.3-2.8-7.3-6.4-7.3c-3.4,0-6.1,3-6.1,7.3
		S421.7,541.1,425.1,541.1z M425,529.4c0.7,0,1.5,0.3,2,0.9c0.4,0.5,0.9,1.4,0.8,2.7c-0.1,2.3-1.2,4.6-2.7,4.6
		c-1.4,0-2.7-1.8-2.7-4.3C422.4,531.1,423.5,529.4,425,529.4z"/>
	<path id="XMLID_631_" fill="#E4E5E6" d="M355.5,549.1c-3.4,0.3-6.1-2.7-6.9-7.2c-0.7-4.2,2.3-7.6,5.7-7.8c3.4-0.3,6.4,2.6,6.6,6.8
		C361.4,545,358.9,548.8,355.5,549.1z M354.7,537.4c-0.7,0-1.5,0.4-1.9,1.1c-0.4,0.5-0.8,1.4-0.7,2.7c0.4,2.3,1.6,4.5,3.1,4.3
		c1.4-0.1,2.6-2,2.4-4.6C357.4,538.8,356.2,537.3,354.7,537.4z"/>
	<path id="XMLID_628_" fill="#E4E5E6" d="M353.8,522.5c-3.4,0.3-6.1-2.6-6.8-6.6c-0.7-3.9,2.3-7,5.7-7.3c3.4-0.3,6.4,2.3,6.6,6.2
		C359.6,518.8,357.2,522.3,353.8,522.5z M353,511.8c-0.7,0-1.5,0.4-1.9,1.1c-0.4,0.5-0.8,1.4-0.7,2.6c0.4,2,1.5,4.1,3.1,3.9
		c1.4-0.1,2.6-1.9,2.4-4.2C355.7,513.1,354.5,511.7,353,511.8z"/>
	<path id="XMLID_611_" fill="#E4E5E6" d="M429.2,516.5c2.7-0.4,4.7-3.1,5.3-6.6c0.5-3.8-2-6.6-5.4-6.6c-3.5,0-6.4,3.4-6,7.6
		C423.5,514.7,426.3,517,429.2,516.5z M429,506.7c0.7,0,1.4,0.3,1.9,0.8c0.4,0.4,0.8,1.2,0.7,2.3c-0.3,1.9-1.1,3.9-2.4,4.1
		c-1.1,0.1-2.4-1.1-2.6-3.4C426.6,508.5,427.5,506.7,429,506.7z"/>
	<path id="XMLID_602_" fill="#E4E5E6" d="M266.8,564.9c4.6,0,8.3-3.5,8.3-7.8c0-4.3-3.7-7.8-8.3-7.8s-8.3,3.5-8.3,7.8
		S262.2,564.9,266.8,564.9z M266.8,553.1c2.2,0,4.1,1.8,4.1,3.8c0,2.2-1.8,3.8-4.1,3.8c-2.2,0-4.1-1.8-4.1-3.8
		C262.7,554.9,264.5,553.1,266.8,553.1z"/>
	<path id="XMLID_596_" fill="#E4E5E6" d="M196.9,553.5c3.1-0.5,5.7-3.8,6-7.7c0.3-3.9-2-7.3-5.4-7.3c-3.7,0-6.8,3.9-6.8,8.4
		C190.8,551.2,193.7,554.1,196.9,553.5z M197.3,542.7c1.6-0.1,2.8,1.5,2.7,3.4s-1.5,3.7-3,3.8c-1.6,0.3-3-1.2-2.8-3.2
		C194.2,544.6,195.7,542.8,197.3,542.7z"/>
	<path id="XMLID_593_" fill="#E4E5E6" d="M200.7,525.7c2.4-1.6,3.2-5.4,2-8.8c-1.2-3.7-4.5-5.7-7.2-4.5c-3,1.4-4.1,5.8-2.4,9.7
		C194.8,525.8,198.3,527.3,200.7,525.7z M197.1,516c1.4-0.7,2.8,0.3,3.5,2s0.1,3.7-1.1,4.5c-1.2,0.8-2.8,0-3.7-1.8
		C195.2,518.8,195.7,516.7,197.1,516z"/>
	<path id="XMLID_587_" fill="#E4E5E6" d="M268,509.8c3.9,0,7.2-3.2,7.3-7.3c0.1-4.3-3.2-8.1-7.7-8.1c-4.3,0-7.6,3.8-7.3,8.1
		C260.7,506.6,264,509.8,268,509.8z M267.7,498.6c2,0,3.8,1.8,3.8,3.8c0,2-1.6,3.7-3.5,3.7c-2,0-3.7-1.6-3.8-3.7
		C264,500.3,265.7,498.6,267.7,498.6z"/>
	<path id="XMLID_578_" fill="#E4E5E6" d="M264.2,537.4c3.7,1.4,7.8-0.4,9.5-4.2c1.8-4.1-0.1-8.8-4.2-10.4s-8.5,0.7-9.7,5
		C258.4,531.7,260.5,535.9,264.2,537.4z M268,526.9c1.9,0.8,2.8,3,2,5c-0.8,1.9-2.8,2.8-4.6,2.2c-1.9-0.7-2.8-2.8-2.2-4.7
		C263.9,527.1,266.1,526.1,268,526.9z"/>
	<path id="XMLID_577_" fill="#F0F2F3" d="M353.6,513.6l51.8,12.7c0,0-0.3,6.4-0.5,8.9c-0.3,2.7-17.5-1.6-27.2-4.7
		c-9.7-3.1-24.6-9.5-25.4-11.6C351.5,516.9,353.6,513.6,353.6,513.6z"/>
	<path id="XMLID_576_" fill="#F0F2F3" d="M424.7,537.3c0,0-16.4,3.4-23.7,3.5c-7.3,0.1-27.5,2.4-35.5,3.8c-7.8,1.2-9.7,0-9.9-2.8
		c-0.3-2.8,0.7-5.7,6-6.4s46.8-4.9,51.7-4.9c4.9,0,8.4-1.4,9.7,1.6C424.7,535,425.5,537.3,424.7,537.3z"/>
	<path id="XMLID_575_" fill="#F0F2F3" d="M429.7,484.2c-4.3,1.9-54.5,18.4-55.6,18.7c-1.1,0.3-0.1,9.7-0.1,9.7s31.3-12.3,36.3-14.6
		c5-2.4,19.1-7.8,20.3-8.1C431.7,489.7,433.1,482.8,429.7,484.2z"/>
	<path id="XMLID_574_" fill="#F0F2F3" d="M353.8,491.5c-1.1-1.5-0.7-5.4-0.1-5.4s28.6,11.9,37.6,12.9c9.1,0.9,19.2,0.3,19.2,0.3
		s0.4,6.4-0.1,7.8c-0.5,1.5-0.4,1.2-2.2,1.1C406.4,508.2,359.1,499,353.8,491.5z"/>
	<path id="XMLID_573_" fill="#F0F2F3" d="M427.9,508.3c0,0-44.7,18.8-54.7,17.2c0,0,0.8,5.8-0.5,10.3c0,0,49.7-13.3,55.8-23.5
		C428.5,512.4,430.6,508.6,427.9,508.3z"/>
	<path id="XMLID_550_" fill="#FFFFFF" d="M474.8,459.5L474.8,459.5c0.4,0,0.7,0.4,0.7,0.7s0,0.5-0.1,0.9c0,0.4-0.4,0.7-0.8,0.5
		c-0.4,0-0.7-0.4-0.5-0.8c0-0.4,0.1-0.7,0.1-0.8C474.1,459.7,474.4,459.5,474.8,459.5z M473.8,464.3h0.1c0.4,0.1,0.5,0.4,0.5,0.8
		l-0.3,1.4c-0.1,0.4-0.4,0.5-0.8,0.5c-0.4-0.1-0.5-0.4-0.5-0.8l0.3-1.4C473.1,464.6,473.4,464.3,473.8,464.3z M472.5,469.6h0.1
		c0.4,0.1,0.5,0.4,0.5,0.8l-0.3,1.4c-0.1,0.4-0.4,0.5-0.8,0.5c-0.4-0.1-0.5-0.4-0.5-0.8l0.3-1.4
		C471.9,469.8,472.2,469.6,472.5,469.6z M471.1,474.9h0.1c0.4,0.1,0.5,0.4,0.5,0.8l-0.4,1.4c-0.1,0.4-0.5,0.5-0.8,0.4
		c-0.4-0.1-0.5-0.4-0.4-0.8l0.4-1.4C470.6,475,470.8,474.9,471.1,474.9z M469.6,480h0.1c0.4,0.1,0.5,0.5,0.4,0.8l-0.4,1.4
		c-0.1,0.4-0.5,0.5-0.8,0.4c-0.4-0.1-0.5-0.5-0.4-0.8l0.4-1.4C469.1,480.3,469.4,480,469.6,480z M468.1,485.3h0.1
		c0.4,0.1,0.5,0.5,0.4,0.8l-0.4,1.4c-0.1,0.4-0.5,0.5-0.8,0.4c-0.4-0.1-0.5-0.5-0.4-0.8l0.4-1.4
		C467.6,485.5,467.9,485.3,468.1,485.3z M466.5,490.5c0.1,0,0.1,0,0.3,0c0.4,0.1,0.5,0.5,0.4,0.8c-0.1,0.4-0.3,0.8-0.4,1.4
		c-0.1,0.4-0.5,0.5-0.8,0.4c-0.4-0.1-0.5-0.5-0.4-0.8l0.4-1.2C466,490.6,466.2,490.5,466.5,490.5z M464.8,495.6c0.1,0,0.1,0,0.3,0
		c0.4,0.1,0.5,0.5,0.4,0.8c-0.1,0.4-0.4,0.9-0.5,1.2c-0.1,0.4-0.5,0.5-0.9,0.4c-0.4-0.1-0.5-0.5-0.4-0.9c0.1-0.4,0.3-0.8,0.5-1.2
		C464.2,495.7,464.5,495.6,464.8,495.6z M462.7,500.6c0.1,0,0.1,0,0.3,0c0.4,0.1,0.5,0.5,0.4,0.8c-0.1,0.4-0.3,0.8-0.4,1.2
		c-0.1,0.4-0.5,0.5-0.8,0.4c-0.4-0.1-0.5-0.5-0.4-0.8c0.1-0.4,0.3-0.9,0.4-1.4C462.2,500.8,462.5,500.6,462.7,500.6z M461.4,505.9
		C461.4,505.9,461.5,505.9,461.4,505.9c0.5,0.1,0.7,0.4,0.7,0.8c-0.1,0.4-0.1,0.8-0.3,1.4c-0.1,0.4-0.4,0.7-0.8,0.5
		c-0.4,0-0.7-0.4-0.5-0.8c0.1-0.4,0.1-0.9,0.3-1.4C460.7,506,461.1,505.9,461.4,505.9z M460.4,511.2
		C460.4,511.2,460.6,511.2,460.4,511.2c0.4,0,0.7,0.4,0.7,0.8l-0.1,1.4c0,0.4-0.4,0.7-0.8,0.5c-0.4,0-0.7-0.4-0.5-0.8l0.1-1.4
		C459.7,511.4,460.2,511.2,460.4,511.2z M459.7,516.6L459.7,516.6c0.4,0,0.7,0.4,0.7,0.8l-0.1,1.4c0,0.4-0.4,0.7-0.8,0.5
		c-0.4,0-0.7-0.4-0.5-0.8l0.1-1.4C459.1,516.9,459.3,516.6,459.7,516.6z M459.1,521.9L459.1,521.9c0.4,0,0.7,0.4,0.7,0.8l-0.1,1.4
		c0,0.4-0.4,0.7-0.8,0.5c-0.4,0-0.7-0.4-0.5-0.8l0.1-1.4C458.4,522.1,458.7,521.9,459.1,521.9z M458.4,527.3L458.4,527.3
		c0.4,0,0.7,0.4,0.7,0.8l-0.1,1.4c0,0.4-0.4,0.7-0.8,0.5c-0.4,0-0.7-0.4-0.5-0.8l0.1-1.4C457.7,527.5,458,527.3,458.4,527.3z
		 M457.8,532.7L457.8,532.7c0.4,0,0.7,0.4,0.7,0.7c0,0.4,0,0.9-0.1,1.4c0,0.4-0.3,0.7-0.7,0.7c-0.4,0-0.7-0.3-0.7-0.7s0-0.9,0.1-1.4
		C457.2,533,457.4,532.7,457.8,532.7z M457.6,538.1L457.6,538.1c0.4,0,0.7,0.3,0.7,0.7v1.4c0,0.4-0.3,0.7-0.7,0.7l0,0
		c-0.4,0-0.7-0.3-0.7-0.7v-1.4C456.9,538.4,457.2,538.1,457.6,538.1z M457.6,543.5c0.4,0,0.7,0.3,0.7,0.7v1.4c0,0.4-0.3,0.7-0.7,0.7
		l0,0c-0.4,0-0.7-0.3-0.7-0.7v-1.4C456.9,543.8,457.2,543.5,457.6,543.5L457.6,543.5z M457.7,548.9c0.4,0,0.7,0.3,0.7,0.7v1.4
		c0,0.4-0.3,0.7-0.7,0.7c-0.3,0-0.7-0.3-0.7-0.7v-1.4C457,549.2,457.3,548.9,457.7,548.9C457.6,548.9,457.7,548.9,457.7,548.9z
		 M457.8,554.3c0.4,0,0.7,0.3,0.7,0.7v1.4c0,0.4-0.3,0.7-0.7,0.7c-0.4,0-0.7-0.3-0.7-0.7V555C457.2,554.6,457.4,554.3,457.8,554.3
		L457.8,554.3z M458,559.8c0.4,0,0.7,0.3,0.7,0.7v1.4c0,0.4-0.3,0.7-0.7,0.7c-0.4,0-0.7-0.3-0.7-0.7v-1.4
		C457.3,560,457.6,559.8,458,559.8L458,559.8z M458.3,565.2c0.4,0,0.7,0.3,0.7,0.7v1.4c0,0.4-0.3,0.7-0.7,0.7
		c-0.4,0-0.7-0.3-0.7-0.7v-1.4C457.6,565.4,457.8,565.2,458.3,565.2L458.3,565.2z M458.4,570.6c0.4,0,0.7,0.3,0.7,0.7v1.4
		c0,0.4-0.3,0.7-0.7,0.7c-0.4,0-0.7-0.3-0.7-0.7v-1.4C457.7,570.9,458,570.6,458.4,570.6L458.4,570.6z"/>
	<path id="XMLID_538_" fill="#F0F2F3" d="M266.8,499.1c0,0-37.4,12.3-51.8,9.9l0.5,11.5c0,0,31.8-6,39.7-8.5
		c7.8-2.6,11-4.3,11.8-7.4C267.6,501.4,266.8,499.1,266.8,499.1z"/>
	<path id="XMLID_535_" fill="#F0F2F3" d="M199.2,493c-1.6,1.1-1.9,4.3,1.1,7c3,2.7,34.4,20.8,39.9,23c5.5,2.2,5.5,2.2,5.5,2.2v-8
		c0,0-21.2-10-27.7-13.8c-6.5-3.8-10.2-7.8-11.9-9.1C204,493.4,199.2,493,199.2,493z"/>
	<path id="XMLID_534_" fill="#F0F2F3" d="M265.9,532.3c0.3-2.7,0-5.5,0-5.5s-43.6,8-50.5,11.1l-0.4,7.4c0,0,26-3.9,32.5-5.4
		c6.5-1.5,16.5-4.5,17.2-5.1C265.4,533.9,265.9,532.3,265.9,532.3z"/>
	<path id="XMLID_533_" fill="#F0F2F3" d="M198.7,519.2c0,1.8,0.9,6.9,3.8,9.1c3,2.2,16.4,10.3,22.1,13.3c5.7,3,22.7,13,22.7,13
		l-1.1-10.4c0,0-25.4-13.9-29.5-16.4c-4.1-2.4-16-9.5-17.1-9.6C198.8,517.9,198.7,519.2,198.7,519.2z"/>
	<path id="XMLID_531_" fill="#F0F2F3" d="M266.1,560c0.4-3.1,1.8-5.3,0.7-6.9c-1.1-1.6-3.2-5.5-24.9-7.8c-21.7-2.4-43-5-43-5
		s0.5,2.8,0,5c-0.5,2.2-2.3,4.3-0.7,5.7c1.5,1.4,9.2,1.4,18.4,1.8c9.2,0.4,31.5,4.6,38.6,5.5C262,559.2,265.8,561.9,266.1,560z"/>
	<path id="XMLID_617_" fill="#E4E5E6" d="M353.2,495.7c-3.4,0.3-6.1-2.6-6.8-6.6c-0.7-3.9,2.3-7,5.7-7.3c3.4-0.3,6.4,2.3,6.6,6.2
		C359.2,492.1,356.6,495.5,353.2,495.7z M352.4,485.1c-0.7,0-1.5,0.4-1.9,1.1c-0.4,0.5-0.8,1.4-0.7,2.6c0.4,2,1.5,4.1,3.1,3.9
		c1.4-0.1,2.6-1.9,2.4-4.2C355.1,486.4,353.9,484.9,352.4,485.1z"/>
	<path id="XMLID_605_" fill="#E4E5E6" d="M431.9,493.8c3.2-0.3,5.5-3.4,6.1-7.6c0.4-4.1-2.6-7-6-7c-3.5,0-6.2,3.1-6.2,7.4
		C425.8,490.9,428.5,494.1,431.9,493.8z M432,482.6c0.7,0,1.5,0.3,1.9,0.9c0.4,0.4,0.9,1.4,0.8,2.6c-0.3,2.2-1.2,4.5-2.7,4.5
		c-1.2,0-2.7-1.6-2.7-4.1C429.3,484.4,430.4,482.6,432,482.6z"/>
	<path id="XMLID_590_" fill="#E4E5E6" d="M200,498.5c2-1.4,2.7-4.5,1.8-7.4c-1.1-3-3.8-4.7-6.1-3.7c-2.4,1.1-3.4,4.9-2,8.1
		S197.9,499.9,200,498.5z M196.8,490.5c1.1-0.5,2.4,0.3,3,1.8c0.5,1.5,0.1,3.1-0.8,3.7c-1.1,0.7-2.4,0-3.1-1.5
		C195.3,492.8,195.7,491,196.8,490.5z"/>
	<path id="XMLID_584_" fill="#E4E5E6" d="M271.6,481.1c3.9,0,7.2-3.2,7.3-7.3c0.1-4.3-3.2-8.1-7.7-8.1c-4.3,0-7.6,3.8-7.3,8.1
		C264.2,478,267.7,481.1,271.6,481.1z M271.4,469.9c2,0,3.8,1.8,3.8,3.8c0,2-1.6,3.7-3.5,3.7c-2,0-3.7-1.6-3.8-3.7
		C267.7,471.7,269.2,469.9,271.4,469.9z"/>
	<path id="XMLID_581_" fill="#E4E5E6" d="M195.8,471c3.9,0,7.2-3.2,7.3-7.3c0.1-4.3-3.2-8.1-7.7-8.1c-4.3,0-7.6,3.8-7.3,8.1
		C188.4,467.9,191.9,471,195.8,471z M195.6,459.7c2,0,3.8,1.8,3.8,3.8c0,2-1.6,3.7-3.5,3.7c-2,0-3.7-1.6-3.8-3.7
		C191.9,461.5,193.4,459.7,195.6,459.7z"/>
	<path id="XMLID_549_" fill="#F0F2F3" d="M409.3,486.7c-0.8-3.4-0.9-6.5-0.9-6.5s-3.5,1.5-11.1,0.3c-7.7-1.2-27.3-7.2-27.3-7.2
		l2.3,6C372,479.2,403,487.4,409.3,486.7z"/>
	<path id="XMLID_545_" fill="#F0F2F3" d="M408.2,476.1c0,0-28.7,8.1-35.9,5.1l1.1,8c0,0,29.4-4.9,34.9-9.1L408.2,476.1z"/>
	<path id="XMLID_542_" fill="#F0F2F3" d="M271.1,473c2.4-1.2-1.4,8.4-5.3,10.3c-3.9,1.9-33.6,8.9-40.3,9.6
		c-6.6,0.7-11.1,1.8-11.1,1.8l-0.8-8c0,0,22.2-1.9,30-4.1C251.3,480.5,269.1,474,271.1,473z"/>
	<path id="XMLID_539_" fill="#F0F2F3" d="M246.2,501c0,0,0.7-6.8,0.7-7.2s-28.7-12.7-34.2-16.8c-5.5-4.1-14.6-9.3-15.7-11.5
		c0,0-2.8,3.9-1.4,6.8c1.6,2.8,19.2,16.2,26.4,19.2C229,494.5,246.2,501,246.2,501z"/>
</g>
<g id="Layer_1_1_">
	<path id="XMLID_529_" fill="#AD4833" d="M311,411c0,21.4,28.8,61.3,47.4,68.6c18.5,7.2,60-0.9,77.5-18.5
		c17.6-17.6,25.3-39.7,28-45.1c2.7-5.4,10.8-24.4,10.8-24.4s20.3-10.4,25.7-22.1c5.4-11.8,48.3-84.9,53.7-111.9s14.5-48.7,14.5-48.7
		s9.1-45.1,22.6-55.1c13.5-10,20.7-46,20.7-46L318.7,94.3c0,0-11.8,28-13.5,40.6c-1.8,12.6-2.7,76.7-2.7,86.6s-6.8,52.8-6.8,60
		c0,7.2,5.4,22.6,9.1,26.1c3.7,3.5,10.8,7.2,10.4,14.9c-0.4,7.7-2.7,14.9-0.9,19.4c1.8,4.5,2.7,13.1,2.7,13.1s-5,9.1-5.4,14.9
		s-1.4,19.4-0.9,23.4C311,397.5,311,409.3,311,411z"/>
	<path id="XMLID_528_" fill="#9A370B" d="M443.2,426.9c4.7-7.2,3.1-11.2-2.7-9.9c-5.8,1.4-33.8,15.8-38.8,18c-5,2.3-32.9,0-42.9-9.5
		c-9.9-9.5-31.1-23.4-35.6-22.6c-4.5,0.9,0,15.3,6.8,26.1c6.8,10.8,40.2,32.1,57.2,27.5c17.2-4.5,26.1-20.3,35.6-22.1
		C432.4,432.7,440.5,430.9,443.2,426.9z"/>
	<path id="XMLID_527_" fill="#9A370B" d="M446.3,401.1c-8.5,3.1-32.5,15.3-43.3,17.2c-10.8,1.8-30.2,1.8-38.8-2.7
		c-8.5-4.5-23.4-8.1-13.9-11.2s42.9,7.7,57.2,6.8C422,410.2,446.3,401.1,446.3,401.1z"/>
	<path id="XMLID_526_" fill="#9A370B" d="M437.8,389.4c-19.4,0.5-46,4.1-70.8-3.7c-24.8-7.7-49.7-13.5-45.6-20.3
		c4.1-6.8,19.9-13.1,19.9-13.1s63.6,18.5,74,22.6C425.6,379.1,453.1,389,437.8,389.4z"/>
	<path id="XMLID_525_" fill="#9A370B" d="M503.2,364.3c3.7-6.9,10.2-18.7,17.3-32.1c-16,3-52.2,0-63.3,1.1
		c-12.6,1.4-74.4,2.3-88.9,2.7c-14.5,0.4-6.4,8.1,6.8,11.2c13.1,3.1,38.6,13.7,56.4,20.3c7.2,2.7,12.2,12.2,17.2,13.5
		s10.8-13.5,24.8-16.6C480.6,363,492.9,363.5,503.2,364.3z"/>
	<path id="XMLID_523_" fill="#9A370B" d="M567.1,213c-7.7,8.3-22.2,24.8-23.7,33.7c-1.6,9.6,0.5,21.2,1.9,36.1
		c4.3-9.9,7.7-18.7,8.9-25C558.3,237.5,564.2,220.5,567.1,213z"/>
	<path id="XMLID_522_" fill="#A23C2B" d="M339.7,191.1c15.6,6.8,53.9,31.4,90.7,79.2c6.8,8.8,36.5-13.5,39.2-33.8
		c2.7-20.3,8.1-39.9-3.4-71.1c-6.2-16.6,0.7-43.7,8.4-65.2l-155.9-5.8c0,0-11.8,28-13.5,40.6c-0.5,3.4-0.9,10.7-1.2,19.6
		C314.7,172.3,330.5,187.2,339.7,191.1z"/>
	<path id="XMLID_519_" fill="#AD4833" d="M310.3,430.1c-2.3,6.8-15.8,24.6-25.3,30.9s-19.4,15.3-36.9,16.2s-50.5-4.2-61.2-23.5
		c-10.6-19.4-10.2-28.3-15.2-40.1c-5-11.8-9.9-30-11.9-35.9s-2.3-9.1-2.3-9.1s-17.9-14.5-27.3-28.7c-9.5-14.2-22.1-35.2-24.1-40.2
		s-2.3-6.1-5.7-7.8s-18.3-14.6-25.3-31.1c-7-16.5-8.8-26-13.8-31.1c-5-5.1-10.4-54.5-33.8-69S2,106.5,2,106.5H304
		c0,0,0.9,26,0.4,38.7s-0.9,65.5-1.9,76.3c-0.8,10.8-6,48.7-6.4,54.4c-0.4,5.7,4.7,21.4,7.7,25.7c3.1,4.3,14.8,14.5,12.7,24.6
		c-2,10.2,0.3,13.5,0,19.2c-0.3,5.7,2.2,10.6,0,12.6c-2.2,2-5,17.1-5,23.3s1.9,27.1,1.1,32.3C312.1,419.1,310.3,430.1,310.3,430.1z"
		/>
	<path id="XMLID_518_" fill="#9A370B" d="M302.5,221.5c0.8-10.8,1.4-63.6,1.9-76.3c0,0-8.7,71.7-8.7,83.1s-8.5,65.9-9.9,79.8
		c-1.4,13.9-14.5,38.3-29.4,57.2c-3.5,4.5,8.5,0,14.9,0c6.4,0,15.8-15.8,28-17.6c6.5-0.9,13.4,3,18.3,7c-0.1-2.4-1.1-5.8-0.9-9.5
		c0.3-5.7-2-9.1,0-19.2c2-10.2-9.7-20.3-12.7-24.6c-3.1-4.3-8.3-20-7.7-25.7C296.5,270.3,301.7,232.4,302.5,221.5z"/>
	<path id="XMLID_517_" fill="#9A370B" d="M301.5,410.2c-9.6,2.3-35.2-4.3-42.2-4.6c-7-0.3-5.1-9.2,0.9-12.5c6.2-3.4-2.2-4.1-12.9,0
		c-10.7,4.1-3.8,11.9,6,17.2c9.7,5.3,33.8,7.6,35.2,9.2c1.4,1.6,8.1-0.9,15.2,3.5c3,1.9,3.9,7.2,3.9,12.6c1.4-2.2,2.3-4.1,2.7-5.4
		c0,0,1.8-11,2.4-16.2c0.3-2.2,0.1-7.2-0.1-12.5C309.7,405.3,305.6,409.3,301.5,410.2z"/>
	<path id="XMLID_516_" fill="#9A370B" d="M265.7,422.3c-8.4,1.6-20.6,7.8-28.4,9.7c-7.8,1.9-39.5,4.3-42.2-3.8
		c-2.7-8.1-9.7-28.2-15.6-37.6s-3.8-3,12.9,0s40.3,6.5,26.8,0.7c-11-4.7-48-18.1-61.4-23c0.1,0.1,0.1,0.1,0.1,0.1s0.3,3.1,2.3,9.1
		c2,5.8,7,24.1,11.9,35.9c0.7,1.5,1.2,2.8,1.6,4.3c7.6,9.6,18.4,19.9,30.5,20.6c22.7,1.4,43.3,2,49-2.4c5.7-4.5,14.9-9.2,23.7-8.1
		C281,428.5,274.1,420.5,265.7,422.3z"/>
	<path id="XMLID_510_" fill="#9A370B" d="M182.4,305.7c-19.1,2.6-59,1.1-73.4-13.7s-20-24.9-5.7-18.1c14.3,6.8,25.8,15.7,39,19.4
		C155.4,296.9,200.3,303.3,182.4,305.7z"/>
	<path id="XMLID_504_" fill="#A23C2B" d="M131.3,111.9c-1.4,21.7,35.2,88,6.1,87.3S88,160,50.8,156.6c-11.2-1.1-22.7-2-33.2-2.4
		c3.8,2.4,7.2,4.6,10.2,6.5c23.4,14.5,28.8,63.9,33.8,69c2.7,2.8,4.6,7.2,6.8,13.1c22.3,8.3,64.2,26.1,77.1,32.9
		c15.6,8.1,52.8,23,60.2-8.8c5.3-22.6,25-98.8,37.2-115c10.6-14.1,33.8-33.7,14.2-45.3H133.4C132.1,108.1,131.4,109.9,131.3,111.9z"
		/>
	<path id="XMLID_503_" fill="#9A370B" d="M297.1,251.3c0,0,8.1-54.1,12.2-68.1s16.2-66.3,16.2-66.3l-22.7-5.8c0,0-2,57.2-2,70
		C300.7,193.8,297.1,251.3,297.1,251.3z"/>
</g>
</svg>
