<?xml version="1.0" encoding="utf-8"?>
<!-- Generator: Adobe Illustrator 17.1.0, SVG Export Plug-In . SVG Version: 6.00 Build 0)  -->
<!DOCTYPE svg PUBLIC "-//W3C//DTD SVG 1.1//EN" "http://www.w3.org/Graphics/SVG/1.1/DTD/svg11.dtd">
<svg version="1.1" xmlns="http://www.w3.org/2000/svg" xmlns:xlink="http://www.w3.org/1999/xlink" x="0px" y="0px"
	 viewBox="0 0 233.7 429.3" enable-background="new 0 0 233.7 429.3" xml:space="preserve">
<g id="CHUCKS">
	<path id="XMLID_23870_" fill="#000005" d="M123,228.2c3.5,8.2,7,24,9.2,37s4,30,2.8,41.8s-3.6,21.1-3.6,21.1s0.6,6.9-2,16.7
		c-2.7,9.8-12.8,40.2-17.3,48.8c-4.5,8.7-14.8,23.8-29.8,25.7s-37,2.3-45.5-9.5s-18.5-36.2-20.3-47C14.5,352,15,331.3,15,326.7
		c0-4.7,0.2-31.5,1-40s3.7-18,3.2-26.8c-0.5-8.8-4.3-21.8-4.3-26.2s94.8-7,94.8-7L123,228.2z"/>
	<path id="XMLID_23866_" fill="#021F31" d="M117.5,366.8l2.7-2.2c0,0,0.5-7,0.8-8.8c0.3-1.8-1.3-1.2-1.3-1.2l-4.5-2
		c0,0,2.5-10.2,2.2-18c-0.3-7.8-0.3-16.7-0.3-20.3c0-3.7-1-10.3,0.7-14c1.7-3.7,1-16.7,0.8-22c-0.2-5.3-0.5-20.8-2-24.2
		c-1.5-3.3-4.7-7.7-4.7-7.7L83,273.3c0,0-0.5,7.3,0.7,14c1.2,6.7,1,11,1.2,13.8s-0.8,6.2-2,9.2c-1.2,3-3.7,16.8-0.2,24.7
		c3.5,7.8,14.5,17,16.7,18.5s15,10.8,15,10.8L117.5,366.8z"/>
	<path id="XMLID_23865_" fill="#021F31" stroke="#FFFFFF" stroke-linecap="round" stroke-dasharray="1,3" d="M23.5,365l-0.5-3.8
		c0,0,11.5-6.8,18-10.5c6.5-3.7,13.3-3.8,15.7-23.5c2.3-19.7,2-36-1.5-46.8c-3.5-10.8-32-33.8-32-33.8s3,14.8,3.2,21.7
		s0,31.3,0,35.2c0,3.8,1,15.2,1.5,18.7s-0.2,19-1,22.5c-0.8,3.5-1.2,6.5-1.2,6.5l-6.2,3.5c0,0,0.8,7.3,2.7,9.2
		C24,365.5,23.5,365,23.5,365z"/>
	<path id="XMLID_23864_" fill="#021F31" stroke="#FFFFFF" stroke-linecap="round" stroke-dasharray="1,3" d="M28.6,255.9
		c10,8.8,21.2,20,23,25.5c3.2,9.9,3.7,25.6,1.3,45.3c-1.8,14.8-5.7,16.7-10.8,19.2c-1,0.5-2,1-3,1.5c-4.7,2.6-11.9,6.9-15.7,9.1
		c0,0,0-0.1,0-0.1l5.6-3.2l0.2-1.9c0,0,0.3-2.8,1.1-6.1c0.9-3.8,1.6-19.9,1.1-23.9c-0.5-3.4-1.5-14.6-1.5-18.1c0-0.9,0-2.8,0-5.3
		c0-8.6,0.1-24.6,0-29.9C29.9,264.9,29.3,260.2,28.6,255.9L28.6,255.9z"/>
	<path id="XMLID_23863_" fill="#021F31" d="M17.8,359.7c0,0-0.2-80.7,2-90l-5.2,32.8v9.7l0.3,36L17.8,359.7z"/>
	<path id="XMLID_23862_" fill="#021F31" d="M124.5,236.5c11.2,30,7.8,68.2,5.8,85.5c-1.7,15-7.5,41.2-8.9,47.7
		c3.4-9.9,6.7-20,8-24.9c2.7-9.8,3.1-16.6,3.1-16.6s1.3-9.5,2.6-21.2s-0.5-28.8-2.8-41.8s-5.8-28.8-9.2-37l-0.9-0.1L124.5,236.5z"/>
	<path id="XMLID_20975_" fill="#FFFFFF" d="M111.5,246.3c0.1,0,0.3,0.1,0.4,0.2c0.2,0.2,0.2,0.5,0,0.7l-0.7,0.7
		c-0.2,0.2-0.5,0.2-0.7,0c-0.2-0.2-0.2-0.5,0-0.7l0.7-0.7C111.3,246.4,111.4,246.3,111.5,246.3z M113.3,248.1c0.2,0,0.3,0.1,0.4,0.2
		c0.2,0.3,0.4,0.5,0.6,0.8c0.1,0.2,0.1,0.5-0.1,0.7c-0.2,0.1-0.5,0.1-0.7-0.2c-0.2-0.3-0.4-0.6-0.5-0.8c-0.2-0.2-0.1-0.5,0.1-0.7
		C113.1,248.1,113.2,248.1,113.3,248.1z M108.6,249c0.1,0,0.3,0.1,0.4,0.2c0.2,0.2,0.2,0.5,0,0.7l-0.7,0.7c-0.2,0.2-0.5,0.2-0.7,0
		c-0.2-0.2-0.2-0.5,0-0.7l0.7-0.7C108.3,249.1,108.4,249,108.6,249z M115.4,251.5c0.2,0,0.3,0.1,0.4,0.3c0.2,0.3,0.3,0.6,0.5,0.9
		c0.1,0.2,0,0.5-0.2,0.7c-0.2,0.1-0.5,0-0.7-0.2c-0.2-0.3-0.3-0.6-0.5-0.9c-0.1-0.2-0.1-0.5,0.2-0.7
		C115.2,251.5,115.3,251.5,115.4,251.5z M105.6,251.8c0.1,0,0.3,0.1,0.4,0.2c0.2,0.2,0.2,0.5,0,0.7l-0.7,0.7c-0.2,0.2-0.5,0.2-0.7,0
		c-0.2-0.2-0.2-0.5,0-0.7l0.7-0.7C105.4,251.8,105.5,251.8,105.6,251.8z M102.7,254.5c0.1,0,0.3,0.1,0.4,0.2c0.2,0.2,0.2,0.5,0,0.7
		l-0.7,0.7c-0.2,0.2-0.5,0.2-0.7,0c-0.2-0.2-0.2-0.5,0-0.7l0.7-0.7C102.5,254.5,102.6,254.5,102.7,254.5z M117,255.2
		c0.2,0,0.4,0.2,0.5,0.4c0.1,0.3,0.1,0.6,0.2,1c0,0.3-0.1,0.5-0.4,0.6c-0.3,0-0.5-0.1-0.6-0.4c-0.1-0.3-0.1-0.7-0.2-1
		c-0.1-0.3,0.1-0.5,0.4-0.6C116.9,255.2,116.9,255.2,117,255.2z M99.8,257.2c0.1,0,0.3,0.1,0.4,0.2c0.2,0.2,0.2,0.5,0,0.7l-0.7,0.7
		c-0.2,0.2-0.5,0.2-0.7,0c-0.2-0.2-0.2-0.5,0-0.7l0.7-0.7C99.5,257.3,99.7,257.2,99.8,257.2z M117.5,259.1c0.3,0,0.5,0.2,0.5,0.4
		c0,0.3,0.1,0.7,0.1,1c0,0.3-0.2,0.5-0.5,0.5c-0.3,0-0.5-0.2-0.5-0.5c0-0.3-0.1-0.7-0.1-1C117,259.4,117.2,259.2,117.5,259.1
		C117.5,259.1,117.5,259.1,117.5,259.1z M96.9,259.9c0.1,0,0.3,0.1,0.4,0.2c0.2,0.2,0.2,0.5,0,0.7l-0.7,0.7c-0.2,0.2-0.5,0.2-0.7,0
		c-0.2-0.2-0.2-0.5,0-0.7l0.7-0.7C96.6,260,96.7,259.9,96.9,259.9z M93.9,262.7c0.1,0,0.3,0.1,0.4,0.2c0.2,0.2,0.2,0.5,0,0.7
		l-0.7,0.7c-0.2,0.2-0.5,0.2-0.7,0c-0.2-0.2-0.2-0.5,0-0.7l0.7-0.7C93.7,262.7,93.8,262.7,93.9,262.7z M117.9,263.1
		c0.3,0,0.5,0.2,0.5,0.5l0.1,1c0,0.3-0.2,0.5-0.5,0.5c-0.3,0-0.5-0.2-0.5-0.5l-0.1-1C117.4,263.4,117.6,263.1,117.9,263.1
		C117.9,263.1,117.9,263.1,117.9,263.1z M91,265.4c0.1,0,0.3,0.1,0.4,0.2c0.2,0.2,0.2,0.5,0,0.7l-0.7,0.7c-0.2,0.2-0.5,0.2-0.7,0
		c-0.2-0.2-0.2-0.5,0-0.7l0.7-0.7C90.8,265.4,90.9,265.4,91,265.4z M118.1,267.1c0.3,0,0.5,0.2,0.5,0.5l0,1c0,0.3-0.2,0.5-0.5,0.5
		c-0.3,0-0.5-0.2-0.5-0.5l0-1C117.6,267.4,117.8,267.1,118.1,267.1C118.1,267.1,118.1,267.1,118.1,267.1z M88.1,268.1
		c0.1,0,0.3,0.1,0.4,0.2c0.2,0.2,0.2,0.5,0,0.7l-0.7,0.7c-0.2,0.2-0.5,0.2-0.7,0c-0.2-0.2-0.2-0.5,0-0.7l0.7-0.7
		C87.8,268.2,88,268.1,88.1,268.1z M85.1,270.8c0.1,0,0.3,0.1,0.4,0.2c0.2,0.2,0.2,0.5,0,0.7l-0.7,0.7c-0.2,0.2-0.5,0.2-0.7,0
		c-0.2-0.2-0.2-0.5,0-0.7l0.7-0.7C84.9,270.9,85,270.8,85.1,270.8z M118.3,271.1c0.3,0,0.5,0.2,0.5,0.5l0,1c0,0.3-0.2,0.5-0.5,0.5
		c-0.3,0-0.5-0.2-0.5-0.5l0-1C117.8,271.4,118,271.1,118.3,271.1C118.3,271.1,118.3,271.1,118.3,271.1z M82.9,273.9
		C83,273.9,83,273.9,82.9,273.9c0.3,0,0.5,0.2,0.5,0.5c0,0.3,0,0.6,0,1c0,0.3-0.2,0.5-0.5,0.5c-0.3,0-0.5-0.2-0.5-0.5
		c0-0.4,0-0.7,0-1C82.5,274.1,82.7,273.9,82.9,273.9z M118.4,275.1c0.3,0,0.5,0.2,0.5,0.5l0,1c0,0.3-0.2,0.5-0.5,0.5
		c-0.2,0-0.5-0.2-0.5-0.5l0-1C117.9,275.4,118.1,275.1,118.4,275.1C118.4,275.1,118.4,275.1,118.4,275.1z M82.9,277.9
		c0.3,0,0.5,0.2,0.5,0.5c0,0.3,0,0.7,0,1c0,0.3-0.2,0.5-0.5,0.5c-0.3,0-0.5-0.2-0.5-0.5c0-0.3,0-0.7,0-1
		C82.4,278.1,82.6,277.9,82.9,277.9C82.9,277.9,82.9,277.9,82.9,277.9z M118.5,279.1c0.3,0,0.5,0.2,0.5,0.5l0,1
		c0,0.3-0.2,0.5-0.5,0.5c-0.3,0-0.5-0.2-0.5-0.5l0-1C118,279.4,118.2,279.1,118.5,279.1C118.5,279.1,118.5,279.1,118.5,279.1z
		 M83.1,281.9c0.3,0,0.5,0.2,0.5,0.5c0,0.3,0.1,0.7,0.1,1c0,0.3-0.2,0.5-0.5,0.5c-0.3,0-0.5-0.2-0.5-0.5c0-0.3-0.1-0.7-0.1-1
		C82.6,282.2,82.8,281.9,83.1,281.9C83.1,281.9,83.1,281.9,83.1,281.9z M118.7,283.1c0.3,0,0.5,0.2,0.5,0.5l0,1
		c0,0.3-0.2,0.5-0.5,0.5c-0.3,0-0.5-0.2-0.5-0.5l0-1C118.2,283.4,118.4,283.1,118.7,283.1C118.7,283.1,118.7,283.1,118.7,283.1z
		 M83.5,285.9c0.2,0,0.5,0.2,0.5,0.4c0,0.3,0.1,0.6,0.2,0.9c0,0.3-0.1,0.5-0.4,0.6c-0.3,0-0.5-0.1-0.6-0.4c-0.1-0.4-0.1-0.7-0.2-1
		C83,286.2,83.2,285.9,83.5,285.9C83.5,285.9,83.5,285.9,83.5,285.9z M118.8,287.1c0.3,0,0.5,0.2,0.5,0.5l0,1c0,0.3-0.2,0.5-0.5,0.5
		h0c-0.3,0-0.5-0.2-0.5-0.5l0-1C118.3,287.4,118.5,287.1,118.8,287.1C118.8,287.1,118.8,287.1,118.8,287.1z M84.1,289.8
		c0.2,0,0.5,0.2,0.5,0.4c0,0.3,0.1,0.7,0.1,1c0,0.3-0.2,0.5-0.4,0.6c-0.3,0-0.5-0.2-0.6-0.4c0-0.3-0.1-0.7-0.1-1
		C83.6,290.1,83.8,289.9,84.1,289.8C84.1,289.8,84.1,289.8,84.1,289.8z M118.8,291.1C118.8,291.1,118.8,291.1,118.8,291.1
		c0.3,0,0.5,0.2,0.5,0.5c0,0.3,0,0.7,0,1c0,0.3-0.2,0.5-0.5,0.5c-0.3,0-0.5-0.2-0.5-0.5c0-0.3,0-0.7,0-1
		C118.3,291.3,118.5,291.1,118.8,291.1z M84.5,293.8c0.3,0,0.5,0.2,0.5,0.5c0,0.3,0,0.7,0.1,1c0,0.3-0.2,0.5-0.5,0.5
		c-0.3,0-0.5-0.2-0.5-0.5c0-0.3,0-0.7-0.1-1C84,294.1,84.2,293.8,84.5,293.8C84.5,293.8,84.5,293.8,84.5,293.8z M118.6,295.1
		C118.6,295.1,118.6,295.1,118.6,295.1c0.3,0,0.5,0.3,0.5,0.5c0,0.3-0.1,0.7-0.1,1c0,0.3-0.3,0.5-0.6,0.4c-0.3,0-0.5-0.3-0.4-0.6
		c0-0.3,0.1-0.6,0.1-1C118.1,295.3,118.3,295.1,118.6,295.1z M84.7,297.8c0.3,0,0.5,0.2,0.5,0.5l0,1c0,0.3-0.2,0.5-0.5,0.5
		c-0.3,0-0.5-0.2-0.5-0.5l0-1C84.2,298,84.4,297.8,84.7,297.8C84.7,297.8,84.7,297.8,84.7,297.8z M117.9,299.1c0,0,0.1,0,0.1,0
		c0.3,0.1,0.4,0.4,0.3,0.6c-0.1,0.3-0.2,0.6-0.3,0.8l-0.1,0.2c-0.1,0.3-0.4,0.4-0.7,0.3c-0.3-0.1-0.4-0.4-0.3-0.7l0.1-0.2
		c0.1-0.2,0.2-0.4,0.3-0.7C117.5,299.2,117.7,299.1,117.9,299.1z M84.8,301.8C84.8,301.8,84.9,301.8,84.8,301.8
		c0.3,0,0.5,0.2,0.5,0.5c0,0.3,0,0.7-0.1,1c0,0.3-0.3,0.5-0.6,0.4c-0.3,0-0.5-0.3-0.4-0.6c0-0.3,0.1-0.6,0.1-1
		C84.4,302,84.6,301.8,84.8,301.8z M116.9,302.9C116.9,302.9,116.9,302.9,116.9,302.9c0.3,0,0.5,0.3,0.5,0.6c0,0.3-0.1,0.6-0.1,1
		c0,0.3-0.3,0.5-0.5,0.5c-0.3,0-0.5-0.3-0.5-0.5c0-0.3,0.1-0.7,0.1-1C116.4,303.1,116.6,302.9,116.9,302.9z M84.2,305.7
		c0,0,0.1,0,0.1,0c0.3,0.1,0.4,0.3,0.4,0.6c-0.1,0.3-0.2,0.7-0.3,1c-0.1,0.3-0.4,0.4-0.6,0.3c-0.3-0.1-0.4-0.4-0.3-0.6
		c0.1-0.3,0.2-0.6,0.3-0.9C83.8,305.9,84,305.7,84.2,305.7z M116.7,306.9c0.3,0,0.5,0.2,0.5,0.5c0,0.3,0,0.7,0,1
		c0,0.3-0.2,0.5-0.5,0.5c-0.3,0-0.5-0.2-0.5-0.5c0-0.3,0-0.7,0-1C116.2,307.1,116.4,306.9,116.7,306.9
		C116.7,306.9,116.7,306.9,116.7,306.9z M82.9,309.5c0.1,0,0.1,0,0.2,0c0.3,0.1,0.4,0.4,0.3,0.6l-0.1,0.3c-0.1,0.2-0.1,0.4-0.2,0.6
		c-0.1,0.3-0.4,0.4-0.6,0.3c-0.3-0.1-0.4-0.4-0.3-0.6c0.1-0.3,0.2-0.5,0.2-0.7l0.1-0.3C82.6,309.7,82.7,309.5,82.9,309.5z
		 M116.9,310.9c0.3,0,0.5,0.2,0.5,0.5l0.1,1c0,0.3-0.2,0.5-0.5,0.5c-0.3,0-0.5-0.2-0.5-0.5l-0.1-1
		C116.4,311.2,116.6,310.9,116.9,310.9C116.9,310.9,116.9,310.9,116.9,310.9z M81.9,313.4C81.9,313.4,82,313.4,81.9,313.4
		c0.4,0.1,0.5,0.3,0.5,0.6c-0.1,0.3-0.1,0.6-0.2,1c0,0.3-0.3,0.5-0.6,0.4c-0.3,0-0.5-0.3-0.4-0.6c0.1-0.3,0.1-0.7,0.2-1
		C81.5,313.6,81.7,313.4,81.9,313.4z M117,314.9L117,314.9c0.3,0,0.5,0.2,0.5,0.5l0,1l-1,0l0.5,0l-0.5,0l0-1
		C116.5,315.1,116.7,314.9,117,314.9z M81.3,317.3C81.3,317.3,81.3,317.3,81.3,317.3c0.3,0,0.5,0.3,0.5,0.6c0,0.3-0.1,0.7-0.1,1
		c0,0.3-0.3,0.5-0.5,0.4c-0.3,0-0.5-0.3-0.4-0.5c0-0.3,0.1-0.7,0.1-1C80.8,317.5,81,317.3,81.3,317.3z M117,318.9
		c0.3,0,0.5,0.2,0.5,0.5l0,1c0,0.3-0.2,0.5-0.5,0.5c-0.3,0-0.5-0.2-0.5-0.5l0-1C116.5,319.1,116.7,318.9,117,318.9
		C117,318.9,117,318.9,117,318.9z M80.9,321.3C80.9,321.3,81,321.3,80.9,321.3c0.3,0,0.5,0.2,0.5,0.5c0,0.3,0,0.7,0,1
		c0,0.3-0.3,0.5-0.5,0.5c-0.3,0-0.5-0.2-0.5-0.5c0-0.3,0-0.7,0-1C80.5,321.5,80.7,321.3,80.9,321.3z M117,322.9
		c0.3,0,0.5,0.2,0.5,0.5l0,1c0,0.3-0.2,0.5-0.5,0.5c-0.3,0-0.5-0.2-0.5-0.5l0-1C116.5,323.1,116.8,322.9,117,322.9
		C117,322.9,117,322.9,117,322.9z M80.9,325.3c0.3,0,0.5,0.2,0.5,0.5c0,0.3,0,0.7,0,1c0,0.3-0.2,0.5-0.5,0.5c-0.3,0-0.5-0.2-0.5-0.5
		c0-0.3,0-0.7,0-1C80.4,325.6,80.6,325.3,80.9,325.3C80.9,325.3,80.9,325.3,80.9,325.3z M117.1,326.9c0.3,0,0.5,0.2,0.5,0.5l0,1
		c0,0.3-0.2,0.5-0.5,0.5c-0.3,0-0.5-0.2-0.5-0.5l0-1C116.6,327.1,116.8,326.9,117.1,326.9C117.1,326.9,117.1,326.9,117.1,326.9z
		 M81.2,329.3c0.2,0,0.5,0.2,0.5,0.4c0,0.3,0.1,0.6,0.2,1c0.1,0.3-0.1,0.5-0.4,0.6c-0.3,0-0.5-0.1-0.6-0.4c-0.1-0.3-0.1-0.7-0.2-1
		C80.7,329.6,80.9,329.4,81.2,329.3C81.2,329.3,81.2,329.3,81.2,329.3z M117.2,330.9c0.3,0,0.5,0.2,0.5,0.5l0,1
		c0,0.3-0.2,0.5-0.5,0.5c-0.3,0-0.5-0.2-0.5-0.5l0-1C116.7,331.2,116.9,330.9,117.2,330.9C117.2,330.9,117.2,330.9,117.2,330.9z
		 M82.2,333.2c0.2,0,0.4,0.1,0.5,0.3c0.1,0.3,0.2,0.6,0.3,0.9c0.1,0.3,0,0.5-0.3,0.7c-0.3,0.1-0.5,0-0.7-0.3c-0.1-0.3-0.3-0.6-0.4-1
		c-0.1-0.3,0-0.5,0.3-0.6C82.1,333.2,82.1,333.2,82.2,333.2z M117.4,334.9c0.3,0,0.5,0.2,0.5,0.5c0,0.3,0,0.5,0,0.8l0,0.3
		c0,0.3-0.2,0.5-0.5,0.5c0,0,0,0,0,0c-0.3,0-0.5-0.2-0.5-0.5l0-0.2c0-0.2,0-0.5,0-0.7C116.9,335.1,117.1,334.9,117.4,334.9
		C117.4,334.9,117.4,334.9,117.4,334.9z M83.9,336.8c0.2,0,0.3,0.1,0.4,0.2c0.2,0.3,0.3,0.6,0.5,0.8c0.2,0.2,0.1,0.5-0.1,0.7
		c-0.2,0.2-0.5,0.1-0.7-0.1c-0.2-0.3-0.4-0.6-0.5-0.9c-0.1-0.2-0.1-0.5,0.2-0.7C83.7,336.8,83.8,336.8,83.9,336.8z M117.2,338.9
		C117.3,338.9,117.3,338.9,117.2,338.9c0.3,0,0.5,0.3,0.5,0.5c0,0.3,0,0.7-0.1,1c0,0.3-0.3,0.5-0.5,0.5c-0.3,0-0.5-0.3-0.5-0.5
		c0-0.3,0.1-0.7,0.1-1C116.8,339.1,117,338.9,117.2,338.9z M86.1,340.1c0.2,0,0.3,0.1,0.4,0.2c0.2,0.3,0.4,0.5,0.6,0.8
		c0.2,0.2,0.1,0.5-0.1,0.7c-0.2,0.2-0.5,0.1-0.7-0.1c-0.2-0.3-0.4-0.5-0.6-0.8c-0.2-0.2-0.1-0.5,0.1-0.7
		C85.9,340.1,86,340.1,86.1,340.1z M116.8,342.9C116.9,342.9,116.9,342.9,116.8,342.9c0.3,0,0.5,0.3,0.5,0.6c0,0.3-0.1,0.7-0.1,1
		c0,0.3-0.3,0.5-0.6,0.4c-0.3,0-0.5-0.3-0.4-0.6c0-0.3,0.1-0.7,0.1-1C116.4,343.1,116.6,342.9,116.8,342.9z M88.7,343.2
		c0.1,0,0.3,0.1,0.4,0.2c0.2,0.2,0.4,0.5,0.7,0.7c0.2,0.2,0.2,0.5,0,0.7c-0.2,0.2-0.5,0.2-0.7,0c-0.2-0.2-0.5-0.5-0.7-0.7
		c-0.2-0.2-0.2-0.5,0-0.7C88.5,343.2,88.6,343.2,88.7,343.2z M91.5,346.1c0.1,0,0.3,0,0.4,0.1c0.2,0.2,0.5,0.5,0.7,0.7
		c0.2,0.2,0.2,0.5,0,0.7c-0.2,0.2-0.5,0.2-0.7,0c-0.2-0.2-0.5-0.5-0.7-0.7c-0.2-0.2-0.2-0.5,0-0.7C91.2,346.1,91.3,346.1,91.5,346.1
		z M116.2,346.9C116.3,346.9,116.3,346.9,116.2,346.9c0.4,0.1,0.5,0.3,0.5,0.6l-0.2,1c0,0.3-0.3,0.5-0.6,0.4c-0.3,0-0.5-0.3-0.4-0.6
		l0.2-1C115.8,347,116,346.9,116.2,346.9z M94.4,348.9c0.1,0,0.2,0,0.3,0.1c0.3,0.2,0.5,0.5,0.7,0.7c0.2,0.2,0.2,0.5,0,0.7
		c-0.2,0.2-0.5,0.2-0.7,0c-0.2-0.2-0.5-0.4-0.7-0.7c-0.2-0.2-0.2-0.5,0-0.7C94.1,348.9,94.2,348.9,94.4,348.9z M115.5,350.8
		c0,0,0.1,0,0.1,0c0.3,0.1,0.4,0.3,0.4,0.6c-0.1,0.4-0.2,0.7-0.2,1c-0.1,0.3-0.3,0.4-0.6,0.4c-0.3-0.1-0.4-0.3-0.4-0.6
		c0.1-0.2,0.1-0.6,0.2-1C115,350.9,115.3,350.8,115.5,350.8z M97.4,351.5c0.1,0,0.2,0,0.3,0.1c0.3,0.2,0.5,0.4,0.8,0.6
		c0.2,0.2,0.3,0.5,0.1,0.7c-0.2,0.2-0.5,0.3-0.7,0.1c-0.2-0.2-0.5-0.4-0.8-0.6c-0.2-0.2-0.2-0.5-0.1-0.7
		C97.1,351.5,97.2,351.5,97.4,351.5z M117.5,353.2c0.1,0,0.1,0,0.2,0l0.9,0.4c0.3,0.1,0.4,0.4,0.3,0.7c-0.1,0.3-0.4,0.4-0.7,0.3
		l-0.9-0.4c-0.3-0.1-0.4-0.4-0.3-0.7C117.2,353.3,117.3,353.2,117.5,353.2z M100.6,353.9c0.1,0,0.2,0,0.3,0.1l0.8,0.6
		c0.2,0.2,0.3,0.5,0.1,0.7c-0.2,0.2-0.5,0.3-0.7,0.1l-0.8-0.6c-0.2-0.2-0.3-0.5-0.1-0.7C100.3,354,100.4,353.9,100.6,353.9z
		 M121,354.6c0.2,0,0.4,0.2,0.5,0.4c0,0.1,0,0.2,0,0.4c0,0.2,0,0.3-0.1,0.5l0,0.3c0,0.3-0.3,0.5-0.6,0.4c-0.3,0-0.5-0.3-0.4-0.6
		l0-0.3c0-0.1,0-0.2,0-0.4c0-0.1,0-0.1,0-0.2C120.5,355,120.7,354.7,121,354.6C121,354.6,121,354.6,121,354.6z M103.9,356.2
		c0.1,0,0.2,0,0.3,0.1l0.8,0.6c0.2,0.2,0.3,0.5,0.1,0.7c-0.2,0.2-0.5,0.3-0.7,0.1l-0.8-0.6c-0.2-0.2-0.3-0.5-0.1-0.7
		C103.5,356.3,103.7,356.2,103.9,356.2z M107.1,358.6c0.1,0,0.2,0,0.3,0.1l0.8,0.6c0.2,0.2,0.3,0.5,0.1,0.7
		c-0.2,0.2-0.5,0.3-0.7,0.1l-0.8-0.6c-0.2-0.2-0.3-0.5-0.1-0.7C106.8,358.7,106.9,358.6,107.1,358.6z M120.6,358.6
		C120.6,358.6,120.6,358.6,120.6,358.6c0.3,0,0.5,0.3,0.5,0.5l-0.1,1c0,0.3-0.3,0.5-0.5,0.5c-0.3,0-0.5-0.3-0.5-0.5l0.1-1
		C120.1,358.8,120.4,358.6,120.6,358.6z M110.3,360.9c0.1,0,0.2,0,0.3,0.1l0.8,0.6c0.2,0.2,0.3,0.5,0.1,0.7
		c-0.2,0.2-0.5,0.3-0.7,0.1l-0.8-0.6c-0.2-0.2-0.3-0.5-0.1-0.7C110,361,110.2,360.9,110.3,360.9z M120.3,362.6
		C120.3,362.6,120.3,362.6,120.3,362.6c0.3,0,0.5,0.3,0.5,0.5l-0.1,1c0,0.3-0.3,0.5-0.5,0.5c-0.3,0-0.5-0.3-0.5-0.5l0.1-1
		C119.8,362.8,120,362.6,120.3,362.6z M113.6,363.3c0.1,0,0.2,0,0.3,0.1c0.8,0.6,0.8,0.6,0.8,0.6c0.2,0.2,0.3,0.5,0.1,0.7
		c-0.2,0.2-0.5,0.3-0.7,0.1l-0.8-0.6c-0.2-0.2-0.3-0.5-0.1-0.7C113.3,363.4,113.4,363.3,113.6,363.3z M118.3,365.7
		c0.1,0,0.3,0.1,0.4,0.2c0.2,0.2,0.1,0.5-0.1,0.7l-1.1,0.9l-1.1-0.8c-0.2-0.2-0.3-0.5-0.1-0.7c0.2-0.2,0.5-0.3,0.7-0.1l0.4,0.3
		l0.5-0.4C118.1,365.7,118.2,365.7,118.3,365.7z"/>
	<path id="XMLID_769_" fill="#FFFFFF" d="M111.1,252.1c0.2,0,0.3,0.1,0.4,0.2c0.2,0.3,0.4,0.6,0.5,0.9c0.1,0.2,0.1,0.5-0.2,0.7
		c-0.2,0.1-0.5,0.1-0.7-0.2c-0.1-0.1-0.1-0.2-0.2-0.3c0,0,0,0-0.1,0.1l-0.7,0.7c-0.2,0.2-0.5,0.2-0.7,0c-0.2-0.2-0.2-0.5,0-0.7
		l0.7-0.7c0.1-0.1,0.2-0.1,0.4-0.1c0-0.2,0.1-0.3,0.2-0.4C110.9,252.1,111,252.1,111.1,252.1z M107.7,255.3c0.1,0,0.3,0.1,0.4,0.2
		c0.2,0.2,0.2,0.5,0,0.7l-0.7,0.7c-0.2,0.2-0.5,0.2-0.7,0c-0.2-0.2-0.2-0.5,0-0.7l0.7-0.7C107.4,255.3,107.6,255.3,107.7,255.3z
		 M113,255.6c0.2,0,0.4,0.1,0.5,0.4c0.1,0.3,0.2,0.6,0.2,1c0.1,0.3-0.1,0.5-0.4,0.6c-0.3,0.1-0.5-0.1-0.6-0.4
		c-0.1-0.4-0.1-0.7-0.2-0.9c-0.1-0.3,0.1-0.5,0.3-0.6C112.9,255.6,112.9,255.6,113,255.6z M104.8,258c0.1,0,0.3,0.1,0.4,0.2
		c0.2,0.2,0.2,0.5,0,0.7l-0.7,0.7c-0.2,0.2-0.5,0.2-0.7,0c-0.2-0.2-0.2-0.5,0-0.7l0.7-0.7C104.5,258.1,104.6,258,104.8,258z
		 M113.6,259.6c0.3,0,0.5,0.2,0.5,0.5c0,0.3,0.1,0.7,0.1,1c0,0.3-0.2,0.5-0.5,0.5c-0.3,0-0.5-0.2-0.5-0.5c0-0.3-0.1-0.7-0.1-1
		C113.1,259.8,113.3,259.6,113.6,259.6C113.6,259.6,113.6,259.6,113.6,259.6z M101.8,260.7c0.1,0,0.3,0.1,0.4,0.2
		c0.2,0.2,0.2,0.5,0,0.7l-0.7,0.7c-0.2,0.2-0.5,0.2-0.7,0c-0.2-0.2-0.2-0.5,0-0.7l0.7-0.7C101.6,260.8,101.7,260.7,101.8,260.7z
		 M98.9,263.5c0.1,0,0.3,0.1,0.4,0.2c0.2,0.2,0.2,0.5,0,0.7l-0.7,0.7c-0.2,0.2-0.5,0.2-0.7,0c-0.2-0.2-0.2-0.5,0-0.7l0.7-0.7
		C98.7,263.5,98.8,263.5,98.9,263.5z M113.9,263.5c0.3,0,0.5,0.2,0.5,0.5l0.1,1c0,0.3-0.2,0.5-0.5,0.5c-0.3,0-0.5-0.2-0.5-0.5
		l-0.1-1C113.4,263.8,113.6,263.6,113.9,263.5C113.9,263.5,113.9,263.5,113.9,263.5z M96,266.2c0.1,0,0.3,0.1,0.4,0.2
		c0.2,0.2,0.2,0.5,0,0.7l-0.7,0.7c-0.2,0.2-0.5,0.2-0.7,0c-0.2-0.2-0.2-0.5,0-0.7l0.7-0.7C95.7,266.2,95.8,266.2,96,266.2z
		 M114.2,267.5c0.3,0,0.5,0.2,0.5,0.5l0,1c0,0.3-0.2,0.5-0.5,0.5c-0.3,0-0.5-0.2-0.5-0.5l0-1C113.6,267.8,113.9,267.6,114.2,267.5
		C114.1,267.5,114.1,267.5,114.2,267.5z M93,268.9c0.1,0,0.3,0.1,0.4,0.2c0.2,0.2,0.2,0.5,0,0.7l-0.7,0.7c-0.2,0.2-0.5,0.2-0.7,0
		c-0.2-0.2-0.2-0.5,0-0.7l0.7-0.7C92.8,269,92.9,268.9,93,268.9z M114.3,271.5c0.3,0,0.5,0.2,0.5,0.5l0,1c0,0.3-0.2,0.5-0.5,0.5
		c-0.3,0-0.5-0.2-0.5-0.5l0-1C113.8,271.8,114,271.5,114.3,271.5C114.3,271.5,114.3,271.5,114.3,271.5z M90.1,271.6
		c0.1,0,0.3,0.1,0.4,0.2c0.2,0.2,0.2,0.5,0,0.7l-0.7,0.7c-0.2,0.2-0.5,0.2-0.7,0c-0.2-0.2-0.2-0.5,0-0.7l0.7-0.7
		C89.9,271.7,90,271.6,90.1,271.6z M87.2,274.4c0.1,0,0.3,0.1,0.4,0.2c0.2,0.2,0.2,0.5,0,0.7l-0.1,0.1l0,0.4c0,0.3-0.3,0.5-0.5,0.5
		c-0.3,0-0.5-0.2-0.5-0.5l0-0.8l0.4-0.4C86.9,274.4,87.1,274.4,87.2,274.4z M114.5,275.5c0.3,0,0.5,0.2,0.5,0.5l0,1
		c0,0.3-0.2,0.5-0.5,0.5c-0.3,0-0.5-0.2-0.5-0.5l0-1C114,275.8,114.2,275.5,114.5,275.5C114.5,275.5,114.5,275.5,114.5,275.5z
		 M86.9,278.2c0.3,0,0.5,0.2,0.5,0.5c0,0.3,0,0.7,0,1c0,0.3-0.2,0.5-0.5,0.5c-0.3,0-0.5-0.2-0.5-0.5c0-0.3,0-0.7,0-1
		C86.4,278.5,86.6,278.2,86.9,278.2C86.9,278.2,86.9,278.2,86.9,278.2z M114.6,279.5c0.3,0,0.5,0.2,0.5,0.5l0,1
		c0,0.3-0.2,0.5-0.5,0.5c-0.3,0-0.5-0.2-0.5-0.5l0-1C114.1,279.8,114.3,279.5,114.6,279.5C114.6,279.5,114.6,279.5,114.6,279.5z
		 M87.1,282.2c0.3,0,0.5,0.2,0.5,0.5c0,0.3,0.1,0.7,0.1,1c0,0.3-0.2,0.5-0.4,0.5c-0.3,0-0.5-0.2-0.5-0.4c0-0.3-0.1-0.7-0.1-1
		C86.6,282.5,86.8,282.3,87.1,282.2C87.1,282.2,87.1,282.2,87.1,282.2z M114.7,283.5c0.3,0,0.5,0.2,0.5,0.5l0,1
		c0,0.3-0.2,0.5-0.5,0.5c0,0,0,0,0,0c-0.3,0-0.5-0.2-0.5-0.5l0-1C114.2,283.8,114.4,283.5,114.7,283.5
		C114.7,283.5,114.7,283.5,114.7,283.5z M87.6,286.2c0.2,0,0.5,0.2,0.5,0.4c0.1,0.3,0.1,0.7,0.2,1c0,0.3-0.1,0.5-0.4,0.6
		c-0.3,0.1-0.5-0.1-0.6-0.4c-0.1-0.3-0.1-0.6-0.2-1C87,286.5,87.2,286.3,87.6,286.2C87.5,286.2,87.6,286.2,87.6,286.2z M114.8,287.5
		c0.3,0,0.5,0.2,0.5,0.5l0,1c0,0.3-0.2,0.5-0.5,0.5c0,0,0,0,0,0c-0.3,0-0.5-0.2-0.5-0.5l0-1C114.3,287.8,114.5,287.5,114.8,287.5
		C114.8,287.5,114.8,287.5,114.8,287.5z M88.2,290.2c0.2,0,0.5,0.2,0.5,0.4c0,0.3,0.1,0.7,0.1,1c0,0.3-0.2,0.5-0.4,0.5
		c-0.3,0-0.5-0.2-0.6-0.4c0-0.3-0.1-0.7-0.1-1C87.6,290.4,87.8,290.2,88.2,290.2C88.1,290.2,88.1,290.2,88.2,290.2z M114.8,291.5
		C114.8,291.5,114.8,291.5,114.8,291.5c0.3,0,0.5,0.2,0.5,0.5c0,0.3,0,0.7,0,1c0,0.3-0.2,0.5-0.5,0.5c-0.3,0-0.5-0.2-0.5-0.5
		c0-0.3,0-0.7,0-1C114.3,291.7,114.5,291.5,114.8,291.5z M88.5,294.1c0.3,0,0.5,0.2,0.5,0.5c0,0.3,0,0.7,0.1,1
		c0,0.3-0.2,0.5-0.5,0.5c-0.3,0-0.5-0.2-0.5-0.5c0-0.3,0-0.7-0.1-1C88,294.4,88.2,294.2,88.5,294.1
		C88.5,294.1,88.5,294.1,88.5,294.1z M114.6,295.5C114.6,295.5,114.6,295.5,114.6,295.5c0.3,0,0.5,0.3,0.5,0.5c0,0.4-0.1,0.7-0.1,1
		c0,0.3-0.3,0.5-0.6,0.4c-0.3,0-0.5-0.3-0.4-0.6c0-0.3,0.1-0.6,0.1-1C114.1,295.7,114.3,295.5,114.6,295.5z M88.7,298.1
		c0.3,0,0.5,0.2,0.5,0.5l0,1c0,0.3-0.2,0.5-0.5,0.5c-0.3,0-0.5-0.2-0.5-0.5l0-1C88.2,298.4,88.4,298.1,88.7,298.1
		C88.7,298.1,88.7,298.1,88.7,298.1z M113.6,299.4c0.1,0,0.1,0,0.2,0c0.3,0.1,0.4,0.4,0.3,0.6c-0.1,0.3-0.2,0.6-0.3,0.9
		c-0.1,0.3-0.3,0.4-0.6,0.4c-0.3-0.1-0.4-0.3-0.4-0.6c0.1-0.3,0.2-0.7,0.3-1C113.2,299.5,113.4,299.4,113.6,299.4z M88.8,302.1
		C88.8,302.1,88.8,302.1,88.8,302.1c0.3,0,0.5,0.2,0.5,0.5c0,0.3,0,0.7-0.1,1c0,0.3-0.3,0.5-0.5,0.4c-0.3,0-0.5-0.3-0.4-0.5
		c0-0.3,0.1-0.7,0.1-1C88.3,302.3,88.5,302.1,88.8,302.1z M112.8,303.3C112.9,303.3,112.9,303.3,112.8,303.3c0.3,0,0.5,0.3,0.5,0.5
		c0,0.3-0.1,0.7-0.1,1c0,0.3-0.2,0.5-0.5,0.5c-0.3,0-0.5-0.2-0.5-0.5c0-0.3,0-0.7,0.1-1C112.4,303.5,112.6,303.3,112.8,303.3z
		 M88.2,306.1c0,0,0.1,0,0.1,0c0.3,0.1,0.4,0.3,0.4,0.6c-0.1,0.3-0.2,0.7-0.3,1c-0.1,0.3-0.3,0.4-0.6,0.3c-0.3-0.1-0.4-0.3-0.3-0.6
		c0.1-0.3,0.2-0.6,0.2-1C87.8,306.2,88,306.1,88.2,306.1z M112.7,307.3c0.3,0,0.5,0.2,0.5,0.5c0,0.3,0,0.7,0,1
		c0,0.3-0.2,0.5-0.5,0.5c-0.3,0-0.5-0.2-0.5-0.5c0-0.3,0-0.7,0-1C112.2,307.5,112.5,307.3,112.7,307.3
		C112.7,307.3,112.7,307.3,112.7,307.3z M87,309.9c0.1,0,0.1,0,0.2,0c0.3,0.1,0.4,0.4,0.3,0.6c-0.1,0.3-0.2,0.6-0.3,0.9
		c-0.1,0.3-0.4,0.4-0.6,0.3c-0.3-0.1-0.4-0.4-0.3-0.6c0.1-0.3,0.2-0.6,0.3-0.9C86.6,310,86.8,309.9,87,309.9z M112.9,311.3
		c0.3,0,0.5,0.2,0.5,0.5l0.1,1c0,0.3-0.2,0.5-0.5,0.5c-0.3,0-0.5-0.2-0.5-0.5l-0.1-1C112.4,311.5,112.6,311.3,112.9,311.3
		C112.9,311.3,112.9,311.3,112.9,311.3z M85.9,313.7c0,0,0.1,0,0.1,0c0.3,0.1,0.4,0.3,0.4,0.6c-0.1,0.3-0.1,0.6-0.2,1
		c0,0.3-0.3,0.4-0.6,0.4c-0.3,0-0.5-0.3-0.4-0.6c0.1-0.3,0.1-0.7,0.2-1C85.4,313.9,85.6,313.7,85.9,313.7z M113,315.3
		c0.3,0,0.5,0.2,0.5,0.5l0,1c0,0.3-0.2,0.5-0.5,0.5h0c-0.3,0-0.5-0.2-0.5-0.5l0-1C112.5,315.5,112.8,315.3,113,315.3L113,315.3z
		 M85.2,317.7C85.3,317.7,85.3,317.7,85.2,317.7c0.3,0,0.5,0.3,0.5,0.6c0,0.3-0.1,0.7-0.1,1c0,0.3-0.3,0.5-0.5,0.4
		c-0.3,0-0.5-0.3-0.4-0.5c0-0.3,0.1-0.7,0.1-1C84.8,317.9,85,317.7,85.2,317.7z M113,319.3c0.3,0,0.5,0.2,0.5,0.5l0,0.9l-0.5,0.1
		l-0.5,0l0-1C112.5,319.5,112.8,319.3,113,319.3C113,319.3,113,319.3,113,319.3z M84.9,321.7C84.9,321.7,84.9,321.7,84.9,321.7
		c0.3,0,0.5,0.2,0.5,0.5c0,0.3,0,0.7,0,1c0,0.3-0.2,0.5-0.5,0.5c-0.3,0-0.5-0.2-0.5-0.5c0-0.3,0-0.7,0-1
		C84.4,321.9,84.6,321.7,84.9,321.7z M113.1,323.3c0.3,0,0.5,0.2,0.5,0.4l0,1c0,0.3-0.2,0.5-0.5,0.5c-0.3,0-0.5-0.2-0.5-0.5l0-0.9
		C112.6,323.6,112.8,323.4,113.1,323.3C113.1,323.3,113.1,323.3,113.1,323.3z M84.9,325.7c0.3,0,0.5,0.2,0.5,0.5c0,0.3,0,0.7,0.1,1
		c0,0.3-0.2,0.5-0.5,0.5c-0.3,0-0.5-0.2-0.5-0.5c0-0.3,0-0.7-0.1-1C84.4,325.9,84.6,325.7,84.9,325.7
		C84.9,325.7,84.9,325.7,84.9,325.7z M113.2,327.3c0.3,0,0.5,0.2,0.5,0.5l0,1c0,0.3-0.2,0.5-0.5,0.5c-0.3,0-0.5-0.2-0.5-0.5l0-1
		C112.6,327.5,112.9,327.3,113.2,327.3C113.1,327.3,113.1,327.3,113.2,327.3z M85.3,329.6c0.2,0,0.4,0.2,0.5,0.4
		c0.1,0.3,0.1,0.6,0.2,1c0.1,0.3-0.1,0.5-0.4,0.6c-0.3,0.1-0.5-0.1-0.6-0.4c-0.1-0.3-0.2-0.7-0.2-1C84.8,330,85,329.7,85.3,329.6
		C85.3,329.6,85.3,329.6,85.3,329.6z M113.3,331.3c0.3,0,0.5,0.2,0.5,0.5l0,1c0,0.3-0.2,0.5-0.5,0.5c-0.3,0-0.5-0.2-0.5-0.5l0-1
		C112.7,331.5,113,331.3,113.3,331.3C113.2,331.3,113.3,331.3,113.3,331.3z M86.5,333.4c0.2,0,0.4,0.1,0.4,0.3
		c0.1,0.3,0.3,0.6,0.5,0.9c0.1,0.2,0.1,0.5-0.2,0.7c-0.2,0.1-0.5,0.1-0.7-0.2c-0.2-0.3-0.3-0.6-0.5-0.9c-0.1-0.2,0-0.5,0.2-0.7
		C86.4,333.4,86.5,333.4,86.5,333.4z M113.4,335.3c0.3,0,0.5,0.2,0.5,0.5l0,0.4c0,0.2,0,0.4,0,0.6c0,0.3-0.2,0.5-0.5,0.5
		c0,0,0,0,0,0c-0.3,0-0.5-0.2-0.5-0.5c0-0.2,0-0.4,0-0.6l0-0.4C112.9,335.5,113.1,335.3,113.4,335.3
		C113.4,335.3,113.4,335.3,113.4,335.3z M88.6,336.8c0.2,0,0.3,0.1,0.4,0.2c0.2,0.3,0.4,0.5,0.6,0.8c0.2,0.2,0.1,0.5-0.1,0.7
		c-0.2,0.2-0.5,0.1-0.7-0.1c-0.2-0.3-0.4-0.5-0.6-0.8c-0.2-0.2-0.1-0.5,0.1-0.7C88.4,336.9,88.5,336.8,88.6,336.8z M113.2,339.3
		C113.3,339.3,113.3,339.3,113.2,339.3c0.3,0,0.5,0.3,0.5,0.5c0,0.3-0.1,0.7-0.1,1c0,0.3-0.3,0.5-0.5,0.4c-0.3,0-0.5-0.3-0.4-0.5
		c0-0.3,0.1-0.7,0.1-1C112.8,339.5,113,339.3,113.2,339.3z M91.1,340c0.1,0,0.3,0.1,0.4,0.2c0.2,0.2,0.4,0.5,0.7,0.7
		c0.2,0.2,0.2,0.5,0,0.7c-0.2,0.2-0.5,0.2-0.7,0c-0.2-0.3-0.4-0.5-0.7-0.8c-0.2-0.2-0.2-0.5,0-0.7C90.9,340,91,340,91.1,340z
		 M93.9,342.9c0.1,0,0.3,0,0.4,0.1c0.2,0.2,0.5,0.5,0.7,0.7c0.2,0.2,0.2,0.5,0,0.7c-0.2,0.2-0.5,0.2-0.7,0c-0.2-0.2-0.5-0.5-0.7-0.7
		c-0.2-0.2-0.2-0.5,0-0.7C93.6,342.9,93.7,342.9,93.9,342.9z M112.8,343.3C112.8,343.3,112.8,343.3,112.8,343.3
		c0.3,0,0.5,0.3,0.5,0.6c0,0.3-0.1,0.7-0.1,1c0,0.3-0.3,0.5-0.6,0.4c-0.3,0-0.5-0.3-0.4-0.6c0-0.3,0.1-0.7,0.1-1
		C112.3,343.5,112.5,343.3,112.8,343.3z M96.8,345.7c0.1,0,0.2,0,0.3,0.1l0.7,0.7c0.2,0.2,0.2,0.5,0,0.7c-0.2,0.2-0.5,0.2-0.7,0
		l-0.7-0.7c-0.2-0.2-0.2-0.5,0-0.7C96.5,345.7,96.6,345.7,96.8,345.7z M112.1,347.2C112.2,347.2,112.2,347.2,112.1,347.2
		c0.4,0.1,0.5,0.3,0.5,0.6c-0.1,0.3-0.1,0.7-0.2,1c-0.1,0.3-0.3,0.4-0.6,0.4c-0.3-0.1-0.4-0.3-0.4-0.6c0.1-0.3,0.1-0.6,0.2-1
		C111.7,347.4,111.9,347.2,112.1,347.2z M99.8,348.3c0.1,0,0.2,0,0.3,0.1c0.3,0.2,0.5,0.4,0.8,0.6c0.2,0.2,0.3,0.5,0.1,0.7
		c-0.2,0.2-0.5,0.3-0.7,0.1c-0.2-0.2-0.5-0.4-0.8-0.6c-0.2-0.2-0.2-0.5-0.1-0.7C99.5,348.4,99.6,348.3,99.8,348.3z M103,350.7
		c0.1,0,0.2,0,0.3,0.1l0.8,0.6c0.2,0.2,0.3,0.5,0.1,0.7c-0.2,0.2-0.5,0.3-0.7,0.1l-0.8-0.6c-0.2-0.2-0.3-0.5-0.1-0.7
		C102.7,350.8,102.8,350.7,103,350.7z M111.3,351.2c0,0,0.1,0,0.1,0c0.3,0.1,0.4,0.3,0.4,0.6l-0.5-0.1l0.5,0.2
		c-0.1,0.3-0.1,0.5-0.1,0.8c0,0.3-0.2,0.5-0.5,0.5c0,0,0,0,0,0c-0.3,0-0.5-0.2-0.5-0.5c0-0.4,0-0.7,0.1-1
		C110.9,351.4,111.1,351.2,111.3,351.2z M106.2,353.1c0.1,0,0.2,0,0.3,0.1l0.8,0.6c0.2,0.2,0.3,0.5,0.1,0.7
		c-0.2,0.2-0.5,0.3-0.7,0.1l-0.8-0.6c-0.2-0.2-0.3-0.5-0.1-0.7C105.9,353.1,106.1,353.1,106.2,353.1z M112.3,354.9
		c0.1,0,0.3,0.1,0.4,0.2c0.2,0.2,0.4,0.4,0.7,0.6c0.2,0.1,0.3,0.5,0.2,0.7c-0.1,0.2-0.5,0.3-0.7,0.2c-0.3-0.2-0.6-0.4-0.9-0.7
		c-0.2-0.2-0.2-0.5,0-0.7C112,354.9,112.1,354.9,112.3,354.9z M109.5,355.4c0.1,0,0.2,0,0.3,0.1l0.8,0.6c0.2,0.2,0.3,0.5,0.1,0.7
		c-0.2,0.2-0.5,0.3-0.7,0.1l-0.8-0.6c-0.2-0.2-0.3-0.5-0.1-0.7C109.2,355.5,109.3,355.4,109.5,355.4z M115.8,356.8
		c0.1,0,0.1,0,0.2,0l0.9,0.4c0.3,0.1,0.4,0.4,0.3,0.7c-0.1,0.3-0.4,0.4-0.7,0.3l-0.9-0.4c-0.3-0.1-0.4-0.4-0.3-0.7
		C115.4,356.9,115.6,356.8,115.8,356.8z M112.7,357.8c0.1,0,0.2,0,0.3,0.1l0.8,0.6c0.2,0.2,0.3,0.5,0.1,0.7
		c-0.2,0.2-0.5,0.3-0.7,0.1l-0.8-0.6c-0.2-0.2-0.3-0.5-0.1-0.7C112.4,357.8,112.6,357.8,112.7,357.8z M116,360.1
		c0.1,0,0.2,0,0.3,0.1c0.1-0.1,0.2-0.1,0.3-0.1c0.3,0,0.5,0.2,0.5,0.5l0,0.1l-0.1,1.2l-1.2-0.9c-0.2-0.2-0.3-0.5-0.1-0.7
		C115.7,360.2,115.8,360.1,116,360.1z"/>
	<path id="XMLID_742_" fill="#FFFFFF" d="M22.8,257.4c0.2,0,0.5,0.2,0.5,0.4l0,0.3c0,0.3-0.2,0.5-0.4,0.6c-0.3,0-0.5-0.2-0.6-0.4
		l0-0.3C22.2,257.7,22.4,257.4,22.8,257.4C22.7,257.4,22.7,257.4,22.8,257.4z M23.1,260.7c0.3,0,0.5,0.2,0.5,0.5l0.1,1
		c0,0.3-0.2,0.5-0.5,0.5c-0.3,0-0.5-0.2-0.5-0.5l-0.1-1C22.6,261,22.8,260.7,23.1,260.7C23.1,260.7,23.1,260.7,23.1,260.7z
		 M23.4,264.7c0.3,0,0.5,0.2,0.5,0.5l0.1,1c0,0.3-0.2,0.5-0.5,0.5c-0.3,0-0.5-0.2-0.5-0.5l-0.1-1C22.9,264.9,23.1,264.7,23.4,264.7
		C23.4,264.7,23.4,264.7,23.4,264.7z M23.6,268.7c0.3,0,0.5,0.2,0.5,0.5l0,1c0,0.3-0.2,0.5-0.5,0.5c-0.3,0-0.5-0.2-0.5-0.5l0-1
		C23.1,268.9,23.3,268.7,23.6,268.7C23.6,268.7,23.6,268.7,23.6,268.7z M23.6,272.7C23.6,272.7,23.6,272.7,23.6,272.7
		c0.3,0,0.5,0.2,0.5,0.5l0,1c0,0.3-0.2,0.5-0.5,0.5c0,0,0,0,0,0c-0.3,0-0.5-0.2-0.5-0.5l0-1C23.1,272.9,23.4,272.7,23.6,272.7z
		 M23.6,276.7C23.6,276.7,23.6,276.7,23.6,276.7c0.3,0,0.5,0.2,0.5,0.5l0,1c0,0.3-0.3,0.5-0.5,0.5c-0.3,0-0.5-0.2-0.5-0.5l0-1
		C23.1,276.9,23.3,276.7,23.6,276.7z M23.4,280.7C23.4,280.7,23.4,280.7,23.4,280.7c0.3,0,0.5,0.2,0.5,0.5l-0.1,1
		c0,0.3-0.3,0.5-0.5,0.5c-0.3,0-0.5-0.2-0.5-0.5l0.1-1C22.9,280.9,23.2,280.7,23.4,280.7z M23.2,284.7
		C23.2,284.7,23.2,284.7,23.2,284.7c0.3,0,0.5,0.3,0.5,0.5l-0.1,1c0,0.3-0.3,0.5-0.5,0.5c-0.3,0-0.5-0.3-0.5-0.5l0.1-1
		C22.7,284.9,22.9,284.7,23.2,284.7z M22.9,288.6C22.9,288.6,22.9,288.6,22.9,288.6c0.3,0,0.5,0.3,0.5,0.5l-0.1,1
		c0,0.3-0.3,0.5-0.5,0.5c-0.3,0-0.5-0.3-0.5-0.5l0.1-1C22.4,288.8,22.7,288.6,22.9,288.6z M22.6,292.6
		C22.6,292.6,22.7,292.6,22.6,292.6c0.3,0,0.5,0.3,0.5,0.5l-0.1,1c0,0.3-0.3,0.5-0.5,0.5c-0.3,0-0.5-0.3-0.5-0.5l0.1-1
		C22.2,292.8,22.4,292.6,22.6,292.6z M22.3,296.6C22.4,296.6,22.4,296.6,22.3,296.6c0.3,0,0.5,0.3,0.5,0.5l-0.1,1
		c0,0.3-0.2,0.5-0.5,0.5c-0.3,0-0.5-0.3-0.5-0.5l0.1-1C21.9,296.8,22.1,296.6,22.3,296.6z M22.1,300.6
		C22.1,300.6,22.1,300.6,22.1,300.6c0.3,0,0.5,0.2,0.5,0.5l0,1c0,0.3-0.2,0.5-0.5,0.5c-0.3,0-0.5-0.2-0.5-0.5l0-1
		C21.6,300.8,21.9,300.6,22.1,300.6z M22,304.6C22,304.6,22,304.6,22,304.6c0.3,0,0.5,0.2,0.5,0.5l0,0.9l0,0.1
		c0,0.3-0.2,0.5-0.5,0.5c-0.3,0-0.5-0.2-0.5-0.5l0-0.1l0-0.9C21.5,304.8,21.8,304.6,22,304.6z M22.1,308.6c0.3,0,0.5,0.2,0.5,0.5
		c0,0.3,0,0.7,0,1c0,0.3-0.2,0.5-0.5,0.5c-0.3,0-0.5-0.2-0.5-0.5c0-0.3,0-0.7,0-1C21.6,308.9,21.8,308.6,22.1,308.6
		C22.1,308.6,22.1,308.6,22.1,308.6z M22.3,312.6c0.3,0,0.5,0.2,0.5,0.5l0.1,1c0,0.3-0.2,0.5-0.5,0.5c-0.3,0-0.5-0.2-0.5-0.5l-0.1-1
		C21.8,312.9,22,312.6,22.3,312.6C22.3,312.6,22.3,312.6,22.3,312.6z M22.7,316.6c0.2,0,0.5,0.2,0.5,0.4l0.1,1
		c0,0.3-0.2,0.5-0.4,0.6c-0.3,0-0.5-0.2-0.6-0.4l-0.1-1C22.1,316.9,22.3,316.6,22.7,316.6C22.6,316.6,22.7,316.6,22.7,316.6z
		 M23.2,320.6c0.2,0,0.5,0.2,0.5,0.4l0.1,1c0,0.3-0.2,0.5-0.4,0.6c-0.3,0-0.5-0.2-0.6-0.4l-0.1-1C22.7,320.8,22.9,320.6,23.2,320.6
		C23.2,320.6,23.2,320.6,23.2,320.6z M23.7,324.5c0.3,0,0.5,0.2,0.5,0.5l0.1,1c0,0.3-0.2,0.5-0.5,0.5c-0.3,0-0.5-0.2-0.5-0.5l-0.1-1
		C23.2,324.8,23.4,324.5,23.7,324.5C23.6,324.5,23.7,324.5,23.7,324.5z M23.9,328.5c0.3,0,0.5,0.2,0.5,0.5c0,0.3,0,0.7,0,1
		c0,0.3-0.2,0.5-0.5,0.5c0,0,0,0,0,0c-0.3,0-0.5-0.2-0.5-0.5c0-0.3,0-0.7,0-1C23.4,328.7,23.6,328.5,23.9,328.5
		C23.9,328.5,23.9,328.5,23.9,328.5z M23.9,332.5C23.9,332.5,23.9,332.5,23.9,332.5c0.3,0,0.5,0.2,0.5,0.5l0,1
		c0,0.3-0.2,0.5-0.5,0.5c-0.3,0-0.5-0.2-0.5-0.5l0-1C23.4,332.7,23.7,332.5,23.9,332.5z M23.8,336.5
		C23.8,336.5,23.8,336.5,23.8,336.5c0.3,0,0.5,0.2,0.5,0.5l0,1c0,0.3-0.3,0.5-0.5,0.5c-0.3,0-0.5-0.2-0.5-0.5l0-1
		C23.3,336.7,23.6,336.5,23.8,336.5z M23.6,340.5C23.6,340.5,23.7,340.5,23.6,340.5c0.3,0,0.5,0.2,0.5,0.5l-0.1,1
		c0,0.3-0.2,0.5-0.5,0.5c-0.3,0-0.5-0.2-0.5-0.5l0.1-1C23.1,340.7,23.4,340.5,23.6,340.5z M23.4,344.5
		C23.4,344.5,23.4,344.5,23.4,344.5c0.3,0,0.5,0.2,0.5,0.5l0,1c0,0.3-0.3,0.5-0.5,0.5c-0.3,0-0.5-0.2-0.5-0.5l0-1
		C22.9,344.7,23.2,344.5,23.4,344.5z M23.3,348.5C23.3,348.5,23.3,348.5,23.3,348.5c0.3,0,0.5,0.2,0.5,0.5l0,1
		c0,0.3-0.2,0.5-0.5,0.5c-0.3,0-0.5-0.2-0.5-0.5l0-1C22.8,348.7,23,348.5,23.3,348.5z"/>
	<path id="XMLID_715_" fill="#FFFFFF" d="M20.2,268.9C20.2,268.9,20.2,268.9,20.2,268.9c0.2,0,0.4,0.2,0.3,0.4l0,1
		c0,0.2-0.2,0.3-0.4,0.3c-0.2,0-0.3-0.2-0.3-0.4l0-1C19.9,269,20,268.9,20.2,268.9z M20.1,271.9C20.1,271.9,20.1,271.9,20.1,271.9
		c0.2,0,0.4,0.2,0.3,0.4l0,1c0,0.2-0.2,0.4-0.4,0.3c-0.2,0-0.3-0.2-0.3-0.4l0-1C19.8,272,19.9,271.9,20.1,271.9z M20,274.9
		C20,274.9,20,274.9,20,274.9c0.2,0,0.4,0.2,0.3,0.4l0,1c0,0.2-0.1,0.3-0.4,0.3c-0.2,0-0.3-0.2-0.3-0.4l0-1
		C19.7,275,19.8,274.9,20,274.9z M19.9,277.9C19.9,277.9,19.9,277.9,19.9,277.9c0.2,0,0.4,0.2,0.3,0.4l0,0.9c0,0.2-0.2,0.4-0.4,0.4
		c-0.2,0-0.3-0.1-0.3-0.3l0-0.1l0-0.9C19.6,278,19.7,277.9,19.9,277.9z M19.8,280.9C19.8,280.9,19.8,280.9,19.8,280.9
		c0.2,0,0.4,0.2,0.3,0.4l0,1c0,0.2-0.1,0.3-0.4,0.3c-0.2,0-0.3-0.2-0.3-0.4l0-1C19.5,281,19.7,280.9,19.8,280.9z M19.8,283.9
		C19.8,283.9,19.8,283.9,19.8,283.9c0.2,0,0.4,0.2,0.3,0.4l0,1c0,0.2-0.1,0.4-0.4,0.3c-0.2,0-0.3-0.2-0.3-0.4l0-1
		C19.4,284,19.6,283.9,19.8,283.9z M19.7,286.9C19.7,286.9,19.7,286.9,19.7,286.9c0.2,0,0.4,0.2,0.3,0.4l0,1c0,0.2-0.2,0.3-0.4,0.3
		c-0.2,0-0.3-0.2-0.3-0.4l0-1C19.4,287,19.5,286.9,19.7,286.9z M19.7,289.9C19.7,289.9,19.7,289.9,19.7,289.9c0.2,0,0.4,0.2,0.3,0.4
		l0,1l-0.3,0l-0.3,0l0-1C19.3,290,19.5,289.9,19.7,289.9z M19.6,292.9C19.6,292.9,19.6,292.9,19.6,292.9c0.2,0,0.4,0.2,0.3,0.4l0,1
		l-0.3,0l-0.3,0l0-1C19.3,293,19.5,292.9,19.6,292.9z M19.6,295.9C19.6,295.9,19.6,295.9,19.6,295.9c0.2,0,0.4,0.2,0.3,0.4l0,1
		l-0.3,0l-0.3,0l0-1C19.3,296,19.4,295.9,19.6,295.9z M19.6,298.9L19.6,298.9c0.2,0,0.4,0.2,0.3,0.4l0,1c0,0.2-0.2,0.3-0.3,0.3h0
		c-0.2,0-0.3-0.2-0.3-0.4l0-1C19.3,299,19.4,298.9,19.6,298.9z M19.6,301.9c0.2,0,0.3,0.2,0.3,0.3l0,1c0,0.2-0.2,0.4-0.3,0.4h0
		c-0.2,0-0.3-0.2-0.3-0.3l0-1C19.2,302,19.4,301.9,19.6,301.9L19.6,301.9z M19.6,304.9c0.2,0,0.3,0.2,0.3,0.3l0,1
		c0,0.2-0.2,0.4-0.3,0.4c0,0,0,0,0,0c-0.2,0-0.3-0.2-0.3-0.3l0-1C19.3,305.1,19.4,304.9,19.6,304.9
		C19.6,304.9,19.6,304.9,19.6,304.9z M19.7,307.9c0.2,0,0.3,0.2,0.3,0.3l0,1c0,0.2-0.1,0.4-0.3,0.4c-0.2,0-0.4-0.1-0.4-0.3l0-1
		C19.3,308.1,19.5,307.9,19.7,307.9C19.7,307.9,19.7,307.9,19.7,307.9z M19.8,310.9c0.2,0,0.3,0.1,0.3,0.3c0,0.3,0,0.6,0,1
		c0,0.2-0.1,0.4-0.3,0.4c0,0,0,0,0,0c-0.2,0-0.3-0.1-0.3-0.3c0-0.4,0-0.7,0-1C19.4,311.1,19.6,310.9,19.8,310.9
		C19.8,310.9,19.8,310.9,19.8,310.9z M19.8,313.9c0.2,0,0.3,0.2,0.3,0.3l0,1c0,0.2-0.2,0.4-0.3,0.4h0c-0.2,0-0.3-0.2-0.3-0.3l0-1
		C19.5,314,19.6,313.9,19.8,313.9z M19.8,317.2l0.3,0l0,1c0,0.2-0.2,0.3-0.4,0.3c-0.2,0-0.3-0.2-0.3-0.4l0-0.9L19.8,317.2z
		 M19.8,320.2l0.3,0l0,1c0,0.2-0.2,0.3-0.4,0.3c-0.2,0-0.3-0.2-0.3-0.4l0-0.9L19.8,320.2z M19.7,322.9
		C19.7,322.9,19.7,322.9,19.7,322.9c0.2,0,0.4,0.2,0.3,0.4l0,1c0,0.2-0.2,0.4-0.4,0.4c-0.2,0-0.3-0.1-0.3-0.3l0-1
		C19.4,323,19.5,322.9,19.7,322.9z M19.7,326.2l0.3,0l0,1c0,0.2-0.2,0.3-0.4,0.3c-0.2,0-0.3-0.2-0.3-0.4l0-1L19.7,326.2z
		 M19.6,328.9C19.6,328.9,19.6,328.9,19.6,328.9c0.2,0,0.4,0.2,0.3,0.4l0,1c0,0.2-0.2,0.3-0.3,0.3c0,0,0,0,0,0
		c-0.2,0-0.3-0.2-0.3-0.4l0-1C19.2,329.1,19.4,328.9,19.6,328.9z M19.4,331.9C19.5,331.9,19.5,331.9,19.4,331.9
		c0.2,0,0.4,0.2,0.3,0.4l0,1c0,0.2-0.2,0.4-0.4,0.3c-0.2,0-0.3-0.2-0.3-0.4l0-1C19.1,332.1,19.3,331.9,19.4,331.9z M19.3,334.9
		C19.3,334.9,19.3,334.9,19.3,334.9c0.2,0,0.4,0.2,0.3,0.4l0,1c0,0.2-0.2,0.3-0.4,0.3c-0.2,0-0.3-0.2-0.3-0.4l0-1
		C19,335,19.1,334.9,19.3,334.9z M19.2,337.9C19.2,337.9,19.2,337.9,19.2,337.9c0.2,0,0.4,0.2,0.3,0.4l-0.1,1c0,0.2-0.2,0.4-0.4,0.3
		c-0.2,0-0.3-0.2-0.3-0.4l0.1-1C18.8,338,19,337.9,19.2,337.9z M19,340.9C19,340.9,19,340.9,19,340.9c0.2,0,0.4,0.2,0.3,0.4l-0.1,1
		c0,0.2-0.1,0.3-0.4,0.3c-0.2,0-0.3-0.2-0.3-0.4l0.1-1C18.7,341,18.8,340.9,19,340.9z M18.8,343.9C18.8,343.9,18.8,343.9,18.8,343.9
		c0.2,0,0.4,0.2,0.3,0.4c0,0.4-0.1,0.7-0.1,1c0,0.2-0.2,0.3-0.4,0.3c-0.2,0-0.3-0.2-0.3-0.4c0-0.3,0.1-0.6,0.1-1
		C18.5,344,18.6,343.9,18.8,343.9z"/>
	<path id="XMLID_645_" fill="#FFFFFF" d="M131.5,342.2c1.3-6.9,1.8-13.8,0.7-14c-1.2-0.2-2.2,6.7-3.8,14.3
		c-1.7,7.7-8,30.3-13.2,40.7c-5.2,10.3-17.3,32.5-39,34.2s-32.7-2-45-25.8s-14.7-40.3-14.8-52.8c-0.2-12.5,1-12.8-0.5-20
		c-1.5-7.2-1.3-11.5-1.3-11.5s-1.5,30.5-0.8,44.7c0.7,14.2,7,39.2,12.2,48s16.8,29.5,40.2,29.5s34-9.8,43.3-25.3
		S130.3,348.2,131.5,342.2z"/>
	<path id="XMLID_644_" fill="#FFFFFF" d="M32.7,390.7C43.7,412.1,53.3,416,68.1,416c2.3,0,4.9-0.1,7.9-0.3
		c21.8-1.7,33.7-25.4,37.6-33.2c2.2-4.4,4.6-11,6.7-17.7c-3.2-4.9-13.7-13-47.9-13c-18.9,0-36.6-1.5-51.3,10.4
		C23.4,370.1,26.9,379.5,32.7,390.7z"/>
	<path id="XMLID_643_" fill="#FFFFFF" d="M14.4,307.6c-0.9-7.5,0.8-17.5,1.7-23.6c1.2-7.9,3.6-15.9,1.4-26.4
		c-2.4-11.3-4.1-17.1-2.9-18.9s5.2,7.8,6.1,13.4s-1.4,28.1-2.4,36.8s-3.3,22-3.6,25.4C14.1,311.9,14.4,307.6,14.4,307.6z"/>
	<path id="XMLID_638_" fill="#E4E5E6" d="M95.6,330.1c2.5,0,4.3-2.4,4.6-5.8c0.2-3.2-2.1-5.4-4.7-5.4c-2.5,0-4.5,2.2-4.5,5.4
		C91,327.5,93.1,330.1,95.6,330.1z M95.5,321.5c0.5,0,1.1,0.2,1.5,0.7c0.3,0.4,0.7,1,0.6,2c-0.1,1.7-0.9,3.4-2,3.4c-1,0-2-1.3-2-3.2
		C93.6,322.7,94.4,321.5,95.5,321.5z"/>
	<path id="XMLID_631_" fill="#E4E5E6" d="M44.2,336c-2.5,0.2-4.5-2-5.1-5.3c-0.5-3.1,1.7-5.6,4.2-5.8c2.5-0.2,4.7,1.9,4.9,5
		C48.5,333,46.7,335.8,44.2,336z M43.6,327.4c-0.5,0-1.1,0.3-1.4,0.8c-0.3,0.4-0.6,1-0.5,2c0.3,1.7,1.2,3.3,2.3,3.2
		c1-0.1,1.9-1.5,1.8-3.4C45.6,328.4,44.7,327.3,43.6,327.4z"/>
	<path id="XMLID_628_" fill="#E4E5E6" d="M42.9,316.4c-2.5,0.2-4.5-1.9-5-4.9c-0.5-2.9,1.7-5.2,4.2-5.4c2.5-0.2,4.7,1.7,4.9,4.6
		C47.2,313.6,45.4,316.2,42.9,316.4z M42.3,308.4c-0.5,0-1.1,0.3-1.4,0.8c-0.3,0.4-0.6,1-0.5,1.9c0.3,1.5,1.1,3,2.3,2.9
		c1-0.1,1.9-1.4,1.8-3.1C44.3,309.4,43.4,308.3,42.3,308.4z"/>
	<path id="XMLID_611_" fill="#E4E5E6" d="M98.6,311.9c2-0.3,3.5-2.3,3.9-4.9c0.4-2.8-1.5-4.9-4-4.9c-2.6,0-4.7,2.5-4.4,5.6
		C94.4,310.5,96.5,312.3,98.6,311.9z M98.5,304.7c0.5,0,1,0.2,1.4,0.6c0.3,0.3,0.6,0.9,0.5,1.7c-0.2,1.4-0.8,2.9-1.8,3
		c-0.8,0.1-1.8-0.8-1.9-2.5C96.7,305.9,97.4,304.7,98.5,304.7z"/>
	<path id="XMLID_577_" fill="#F0F2F3" d="M42.8,309.8l38.3,9.4c0,0-0.2,4.7-0.4,6.6c-0.2,2-12.9-1.2-20.1-3.5s-18.2-7-18.8-8.6
		C41.2,312.2,42.8,309.8,42.8,309.8z"/>
	<path id="XMLID_576_" fill="#F0F2F3" d="M95.2,327.2c0,0-12.1,2.5-17.5,2.6c-5.4,0.1-20.3,1.8-26.2,2.8c-5.8,0.9-7.2,0-7.3-2.1
		c-0.2-2.1,0.5-4.2,4.4-4.7c3.9-0.4,34.6-3.6,38.2-3.6c3.7,0,6.2-1,7.2,1.2C95.2,325.6,95.9,327.2,95.2,327.2z"/>
	<path id="XMLID_575_" fill="#F0F2F3" d="M99,288.1c-3.2,1.4-40.3,13.6-41.1,13.8s-0.1,7.2-0.1,7.2s23.1-9.1,26.7-10.8
		c3.7-1.8,14.1-5.8,15-6C100.5,292.1,101.5,287,99,288.1z"/>
	<path id="XMLID_574_" fill="#F0F2F3" d="M42.9,293.5c-0.8-1.1-0.5-4-0.1-4s21.1,8.8,27.8,9.5s14.2,0.2,14.2,0.2s0.3,4.7-0.1,5.8
		c-0.4,1.1-0.3,0.9-1.6,0.8C81.8,305.8,46.8,299,42.9,293.5z"/>
	<path id="XMLID_573_" fill="#F0F2F3" d="M97.7,305.9c0,0-33,13.9-40.4,12.7c0,0,0.6,4.3-0.4,7.6c0,0,36.7-9.8,41.2-17.4
		C98.1,308.8,99.7,306.1,97.7,305.9z"/>
	<path id="XMLID_550_" fill="#FFFFFF" d="M132.2,269.8C132.3,269.8,132.3,269.8,132.2,269.8c0.3,0,0.5,0.3,0.5,0.5
		c0,0.2,0,0.4-0.1,0.7c0,0.3-0.3,0.5-0.6,0.4c-0.3,0-0.5-0.3-0.4-0.6c0-0.3,0.1-0.5,0.1-0.6C131.8,270,132,269.8,132.2,269.8z
		 M131.6,273.4c0,0,0.1,0,0.1,0c0.3,0.1,0.4,0.3,0.4,0.6l-0.2,1c-0.1,0.3-0.3,0.4-0.6,0.4c-0.3-0.1-0.4-0.3-0.4-0.6l0.2-1
		C131.1,273.5,131.3,273.4,131.6,273.4z M130.6,277.3c0,0,0.1,0,0.1,0c0.3,0.1,0.4,0.3,0.4,0.6l-0.2,1c-0.1,0.3-0.3,0.4-0.6,0.4
		c-0.3-0.1-0.4-0.3-0.4-0.6l0.2-1C130.2,277.4,130.4,277.3,130.6,277.3z M129.6,281.1c0,0,0.1,0,0.1,0c0.3,0.1,0.4,0.3,0.4,0.6
		l-0.3,1c-0.1,0.3-0.4,0.4-0.6,0.3c-0.3-0.1-0.4-0.3-0.3-0.6l0.3-1C129.2,281.3,129.4,281.1,129.6,281.1z M128.5,285
		c0,0,0.1,0,0.1,0c0.3,0.1,0.4,0.4,0.3,0.6l-0.3,1c-0.1,0.3-0.4,0.4-0.6,0.3c-0.3-0.1-0.4-0.4-0.3-0.6l0.3-1
		C128.1,285.1,128.3,285,128.5,285z M127.4,288.8c0,0,0.1,0,0.1,0c0.3,0.1,0.4,0.4,0.3,0.6l-0.3,1c-0.1,0.3-0.4,0.4-0.6,0.3
		c-0.3-0.1-0.4-0.4-0.3-0.6l0.3-1C127,289,127.2,288.8,127.4,288.8z M126.2,292.7c0.1,0,0.1,0,0.2,0c0.3,0.1,0.4,0.4,0.3,0.6
		c-0.1,0.3-0.2,0.6-0.3,1c-0.1,0.3-0.4,0.4-0.6,0.3c-0.3-0.1-0.4-0.4-0.3-0.6l0.3-0.9C125.8,292.8,126,292.7,126.2,292.7z
		 M124.9,296.5c0.1,0,0.1,0,0.2,0c0.3,0.1,0.4,0.4,0.3,0.6c-0.1,0.3-0.3,0.7-0.4,0.9c-0.1,0.3-0.4,0.4-0.7,0.3
		c-0.3-0.1-0.4-0.4-0.3-0.7c0.1-0.3,0.2-0.6,0.4-0.9C124.5,296.6,124.7,296.5,124.9,296.5z M123.4,300.2c0.1,0,0.1,0,0.2,0
		c0.3,0.1,0.4,0.4,0.3,0.6c-0.1,0.3-0.2,0.6-0.3,0.9c-0.1,0.3-0.4,0.4-0.6,0.3c-0.3-0.1-0.4-0.4-0.3-0.6c0.1-0.3,0.2-0.7,0.3-1
		C123,300.3,123.2,300.2,123.4,300.2z M122.4,304C122.4,304,122.5,304,122.4,304c0.4,0.1,0.5,0.3,0.5,0.6c-0.1,0.3-0.1,0.6-0.2,1
		c-0.1,0.3-0.3,0.5-0.6,0.4c-0.3,0-0.5-0.3-0.4-0.6c0.1-0.3,0.1-0.7,0.2-1C121.9,304.2,122.2,304,122.4,304z M121.7,308
		C121.7,308,121.8,308,121.7,308c0.3,0,0.5,0.3,0.5,0.6l-0.1,1c0,0.3-0.3,0.5-0.6,0.4c-0.3,0-0.5-0.3-0.4-0.6l0.1-1
		C121.2,308.2,121.5,308,121.7,308z M121.2,311.9C121.2,311.9,121.2,311.9,121.2,311.9c0.3,0,0.5,0.3,0.5,0.6l-0.1,1
		c0,0.3-0.3,0.5-0.6,0.4c-0.3,0-0.5-0.3-0.4-0.6l0.1-1C120.7,312.1,120.9,311.9,121.2,311.9z M120.7,315.9
		C120.7,315.9,120.7,315.9,120.7,315.9c0.3,0,0.5,0.3,0.5,0.6l-0.1,1c0,0.3-0.3,0.5-0.6,0.4c-0.3,0-0.5-0.3-0.4-0.6l0.1-1
		C120.2,316.1,120.4,315.9,120.7,315.9z M120.2,319.9C120.2,319.9,120.2,319.9,120.2,319.9c0.3,0,0.5,0.3,0.5,0.6l-0.1,1
		c0,0.3-0.3,0.5-0.6,0.4c-0.3,0-0.5-0.3-0.4-0.6l0.1-1C119.7,320.1,119.9,319.9,120.2,319.9z M119.8,323.9
		C119.8,323.9,119.8,323.9,119.8,323.9c0.3,0,0.5,0.3,0.5,0.5c0,0.3,0,0.7-0.1,1c0,0.3-0.2,0.5-0.5,0.5c-0.3,0-0.5-0.2-0.5-0.5
		c0-0.3,0-0.7,0.1-1C119.3,324.1,119.5,323.9,119.8,323.9z M119.6,327.9C119.6,327.9,119.6,327.9,119.6,327.9c0.3,0,0.5,0.2,0.5,0.5
		l0,1c0,0.3-0.2,0.5-0.5,0.5c0,0,0,0,0,0c-0.3,0-0.5-0.2-0.5-0.5l0-1C119.1,328.1,119.3,327.9,119.6,327.9z M119.6,331.9
		c0.3,0,0.5,0.2,0.5,0.5l0,1c0,0.3-0.2,0.5-0.5,0.5c0,0,0,0,0,0c-0.3,0-0.5-0.2-0.5-0.5l0-1C119.1,332.1,119.3,331.9,119.6,331.9
		C119.6,331.9,119.6,331.9,119.6,331.9z M119.7,335.9c0.3,0,0.5,0.2,0.5,0.5l0,1c0,0.3-0.2,0.5-0.5,0.5c-0.2,0-0.5-0.2-0.5-0.5l0-1
		C119.1,336.1,119.4,335.9,119.7,335.9C119.6,335.9,119.7,335.9,119.7,335.9z M119.8,339.9c0.3,0,0.5,0.2,0.5,0.5l0,1
		c0,0.3-0.2,0.5-0.5,0.5c-0.3,0-0.5-0.2-0.5-0.5l0-1C119.3,340.1,119.5,339.9,119.8,339.9C119.8,339.9,119.8,339.9,119.8,339.9z
		 M119.9,343.9c0.3,0,0.5,0.2,0.5,0.5l0,1c0,0.3-0.2,0.5-0.5,0.5c-0.3,0-0.5-0.2-0.5-0.5l0-1C119.4,344.1,119.6,343.9,119.9,343.9
		C119.9,343.9,119.9,343.9,119.9,343.9z M120.1,347.9c0.3,0,0.5,0.2,0.5,0.5l0,1c0,0.3-0.2,0.5-0.5,0.5c-0.3,0-0.5-0.2-0.5-0.5l0-1
		C119.6,348.1,119.8,347.9,120.1,347.9C120.1,347.9,120.1,347.9,120.1,347.9z M120.2,351.9c0.3,0,0.5,0.2,0.5,0.5l0,1
		c0,0.3-0.2,0.5-0.5,0.5c-0.3,0-0.5-0.2-0.5-0.5l0-1C119.7,352.1,119.9,351.9,120.2,351.9C120.2,351.9,120.2,351.9,120.2,351.9z"/>
	<path id="XMLID_617_" fill="#E4E5E6" d="M42.5,296.6c-2.5,0.2-4.5-1.9-5-4.9c-0.5-2.9,1.7-5.2,4.2-5.4c2.5-0.2,4.7,1.7,4.9,4.6
		C46.9,293.9,45,296.4,42.5,296.6z M41.9,288.7c-0.5,0-1.1,0.3-1.4,0.8c-0.3,0.4-0.6,1-0.5,1.9c0.3,1.5,1.1,3,2.3,2.9
		c1-0.1,1.9-1.4,1.8-3.1C43.9,289.6,43,288.6,41.9,288.7z"/>
	<path id="XMLID_605_" fill="#E4E5E6" d="M100.6,295.2c2.4-0.2,4.1-2.5,4.5-5.6c0.3-3-1.9-5.2-4.4-5.2c-2.6,0-4.6,2.3-4.6,5.5
		C96.1,293,98.1,295.4,100.6,295.2z M100.7,286.9c0.5,0,1.1,0.2,1.4,0.7c0.3,0.3,0.7,1,0.6,1.9c-0.2,1.6-0.9,3.3-2,3.3
		c-0.9,0-2-1.2-2-3C98.7,288.1,99.5,286.9,100.7,286.9z"/>
	<path id="XMLID_549_" fill="#F0F2F3" d="M83.9,289.9c-0.6-2.5-0.7-4.8-0.7-4.8s-2.6,1.1-8.2,0.2c-5.7-0.9-20.2-5.3-20.2-5.3
		l1.7,4.4C56.4,284.3,79.3,290.4,83.9,289.9z"/>
	<path id="XMLID_545_" fill="#F0F2F3" d="M83.1,282.1c0,0-21.2,6-26.5,3.8l0.8,5.9c0,0,21.7-3.6,25.8-6.7L83.1,282.1z"/>
</g>
<g id="Layer_1">
	<path id="XMLID_529_" fill="#AD4833" d="M11.3,234c0,15.8,21.3,45.3,35,50.7C60,290,90.7,284,103.7,271s18.7-29.3,20.7-33.3
		s8-18,8-18s15-7.7,19-16.3c4-8.7,35.7-62.7,39.7-82.7s10.7-36,10.7-36s6.7-33.3,16.7-40.7s15.3-34,15.3-34L17,0c0,0-8.7,20.7-10,30
		c-1.3,9.3-2,56.7-2,64s-5,39-5,44.3s4,16.7,6.7,19.3s8,5.3,7.7,11c-0.3,5.7-2,11-0.7,14.3s2,9.7,2,9.7s-3.7,6.7-4,11
		c-0.3,4.3-1,14.3-0.7,17.3S11.3,232.7,11.3,234z"/>
	<path id="XMLID_528_" fill="#9A370B" d="M109,245.7c3.5-5.3,2.3-8.3-2-7.3c-4.3,1-25,11.7-28.7,13.3c-3.7,1.7-24.3,0-31.7-7
		s-23-17.3-26.3-16.7c-3.3,0.7,0,11.3,5,19.3c5,8,29.7,23.7,42.3,20.3s19.3-15,26.3-16.3C101,250,107,248.7,109,245.7z"/>
	<path id="XMLID_527_" fill="#9A370B" d="M111.3,226.7c-6.3,2.3-24,11.3-32,12.7c-8,1.3-22.3,1.3-28.7-2c-6.3-3.3-17.3-6-10.3-8.3
		c7-2.3,31.7,5.7,42.3,5S111.3,226.7,111.3,226.7z"/>
	<path id="XMLID_526_" fill="#9A370B" d="M105,218c-14.3,0.4-34,3-52.3-2.7c-18.3-5.7-36.7-10-33.7-15s14.7-9.7,14.7-9.7
		s47,13.7,54.7,16.7S116.3,217.7,105,218z"/>
	<path id="XMLID_525_" fill="#9A370B" d="M153.3,199.5c2.7-5.1,7.5-13.8,12.8-23.7c-11.8,2.2-38.6,0-46.8,0.8c-9.3,1-55,1.7-65.7,2
		c-10.7,0.3-4.7,6,5,8.3c9.7,2.3,28.5,10.1,41.7,15c5.3,2,9,9,12.7,10c3.7,1,8-10,18.3-12.3C136.6,198.5,145.7,198.9,153.3,199.5z"
		/>
	<path id="XMLID_523_" fill="#9A370B" d="M200.5,87.6c-5.7,6.1-16.4,18.3-17.5,24.9c-1.2,7.1,0.4,15.7,1.4,26.7
		c3.2-7.3,5.7-13.8,6.6-18.5C194,105.8,198.4,93.2,200.5,87.6z"/>
	<path id="XMLID_522_" fill="#A23C2B" d="M32.5,71.5c11.5,5,39.8,23.2,67,58.5c5,6.5,27-10,29-25s6-29.5-2.5-52.5
		c-4.6-12.3,0.5-32.3,6.2-48.2L17,0c0,0-8.7,20.7-10,30c-0.4,2.5-0.7,7.9-0.9,14.5C14,57.5,25.7,68.6,32.5,71.5z"/>
</g>
</svg>
