<?xml version="1.0" encoding="utf-8"?>
<!-- Generator: Adobe Illustrator 17.1.0, SVG Export Plug-In . SVG Version: 6.00 Build 0)  -->
<!DOCTYPE svg PUBLIC "-//W3C//DTD SVG 1.1//EN" "http://www.w3.org/Graphics/SVG/1.1/DTD/svg11.dtd">
<svg version="1.1" id="Layer_1" xmlns="http://www.w3.org/2000/svg" xmlns:xlink="http://www.w3.org/1999/xlink" x="0px" y="0px"
	 viewBox="0 0 239 425.8" enable-background="new 0 0 239 425.8" xml:space="preserve">
<path id="XMLID_23869_" fill="#040407" d="M225.7,233.7c0.3,18.3-0.3,26.3,0.7,40.7c1,14.3,3.4,35.7,2.7,45.7
	c-0.6,7.6-0.6,14.8-1.7,22.8c-0.4,2.5-0.9,5.2-1.5,7.9c-2.8,11.5-13,41.2-23.5,53s-24.2,18.8-36.5,18s-34-9.2-42-32
	s-10.8-49.2-11.5-58c-0.8-8.8-0.2-38.8,1.5-52.8s10.8-51.8,12.8-57.5L225.7,233.7z"/>
<path id="XMLID_23868_" fill="#040407" d="M225.7,233.7c0.3,18.3-0.3,26.3,0.7,40.7c1,14.3,3.4,35.7,2.7,45.7
	c-0.6,7.6-0.6,14.8-1.7,22.8c-0.4,2.5-0.9,5.2-1.5,7.9c-2.8,11.5-13,41.2-23.5,53s-24.2,18.8-36.5,18s-34-9.2-42-32
	s-10.8-49.2-11.5-58c-0.8-8.8-0.2-38.8,1.5-52.8s10.8-51.8,12.8-57.5L225.7,233.7z"/>
<path id="XMLID_23867_" fill="#081F30" stroke="#FFFFFF" stroke-linecap="round" stroke-dasharray="1,3" d="M221.7,242.3
	c0.4,3.7,1.5,24.2,1.9,28.6c0.4,4.4,2.5,26.7,3.1,37.9c0.4,8,0.5,17.3,1.4,26.3c0.4-5.1,0.5-10,0.9-15.1c0.8-10-1.7-31.3-2.7-45.7
	c-1-14-0.4-22-0.6-39.6C223.8,236.9,221.4,240.1,221.7,242.3z"/>
<path id="XMLID_23861_" fill="#081F30" stroke="#FFFFFF" stroke-linecap="round" stroke-dasharray="1,3" d="M215.4,368
	c1.8-3,4-10.4,4-11.4s-5.4-1.5-5.9-3.2c-0.5-1.8,3.8-23.4,3.4-34.1s-1.4-21.2-1.6-27.8s2.2-37.5,2.2-41.5l-32.5,8c0,0-4.8,26.8-5,40
	s0.4,28.8,1.6,34.8c1.2,6,6.2,15.1,14.2,18.7s12.8,6,14.1,6.6s0.1,7.5,0.1,7.5L215.4,368z"/>
<path id="XMLID_23794_" fill="#081F30" stroke="#FFFFFF" stroke-linecap="round" stroke-dasharray="1,3" d="M213.6,254.8
	c-0.2,2.4-0.4,5.5-0.6,8.7c-0.8,11.3-1.6,24-1.4,28.2c0.1,2.8,0.3,6.3,0.6,10.3c0.4,5.3,0.8,11.4,1,17.5c0.2,6.3-1.3,16.7-2.3,24.3
	c-1,7.1-1.2,9-1,10.3c-0.1,0-0.2-0.1-0.3-0.1c-2.4-1.2-6.4-3.1-12.2-5.7c-7.1-3.2-11.2-11.6-12.2-16.1c-1.1-5.4-1.8-20.3-1.5-33.9
	c0.2-10.6,3.4-30.3,4.5-37.1L213.6,254.8z M214.1,358.3c0.3,0.1,0.7,0.3,1,0.4c-0.2,0.7-0.5,1.5-0.8,2.3
	C214.3,359.9,214.3,359,214.1,358.3L214.1,358.3z"/>
<path id="XMLID_23793_" fill="#081F30" stroke="#FFFFFF" stroke-linecap="round" stroke-dasharray="1,3" d="M120.2,359
	c0-3,1-10.2,2.6-11.6s2.1-1.8,2.9-4.4s3.8-33,3.4-39.9s-0.6-13.5,0-16.5s0.1-16.8-0.2-18.4s-0.5-19.9,1.4-23s5.2-2.2,5.2-2.2
	l17.5,14.5c0,0,4,22.2,4,32.2s3,36.5-2.5,45.8c-5.5,9.2-14.8,9.5-15.5,14.2s-2.2,8.2-2.2,8.2L120.2,359z"/>
<path id="XMLID_23792_" fill="#081F30" stroke="#FFFFFF" stroke-linecap="round" stroke-dasharray="1,3" d="M149.6,259.5
	c0.8,4.9,3.7,22.1,3.7,30.3c0,2.3,0.1,5.4,0.3,8.9c0.5,10.7,1.4,28.7-2.3,34.9c-2.5,4.2-5.9,6.2-9,8c-3.1,1.8-6.4,3.7-7,7.6
	c-0.3,2.1-0.8,4-1.3,5.3l-9.8,0.6c0.3-2.2,0.8-4.3,1.2-5.1c2-1.7,2.9-2.7,3.8-6c0.9-3.2,3.9-34,3.5-41.1c-0.2-3.8-0.7-12.6-0.1-15.5
	c0.7-3.5,0.2-17.4-0.2-19.8c-0.4-2.5-0.2-17.8,1-20.4c0.2-0.3,0.3-0.4,0.6-0.5L149.6,259.5z"/>
<path id="XMLID_688_" fill="#FFFFFF" d="M117.8,258.7c0,0,0.1,0,0.1,0c0.3,0.1,0.4,0.3,0.4,0.6c0,0.2-0.1,0.4-0.1,0.7
	c0,0.3-0.3,0.5-0.6,0.4c-0.3,0-0.5-0.3-0.4-0.6c0-0.3,0.1-0.5,0.1-0.8C117.4,258.8,117.6,258.7,117.8,258.7z M117.5,262.4
	C117.5,262.4,117.5,262.4,117.5,262.4c0.3,0,0.5,0.2,0.5,0.5l0,0.3c0,0.2,0,0.5,0,0.7c0,0.3-0.2,0.5-0.5,0.5c0,0,0,0,0,0
	c-0.3,0-0.5-0.2-0.5-0.5c0-0.2,0-0.5,0-0.7l0-0.3C117,262.6,117.2,262.4,117.5,262.4z M117.6,266.4c0.3,0,0.5,0.2,0.5,0.5
	c0,0.3,0,0.7,0.1,1c0,0.3-0.2,0.5-0.5,0.5c-0.3,0-0.5-0.2-0.5-0.5c0-0.3-0.1-0.7-0.1-1C117.1,266.6,117.3,266.4,117.6,266.4
	C117.6,266.4,117.6,266.4,117.6,266.4z M118,270.4c0.3,0,0.5,0.2,0.5,0.4l0.1,1c0,0.3-0.2,0.5-0.4,0.6c-0.3,0-0.5-0.2-0.6-0.4
	l-0.1-1C117.5,270.6,117.7,270.4,118,270.4C117.9,270.4,118,270.4,118,270.4z M118.4,274.3c0.2,0,0.5,0.2,0.5,0.4l0.1,1
	c0,0.3-0.2,0.5-0.4,0.6c-0.3,0-0.5-0.2-0.6-0.4l-0.1-1C117.9,274.6,118.1,274.4,118.4,274.3C118.4,274.3,118.4,274.3,118.4,274.3z
	 M119,278.3c0.2,0,0.5,0.2,0.5,0.4l0.1,1c0,0.3-0.2,0.5-0.4,0.6c-0.3,0-0.5-0.1-0.6-0.4l-0.1-1C118.4,278.6,118.6,278.4,119,278.3
	C118.9,278.3,119,278.3,119,278.3z M119.6,282.3c0.2,0,0.5,0.2,0.5,0.4l0.1,1c0,0.3-0.1,0.5-0.4,0.6c-0.3,0-0.5-0.1-0.6-0.4l-0.1-1
	C119,282.6,119.2,282.3,119.6,282.3C119.5,282.3,119.5,282.3,119.6,282.3z M120.2,286.2c0.2,0,0.5,0.2,0.5,0.4l0.2,1
	c0,0.3-0.1,0.5-0.4,0.6c-0.3,0-0.5-0.1-0.6-0.4l-0.2-1C119.6,286.5,119.8,286.3,120.2,286.2C120.1,286.2,120.1,286.2,120.2,286.2z
	 M120.8,290.2c0.2,0,0.5,0.2,0.5,0.4l0.2,1c0,0.3-0.1,0.5-0.4,0.6c-0.3,0-0.5-0.1-0.6-0.4l-0.2-1
	C120.2,290.5,120.4,290.2,120.8,290.2C120.7,290.2,120.8,290.2,120.8,290.2z M121.4,294.1c0.2,0,0.5,0.2,0.5,0.4l0.1,1
	c0,0.3-0.2,0.5-0.4,0.6c-0.3,0-0.5-0.2-0.6-0.4l-0.1-1C120.8,294.4,121,294.2,121.4,294.1C121.3,294.1,121.3,294.1,121.4,294.1z
	 M121.9,298.1c0.2,0,0.5,0.2,0.5,0.4c0,0.3,0.1,0.7,0.1,1c0,0.3-0.2,0.5-0.4,0.6c-0.3,0-0.5-0.2-0.6-0.4c0-0.3-0.1-0.7-0.1-1
	C121.4,298.4,121.6,298.2,121.9,298.1C121.9,298.1,121.9,298.1,121.9,298.1z M122.3,302.1c0.3,0,0.5,0.2,0.5,0.5c0,0.3,0,0.7,0,1
	c0,0.3-0.2,0.5-0.5,0.5c-0.3,0-0.5-0.2-0.5-0.5c0-0.3,0-0.7,0-1C121.8,302.3,122,302.1,122.3,302.1
	C122.3,302.1,122.3,302.1,122.3,302.1z M122.4,306.1C122.4,306.1,122.4,306.1,122.4,306.1c0.3,0,0.5,0.2,0.5,0.5l0,1
	c0,0.3-0.3,0.5-0.5,0.5c-0.3,0-0.5-0.2-0.5-0.5l0-1C121.9,306.3,122.1,306.1,122.4,306.1z M122.2,310.1
	C122.2,310.1,122.2,310.1,122.2,310.1c0.3,0,0.5,0.3,0.5,0.5l-0.1,1c0,0.3-0.3,0.5-0.5,0.5c-0.3,0-0.5-0.3-0.5-0.5l0.1-1
	C121.7,310.3,121.9,310.1,122.2,310.1z M121.9,314.1C121.9,314.1,121.9,314.1,121.9,314.1c0.3,0,0.5,0.3,0.5,0.5l-0.1,1
	c0,0.3-0.3,0.5-0.5,0.5c-0.3,0-0.5-0.3-0.5-0.5l0.1-1C121.4,314.3,121.7,314.1,121.9,314.1z M121.5,318.1
	C121.5,318.1,121.6,318.1,121.5,318.1c0.3,0,0.5,0.3,0.5,0.6l-0.1,1c0,0.3-0.3,0.5-0.6,0.4c-0.3,0-0.5-0.3-0.4-0.6l0.1-1
	C121.1,318.3,121.3,318.1,121.5,318.1z M121,322C121.1,322,121.1,322,121,322c0.3,0,0.5,0.3,0.5,0.6l-0.1,1c0,0.3-0.3,0.5-0.6,0.4
	c-0.3,0-0.5-0.3-0.4-0.6l0.1-1C120.6,322.2,120.8,322,121,322z M120.5,326C120.5,326,120.5,326,120.5,326c0.4,0,0.5,0.3,0.5,0.6
	l-0.2,1c0,0.3-0.3,0.5-0.6,0.4c-0.3,0-0.5-0.3-0.4-0.6l0.2-1C120,326.2,120.2,326,120.5,326z M119.8,330
	C119.9,330,119.9,330,119.8,330c0.4,0.1,0.5,0.3,0.5,0.6l-0.2,1c0,0.3-0.3,0.5-0.6,0.4c-0.3,0-0.5-0.3-0.4-0.6l0.2-1
	C119.4,330.1,119.6,330,119.8,330z M119.1,333.9C119.1,333.9,119.2,333.9,119.1,333.9c0.4,0.1,0.5,0.3,0.5,0.6
	c-0.1,0.3-0.1,0.7-0.2,1c-0.1,0.3-0.3,0.4-0.6,0.4c-0.3-0.1-0.4-0.3-0.4-0.6c0.1-0.3,0.1-0.6,0.2-1
	C118.6,334.1,118.9,333.9,119.1,333.9z M118.2,337.8c0,0,0.1,0,0.1,0c0.3,0.1,0.4,0.3,0.4,0.6l0,0.1c-0.1,0.3-0.1,0.6-0.2,0.8
	c-0.1,0.3-0.3,0.4-0.6,0.4c-0.3-0.1-0.4-0.3-0.4-0.6c0.1-0.3,0.1-0.5,0.2-0.8l0-0.2C117.8,338,118,337.8,118.2,337.8z M117.6,341.7
	C117.6,341.7,117.6,341.7,117.6,341.7c0.3,0,0.5,0.3,0.5,0.5c0,0.3,0,0.7,0,1c0,0.3-0.2,0.5-0.5,0.5c-0.3,0-0.5-0.2-0.5-0.5
	c0-0.3,0-0.7,0-1C117.1,341.9,117.3,341.7,117.6,341.7z M117.6,345.7c0.3,0,0.5,0.2,0.5,0.5c0,0.3,0.1,0.7,0.1,1
	c0,0.3-0.2,0.5-0.4,0.6c-0.3,0-0.5-0.2-0.6-0.4c0-0.3-0.1-0.7-0.1-1C117.1,346,117.3,345.8,117.6,345.7
	C117.6,345.7,117.6,345.7,117.6,345.7z M118.2,349.7c0.2,0,0.4,0.2,0.5,0.4c0.1,0.3,0.1,0.6,0.2,1c0.1,0.3-0.1,0.5-0.4,0.6
	c-0.3,0.1-0.5-0.1-0.6-0.4c-0.1-0.3-0.1-0.7-0.2-1C117.6,350,117.8,349.8,118.2,349.7C118.1,349.7,118.1,349.7,118.2,349.7z
	 M119.1,353.6c0.2,0,0.4,0.1,0.5,0.4c0.1,0.3,0.2,0.6,0.3,1c0.1,0.3-0.1,0.5-0.3,0.6c-0.3,0.1-0.5-0.1-0.6-0.3
	c-0.1-0.3-0.2-0.6-0.3-1c-0.1-0.3,0.1-0.5,0.3-0.6C119,353.6,119,353.6,119.1,353.6z M120.3,357.4c0.2,0,0.4,0.1,0.5,0.3
	c0.1,0.3,0.2,0.7,0.3,0.9c0.1,0.3,0,0.5-0.3,0.6c-0.3,0.1-0.5,0-0.6-0.3c-0.1-0.3-0.2-0.6-0.4-0.9c-0.1-0.3,0-0.5,0.3-0.6
	C120.2,357.4,120.3,357.4,120.3,357.4z"/>
<path id="XMLID_678_" fill="#FFFFFF" d="M129,296.8c0.2,0,0.3,0.1,0.4,0.2c0.2,0.2,0.1,0.5-0.1,0.7c-0.2,0.1-0.4,0.3-0.6,0.5
	c-0.2,0.2-0.5,0.2-0.7,0c-0.2-0.2-0.2-0.5,0-0.7c0.3-0.2,0.5-0.4,0.7-0.6C128.8,296.9,128.9,296.8,129,296.8z M126.4,299.7
	c0.1,0,0.2,0,0.3,0.1c0.2,0.2,0.3,0.5,0.1,0.7c-0.2,0.3-0.4,0.5-0.6,0.8c-0.2,0.2-0.5,0.3-0.7,0.1c-0.2-0.2-0.3-0.5-0.1-0.7
	c0.2-0.3,0.4-0.6,0.6-0.8C126.1,299.7,126.2,299.7,126.4,299.7z M124.1,302.9c0.1,0,0.2,0,0.3,0.1c0.2,0.2,0.3,0.5,0.1,0.7
	c-0.2,0.3-0.4,0.6-0.5,0.8c-0.1,0.2-0.5,0.3-0.7,0.2c-0.2-0.1-0.3-0.5-0.2-0.7c0.2-0.3,0.4-0.6,0.5-0.8
	C123.7,303,123.9,302.9,124.1,302.9z M122,306.4c0.1,0,0.2,0,0.3,0.1c0.2,0.1,0.3,0.4,0.2,0.7l-0.5,0.9c-0.1,0.2-0.4,0.3-0.7,0.2
	c-0.2-0.1-0.3-0.4-0.2-0.7l0.5-0.9C121.6,306.4,121.8,306.4,122,306.4z M120,309.8c0.1,0,0.2,0,0.2,0.1c0.2,0.1,0.3,0.4,0.2,0.7
	l-0.5,0.9c-0.1,0.2-0.4,0.3-0.7,0.2c-0.2-0.1-0.3-0.4-0.2-0.7l0.5-0.9C119.6,309.9,119.8,309.8,120,309.8z M118.1,313.4
	c0.1,0,0.2,0,0.2,0.1c0.2,0.1,0.3,0.4,0.2,0.7l-0.5,0.9c-0.1,0.2-0.4,0.3-0.7,0.2c-0.2-0.1-0.3-0.4-0.2-0.7l0.5-0.9
	C117.8,313.5,117.9,313.4,118.1,313.4z M116.3,317c0.1,0,0.1,0,0.2,0c0.2,0.1,0.4,0.4,0.2,0.7l-0.4,0.9c-0.1,0.2-0.4,0.4-0.7,0.2
	c-0.2-0.1-0.4-0.4-0.2-0.7l0.4-0.9C116,317.1,116.2,317,116.3,317z M114.7,320.6c0.1,0,0.1,0,0.2,0c0.3,0.1,0.4,0.4,0.3,0.7
	c-0.1,0.3-0.3,0.6-0.4,0.9c-0.1,0.3-0.4,0.4-0.7,0.3c-0.3-0.1-0.4-0.4-0.3-0.7c0.1-0.3,0.3-0.6,0.4-0.9
	C114.3,320.7,114.5,320.6,114.7,320.6z M113.3,324.4c0,0,0.1,0,0.2,0c0.3,0.1,0.4,0.4,0.3,0.6c-0.1,0.3-0.2,0.6-0.3,0.9
	c-0.1,0.3-0.3,0.4-0.6,0.4c-0.3-0.1-0.4-0.3-0.4-0.6c0.1-0.3,0.2-0.6,0.3-1C112.9,324.5,113.1,324.4,113.3,324.4z"/>
<path id="XMLID_646_" fill="#FFFFFF" d="M226.1,280.9c0,0,0.1,0,0.1,0c0.2,0.1,0.3,0.3,0.2,0.5c-0.1,0.2-0.2,0.5-0.3,0.9
	c-0.1,0.2-0.3,0.3-0.4,0.2c-0.2-0.1-0.3-0.3-0.2-0.4c0.1-0.4,0.3-0.8,0.3-1C225.8,281,225.9,280.9,226.1,280.9z M225.1,283.7
	C225.2,283.7,225.2,283.8,225.1,283.7c0.3,0.1,0.4,0.3,0.3,0.4c-0.1,0.3-0.2,0.6-0.3,1c0,0.2-0.2,0.3-0.4,0.3
	c-0.2,0-0.3-0.2-0.3-0.4c0.1-0.3,0.2-0.7,0.3-1C224.8,283.8,225,283.7,225.1,283.7z M224.4,286.7
	C224.4,286.7,224.5,286.7,224.4,286.7c0.3,0,0.4,0.2,0.3,0.4c-0.1,0.3-0.1,0.6-0.2,1c0,0.2-0.2,0.3-0.4,0.3c-0.2,0-0.3-0.2-0.3-0.4
	c0.1-0.3,0.1-0.7,0.2-1C224.1,286.8,224.3,286.7,224.4,286.7z M224,289.6C224,289.6,224,289.6,224,289.6c0.2,0,0.4,0.2,0.3,0.4
	c0,0.3-0.1,0.6-0.1,1c0,0.2-0.2,0.3-0.4,0.3c-0.2,0-0.3-0.2-0.3-0.4c0-0.4,0.1-0.7,0.1-1C223.6,289.8,223.8,289.6,224,289.6z
	 M223.7,292.6C223.7,292.6,223.7,292.6,223.7,292.6c0.2,0,0.4,0.2,0.3,0.4l-0.1,1c0,0.2-0.2,0.3-0.4,0.3c-0.2,0-0.3-0.2-0.3-0.4
	l0.1-1C223.3,292.8,223.5,292.6,223.7,292.6z M223.4,295.6C223.4,295.6,223.4,295.6,223.4,295.6c0.2,0,0.4,0.2,0.3,0.4l-0.1,1
	c0,0.2-0.2,0.3-0.4,0.3c-0.2,0-0.3-0.2-0.3-0.4l0.1-1C223.1,295.7,223.2,295.6,223.4,295.6z M223.1,298.6
	C223.2,298.6,223.2,298.6,223.1,298.6c0.2,0,0.4,0.2,0.3,0.4l-0.1,1c0,0.2-0.2,0.3-0.4,0.3c-0.2,0-0.3-0.2-0.3-0.4l0.1-1
	C222.8,298.7,223,298.6,223.1,298.6z M222.9,301.6C222.9,301.6,222.9,301.6,222.9,301.6c0.2,0,0.4,0.2,0.3,0.4l-0.1,1
	c0,0.2-0.2,0.3-0.4,0.3c-0.2,0-0.3-0.2-0.3-0.4l0.1-1C222.5,301.7,222.7,301.6,222.9,301.6z M222.6,304.6
	C222.6,304.6,222.6,304.6,222.6,304.6c0.2,0,0.4,0.2,0.3,0.4l-0.1,1c0,0.2-0.2,0.3-0.4,0.3c-0.2,0-0.3-0.2-0.3-0.4l0.1-1
	C222.3,304.7,222.4,304.6,222.6,304.6z M222.3,307.6C222.3,307.6,222.3,307.6,222.3,307.6c0.2,0,0.4,0.2,0.3,0.4l-0.1,1
	c0,0.2-0.2,0.3-0.4,0.3c-0.2,0-0.3-0.2-0.3-0.4l0.1-1C222,307.7,222.1,307.6,222.3,307.6z M222,310.6C222,310.6,222,310.6,222,310.6
	c0.2,0,0.4,0.2,0.3,0.4l-0.1,1c0,0.2-0.2,0.3-0.4,0.3c-0.2,0-0.3-0.2-0.3-0.4l0.1-1C221.7,310.7,221.8,310.6,222,310.6z
	 M221.7,313.5C221.7,313.5,221.7,313.5,221.7,313.5c0.2,0,0.4,0.2,0.3,0.4c0,0.3-0.1,0.6-0.1,1c0,0.2-0.2,0.3-0.4,0.3
	c-0.2,0-0.3-0.2-0.3-0.4c0-0.3,0.1-0.7,0.1-1C221.3,313.7,221.5,313.5,221.7,313.5z M221.4,316.5
	C221.4,316.5,221.4,316.5,221.4,316.5c0.2,0,0.4,0.2,0.3,0.4l-0.1,1c0,0.2-0.2,0.3-0.4,0.3c-0.2,0-0.3-0.2-0.3-0.4l0.1-1
	C221,316.7,221.2,316.5,221.4,316.5z M221.1,319.5C221.1,319.5,221.1,319.5,221.1,319.5c0.2,0,0.4,0.2,0.3,0.4l-0.1,1
	c0,0.2-0.2,0.3-0.4,0.3c-0.2,0-0.3-0.2-0.3-0.4l0.1-1C220.8,319.7,220.9,319.5,221.1,319.5z M220.9,322.5
	C220.9,322.5,221,322.5,220.9,322.5c0.2,0,0.4,0.2,0.3,0.4l-0.1,1c0,0.2-0.1,0.3-0.4,0.3c-0.2,0-0.3-0.2-0.3-0.4l0.1-1
	C220.6,322.7,220.8,322.5,220.9,322.5z M220.8,325.5C220.8,325.5,220.8,325.5,220.8,325.5c0.2,0,0.4,0.2,0.3,0.4l0,1
	c0,0.2-0.1,0.4-0.4,0.3c-0.2,0-0.3-0.2-0.3-0.4l0-1C220.4,325.7,220.6,325.5,220.8,325.5z M220.6,328.5
	C220.6,328.5,220.6,328.5,220.6,328.5c0.2,0,0.4,0.2,0.3,0.4l0,1c0,0.2-0.2,0.3-0.3,0.3c0,0,0,0,0,0c-0.2,0-0.3-0.2-0.3-0.4l0-1
	C220.3,328.7,220.5,328.5,220.6,328.5z M220.5,331.5C220.5,331.5,220.5,331.5,220.5,331.5c0.2,0,0.4,0.2,0.3,0.4l0,0.9l-0.4,0.1
	l-0.3-0.1l0-0.9C220.2,331.7,220.3,331.5,220.5,331.5z M220.4,334.5C220.4,334.5,220.4,334.5,220.4,334.5c0.2,0,0.4,0.2,0.3,0.4l0,1
	c0,0.2-0.2,0.4-0.4,0.3c-0.2,0-0.3-0.2-0.3-0.4l0-1C220.1,334.7,220.2,334.5,220.4,334.5z M220.4,337.5
	C220.4,337.5,220.4,337.5,220.4,337.5c0.2,0,0.4,0.2,0.3,0.4l0,1c0,0.2-0.2,0.3-0.3,0.3c0,0,0,0,0,0c-0.2,0-0.3-0.2-0.3-0.4l0-1
	C220,337.7,220.2,337.5,220.4,337.5z M220.3,340.5L220.3,340.5c0.2,0,0.4,0.2,0.3,0.3l0,1c0,0.2-0.2,0.4-0.3,0.4
	c-0.2,0-0.3-0.2-0.3-0.4l0-1C220,340.7,220.1,340.5,220.3,340.5z M220.3,343.5c0.2,0,0.3,0.2,0.3,0.3c0,0.4,0,0.7,0,1
	c0,0.2-0.1,0.4-0.3,0.4c-0.2,0-0.4-0.1-0.4-0.3c0-0.3,0-0.6,0-1C220,343.7,220.1,343.5,220.3,343.5
	C220.3,343.5,220.3,343.5,220.3,343.5z M220.5,346.5c0.2,0,0.3,0.1,0.3,0.3c0,0.3,0.1,0.6,0.1,1c0,0.2-0.1,0.4-0.3,0.4
	c-0.2,0-0.4-0.1-0.4-0.3c0-0.4,0-0.7-0.1-1C220.2,346.7,220.3,346.5,220.5,346.5C220.5,346.5,220.5,346.5,220.5,346.5z M220.7,349.5
	c0.2,0,0.3,0.2,0.3,0.3c0,0.2,0,0.5,0,0.8l0,0.2c0,0.2-0.2,0.4-0.3,0.4c-0.2,0-0.3-0.2-0.3-0.4l0-0.2c0-0.3,0-0.5,0-0.8
	C220.3,349.7,220.5,349.5,220.7,349.5C220.7,349.5,220.7,349.5,220.7,349.5z M220.6,352.5C220.7,352.5,220.7,352.5,220.6,352.5
	c0.2,0,0.4,0.2,0.3,0.4l0,1c0,0.2-0.2,0.4-0.4,0.3c-0.2,0-0.3-0.2-0.3-0.4l0-1C220.3,352.7,220.5,352.5,220.6,352.5z M220.5,355.5
	C220.6,355.5,220.6,355.5,220.5,355.5c0.2,0,0.4,0.2,0.3,0.4l0,1c0,0.2-0.1,0.4-0.4,0.3c-0.2,0-0.3-0.2-0.3-0.4l0-1
	C220.2,355.7,220.4,355.5,220.5,355.5z M220.4,358.5C220.4,358.5,220.4,358.5,220.4,358.5c0.2,0,0.4,0.2,0.3,0.4l-0.1,1
	c0,0.2-0.2,0.3-0.4,0.3c-0.2,0-0.3-0.2-0.3-0.4l0.1-1C220.1,358.6,220.2,358.5,220.4,358.5z M220.2,361.5
	C220.2,361.5,220.2,361.5,220.2,361.5c0.2,0,0.4,0.2,0.3,0.4l-0.1,1c0,0.2-0.2,0.3-0.4,0.3c-0.2,0-0.3-0.2-0.3-0.4l0.1-1
	C219.9,361.6,220,361.5,220.2,361.5z M220,364.5C220,364.5,220,364.5,220,364.5c0.2,0,0.4,0.2,0.3,0.4l-0.1,1c0,0.2-0.2,0.3-0.4,0.3
	c-0.2,0-0.3-0.2-0.3-0.4l0.1-1C219.7,364.6,219.8,364.5,220,364.5z M219.8,367.5C219.8,367.5,219.8,367.5,219.8,367.5
	c0.2,0,0.4,0.2,0.3,0.4l-0.1,1c0,0.2-0.2,0.3-0.4,0.3c-0.2,0-0.3-0.2-0.3-0.4l0.1-1C219.4,367.6,219.6,367.5,219.8,367.5z"/>
<path id="XMLID_642_" fill="#FFFFFF" d="M226.4,331.8c0.2-2.2,2.7-4.4,2.9-1.5c0.2,2.9-0.5,17.6-3.1,28s-13.7,48.2-33.2,59.9
	s-39.2,8.5-51.2-1s-23.8-24-28-62s-4.2-39.1-3.4-41s2.6-1.9,2.6,0.8s2.1,26.1,3.6,36.5s3.2,31,15.3,48.2s32,18,36.8,17.6
	s21.5-1.2,36-24.6c14.5-23.4,18.2-31.9,19.7-44.9C225.9,334.9,226.4,331.8,226.4,331.8z"/>
<path id="XMLID_641_" fill="#FFFFFF" d="M133.5,398.6c11.1,16,29.7,16.8,33.3,16.8c0.8,0,1.4,0,1.7-0.1l0.3,0
	c5.1-0.4,20.5-1.6,34.2-23.7c6.7-10.7,11-18.2,13.9-24.5c-5.3-5.1-15.4-9.4-43.3-11.7c-36-3-44.8-3-54.1,1.5
	C120.9,367.9,123.7,384.5,133.5,398.6z"/>
<path id="XMLID_602_" fill="#E4E5E6" d="M195.6,338.7c3.4,0,6.1-2.6,6.1-5.8c0-3.2-2.7-5.8-6.1-5.8c-3.4,0-6.1,2.6-6.1,5.8
	C189.5,336.1,192.2,338.7,195.6,338.7z M195.6,330c1.6,0,3,1.3,3,2.8c0,1.6-1.3,2.8-3,2.8c-1.6,0-3-1.3-3-2.8
	C192.6,331.3,193.9,330,195.6,330z"/>
<path id="XMLID_596_" fill="#E4E5E6" d="M144,330.3c2.3-0.4,4.2-2.8,4.4-5.7c0.2-2.9-1.5-5.4-4-5.4c-2.7,0-5,2.9-5,6.2
	C139.5,328.6,141.6,330.7,144,330.3z M144.3,322.3c1.2-0.1,2.1,1.1,2,2.5c-0.1,1.4-1.1,2.7-2.2,2.8c-1.2,0.2-2.2-0.9-2.1-2.4
	C142,323.7,143.1,322.3,144.3,322.3z"/>
<path id="XMLID_593_" fill="#E4E5E6" d="M146.8,309.6c1.8-1.2,2.4-4,1.5-6.5c-0.9-2.7-3.3-4.2-5.3-3.3c-2.2,1-3,4.3-1.8,7.2
	C142.4,309.8,145,310.9,146.8,309.6z M144.1,302.5c1-0.5,2.1,0.2,2.6,1.5c0.5,1.3,0.1,2.7-0.8,3.3c-0.9,0.6-2.1,0-2.7-1.3
	C142.7,304.6,143.1,303,144.1,302.5z"/>
<path id="XMLID_587_" fill="#E4E5E6" d="M196.5,297.9c2.9,0,5.3-2.4,5.4-5.4c0.1-3.2-2.4-6-5.7-6c-3.2,0-5.6,2.8-5.4,6
	C191.1,295.6,193.6,298,196.5,297.9z M196.3,289.7c1.5,0,2.8,1.3,2.8,2.8c0,1.5-1.2,2.7-2.6,2.7c-1.5,0-2.7-1.2-2.8-2.7
	C193.6,291,194.8,289.7,196.3,289.7z"/>
<path id="XMLID_578_" fill="#E4E5E6" d="M193.7,318.4c2.7,1,5.8-0.3,7-3.1c1.3-3-0.1-6.5-3.1-7.7c-3-1.2-6.3,0.5-7.2,3.7
	C189.4,314.2,191,317.3,193.7,318.4z M196.5,310.6c1.4,0.6,2.1,2.2,1.5,3.7c-0.6,1.4-2.1,2.1-3.4,1.6c-1.4-0.5-2.1-2.1-1.6-3.5
	C193.5,310.8,195.1,310,196.5,310.6z"/>
<path id="XMLID_538_" fill="#F0F2F3" d="M195.6,290c0,0-27.6,9.1-38.3,7.3l0.4,8.5c0,0,23.5-4.4,29.3-6.3s8.1-3.2,8.7-5.5
	C196.2,291.8,195.6,290,195.6,290z"/>
<path id="XMLID_535_" fill="#F0F2F3" d="M145.7,285.6c-1.2,0.8-1.4,3.2,0.8,5.2s25.4,15.4,29.5,17c4.1,1.6,4.1,1.6,4.1,1.6l0-5.9
	c0,0-15.7-7.4-20.5-10.2s-7.5-5.8-8.8-6.7C149.2,285.9,145.7,285.6,145.7,285.6z"/>
<path id="XMLID_534_" fill="#F0F2F3" d="M195,314.6c0.2-2,0-4.1,0-4.1s-32.2,5.9-37.3,8.2l-0.3,5.5c0,0,19.2-2.9,24-4
	c4.8-1.1,12.2-3.3,12.7-3.8C194.6,315.8,195,314.6,195,314.6z"/>
<path id="XMLID_533_" fill="#F0F2F3" d="M145.3,304.9c0,1.3,0.7,5.1,2.8,6.7c2.2,1.6,12.1,7.6,16.3,9.8c4.2,2.2,16.8,9.6,16.8,9.6
	l-0.8-7.7c0,0-18.8-10.3-21.8-12.1s-11.8-7-12.6-7.1C145.4,304,145.3,304.9,145.3,304.9z"/>
<path id="XMLID_531_" fill="#F0F2F3" d="M195.1,335.1c0.3-2.3,1.3-3.9,0.5-5.1c-0.8-1.2-2.4-4.1-18.4-5.8c-16-1.8-31.8-3.7-31.8-3.7
	s0.4,2.1,0,3.7c-0.4,1.6-1.7,3.2-0.5,4.2c1.1,1,6.8,1,13.6,1.3c6.8,0.3,23.3,3.4,28.5,4.1C192.1,334.5,194.9,336.5,195.1,335.1z"/>
<path id="XMLID_590_" fill="#E4E5E6" d="M146.3,289.6c1.5-1,2-3.3,1.3-5.5c-0.8-2.2-2.8-3.5-4.5-2.7c-1.8,0.8-2.5,3.6-1.5,6
	C142.6,289.7,144.7,290.6,146.3,289.6z M143.9,283.7c0.8-0.4,1.8,0.2,2.2,1.3c0.4,1.1,0.1,2.3-0.6,2.7c-0.8,0.5-1.8,0-2.3-1.1
	C142.8,285.4,143.1,284.1,143.9,283.7z"/>
<path id="XMLID_584_" fill="#E4E5E6" d="M199.2,276.8c2.9,0,5.3-2.4,5.4-5.4c0.1-3.2-2.4-6-5.7-6c-3.2,0-5.6,2.8-5.4,6
	C193.7,274.5,196.3,276.8,199.2,276.8z M199,268.5c1.5,0,2.8,1.3,2.8,2.8c0,1.5-1.2,2.7-2.6,2.7c-1.5,0-2.7-1.2-2.8-2.7
	C196.3,269.8,197.4,268.5,199,268.5z"/>
<path id="XMLID_581_" fill="#E4E5E6" d="M143.2,269.3c2.9,0,5.3-2.4,5.4-5.4c0.1-3.2-2.4-6-5.7-6c-3.2,0-5.6,2.8-5.4,6
	C137.7,267,140.3,269.3,143.2,269.3z M143,261c1.5,0,2.8,1.3,2.8,2.8c0,1.5-1.2,2.7-2.6,2.7c-1.5,0-2.7-1.2-2.8-2.7
	C140.3,262.3,141.4,261,143,261z"/>
<path id="XMLID_542_" fill="#F0F2F3" d="M198.8,270.8c1.8-0.9-1,6.2-3.9,7.6c-2.9,1.4-24.8,6.6-29.8,7.1c-4.9,0.5-8.2,1.3-8.2,1.3
	l-0.6-5.9c0,0,16.4-1.4,22.2-3C184.2,276.3,197.3,271.5,198.8,270.8z"/>
<path id="XMLID_539_" fill="#F0F2F3" d="M180.4,291.4c0,0,0.5-5,0.5-5.3c0-0.3-21.2-9.4-25.3-12.4c-4.1-3-10.8-6.9-11.6-8.5
	c0,0-2.1,2.9-1,5c1.2,2.1,14.2,12,19.5,14.2C167.7,286.7,180.4,291.4,180.4,291.4z"/>
<path id="XMLID_519_" fill="#AE4933" d="M227.8,239c-1.7,5-11.7,18.2-18.7,22.8c-7,4.6-14.3,11.3-27.3,12
	c-13,0.7-37.3-3.1-45.2-17.4c-7.8-14.3-7.5-20.9-11.2-29.6s-7.3-22.2-8.8-26.5c-1.5-4.3-1.7-6.7-1.7-6.7s-13.2-10.7-20.2-21.2
	s-16.3-26-17.8-29.7s-1.7-4.5-4.2-5.8c-2.5-1.3-13.5-10.8-18.7-23S47.7,94.8,44,91s-7.7-40.3-25-51S0,0,0,0l223.1,0
	c0,0,0.7,19.2,0.3,28.6C223,38,222.6,77,222,85c-0.6,8-4.4,36-4.7,40.2s3.5,15.8,5.7,19c2.3,3.2,10.9,10.7,9.4,18.2s0.2,10,0,14.2
	c-0.2,4.2,1.6,7.8,0,9.3c-1.6,1.5-3.7,12.6-3.7,17.2c0,4.6,1.4,20,0.8,23.9C229.1,231,227.8,239,227.8,239z"/>
<path id="XMLID_518_" fill="#993920" d="M222,85c0.6-8,1-47,1.4-56.4c0,0-6.4,53-6.4,61.4s-6.3,48.7-7.3,59
	c-1,10.3-10.7,28.3-21.7,42.3c-2.6,3.3,6.3,0,11,0c4.7,0,11.7-11.7,20.7-13c4.8-0.7,9.9,2.2,13.5,5.2c-0.1-1.8-0.8-4.3-0.7-7
	c0.2-4.2-1.5-6.7,0-14.2s-7.2-15-9.4-18.2c-2.3-3.2-6.1-14.8-5.7-19S221.4,93,222,85z"/>
<path id="XMLID_517_" fill="#993920" d="M221.2,224.4c-7.1,1.7-26-3.2-31.2-3.4c-5.2-0.2-3.8-6.8,0.7-9.2c4.6-2.5-1.6-3-9.5,0
	c-7.9,3-2.8,8.8,4.4,12.7c7.2,3.9,25,5.6,26,6.8c1,1.2,6-0.7,11.2,2.6c2.2,1.4,2.9,5.3,2.9,9.3c1-1.6,1.7-3,2-4c0,0,1.3-8.1,1.8-12
	c0.2-1.6,0.1-5.3-0.1-9.2C227.3,220.8,224.3,223.7,221.2,224.4z"/>
<path id="XMLID_516_" fill="#993920" d="M194.8,233.3c-6.2,1.2-15.2,5.8-21,7.2s-29.2,3.2-31.2-2.8S135.2,217,131,210
	c-4.3-7-2.8-2.2,9.5,0s29.8,4.8,19.8,0.5c-8.1-3.5-35.5-13.4-45.4-17c0.1,0.1,0.1,0.1,0.1,0.1s0.2,2.3,1.7,6.7
	c1.5,4.3,5.2,17.8,8.8,26.5c0.5,1.1,0.9,2.1,1.2,3.2c5.6,7.1,13.6,14.7,22.5,15.2c16.8,1,32,1.5,36.2-1.8s11-6.8,17.5-6
	C206.1,237.9,201,232,194.8,233.3z"/>
<path id="XMLID_510_" fill="#993920" d="M133.3,147.2c-14.1,1.9-43.6,0.8-54.2-10.1s-14.8-18.4-4.2-13.4S94,135.3,103.7,138
	C113.3,140.7,146.5,145.4,133.3,147.2z"/>
<path id="XMLID_504_" fill="#A23C2A" d="M95.5,4c-1,16,26,65,4.5,64.5S63.5,39.5,36,37c-8.3-0.8-16.8-1.5-24.5-1.8
	c2.8,1.8,5.3,3.4,7.5,4.8c17.3,10.7,21.3,47.2,25,51c2,2.1,3.4,5.3,5,9.7c16.5,6.1,47.4,19.3,57,24.3c11.5,6,39,17,44.5-6.5
	c3.9-16.7,18.5-73,27.5-85c7.8-10.4,25-24.9,10.5-33.5L97.1,0C96.1,1.2,95.6,2.5,95.5,4z"/>
<path id="XMLID_503_" fill="#993920" d="M218,107c0,0,6-40,9-50.3s12-49,12-49l-16.8-4.3c0,0-1.5,42.3-1.5,51.7S218,107,218,107z"/>
</svg>
