<?xml version="1.0" encoding="utf-8"?>
<!-- Generator: Adobe Illustrator 17.1.0, SVG Export Plug-In . SVG Version: 6.00 Build 0)  -->
<!DOCTYPE svg PUBLIC "-//W3C//DTD SVG 1.1//EN" "http://www.w3.org/Graphics/SVG/1.1/DTD/svg11.dtd">
<svg version="1.1" id="Layer_1" xmlns="http://www.w3.org/2000/svg" xmlns:xlink="http://www.w3.org/1999/xlink" x="0px" y="0px"
	 viewBox="-50 423.8 662 368" enable-background="new -50 423.8 662 368" xml:space="preserve">
<g id="Layer_1_1_">
</g>
<g id="CHUCKS">
	<g id="XMLID_48581_">
		<path id="XMLID_48828_" fill="#000005" d="M4.8,461.5c24.9-10.5,72.5-21.2,111.6-28.1c39.1-6.8,90.7-12.2,126.1-8.2
			s63.8,11.1,63.8,11.1s20.7-2,50.4,6.2c29.8,7.9,121.3,38.8,147.3,52.4c26.1,13.6,72,44.8,77.4,90.1c5.4,45.3,7.1,111.6-28.6,137.4
			c-35.7,25.8-109.1,55.8-142,61.5s-95.2,4-109.1,4c-14.2,0-95.2-0.6-120.7-3.1s-54.4-11-81-9.6s-66.9,8.4-79,13
			c-2.9,1.1-69.8,4.5-71,0V466.1L4.8,461.5z"/>
		<path id="XMLID_48827_" fill="#021F31" d="M423.3,478l-6.5-7.9c0,0-21.2-1.4-26.6-2.6c-5.7-1.1-3.4,4-3.4,4l-6,13.6
			c0,0-30.6-7.7-54.4-6.5c-23.5,1.1-50.4,1.1-61.5,1.1c-11,0-31.2,3.1-42.2-2c-11.1-5.1-50.4-3.1-66.3-2.6
			c-15.9,0.6-62.9,1.4-72.8,6s-23.2,14.2-23.2,14.2l81,87c0,0,22.1,1.4,42.2-2c20.1-3.4,33.1-3.1,41.6-3.4
			c8.5-0.6,18.7,2.5,27.8,5.9c9.1,3.4,50.7,11.1,74.5,0.6c23.5-10.5,51.3-43.6,55.8-50.4c4.5-6.5,32.6-45.3,32.6-45.3L423.3,478z"/>
		<path id="XMLID_48826_" fill="#021F31" stroke="#FFFFFF" stroke-linecap="round" stroke-dasharray="1,3" d="M417.6,761.9
			l-11.6,1.4c0,0-20.7-34.8-31.7-54.4c-11-19.6-11.6-40.2-70.8-47.3c-59.5-7.1-108.8-5.9-141.4,4.5c-32.6,10.5-102,96.6-102,96.6
			s44.8-9.1,65.4-9.6c20.7-0.6,94.6,0,106.2,0s45.9-3.1,56.4-4.5s57.2,0.6,68,3.1s19.5,3.4,19.5,3.4l10.5,18.7
			c0,0,22.1-2.5,27.8-7.9C419.6,760.4,417.6,761.9,417.6,761.9z"/>
		<path id="XMLID_48825_" fill="#021F31" stroke="#FFFFFF" stroke-linecap="round" stroke-dasharray="1,3" d="M88.4,746.3
			c26.3-30,60.3-64,77.1-69.7c30-9.6,77.3-11,136.6-4c44.8,5.4,50.4,17.3,57.8,32.6c1.4,2.8,2.8,5.9,4.8,9.1
			c7.9,14.2,20.7,36,27.5,47.3h-0.3l-9.6-17l-5.7-0.6c0,0-8.5-0.9-18.4-3.4c-11.6-2.8-60.1-4.8-72-3.1c-10.2,1.4-43.9,4.5-54.7,4.5
			c-2.6,0-8.5,0-16.1,0c-26.1,0-74.2-0.3-90.4,0C115.6,742.3,101.4,744.3,88.4,746.3L88.4,746.3z"/>
		<path id="XMLID_48824_" fill="#021F31" d="M401.5,778.9c0,0-243.4,0.6-271.7-6l99.2,15.6h29.2l108.8-1.1L401.5,778.9z"/>
		<path id="XMLID_48823_" fill="#021F31" d="M29.8,457c90.7-34,206-23.5,258.1-17.3c45.3,5.4,124.4,22.4,143.9,26.9
			c-30-10.5-60.4-20.1-75.1-24.1c-29.8-7.9-50.1-9.3-50.1-9.3s-28.6-4.2-64-7.9c-35.4-3.7-86.7,1.4-126.1,8.2
			c-39.4,6.8-86.7,17.3-111.7,28l-54.8,4.6v2.4l54.5-4.2L29.8,457z"/>
		<path id="XMLID_48753_" fill="#FFFFFF" d="M59.5,496.1c0-0.3,0.3-0.9,0.6-1.1c0.6-0.6,1.7-0.6,2.3,0l2,2.3c0.6,0.6,0.6,1.7,0,2.3
			c-0.6,0.6-1.7,0.6-2.3,0l-2-2.3C59.5,496.9,59.5,496.7,59.5,496.1z M64.9,490.7c0-0.6,0.3-0.9,0.6-1.1c0.8-0.6,1.7-1.1,2.6-1.7
			c0.6-0.6,1.7-0.3,2,0.6c0.6,0.6,0.3,1.7-0.6,2c-0.8,0.6-1.7,1.1-2.5,1.7c-0.6,0.6-1.7,0.3-2-0.3C64.9,491.3,64.9,491,64.9,490.7z
			 M67.7,505.2c0-0.3,0.3-0.9,0.6-1.1c0.6-0.6,1.7-0.6,2.3,0l2,2.3c0.6,0.6,0.6,1.7,0,2.3c-0.6,0.6-1.7,0.6-2.3,0L68,506
			C67.7,505.7,67.7,505.4,67.7,505.2z M75.1,484.5c0-0.6,0.3-1.1,0.8-1.4c0.8-0.6,1.7-1.1,2.6-1.4c0.8-0.3,1.7,0,2,0.6
			c0.3,0.9,0,1.7-0.6,2c-0.8,0.6-1.7,0.9-2.5,1.4c-0.8,0.3-1.7,0.3-2-0.6C75.1,485,75.1,484.8,75.1,484.5z M75.9,513.9
			c0-0.3,0.3-0.9,0.6-1.1c0.6-0.6,1.7-0.6,2.3,0l2,2.3c0.6,0.6,0.6,1.7,0,2.3s-1.7,0.6-2.3,0l-2-2.3
			C75.9,514.5,75.9,514.2,75.9,513.9z M84.2,522.7c0-0.3,0.3-0.9,0.6-1.1c0.6-0.6,1.7-0.6,2.3,0l2,2.3c0.6,0.6,0.6,1.7,0,2.3
			c-0.6,0.6-1.7,0.6-2.3,0l-2-2.3C84.2,523.6,84.2,523,84.2,522.7z M86.1,479.7c0-0.6,0.6-1.4,1.1-1.4c0.8-0.3,2-0.3,3.1-0.6
			c0.8,0,1.7,0.3,1.7,1.1c0,0.8-0.3,1.7-1.1,1.7c-1.1,0.3-2,0.3-2.8,0.6s-1.7-0.3-1.7-1.1C86.1,479.9,86.1,479.9,86.1,479.7z
			 M92.4,531.5c0-0.3,0.3-0.8,0.6-1.1c0.6-0.6,1.7-0.6,2.3,0l2,2.3c0.6,0.6,0.6,1.7,0,2.3c-0.6,0.6-1.7,0.6-2.3,0l-2-2.3
			C92.4,532.4,92.4,531.8,92.4,531.5z M98,478c0-0.9,0.6-1.4,1.4-1.4s2-0.3,3.1-0.3c0.8,0,1.7,0.6,1.7,1.4s-0.6,1.7-1.4,1.7
			c-1.1,0-2,0.3-3.1,0.3C98.9,479.7,98.3,478.8,98,478L98,478z M100.6,540.3c0-0.3,0.3-0.8,0.6-1.1c0.6-0.6,1.7-0.6,2.3,0l2,2.3
			c0.6,0.6,0.6,1.7,0,2.3c-0.6,0.6-1.7,0.6-2.3,0l-2-2.3C100.6,541.1,100.6,540.9,100.6,540.3z M108.8,549.4c0-0.3,0.3-0.9,0.6-1.1
			c0.6-0.6,1.7-0.6,2.3,0l2,2.3c0.6,0.6,0.6,1.7,0,2.3s-1.7,0.6-2.3,0l-2-2.3C108.8,549.9,108.8,549.6,108.8,549.4z M110.2,476.8
			c0-0.9,0.6-1.4,1.4-1.4l3.1-0.3c0.8,0,1.4,0.6,1.7,1.4c0,0.8-0.6,1.4-1.4,1.7l-3.1,0.3C110.8,478.5,110.2,478,110.2,476.8
			C110.2,477.1,110.2,476.8,110.2,476.8z M117,558.1c0-0.3,0.3-0.8,0.6-1.1c0.6-0.6,1.7-0.6,2.3,0l2,2.3c0.6,0.6,0.6,1.7,0,2.3
			s-1.7,0.6-2.3,0l-2-2.3C117,558.7,117,558.4,117,558.1z M122.1,476.2c0-0.8,0.6-1.4,1.4-1.4l3.1-0.3c0.8,0,1.4,0.6,1.7,1.4
			c0,0.9-0.6,1.4-1.4,1.7h-3.1C123,477.7,122.1,477.1,122.1,476.2L122.1,476.2z M125.2,566.9c0-0.3,0.3-0.9,0.6-1.1
			c0.6-0.6,1.7-0.6,2.3,0l2,2.3c0.6,0.6,0.6,1.7,0,2.3s-1.7,0.6-2.3,0l-2-2.3C125.2,567.8,125.2,567.2,125.2,566.9z M133.4,575.7
			c0-0.3,0.3-0.9,0.6-1.1c0.6-0.6,1.7-0.6,2.3,0l2,2.3c0.6,0.6,0.6,1.7,0,2.3c-0.6,0.6-1.7,0.6-2.3,0l-2.3-2.3
			C133.4,576.6,133.4,576,133.4,575.7z M134.3,475.7c0-0.9,0.6-1.4,1.4-1.4h3.1c0.9,0,1.4,0.6,1.7,1.4c0,0.8-0.6,1.4-1.4,1.7H136
			C135.1,477.1,134.3,476.5,134.3,475.7L134.3,475.7z M142.8,582.5C142.8,582.2,142.8,582.2,142.8,582.5c0-0.9,0.8-1.4,1.7-1.4
			c0.8,0,2,0,3.1,0c0.9,0,1.4,0.9,1.4,1.4c0,0.9-0.8,1.4-1.4,1.4c-1.1,0-2.3,0-3.1,0C143.4,583.9,142.8,583.1,142.8,582.5z
			 M146.5,475.4c0-0.9,0.6-1.4,1.4-1.4h3.1c0.8,0,1.4,0.6,1.4,1.4s-0.6,1.4-1.4,1.4h-3.1C147.1,476.8,146.5,476.2,146.5,475.4
			L146.5,475.4z M154.7,582.5c0-0.9,0.6-1.4,1.4-1.4c0.9,0,2,0,3.1,0c0.8,0,1.4,0.6,1.4,1.4s-0.6,1.4-1.4,1.4c-1.1,0-2,0-3.1,0
			C155.6,583.9,154.7,583.4,154.7,582.5L154.7,582.5z M158.4,474.8c0-0.9,0.6-1.4,1.4-1.4h2.8c0.9,0,1.4,0.6,1.7,1.4
			c0,0.9-0.6,1.4-1.4,1.7h-3.1C159.2,476.5,158.4,475.7,158.4,474.8L158.4,474.8z M166.9,581.9c0-0.9,0.6-1.4,1.4-1.4
			c0.8,0,2-0.3,3.1-0.3c0.9,0,1.7,0.6,1.7,1.4c0,0.9-0.6,1.7-1.4,1.7c-1.1,0-2,0.3-3.1,0.3C167.7,583.6,166.9,582.8,166.9,581.9
			L166.9,581.9z M170.6,474.6c0-0.9,0.6-1.4,1.4-1.4h3.1c0.9,0,1.4,0.6,1.4,1.4s-0.6,1.4-1.4,1.4H172
			C171.1,476,170.6,475.4,170.6,474.6L170.6,474.6z M178.8,580.8c0-0.9,0.6-1.4,1.4-1.4c0.8-0.3,2-0.3,2.8-0.6
			c0.9,0,1.7,0.3,1.7,1.1c0.3,0.9-0.3,1.7-1.1,1.7c-1.1,0.3-2,0.3-3.1,0.6C179.6,582.2,179.1,581.6,178.8,580.8L178.8,580.8z
			 M182.8,474.3c0-0.8,0.6-1.4,1.4-1.4h3.1c0.9,0,1.4,0.6,1.4,1.4l0,0c0,0.9-0.6,1.4-1.4,1.4h-3.1
			C183.3,475.7,182.8,475.1,182.8,474.3L182.8,474.3z M190.7,578.8c0-0.9,0.6-1.4,1.4-1.4c1.1,0,2-0.3,3.1-0.3
			c0.9,0,1.7,0.6,1.7,1.4s-0.6,1.7-1.4,1.7c-0.9,0-2,0.3-3.1,0.3C191.5,580.5,191,580,190.7,578.8L190.7,578.8z M194.6,474.3
			L194.6,474.3c0-0.8,0.6-1.4,1.4-1.4c1.1,0,2,0,3.1,0c0.9,0,1.4,0.9,1.4,1.4c0,0.9-0.9,1.4-1.4,1.4c-0.9,0-2,0-3.1,0
			C195.2,475.7,194.6,475.1,194.6,474.3z M202.9,577.7c0-0.9,0.6-1.4,1.4-1.4c1.1,0,2-0.3,3.1-0.3c0.9,0,1.4,0.6,1.7,1.4
			c0,0.9-0.6,1.4-1.4,1.7c-0.9,0-2,0-3.1,0.3C203.4,579.1,202.9,578.5,202.9,577.7L202.9,577.7z M206.8,474.8L206.8,474.8
			c0-0.9,0.9-1.7,1.7-1.4c1.1,0,2,0.3,3.1,0.3c0.9,0,1.4,0.9,1.4,1.7c0,0.8-0.9,1.4-1.7,1.4c-0.9,0-2-0.3-2.8-0.3
			C207.4,476.2,206.8,475.7,206.8,474.8z M214.8,577.1c0-0.9,0.6-1.4,1.4-1.4h3.1c0.9,0,1.4,0.6,1.4,1.4s-0.6,1.4-1.4,1.4h-3.1
			C215.6,578.5,214.8,578,214.8,577.1L214.8,577.1z M218.7,476.8v-0.3c0.3-0.9,1.1-1.1,2-1.1c0.9,0.3,1.7,0.6,2.6,0.8l0.6,0.3
			c0.9,0.3,1.1,1.1,0.9,2c-0.3,0.8-1.1,1.1-2,0.8l-0.6-0.3c-0.6-0.3-1.4-0.6-2-0.9C219,478,218.7,477.4,218.7,476.8z M226.9,576.6
			L226.9,576.6c0-0.9,0.9-1.4,1.7-1.4c1.1,0,2,0,3.1,0.3c0.9,0,1.4,0.8,1.4,1.7s-0.9,1.4-1.7,1.4c-0.9,0-2-0.3-2.8-0.3
			C227.5,578.2,226.9,577.4,226.9,576.6z M230.4,479.9L230.4,479.9c0-1.1,0.9-1.7,1.7-1.4c0.9,0,2,0.3,2.8,0.3s1.4,0.8,1.4,1.7
			s-0.9,1.4-1.7,1.4c-1.1,0-2-0.3-3.1-0.3C230.9,481.4,230.4,480.8,230.4,479.9z M238.9,578.5v-0.3c0.3-0.9,1.1-1.4,2-1.1
			s2,0.6,2.8,0.9s1.1,1.1,1.1,2c-0.3,0.8-1.1,1.1-2,1.1c-0.9-0.3-2-0.6-2.8-0.9S238.9,579.4,238.9,578.5z M242.2,480.5
			c0-0.8,0.6-1.4,1.4-1.4c1.1,0,2,0,3.1,0c0.9,0,1.4,0.6,1.7,1.4c0,0.9-0.6,1.4-1.4,1.7c-1.1,0-2,0-3.1,0
			C243.1,481.9,242.2,481.4,242.2,480.5L242.2,480.5z M250.2,582.5c0-0.3,0-0.3,0-0.6c0.3-0.9,1.1-1.1,2-0.9l0.9,0.3
			c0.6,0.3,1.1,0.3,2,0.6s1.1,1.1,1.1,2c-0.3,0.8-1.1,1.1-2,1.1c-0.9-0.3-1.4-0.6-2-0.6l-0.9-0.3
			C250.8,583.6,250.2,583.1,250.2,582.5z M254.4,479.9c0-0.9,0.6-1.4,1.4-1.4l3.1-0.3c0.9,0,1.4,0.6,1.7,1.4c0,0.9-0.6,1.4-1.4,1.7
			l-3.1,0.3C255.3,481.4,254.4,480.8,254.4,479.9L254.4,479.9z M261.8,585.6v-0.3c0.3-0.9,0.9-1.4,1.7-1.1s2,0.3,2.8,0.6
			c0.9,0.3,1.4,0.9,1.1,1.7s-0.9,1.4-1.7,1.1c-1.1-0.3-2-0.3-3.1-0.6C262.4,586.8,261.8,586.2,261.8,585.6z M266.3,479.7
			L266.3,479.7c0-0.9,0.6-1.4,1.4-1.4h2.8v3.1V480v1.4h-2.8C267.2,481.1,266.3,480.5,266.3,479.7z M273.7,587.3
			C273.7,587.3,274,587.3,273.7,587.3c0-1.1,0.9-1.7,1.7-1.4c0.9,0,2,0.3,2.8,0.3s1.4,0.8,1.4,1.7s-0.9,1.4-1.7,1.4
			c-1.1,0-2-0.3-3.1-0.3C274.3,588.7,273.7,588.2,273.7,587.3z M278.5,479.7c0-0.9,0.6-1.4,1.4-1.4h3.1c0.9,0,1.4,0.6,1.4,1.4
			s-0.6,1.4-1.4,1.4h-3.1C279.4,481.1,278.5,480.5,278.5,479.7L278.5,479.7z M285.9,588.5L285.9,588.5c0-0.9,0.9-1.4,1.7-1.4
			c0.9,0,2,0,3.1,0c0.9,0,1.4,0.9,1.4,1.4c0,0.8-0.9,1.4-1.4,1.4c-1.1,0-2,0-3.1,0C286.4,589.9,285.9,589.3,285.9,588.5z
			 M290.7,479.4c0-0.8,0.6-1.4,1.4-1.4h3.1c0.9,0,1.4,0.6,1.4,1.4c0,0.9-0.6,1.4-1.4,1.4h-3.1C291.3,481.1,290.7,480.2,290.7,479.4
			L290.7,479.4z M298.1,588.5c0-0.9,0.6-1.4,1.4-1.4c1.1,0,2,0,3.1,0c0.9,0,1.4,0.6,1.7,1.4c0,0.8-0.6,1.4-1.4,1.7c-1.1,0-2,0-3.1,0
			C298.6,590.1,298.1,589.3,298.1,588.5L298.1,588.5z M302.6,479.1c0-0.9,0.6-1.4,1.4-1.4h3.1c0.9,0,1.4,0.6,1.4,1.4
			s-0.6,1.4-1.4,1.4H304C303.4,480.8,302.6,480.2,302.6,479.1C302.6,479.4,302.6,479.4,302.6,479.1z M310,587.6
			c0-0.9,0.6-1.4,1.4-1.4c0.9-0.3,2-0.3,2.8-0.6c0.8-0.3,1.7,0.3,1.7,1.1c0.3,0.9-0.3,1.7-1.1,1.7c-1.1,0.3-2,0.3-3.1,0.6
			C310.8,589,310.2,588.5,310,587.6L310,587.6z M314.8,478.8c0-0.9,0.6-1.4,1.4-1.4h3.1c0.9,0,1.4,0.6,1.7,1.4
			c0,0.8-0.6,1.4-1.4,1.7h-2.8C315.6,480.5,314.8,479.9,314.8,478.8C314.8,479.1,314.8,478.8,314.8,478.8z M321.6,584.8
			c0-0.6,0.3-1.1,1.1-1.4c0.9-0.3,2-0.6,2.8-1.1c0.9-0.3,1.7,0,2,0.8c0.3,0.9,0,1.7-0.9,2s-2,0.9-2.8,1.1c-0.9,0.3-1.7-0.3-2-0.9
			C321.9,585.1,321.6,584.8,321.6,584.8z M327,478.5c0-0.8,0.6-1.4,1.4-1.4s1.4,0,2.3,0h0.9c0.9,0,1.4,0.6,1.4,1.4l0,0
			c0,0.9-0.6,1.4-1.4,1.4h-0.9c-0.9,0-1.4,0-2.3,0S327,479.4,327,478.5L327,478.5z M332.6,579.7c0-0.6,0.3-1.1,0.9-1.4
			c0.9-0.6,1.7-1.1,2.6-1.7c0.6-0.6,1.7-0.3,2,0.6c0.6,0.6,0.3,1.7-0.6,2c-0.9,0.6-1.7,1.1-2.6,1.7c-0.9,0.6-1.7,0.3-2-0.6
			C332.6,580,332.6,580,332.6,579.7z M338.9,478.8L338.9,478.8c0-0.9,0.9-1.7,1.7-1.4c1.1,0,2,0.3,3.1,0.3c0.9,0,1.4,0.8,1.4,1.7
			s-0.9,1.4-1.7,1.4c-1.1,0-2-0.3-3.1-0.3C339.4,480.2,338.9,479.7,338.9,478.8z M342.5,572.6c0-0.6,0.3-0.9,0.6-1.1
			c0.9-0.6,1.7-1.1,2.3-2c0.6-0.6,1.7-0.3,2,0.3c0.6,0.6,0.3,1.7-0.3,2c-0.9,0.6-1.7,1.1-2.3,2c-0.6,0.6-1.7,0.3-2-0.3
			C342.5,573.4,342.5,573.1,342.5,572.6z M351,479.9L351,479.9c0-1.1,0.9-1.7,1.7-1.4c1.1,0,2,0.3,3.1,0.3c0.9,0,1.4,0.8,1.4,1.7
			s-0.9,1.4-1.7,1.4s-2-0.3-2.8-0.3C351.6,481.4,351,480.8,351,479.9z M351.9,564.9c0-0.3,0.3-0.9,0.6-1.1c0.9-0.6,1.4-1.4,2.3-2
			c0.6-0.6,1.7-0.6,2.3,0c0.6,0.6,0.6,1.7,0,2.3c-0.9,0.6-1.4,1.4-2.3,2c-0.6,0.6-1.7,0.6-2.3,0
			C351.9,565.8,351.9,565.2,351.9,564.9z M360.7,556.7c0-0.3,0.3-0.9,0.6-1.1c0.9-0.9,1.4-1.4,2-2.3c0.6-0.6,1.4-0.6,2.3,0
			c0.6,0.6,0.6,1.4,0,2.3c-0.6,0.9-1.4,1.4-2.3,2.3c-0.6,0.6-1.4,0.6-2.3,0C360.7,557.3,360.7,557,360.7,556.7z M363,481.9
			C363,481.6,363,481.6,363,481.9c0.3-1.1,0.9-1.7,1.7-1.4l3.1,0.6c0.9,0.3,1.4,0.9,1.1,1.7c-0.3,0.8-0.9,1.4-1.7,1.1l-2.8-0.6
			C363.5,483.1,363,482.5,363,481.9z M368.9,547.9c0-0.3,0-0.9,0.3-1.1c0.6-0.8,1.4-1.4,2-2.3c0.6-0.6,1.4-0.6,2.3,0
			c0.6,0.6,0.6,1.4,0,2.3c-0.6,0.9-1.4,1.4-2,2.3c-0.6,0.6-1.4,0.6-2.3,0C369.2,548.8,368.9,548.2,368.9,547.9z M374.9,484.2v-0.3
			c0.3-0.8,0.9-1.4,1.7-1.1c1.1,0.3,2.3,0.6,2.8,0.6c0.9,0.3,1.4,1.1,1.1,1.7c-0.3,0.8-1.1,1.4-1.7,1.1s-1.7-0.3-2.8-0.6
			C375.1,485.6,374.9,484.8,374.9,484.2z M376.8,538.9c0-0.3,0-0.6,0.3-0.9c0.6-0.8,1.4-1.7,2-2.3c0.6-0.6,1.4-0.8,2-0.3
			c0.6,0.6,0.9,1.4,0.3,2c-0.6,0.9-1.1,1.4-2,2.3c-0.6,0.6-1.4,0.9-2,0.3C377.1,539.7,376.8,539.1,376.8,538.9z M382.2,478
			c0-0.3,0-0.3,0-0.6l1.1-2.8c0.3-0.9,1.1-1.1,2-0.9s1.1,1.1,0.9,2l-1.1,2.8c-0.3,0.8-1.1,1.1-2,0.8
			C382.5,479.1,382.2,478.5,382.2,478z M384.2,529c0-0.3,0-0.6,0.3-0.9l1.7-2.6c0.6-0.6,1.4-0.8,2-0.3c0.6,0.6,0.9,1.4,0.3,2
			l-1.7,2.6c-0.6,0.6-1.4,0.9-2,0.3C384.5,530.1,384.2,529.5,384.2,529z M386.5,467.5c0-0.6,0.6-1.4,1.1-1.4c0.3,0,0.6,0,1.1,0
			s1.1,0,1.7,0.3h0.9c0.9,0,1.4,0.9,1.1,1.7c0,0.8-0.9,1.4-1.7,1.1l-0.9-0.3c-0.3,0-0.9,0-1.1,0c-0.3,0-0.3,0-0.6,0
			c-0.9,0.3-1.7-0.3-1.7-1.1C386.5,467.8,386.5,467.5,386.5,467.5z M391.3,519.3c0-0.3,0-0.6,0.3-0.9l1.7-2.5c0.6-0.6,1.4-0.9,2-0.3
			c0.6,0.6,0.9,1.4,0.3,2l-1.7,2.6c-0.6,0.6-1.4,0.8-2,0.3C391.6,520.2,391.3,519.6,391.3,519.3z M398.4,509.4c0-0.3,0-0.6,0.3-0.9
			l1.7-2.6c0.6-0.6,1.4-0.8,2-0.3c0.6,0.6,0.9,1.4,0.3,2l-1.7,2.5c-0.6,0.6-1.4,0.9-2,0.3C398.6,510.2,398.4,510,398.4,509.4z
			 M398.4,468.6L398.4,468.6c0-0.8,0.9-1.7,1.7-1.4l3.1,0.3c0.9,0,1.4,0.9,1.4,1.7s-0.9,1.4-1.7,1.4l-3.1-0.3
			C398.9,470,398.4,469.5,398.4,468.6z M405.5,499.8c0-0.3,0-0.6,0.3-0.8l1.7-2.6c0.6-0.6,1.4-0.8,2-0.3c0.6,0.6,0.9,1.4,0.3,2
			l-1.7,2.5c-0.6,0.6-1.4,0.9-2,0.3C405.7,500.6,405.5,500.1,405.5,499.8z M410.5,469.7C410.5,469.7,410.5,469.5,410.5,469.7
			c0-0.9,0.9-1.7,1.7-1.4l3.1,0.3c0.9,0,1.4,0.9,1.4,1.7s-0.9,1.4-1.7,1.4l-3.1-0.3C411.1,471.2,410.5,470.3,410.5,469.7z
			 M412.5,489.9c0-0.3,0-0.6,0.3-0.9c1.7-2.3,1.7-2.3,1.7-2.5c0.6-0.6,1.4-0.9,2.3-0.3c0.6,0.6,0.9,1.4,0.3,2l-1.7,2.3
			c-0.6,0.6-1.4,0.8-2,0.3C412.8,490.7,412.5,490.4,412.5,489.9z M419.9,475.7c0-0.6,0.3-0.9,0.6-1.1c0.6-0.6,1.7-0.6,2,0.3l2.5,3.4
			l-2.5,3.1c-0.6,0.6-1.4,0.9-2,0.3s-0.9-1.4-0.3-2l1.1-1.4l-1.1-1.4C419.9,476.2,419.9,476,419.9,475.7z"/>
		<path id="XMLID_48691_" fill="#FFFFFF" d="M76.8,497.2c0-0.6,0.3-1.1,0.8-1.4c0.8-0.6,1.7-1.1,2.5-1.7c0.8-0.3,1.7-0.3,2,0.6
			c0.3,0.8,0.3,1.7-0.6,2c-0.3,0.3-0.6,0.3-1.1,0.6c0,0,0,0,0.3,0.3l2,2.3c0.6,0.6,0.6,1.7,0,2.3c-0.6,0.6-1.7,0.6-2.3,0l-2-2.3
			c-0.3-0.3-0.3-0.6-0.3-1.1c-0.6,0-0.8-0.3-1.1-0.8C76.8,497.8,76.8,497.5,76.8,497.2z M86.4,507.7c0-0.3,0.3-0.9,0.6-1.1
			c0.6-0.6,1.7-0.6,2.3,0l2,2.3c0.6,0.6,0.6,1.7,0,2.3c-0.6,0.6-1.7,0.6-2.3,0l-2-2.3C86.7,508.6,86.4,508,86.4,507.7z M87.5,491.6
			c0-0.6,0.3-1.1,1.1-1.4c0.8-0.3,2-0.6,3.1-0.8c0.8-0.3,1.7,0.3,1.7,1.1c0.3,0.8-0.3,1.7-1.1,1.7c-1.1,0.3-2,0.3-2.8,0.6
			S87.8,492.4,87.5,491.6C87.5,491.8,87.5,491.8,87.5,491.6z M94.6,516.5c0-0.3,0.3-0.9,0.6-1.1c0.6-0.6,1.7-0.6,2.3,0l2,2.3
			c0.6,0.6,0.6,1.7,0,2.3c-0.6,0.6-1.7,0.6-2.3,0l-2-2.3C94.9,517.3,94.6,516.8,94.6,516.5z M99.4,489.9c0-0.9,0.6-1.4,1.4-1.4
			s2-0.3,3.1-0.3c0.8,0,1.7,0.6,1.7,1.4s-0.6,1.7-1.4,1.7c-1.1,0-2,0.3-3.1,0.3C100.3,491.3,99.4,490.7,99.4,489.9L99.4,489.9z
			 M102.8,525.3c0-0.3,0.3-0.8,0.6-1.1c0.6-0.6,1.7-0.6,2.3,0l2,2.3c0.6,0.6,0.6,1.7,0,2.3c-0.6,0.6-1.7,0.6-2.3,0l-2-2.3
			C103.1,526.1,102.8,525.8,102.8,525.3z M111.1,534.3c0-0.3,0.3-0.9,0.6-1.1c0.6-0.6,1.7-0.6,2.3,0l2,2.3c0.6,0.6,0.6,1.7,0,2.3
			c-0.6,0.6-1.7,0.6-2.3,0l-2-2.3C111.3,534.9,111.1,534.6,111.1,534.3z M111.3,488.7c0-0.9,0.6-1.4,1.4-1.4l3.1-0.3
			c0.8,0,1.4,0.6,1.7,1.4c0,0.8-0.6,1.4-1.4,1.7l-3.1,0.3C112.2,490.4,111.3,489.9,111.3,488.7C111.3,489,111.3,489,111.3,488.7z
			 M119.3,543.1c0-0.3,0.3-0.9,0.6-1.1c0.6-0.6,1.7-0.6,2.3,0l2,2.3c0.6,0.6,0.6,1.7,0,2.3s-1.7,0.6-2.3,0l-2-2.3
			C119.6,543.7,119.3,543.4,119.3,543.1z M123.5,488.2c0-0.9,0.6-1.4,1.4-1.4h3.1c0.9,0,1.4,0.6,1.7,1.4c0,0.8-0.6,1.4-1.4,1.7h-3.1
			C124.1,489.6,123.5,489,123.5,488.2L123.5,488.2z M127.5,551.9c0-0.3,0.3-0.8,0.6-1.1c0.6-0.6,1.7-0.6,2.3,0l2,2.3
			c0.6,0.6,0.6,1.7,0,2.3s-1.7,0.6-2.3,0l-2-2.3C127.8,552.8,127.5,552.2,127.5,551.9z M135.4,487.6c0-0.9,0.6-1.4,1.4-1.4h3.1
			c0.8,0,1.4,0.6,1.7,1.4c0,0.9-0.6,1.4-1.4,1.7h-3.1C136.3,489.3,135.4,488.4,135.4,487.6L135.4,487.6z M135.7,560.7
			c0-0.3,0.3-0.9,0.6-1.1c0.6-0.6,1.7-0.6,2.3,0l2,2.3c0.6,0.6,0.6,1.7,0,2.3c-0.6,0.6-1.7,0.6-2.3,0l-2-2.3
			C136,561.5,135.7,561,135.7,560.7z M143.9,569.5c0-0.3,0.3-0.9,0.6-1.1c0.6-0.6,1.7-0.6,2.3,0l0.3,0.3h1.1c0.8,0,1.4,0.9,1.4,1.4
			c0,0.9-0.6,1.4-1.4,1.4h-2.6l-1.1-0.9C144.2,570.3,143.9,570,143.9,569.5z M147.6,487.3c0-0.9,0.6-1.4,1.4-1.4h2.8
			c0.9,0,1.7,0.6,1.7,1.4s-0.6,1.4-1.4,1.4H149C148.5,488.7,147.6,488.2,147.6,487.3L147.6,487.3z M155.8,570.6
			c0-0.9,0.6-1.4,1.4-1.4c0.8,0,2,0,3.1,0c0.9,0,1.4,0.6,1.7,1.4c0,0.9-0.6,1.4-1.4,1.7c-1.1,0-2,0-3.1,0
			C156.4,572,155.8,571.5,155.8,570.6L155.8,570.6z M159.8,486.7c0-0.9,0.6-1.4,1.4-1.4h3.1c0.8,0,1.4,0.6,1.7,1.4
			c0,0.9-0.6,1.4-1.4,1.7h-3.1C160.4,488.4,159.8,487.9,159.8,486.7C159.8,487,159.8,486.7,159.8,486.7z M167.7,569.8
			c0-0.9,0.6-1.4,1.4-1.4c0.9,0,2-0.3,3.1-0.3c0.8,0,1.7,0.6,1.7,1.4s-0.6,1.7-1.4,1.7c-1.1,0-2,0.3-3.1,0.3
			C168.6,571.5,168,570.9,167.7,569.8C167.7,570,167.7,570,167.7,569.8z M171.7,486.5c0-0.9,0.6-1.4,1.4-1.4h3.1
			c0.8,0,1.4,0.6,1.4,1.4l0,0c0,0.9-0.6,1.4-1.4,1.4h-3.1C172.6,487.9,171.7,487.3,171.7,486.5L171.7,486.5z M179.9,568.3
			c0-0.9,0.6-1.4,1.1-1.4c1.1-0.3,2-0.3,3.1-0.6c0.9,0,1.7,0.6,1.7,1.1c0.3,0.9-0.3,1.7-1.1,1.7c-0.9,0.3-2,0.3-2.8,0.6
			C180.8,570,179.9,569.5,179.9,568.3C179.9,568.6,179.9,568.3,179.9,568.3z M183.9,486.2c0-0.9,0.6-1.4,1.4-1.4h3.1
			c0.9,0,1.4,0.6,1.4,1.4l0,0c0,0.8-0.6,1.4-1.4,1.4h-3.1C184.4,487.9,183.9,487,183.9,486.2L183.9,486.2z M191.8,566.6
			c0-0.8,0.6-1.4,1.4-1.4c1.1,0,2-0.3,3.1-0.3c0.9,0,1.7,0.6,1.7,1.4c0,0.9-0.6,1.7-1.4,1.7c-0.9,0-2,0.3-3.1,0.3
			C192.7,568.3,191.8,567.5,191.8,566.6L191.8,566.6z M195.8,486.2L195.8,486.2c0-0.9,0.6-1.4,1.4-1.4c1.1,0,2,0,3.1,0
			c0.9,0,1.4,0.6,1.4,1.4s-0.9,1.4-1.4,1.4c-0.9,0-2,0-3.1,0C196.6,487.9,195.8,487,195.8,486.2z M203.7,565.5
			c0-0.9,0.6-1.4,1.4-1.4c1.1,0,2,0,3.1-0.3c0.9,0,1.4,0.6,1.7,1.4c0,0.9-0.6,1.4-1.4,1.7c-0.9,0-2,0-3.1,0.3
			C204.6,566.9,203.7,566.4,203.7,565.5L203.7,565.5z M208,487C208,486.7,208,486.7,208,487c0-0.8,0.9-1.7,1.7-1.4
			c1.1,0,2.3,0.3,3.1,0.3c0.9,0,1.4,0.9,1.4,1.7s-0.9,1.4-1.7,1.4c-0.9,0-2-0.3-2.8-0.3C208.5,488.4,208,487.6,208,487z
			 M215.9,564.9c0-0.9,0.6-1.4,1.4-1.4h3.1c0.9,0,1.4,0.6,1.4,1.4s-0.6,1.4-1.4,1.4h-3.1C216.5,566.6,215.9,565.8,215.9,564.9
			L215.9,564.9z M219.6,489.9c0-0.3,0-0.3,0-0.6c0.3-0.8,1.1-1.1,2-0.8c0.9,0.3,2,0.6,2.8,0.8c0.9,0.3,1.4,1.1,1.1,1.7
			c-0.3,0.9-1.1,1.4-1.7,1.1c-1.1-0.3-2-0.6-3.1-0.9C220.1,491,219.6,490.4,219.6,489.9z M227.8,564.6L227.8,564.6
			c0-0.8,0.9-1.4,1.7-1.4c1.1,0,2,0,3.1,0.3c0.9,0,1.4,0.9,1.4,1.7c0,0.8-0.9,1.4-1.7,1.4c-1.1,0-2-0.3-2.8-0.3
			C228.6,566.1,227.8,565.5,227.8,564.6z M231.5,492.1L231.5,492.1c0-0.8,0.9-1.7,1.7-1.4c0.9,0,2,0.3,2.8,0.3s1.4,0.6,1.4,1.7
			c0,0.9-0.9,1.4-1.7,1.4c-1.1,0-2,0-3.1-0.3C232.1,493.5,231.5,493,231.5,492.1z M239.7,566.6v-0.3c0.3-0.8,1.1-1.4,1.7-1.1
			c0.9,0.3,2,0.6,2.8,0.9s1.1,1.1,1.1,2c-0.3,0.8-1.1,1.4-2,1.1s-2-0.6-2.8-0.9C240.3,567.8,239.7,567.2,239.7,566.6z M243.4,492.4
			c0-0.9,0.6-1.4,1.4-1.4c1.1,0,2,0,3.1,0c0.9,0,1.4,0.6,1.7,1.4c0,0.8-0.6,1.4-1.4,1.7c-1.1,0-2,0-3.1,0
			C244.2,493.8,243.7,493.2,243.4,492.4L243.4,492.4z M251.3,570c0-0.3,0-0.3,0-0.6c0.3-0.9,1.1-1.1,2-0.9c0.9,0.3,2,0.6,2.8,1.1
			c0.9,0.3,1.1,1.1,0.9,2c-0.2,0.9-1.1,1.1-2,0.9c-0.9-0.3-2-0.6-2.8-1.1C251.9,571.2,251.3,570.6,251.3,570z M255.6,491.8
			c0-0.9,0.6-1.4,1.4-1.4l3.1-0.3c0.9,0,1.4,0.6,1.7,1.4c0,0.8-0.6,1.4-1.4,1.7l-3.1,0.3C256.4,493.5,255.6,492.7,255.6,491.8
			L255.6,491.8z M262.9,573.4v-0.3c0.3-0.8,0.9-1.4,1.7-1.1c0.9,0.3,2,0.3,2.8,0.6c0.9,0.3,1.4,0.9,1.1,1.7
			c-0.3,0.9-0.9,1.4-1.7,1.1c-1.1-0.3-2-0.3-3.1-0.6C263.5,574.9,262.9,574.3,262.9,573.4z M267.8,491.6c0-0.9,0.6-1.4,1.4-1.4h3.1
			c0.9,0,1.4,0.6,1.4,1.4l0,0c0,0.8-0.6,1.4-1.4,1.4h-3.1C268.3,493,267.8,492.4,267.8,491.6L267.8,491.6z M274.8,575.4L274.8,575.4
			c0-1.1,0.9-1.7,1.7-1.4c0.9,0,2,0.3,2.8,0.3c0.9,0,1.4,0.9,1.4,1.7c0,0.8-0.9,1.4-1.7,1.4c-1.1,0-2-0.3-3.1-0.3
			C275.4,576.8,274.8,576.3,274.8,575.4z M279.6,491.6c0-0.9,0.6-1.4,1.4-1.4h2.8l0.3,1.4v1.4H281
			C280.5,493,279.6,492.4,279.6,491.6L279.6,491.6z M286.7,576.6C286.7,576.6,286.7,576.3,286.7,576.6c0-0.9,0.9-1.4,1.7-1.4
			s2,0,3.1,0c0.9,0,1.4,0.9,1.4,1.4c0,0.8-0.9,1.4-1.4,1.4c-1.1,0-2,0-3.1,0C287.6,578,286.7,577.1,286.7,576.6z M291.8,491.3
			c0-0.8,0.6-1.4,1.4-1.4h3.1c0.9,0,1.4,0.6,1.4,1.4c0,0.9-0.6,1.4-1.4,1.4h-2.8C292.7,493,291.8,492.1,291.8,491.3L291.8,491.3z
			 M298.9,576.6c0-0.9,0.6-1.4,1.4-1.4c1.1,0,2,0,2.8-0.3c0.9,0,1.4,0.6,1.7,1.4c0,0.8-0.6,1.4-1.4,1.7c-1.1,0-2,0-3.1,0.3
			C299.8,578,298.9,577.4,298.9,576.6L298.9,576.6z M304,491.3c0-0.8,0.6-1.4,1.4-1.4h3.1c0.9,0,1.4,0.6,1.4,1.4
			c0,0.9-0.6,1.4-1.4,1.4h-3.1C304.6,492.7,304,492.1,304,491.3L304,491.3z M310.8,575.1c0-0.8,0.6-1.4,1.1-1.4
			c0.9-0.3,2-0.3,2.8-0.6c0.9-0.3,1.7,0.3,1.7,1.1c0.3,0.8-0.3,1.7-1.1,1.7c-0.9,0.3-2,0.6-3.1,0.6
			C311.9,576.8,311.1,576.3,310.8,575.1C310.8,575.4,310.8,575.4,310.8,575.1z M315.9,491c0-0.9,0.6-1.4,1.4-1.4h3.1
			c0.9,0,1.4,0.6,1.7,1.4c0,0.9-0.6,1.4-1.4,1.7h-3.1C316.8,492.4,315.9,491.8,315.9,491L315.9,491z M322.4,571.5
			c0-0.6,0.3-1.1,0.9-1.4c0.9-0.3,1.7-0.8,2.5-1.4c0.9-0.3,1.7-0.3,2,0.6c0.3,0.8,0.3,1.7-0.6,2c-0.9,0.6-1.7,1.1-2.8,1.4
			c-0.9,0.3-1.7,0-2-0.6C322.4,572,322.4,571.7,322.4,571.5z M328.1,490.4c0-0.9,0.6-1.4,1.4-1.4h1.1c0.6,0,1.1,0,2,0
			s1.4,0.6,1.4,1.4l0,0c0,0.8-0.6,1.4-1.4,1.4c-0.6,0-1.1,0-2,0h-1.1C328.7,491.8,328.1,491.3,328.1,490.4L328.1,490.4z
			 M332.6,565.2c0-0.6,0.3-0.9,0.6-1.1c0.9-0.6,1.7-1.1,2.3-1.7c0.6-0.6,1.7-0.3,2,0.3c0.6,0.6,0.3,1.7-0.3,2
			c-0.9,0.6-1.7,1.1-2.6,1.7c-0.6,0.6-1.7,0.3-2-0.3C332.6,565.8,332.6,565.5,332.6,565.2z M340,491C340,491,340,490.7,340,491
			c0-0.9,0.9-1.7,1.7-1.4c1.1,0,2,0.3,3.1,0.3c0.9,0,1.4,0.9,1.4,1.7s-0.9,1.4-1.7,1.4c-0.9,0-2-0.3-3.1-0.3
			C340.9,492.4,340,491.8,340,491z M342,557.6c0-0.3,0.3-0.9,0.6-1.1c0.9-0.6,1.4-1.4,2.3-2c0.6-0.6,1.7-0.6,2.3,0
			c0.6,0.6,0.6,1.7,0,2.3c-0.9,0.6-1.4,1.4-2.3,2c-0.6,0.6-1.7,0.6-2.3-0.3C342.3,558.4,342,557.9,342,557.6z M351,549.4
			c0-0.3,0.3-0.9,0.6-1.1c0.9-0.6,1.4-1.4,2.3-2c0.6-0.6,1.4-0.6,2.3,0c0.6,0.6,0.6,1.4,0,2.3c-0.6,0.9-1.4,1.4-2.3,2.3
			c-0.6,0.6-1.4,0.6-2.3,0C351,550.2,351,549.6,351,549.4z M352.2,492.4C352.2,492.1,352.2,492.1,352.2,492.4c0-1.1,0.9-1.7,1.7-1.4
			c1.1,0,2,0.3,3.1,0.6c0.9,0,1.4,0.9,1.1,1.7c0,0.9-0.9,1.4-1.7,1.1c-0.9-0.3-2-0.3-2.8-0.6S352.2,493,352.2,492.4z M359.3,540.6
			c0-0.3,0-0.9,0.3-1.1l2-2.3c0.6-0.6,1.4-0.6,2.3,0c0.6,0.6,0.6,1.4,0,2.3l-2,2.3c-0.6,0.6-1.4,0.6-2.3,0
			C359.5,541.4,359.3,541.1,359.3,540.6z M364.1,494.1L364.1,494.1c0.3-1.1,0.9-1.7,1.7-1.4c1.1,0.3,2,0.3,3.1,0.6
			c0.9,0.3,1.4,0.9,1.1,1.7c-0.3,0.9-0.9,1.4-1.7,1.1s-2-0.3-2.8-0.6C364.6,495.5,364.1,495,364.1,494.1z M367.2,531.5
			c0-0.3,0-0.6,0.3-0.8c0.6-0.9,1.4-1.7,2-2.3c0.6-0.6,1.4-0.8,2-0.3c0.6,0.6,0.9,1.4,0.3,2c-0.6,0.9-1.1,1.4-2,2.3
			c-0.6,0.6-1.4,0.9-2.3,0.3C367.5,532.4,367.2,532.1,367.2,531.5z M374.6,521.9c0-0.3,0-0.6,0.3-0.9l1.7-2.5c0.6-0.6,1.4-0.9,2-0.3
			c0.6,0.6,0.9,1.4,0.3,2l-1.7,2.5c-0.6,0.6-1.4,0.9-2,0.3C374.9,522.7,374.6,522.4,374.6,521.9z M376,496.7v-0.3
			c0.3-0.8,0.9-1.4,1.7-1.1l-0.3,1.4l0.6-1.4c0.9,0.3,1.7,0.3,2.5,0.3c0.9,0,1.4,0.6,1.4,1.4l0,0c0,0.9-0.6,1.4-1.4,1.4
			c-1.1,0-2,0-3.1-0.3C376.5,498.1,376,497.5,376,496.7z M381.6,512c0-0.3,0-0.6,0.3-0.9l1.7-2.5c0.6-0.6,1.4-0.9,2-0.3
			s0.9,1.4,0.3,2l-1.7,2.6c-0.6,0.6-1.4,0.9-2,0.3C381.9,513.1,381.6,512.5,381.6,512z M387,493.8c0-0.3,0.3-0.9,0.6-1.1
			c0.6-0.6,1.1-1.4,1.7-2s1.4-0.9,2-0.6c0.6,0.6,0.9,1.4,0.6,2c-0.6,0.9-1.4,1.7-2.3,2.6c-0.6,0.6-1.7,0.6-2.3,0
			C387.3,494.7,387,494.1,387,493.8z M388.7,502.3c0-0.3,0-0.6,0.3-0.9l1.7-2.5c0.6-0.6,1.4-0.9,2-0.3s0.9,1.4,0.3,2l-1.7,2.6
			c-0.6,0.6-1.4,0.8-2,0.3C389,503.2,388.7,502.6,388.7,502.3z M393,483.3c0-0.3,0-0.3,0-0.6l1.1-2.8c0.3-0.9,1.1-1.1,2-0.9
			s1.1,1.1,0.9,2l-1.1,2.8c-0.3,0.8-1.1,1.1-2,0.8C393.3,484.5,393,483.9,393,483.3z M395.8,492.4c0-0.3,0-0.6,0.3-0.9l1.7-2.3
			c0.6-0.6,1.4-0.9,2.3-0.3c0.6,0.6,0.9,1.4,0.3,2l-1.7,2.6c-0.6,0.6-1.4,0.8-2,0.3C396.1,493.5,395.8,493,395.8,492.4z
			 M402.9,482.8c0-0.3,0-0.6,0.3-0.8c-0.3-0.3-0.3-0.6-0.3-0.9c0-0.9,0.6-1.4,1.4-1.4h0.3l3.7,0.3l-2.5,3.7c-0.6,0.6-1.4,0.9-2,0.3
			C403.2,483.6,402.9,483.1,402.9,482.8z"/>
		<path id="XMLID_48666_" fill="#FFFFFF" d="M92.7,764.1c0-0.8,0.6-1.4,1.4-1.4h1.1c0.8,0,1.7,0.6,1.7,1.4c0,0.9-0.6,1.7-1.4,1.7
			h-1.1C93.8,765.8,92.9,765,92.7,764.1C92.9,764.1,92.7,764.1,92.7,764.1z M102.8,763c0-0.9,0.6-1.4,1.4-1.4l3.1-0.3
			c0.8,0,1.7,0.6,1.7,1.4c0,0.8-0.6,1.7-1.4,1.7l-3.1,0.3C103.7,764.7,102.8,764.1,102.8,763C102.8,763.3,102.8,763,102.8,763z
			 M114.8,762.1c0-0.9,0.6-1.4,1.4-1.4l3.1-0.3c0.8,0,1.4,0.6,1.7,1.4c0,0.8-0.6,1.4-1.4,1.7l-3.1,0.3
			C115.6,763.5,114.8,763,114.8,762.1L114.8,762.1z M126.9,761.6c0-0.8,0.6-1.4,1.4-1.4h3.1c0.8,0,1.4,0.6,1.4,1.4
			c0,0.9-0.6,1.4-1.4,1.4h-3.1C127.5,763,126.9,762.4,126.9,761.6L126.9,761.6z M138.8,761.3L138.8,761.3c0-0.8,0.6-1.4,1.4-1.4h3.1
			c0.9,0,1.4,0.6,1.4,1.4l0,0c0,0.9-0.6,1.4-1.4,1.4h-3.1C139.7,763,138.8,762.1,138.8,761.3z M151,761.6L151,761.6
			c0-0.8,0.8-1.4,1.4-1.4h3.1c0.9,0,1.4,0.9,1.4,1.7c0,0.9-0.9,1.4-1.7,1.4h-3.1C151.6,763,151,762.4,151,761.6z M163.2,762.1
			L163.2,762.1c0-0.9,0.8-1.4,1.7-1.4l3.1,0.3c0.9,0,1.4,0.9,1.4,1.7s-0.9,1.4-1.7,1.4l-3.1-0.3C163.8,763.5,163.2,763,163.2,762.1z
			 M175.1,762.7L175.1,762.7c0-0.9,0.9-1.7,1.7-1.4l3.1,0.3c0.8,0,1.4,0.9,1.4,1.7s-0.8,1.4-1.7,1.4l-3.1-0.3
			C175.7,764.1,175.1,763.5,175.1,762.7z M187.3,763.5L187.3,763.5c0-0.8,0.9-1.7,1.7-1.4l3.1,0.3c0.9,0,1.4,0.8,1.4,1.7
			s-0.9,1.4-1.7,1.4l-3.1-0.3C187.9,765,187.3,764.4,187.3,763.5z M199.2,764.4L199.2,764.4c0-0.8,0.9-1.7,1.7-1.4l3.1,0.3
			c0.9,0,1.4,0.8,1.4,1.7c0,0.8-0.9,1.4-1.7,1.4l-3.1-0.3C199.8,765.8,199.2,765.2,199.2,764.4z M211.4,765.2L211.4,765.2
			c0-0.9,0.9-1.7,1.7-1.4l3.1,0.3c0.9,0,1.4,0.6,1.4,1.7c0,0.9-0.9,1.4-1.7,1.4l-3.1-0.3C211.9,766.7,211.4,766.1,211.4,765.2z
			 M223.3,766.1C223.3,765.8,223.3,765.8,223.3,766.1c0-0.9,0.9-1.4,1.7-1.4h3.1c0.9,0,1.4,0.6,1.4,1.7c0,0.8-0.9,1.4-1.7,1.4h-3.1
			C224.1,767.5,223.3,766.7,223.3,766.1z M235.4,766.4L235.4,766.4c0-0.9,0.6-1.4,1.4-1.4h2.6h0.3c0.9,0,1.4,0.6,1.4,1.4
			c0,0.8-0.6,1.4-1.4,1.4h-0.3h-2.8C236,767.8,235.4,767.2,235.4,766.4z M247.4,766.1c0-0.9,0.6-1.4,1.4-1.4c1.1,0,2,0,3.1,0
			c0.9,0,1.4,0.6,1.7,1.4c0,0.8-0.6,1.4-1.4,1.7c-0.9,0-2,0-3.1,0C248.2,767.8,247.6,767,247.4,766.1L247.4,766.1z M259.5,765.5
			c0-0.8,0.6-1.4,1.4-1.4l3.1-0.3c0.9,0,1.7,0.6,1.7,1.4s-0.6,1.7-1.4,1.7l-3.1,0.3C260.4,767,259.5,766.4,259.5,765.5L259.5,765.5z
			 M271.4,764.4c0-0.8,0.6-1.4,1.4-1.4l3.1-0.3c0.9,0,1.7,0.6,1.7,1.4c0,0.9-0.6,1.7-1.4,1.7l-3.1,0.3
			C272.3,765.8,271.7,765.2,271.4,764.4L271.4,764.4z M283.6,762.7c0-0.9,0.6-1.4,1.4-1.4l3.1-0.3c0.9,0,1.7,0.6,1.7,1.4
			c0,0.8-0.6,1.7-1.4,1.7l-3.1,0.3C284.5,764.4,283.6,763.8,283.6,762.7C283.6,763,283.6,762.7,283.6,762.7z M295.5,761.3
			c0-0.8,0.6-1.4,1.4-1.4l3.1-0.3c0.9,0,1.7,0.6,1.7,1.4s-0.6,1.7-1.4,1.7l-3.1,0.3C296.4,763,295.5,762.1,295.5,761.3L295.5,761.3z
			 M307.4,760.4c0-0.9,0.6-1.4,1.4-1.4c1.1,0,2,0,3.1,0c0.9,0,1.4,0.6,1.4,1.4l0,0c0,0.8-0.6,1.4-1.4,1.4c-1.1,0-2,0-3.1,0
			C308.3,762.1,307.7,761.3,307.4,760.4L307.4,760.4z M319.6,760.4L319.6,760.4c0-0.9,0.6-1.4,1.4-1.4h3.1c0.9,0,1.4,0.9,1.4,1.4
			c0,0.8-0.9,1.4-1.4,1.4H321C320.2,762.1,319.6,761.3,319.6,760.4z M331.8,761C331.8,760.7,331.8,760.7,331.8,761
			c0-0.9,0.9-1.4,1.7-1.4h3.1c0.9,0,1.4,0.9,1.4,1.7c0,0.9-0.9,1.4-1.7,1.4h-3.1C332.4,762.4,331.8,761.6,331.8,761z M343.7,761.6
			C343.7,761.3,343.7,761.3,343.7,761.6c0-0.8,0.9-1.4,1.7-1.4l3.1,0.3c0.9,0,1.4,0.8,1.4,1.7s-0.9,1.4-1.7,1.4l-3.1-0.3
			C344.2,763,343.7,762.1,343.7,761.6z M355.9,762.1C355.9,762.1,355.9,761.9,355.9,762.1c0-0.9,0.9-1.4,1.7-1.4h3.1
			c0.9,0,1.4,0.8,1.4,1.7c0,0.8-0.9,1.4-1.7,1.4h-3.1C356.4,763.5,355.9,762.7,355.9,762.1z M367.8,762.4L367.8,762.4
			c0-0.9,0.9-1.4,1.4-1.4h3.1c0.9,0,1.4,0.6,1.4,1.4c0,0.8-0.6,1.4-1.4,1.4h-3.1C368.6,764.1,367.8,763.3,367.8,762.4z"/>
		<path id="XMLID_48639_" fill="#FFFFFF" d="M127.5,771.8L127.5,771.8c0-0.6,0.6-1.1,1.1-1.1h3.1c0.6,0,1.1,0.6,1.1,1.1
			s-0.6,1.1-1.1,1.1h-3.1C128.1,772.9,127.5,772.3,127.5,771.8z M136.6,772L136.6,772c0-0.6,0.6-1.1,1.1-1.1h3.1
			c0.6,0,1.1,0.6,1.1,1.1s-0.6,1.1-1.1,1.1h-3.1C137.1,773.2,136.6,772.6,136.6,772z M145.6,772.3L145.6,772.3
			c0-0.6,0.6-1.1,1.1-1.1h3.1c0.6,0,1.1,0.6,1.1,1.1s-0.6,1.1-1.1,1.1h-3.1C146.2,773.5,145.6,772.9,145.6,772.3z M154.7,772.6
			L154.7,772.6c0-0.6,0.6-1.1,1.1-1.1h2.8c0.6,0,1.1,0.6,1.1,1.1c0,0.6-0.3,1.1-0.9,1.1h-0.3h-2.8
			C155.3,773.8,154.7,773.2,154.7,772.6z M163.8,772.9L163.8,772.9c0-0.6,0.6-1.1,1.1-1.1h3.1c0.6,0,1.1,0.6,1.1,1.1
			c0,0.6-0.6,1.1-1.1,1.1h-3.1C164.3,774,163.8,773.5,163.8,772.9z M172.8,773.2L172.8,773.2c0-0.6,0.6-1.1,1.1-1.1h3.1
			c0.6,0,1.1,0.3,1.1,1.1c0,0.6-0.6,1.1-1.1,1.1h-3C173.4,774,172.8,773.8,172.8,773.2z M181.9,773.2L181.9,773.2
			c0-0.6,0.6-1.1,1.1-1.1h3.1c0.6,0,1.1,0.6,1.1,1.1c0,0.6-0.6,1.1-1.1,1.1H183C182.5,774.3,181.9,773.8,181.9,773.2z M191,773.5
			L191,773.5c0-0.6,0.6-1.1,1.1-1.1h3.1v1.1v1.1h-3.1C191.5,774.3,191,774,191,773.5z M200,773.5L200,773.5c0-0.6,0.6-1.1,1.1-1.1
			h3.1v1.1v1.1h-3.1C200.6,774.6,200,774,200,773.5z M209.1,773.5L209.1,773.5c0-0.6,0.6-1.1,1.1-1.1h2.8v1.1v1.1h-2.8
			C209.4,774.6,209.1,774,209.1,773.5z M218.2,773.5L218.2,773.5c0-0.6,0.6-1.1,1.1-1.1h3.1c0.6,0,1.1,0.6,1.1,1.1l0,0
			c0,0.6-0.6,1.1-1.1,1.1h-3.1C218.4,774.6,218.2,774.3,218.2,773.5z M227.2,773.8c0-0.6,0.6-1.1,1.1-1.1h3.1c0.6,0,1.1,0.6,1.1,1.1
			l0,0c0,0.6-0.6,1.1-1.1,1.1h-3.1C227.8,774.6,227.2,774.3,227.2,773.8L227.2,773.8z M236.3,773.5c0-0.6,0.6-1.1,1.1-1.1h3.1
			c0.6,0,1.1,0.6,1.1,1.1l0,0c0,0.6-0.6,1.1-1.1,1.1h-3.1C236.9,774.6,236.3,774,236.3,773.5L236.3,773.5z M245.4,773.5
			c0-0.6,0.6-1.1,1.1-1.1h3.1c0.6,0,1.1,0.6,1.1,1.1c0,0.6-0.6,1.1-1.1,1.1h-3.1C245.9,774.6,245.4,774,245.4,773.5L245.4,773.5z
			 M254.4,773.2c0-0.6,0.6-1.1,1.1-1.1c0.9,0,2,0,3.1,0c0.6,0,1.1,0.6,1.1,1.1l0,0c0,0.6-0.6,1.1-1.1,1.1c-1.1,0-2,0-3.1,0
			C255,774.3,254.4,773.8,254.4,773.2L254.4,773.2z M263.5,772.9c0-0.6,0.6-1.1,1.1-1.1h3.1c0.6,0,1.1,0.6,1.1,1.1l0,0
			c0,0.6-0.6,1.1-1.1,1.1h-3.1C263.8,774,263.5,773.5,263.5,772.9z M273.4,772.9v-1.1h3.1c0.6,0,0.9,0.6,1.1,1.1
			c0,0.6-0.6,1.1-1.1,1.1h-2.8L273.4,772.9z M282.5,772.9v-1.1h3.1c0.6,0,1.1,0.6,1.1,1.1c0,0.6-0.6,1.1-1.1,1.1h-2.8L282.5,772.9z
			 M290.7,773.2L290.7,773.2c0-0.6,0.6-1.1,1.1-1.1h2.8c0.6,0,1.1,0.6,1.1,1.1c0,0.6-0.6,1.1-1.1,1.1h-3.1
			C291,774.3,290.7,773.8,290.7,773.2z M300.6,773.5v-1.1h3.1c0.6,0,1.1,0.6,1.1,1.1c0,0.6-0.6,1.1-1.1,1.1h-3.1V773.5z
			 M308.8,773.8L308.8,773.8c0-0.6,0.6-1.1,1.1-1.1h3.1c0.6,0,1.1,0.6,1.1,1.1l0,0c0,0.6-0.6,1.1-1.1,1.1h-3
			C309.1,774.9,308.8,774.3,308.8,773.8z M317.9,774L317.9,774c0-0.6,0.6-1.1,1.1-1.1h3.1c0.6,0,1.1,0.6,1.1,1.1s-0.6,1.1-1.1,1.1
			H319C318.2,775.2,317.9,774.6,317.9,774z M327,774.3L327,774.3c0-0.6,0.6-1.1,1.1-1.1h3.1c0.6,0,1.1,0.6,1.1,1.1s-0.6,1.1-1.1,1.1
			h-3.1C327.2,775.5,327,774.9,327,774.3z M336,774.9L336,774.9c0-0.6,0.6-1.1,1.1-1.1l3.1,0.3c0.6,0,1.1,0.6,1.1,1.1
			c0,0.6-0.6,1.1-1.1,1.1l-3.1-0.3C336.3,776,336,775.5,336,774.9z M344.8,775.5C344.8,775.5,344.8,775.2,344.8,775.5
			c0-0.6,0.6-1.1,1.1-1.1l3.1,0.3c0.6,0,1.1,0.6,0.9,1.1c0,0.6-0.6,1.1-1.1,0.8l-3.1-0.3C345.4,776.3,344.8,776,344.8,775.5z
			 M353.9,776C353.9,776,353.9,775.7,353.9,776c0-0.6,0.6-1.1,1.1-1.1c1.1,0,2.3,0.3,3.1,0.3c0.6,0,1.1,0.6,0.9,1.1
			c0,0.6-0.6,1.1-1.1,0.9c-0.9,0-2-0.3-3.1-0.3C354.4,776.9,353.9,776.6,353.9,776z"/>
		<path id="XMLID_48638_" fill="#FFFFFF" d="M348.8,435.7c-21-4-41.6-5.7-42.2-2c-0.6,3.4,20.1,6.5,43.4,11.6
			c23.2,5.1,91.5,24.1,122.7,39.7s98,52.4,103.1,117.9s-6,98.6-77.9,135.7c-72,37.1-121.8,44.2-159.5,44.8s-38.8-3.1-60.4,1.4
			c-21.5,4.5-34.9,4-34.9,4s92.1,4.5,134.9,2.5s118.1-21.2,144.8-36.8c26.6-15.6,89.2-50.4,89.2-121s-29.8-102.6-76.5-130.9
			S366.9,439.4,348.8,435.7z"/>
		<path id="XMLID_48637_" fill="#FFFFFF" d="M495.3,734.1c64.6-33.4,76.2-62.3,76.2-107.1c0-7.1-0.3-15-1.1-23.8
			c-5.1-66-76.8-101.7-100.3-113.6c-13.3-6.8-33.4-13.9-53.5-20.4c-14.7,9.6-39.1,41.4-39.1,144.5c0,57.2-4.5,110.5,31.5,154.7
			C433.2,762.1,461.5,751.6,495.3,734.1z"/>
		<path id="XMLID_48636_" fill="#FFFFFF" d="M244.5,789.3c-22.7,2.5-53-2.5-71.4-5.1c-24.1-3.4-47.9-11-79.6-4.2
			c-34,7.1-51.6,12.5-57,8.8S60,772.9,77,770.4c17-2.6,85,4.2,111.1,7.1c26.1,3.1,66.6,9.9,76.5,11
			C257.3,790.2,244.5,789.3,244.5,789.3z"/>
		<path id="XMLID_48633_" fill="#E4E5E6" d="M312.2,544.2c0-7.6-7.4-13-17.3-13.9c-9.6-0.9-16.4,6.5-16.4,14.2s6.8,13.6,16.4,13.6
			S312.2,551.9,312.2,544.2z M286.2,544.5c0-1.7,0.9-3.4,2-4.5c1.1-1.1,3.1-2.3,5.9-2c5.1,0.3,10.2,2.6,10.2,6.2
			c0,2.8-4,6.2-9.6,6.2C289.9,550.5,286.2,547.9,286.2,544.5z"/>
		<path id="XMLID_48630_" fill="#E4E5E6" d="M330.1,699.2c0.6,7.6-6.2,13.6-16.1,15.3c-9.4,1.4-16.7-5.1-17.6-12.8
			c-0.6-7.6,5.7-14.2,15-15C321.3,686.2,329.5,691.9,330.1,699.2z M304,701.2c0,1.7,1.1,3.1,2.6,4.2c1.1,0.9,3.1,2,6.2,1.4
			c5.1-0.9,9.9-3.4,9.6-7.1c-0.3-2.8-4.5-5.7-10.2-5.4C307.4,695.3,303.7,697.8,304,701.2z"/>
		<path id="XMLID_48627_" fill="#E4E5E6" d="M270.9,703.2c0.6,7.6-5.7,13.6-14.7,15c-8.8,1.4-15.6-5.1-16.1-12.8
			c-0.6-7.6,5.1-14.2,13.9-14.7C262.6,690.2,270.3,695.8,270.9,703.2z M247.1,705.2c0,1.7,0.9,3.1,2.3,4.2c1.1,0.9,2.8,2,5.7,1.4
			c4.5-0.9,9.1-3.4,8.8-6.8c-0.3-2.8-4.2-5.7-9.4-5.4C249.9,699,246.8,701.8,247.1,705.2z"/>
		<path id="XMLID_48624_" fill="#E4E5E6" d="M211.4,704.3c0.6,7.6-5.7,13.6-14.7,15c-8.8,1.4-15.6-5.1-16.1-12.8
			c-0.6-7.6,5.1-14.2,13.9-14.7C202.9,691.3,210.5,697,211.4,704.3z M187.3,706.3c0,1.7,0.9,3.1,2.3,4.2c1.1,0.9,2.8,2,5.7,1.4
			c4.5-0.9,9.1-3.4,8.8-6.8c-0.3-2.8-4.2-5.7-9.4-5.4C190.1,700.1,187,702.9,187.3,706.3z"/>
		<path id="XMLID_48621_" fill="#E4E5E6" d="M257.5,535.2c-1.1-6-7.1-10.5-15-11.6c-8.2-1.1-14.7,4.5-14.7,11.9
			c0,7.9,7.4,14.2,17,13.3C253.3,547.9,258.7,541.7,257.5,535.2z M235.4,535.2c0-1.4,0.6-3.1,1.7-4.2c0.9-0.9,2.6-1.7,5.1-1.4
			c4.2,0.6,8.5,2.6,9.1,5.4c0.3,2.5-2.6,5.7-7.6,5.7C239.4,540.9,235.7,538.6,235.4,535.2z"/>
		<path id="XMLID_48618_" fill="#E4E5E6" d="M207.1,529c-0.6-7.4-7.6-12.5-17-13.6c-9.1-0.9-15.9,5.7-15.9,13.3
			c0,7.6,7.1,13.9,16.7,13.9C200.3,542.8,207.4,536.6,207.1,529z M181.9,529c0-1.7,0.6-3.1,2-4.2c1.1-0.9,2.8-2,5.7-1.7
			c4.8,0.6,9.9,2.8,9.9,6.2c0.3,2.8-3.4,6-9.1,6C185.6,534.9,181.9,532.4,181.9,529z"/>
		<path id="XMLID_48617_" fill="#F0F2F3" d="M251,703.5l28.3-115.6c0,0,14.2,0.6,20.1,1.1c6,0.6-3.4,38.8-10.5,60.6
			s-21.2,55-26.1,56.7C258.1,708.3,251,703.5,251,703.5z"/>
		<path id="XMLID_48616_" fill="#F0F2F3" d="M303.7,545.1c0,0,7.6,36.5,7.9,52.7c0.3,16.1,5.7,61.5,8.2,79c2.8,17.6,0,21.5-6.2,22.1
			c-6.2,0.6-12.8-1.4-14.2-13.3c-1.1-11.9-10.8-104.3-10.8-115.6c0-11.3-3.1-18.7,3.4-21.8C298.6,545.1,303.7,543.1,303.7,545.1z"/>
		<path id="XMLID_48615_" fill="#F0F2F3" d="M185.6,533.8c4.2,9.6,41.1,121.8,41.6,124.1c0.9,2.3,21.8,0.3,21.8,0.3
			s-27.5-69.7-32.6-80.8c-5.1-11-17.3-42.5-18.1-45.3C197.5,529.2,182.2,526.4,185.6,533.8z"/>
		<path id="XMLID_48614_" fill="#F0F2F3" d="M201.7,703.2c-3.4,2.3-12.2,1.4-12.2,0.3c0-1.1,26.4-63.8,28.6-83.9
			c2.6-20.1,1.1-42.8,1.1-42.8s14.2-1.1,17.3,0.3c3.4,1.1,2.8,1.1,2.6,4.8C238.9,585.6,218.4,691.3,201.7,703.2z"/>
		<path id="XMLID_48611_" fill="#E4E5E6" d="M161.8,719.4c0.6,7.6-5.7,13.6-14.7,15c-8.8,1.4-15.6-5.1-16.1-12.8
			c-0.6-7.6,5.1-14.2,13.9-14.7C153.3,706,160.9,711.7,161.8,719.4z M137.7,721.1c0,1.7,0.8,3.1,2.3,4.2c1.1,0.9,2.8,2,5.7,1.4
			c4.5-0.9,9.1-3.4,8.8-6.8c-0.3-2.8-4.2-5.7-9.4-5.4C140.5,715.1,137.4,717.6,137.7,721.1z"/>
		<path id="XMLID_48608_" fill="#E4E5E6" d="M149,512c-0.6-7.4-7.7-12.5-17-13.6c-9.3-0.9-15.9,6-15.9,13.3
			c0,7.6,7.1,13.9,16.7,13.9C142.2,525.8,149.3,519.6,149,512z M123.8,512c0-1.7,0.6-3.1,2-4.2c1.1-0.9,2.8-2,5.7-1.7
			c4.8,0.6,9.9,2.8,9.9,6.2c0.3,2.8-3.4,6-9.1,6C127.5,517.9,123.8,515.4,123.8,512z"/>
		<path id="XMLID_48607_" fill="#F0F2F3" d="M126.9,516.8c4.3,9.6,47.3,141.7,47.9,143.9c0.9,2.3,21.8-2.6,21.8-2.6
			s-27.5-69.7-32.6-80.8c-5.4-11-23.5-59.5-24.4-62.3C138.8,512.5,123.5,509.4,126.9,516.8z"/>
		<path id="XMLID_48606_" fill="#F0F2F3" d="M149.3,720.2c-3.4,2.3-12.2,1.4-12.2,0.3c0-1.1,23.5-75.1,25.8-95.2
			c2.3-20.1,9.6-42.8,9.6-42.8s14.2-1.1,17.3,0.3C192.9,584.2,166,708.3,149.3,720.2z"/>
		<path id="XMLID_48605_" fill="#F0F2F3" d="M239.4,537.7c0,0,41.9,99.7,38.2,122.1c0,0,13-1.7,23,1.1c0,0-29.5-110.8-52.4-124.4
			C248.2,536.6,240,531.8,239.4,537.7z"/>
		<path id="XMLID_48582_" fill="#FFFFFF" d="M130.1,433.5L130.1,433.5c0-0.8,0.8-1.7,1.7-1.4c0.6,0,1.4,0,2.3,0.3
			c0.8,0,1.4,0.9,1.1,1.7c0,0.9-0.8,1.4-1.7,1.1c-0.9,0-1.4,0-2,0C130.6,434.9,130.1,434.3,130.1,433.5z M141.1,435.5v-0.3
			c0.3-0.8,1.1-1.4,1.7-1.1l2.8,0.6c0.9,0.3,1.4,1.1,1.1,1.7c-0.3,0.9-1.1,1.4-1.7,1.1l-2.8-0.6
			C141.7,436.9,141.1,436.3,141.1,435.5z M152.7,438.6v-0.3c0.3-0.8,1.1-1.4,1.7-1.1l2.8,0.9c1.1,0,1.7,0.8,1.4,1.4
			c0,0.9-0.8,1.4-1.7,1.1l-2.8-0.8C153.3,439.7,152.7,439.1,152.7,438.6z M164.6,441.4v-0.3c0.3-0.8,1.1-1.4,2-1.1l2.8,0.9
			c0.9,0.3,1.1,1.1,1.1,2c-0.3,0.8-1.1,1.4-2,1.1l-2.8-0.9C164.9,442.8,164.6,442.3,164.6,441.4z M176.2,444.8v-0.3
			c0.3-0.9,1.1-1.1,2-1.1l2.8,0.8c0.9,0.3,1.1,1.1,1.1,2c-0.3,0.9-1.1,1.1-2,1.1l-2.8-0.8C176.5,445.9,176.2,445.4,176.2,444.8z
			 M187.9,448.2c0-0.3,0-0.3,0-0.6c0.3-0.9,1.1-1.1,2-0.9l2.8,0.9c0.9,0.3,1.1,1.1,1.1,2c-0.3,0.8-1.1,1.1-2,1.1l-2.8-0.9
			C188.1,449.3,187.9,448.8,187.9,448.2z M199.5,451.9c0-0.3,0-0.3,0-0.6c0.3-0.9,1.1-1.1,2-0.9c0.9,0.3,2,0.6,2.8,0.9
			c0.9,0.3,1.1,1.1,0.9,2c-0.3,0.9-1.1,1.1-2,0.9l-2.8-0.9C199.8,453,199.5,452.5,199.5,451.9z M210.8,455.9c0-0.3,0-0.3,0-0.6
			c0.3-0.8,1.1-1.1,2-0.8c1.1,0.3,2,0.8,2.8,1.1c0.9,0.3,1.1,1.1,0.9,2c-0.3,0.9-1.1,1.1-2,0.9c-0.9-0.3-1.7-0.9-2.8-1.1
			C211.1,457,210.8,456.4,210.8,455.9z M221.9,460.4c0-0.3,0-0.3,0-0.6c0.3-0.9,1.1-1.1,2-0.9c0.9,0.3,2,0.6,2.8,0.9
			c0.9,0.3,1.1,1.1,1.1,2c-0.3,0.9-1.1,1.1-2,1.1c-1.1-0.3-2-0.6-2.8-0.8C222.4,461.5,221.9,461,221.9,460.4z M233.8,463.2v-0.3
			c0.3-0.8,0.9-1.4,1.7-1.1c0.9,0.3,2,0.3,2.8,0.6c0.9,0.3,1.4,0.9,1.1,1.7c-0.3,0.8-0.9,1.4-1.7,1.1c-1.1-0.3-2-0.3-3.1-0.6
			C234,464.6,233.8,464.1,233.8,463.2z M245.6,465.5C245.6,465.2,245.6,465.2,245.6,465.5c0-1.1,0.9-1.7,1.7-1.4l2.8,0.6
			c0.9,0,1.4,0.8,1.4,1.7s-0.9,1.4-1.7,1.4l-3.1-0.6C246.2,466.6,245.6,466.1,245.6,465.5z M257.5,466.9L257.5,466.9
			c0-1.1,0.9-1.7,1.7-1.4l3.1,0.3c0.9,0,1.4,0.9,1.4,1.7c0,0.9-0.9,1.4-1.7,1.4l-3.1-0.3C258.1,468.3,257.5,467.8,257.5,466.9z
			 M269.4,468.6C269.4,468.3,269.4,468.3,269.4,468.6c0-1.1,0.9-1.7,1.7-1.4l3.1,0.3c0.9,0,1.4,0.9,1.4,1.7s-0.9,1.4-1.7,1.4
			l-3.1-0.3C270,470,269.4,469.2,269.4,468.6z M281.6,470C281.6,470,281.6,469.7,281.6,470c0-1.1,0.9-1.7,1.7-1.4l3.1,0.3
			c0.9,0,1.4,0.9,1.4,1.7s-0.9,1.4-1.7,1.4l-3.1-0.3C282.2,471.4,281.6,470.6,281.6,470z M293.5,471.2L293.5,471.2
			c0-0.9,0.9-1.7,1.7-1.4c0.9,0,2,0,3.1,0.3c0.9,0,1.4,0.8,1.4,1.7s-0.9,1.4-1.7,1.4c-1.1,0-2,0-3.1-0.3
			C294.1,472.9,293.5,472,293.5,471.2z M305.7,471.7L305.7,471.7c0-0.9,0.6-1.4,1.4-1.4h3.1c0.9,0,1.4,0.6,1.4,1.4l0,0
			c0,0.9-0.6,1.4-1.4,1.4h-3.1C306.3,473.1,305.7,472.6,305.7,471.7z M317.6,471.7c0-0.9,0.6-1.4,1.4-1.4h3.1c0.9,0,1.4,0.6,1.4,1.4
			l0,0c0,0.9-0.6,1.4-1.4,1.4H319C318.5,473.1,317.6,472.6,317.6,471.7L317.6,471.7z M329.8,471.4c0-0.9,0.6-1.4,1.4-1.4h3.1
			c0.9,0,1.4,0.6,1.4,1.4s-0.6,1.4-1.4,1.4h-3.1C330.4,473.1,329.8,472.3,329.8,471.4L329.8,471.4z M342,471.2
			c0-0.9,0.6-1.4,1.4-1.4h3.1c0.9,0,1.4,0.6,1.7,1.4c0,0.8-0.6,1.4-1.4,1.7h-3.1C342.5,472.9,342,472,342,471.2L342,471.2z
			 M353.9,470.9c0-0.8,0.6-1.4,1.4-1.4h3.1c0.9,0,1.4,0.6,1.7,1.4c0,0.9-0.6,1.4-1.4,1.7h-3.1C354.7,472.3,353.9,471.7,353.9,470.9
			L353.9,470.9z M366.1,470.3c0-0.9,0.6-1.4,1.4-1.4h3.1c0.9,0,1.4,0.6,1.7,1.4c0,0.8-0.6,1.4-1.4,1.7h-3.1
			C366.6,471.7,366.1,471.2,366.1,470.3L366.1,470.3z M378,469.7c0-0.9,0.6-1.4,1.4-1.4h3.1c0.9,0,1.4,0.6,1.4,1.4s-0.6,1.4-1.4,1.4
			h-3.1C378.8,471.4,378,470.6,378,469.7L378,469.7z"/>
	</g>
</g>
</svg>
