<?xml version="1.0" encoding="utf-8"?>
<!-- Generator: Adobe Illustrator 17.1.0, SVG Export Plug-In . SVG Version: 6.00 Build 0)  -->
<!DOCTYPE svg PUBLIC "-//W3C//DTD SVG 1.1//EN" "http://www.w3.org/Graphics/SVG/1.1/DTD/svg11.dtd">
<svg version="1.1" xmlns="http://www.w3.org/2000/svg" xmlns:xlink="http://www.w3.org/1999/xlink" x="0px" y="0px"
	 viewBox="0 0 216 130" enable-background="new 0 0 216 130" xml:space="preserve">
<g id="Layer_1">
</g>
<g id="CHUCKS">
	<g id="XMLID_48581_">
		<path id="XMLID_48828_" fill="#000005" d="M1.7,13.3c8.8-3.7,25.6-7.5,39.4-9.9s32-4.3,44.5-2.9s22.5,3.9,22.5,3.9
			s7.3-0.7,17.8,2.2c10.5,2.8,42.8,13.7,52,18.5s25.4,15.8,27.3,31.8s2.5,39.4-10.1,48.5s-38.5,19.7-50.1,21.7s-33.6,1.4-38.5,1.4
			c-5,0-33.6-0.2-42.6-1.1s-19.2-3.9-28.6-3.4c-9.4,0.5-23.3,4.6-27.9,4.6S0,27.5,0,27.5L1.7,13.3z"/>
		<path id="XMLID_48827_" fill="#021F31" d="M149.4,19.1l-2.3-2.8c0,0-7.5-0.5-9.4-0.9c-2-0.4-1.2,1.4-1.2,1.4l-2.1,4.8
			c0,0-10.8-2.7-19.2-2.3c-8.3,0.4-17.8,0.4-21.7,0.4s-11,1.1-14.9-0.7c-3.9-1.8-17.8-1.1-23.4-0.9s-22.2,0.5-25.7,2.1s-8.2,5-8.2,5
			l28.6,30.7c0,0,7.8,0.5,14.9-0.7s11.7-1.1,14.7-1.2c3-0.2,6.6,0.9,9.8,2.1c3.2,1.2,17.9,3.9,26.3,0.2c8.3-3.7,18.1-15.4,19.7-17.8
			c1.6-2.3,11.5-16,11.5-16L149.4,19.1z"/>
		<path id="XMLID_48826_" fill="#021F31" stroke="#FFFFFF" stroke-linecap="round" stroke-dasharray="1,3" d="M147.4,119.3l-4.1,0.5
			c0,0-7.3-12.3-11.2-19.2c-3.9-6.9-4.1-14.2-25-16.7c-21-2.5-38.4-2.1-49.9,1.6c-11.5,3.7-36,34.1-36,34.1s15.8-3.2,23.1-3.4
			c7.3-0.2,33.4,0,37.5,0s16.2-1.1,19.9-1.6c3.7-0.5,20.2,0.2,24,1.1s6.9,1.2,6.9,1.2l3.7,6.6c0,0,7.8-0.9,9.8-2.8
			S147.4,119.3,147.4,119.3z"/>
		<path id="XMLID_48825_" fill="#021F31" stroke="#FFFFFF" stroke-linecap="round" stroke-dasharray="1,3" d="M31.2,113.8
			c9.3-10.6,21.3-22.6,27.2-24.6c10.6-3.4,27.3-3.9,48.2-1.4c15.8,1.9,17.8,6.1,20.4,11.5c0.5,1,1,2.1,1.7,3.2
			c2.8,5,7.3,12.7,9.7,16.7c0,0-0.1,0-0.1,0l-3.4-6l-2-0.2c0,0-3-0.3-6.5-1.2c-4.1-1-21.2-1.7-25.4-1.1c-3.6,0.5-15.5,1.6-19.3,1.6
			c-0.9,0-3,0-5.7,0c-9.2,0-26.2-0.1-31.9,0C40.8,112.4,35.8,113.1,31.2,113.8L31.2,113.8z"/>
		<path id="XMLID_48824_" fill="#021F31" d="M141.7,125.3c0,0-85.9,0.2-95.9-2.1l35,5.5h10.3l38.4-0.4L141.7,125.3z"/>
		<path id="XMLID_48823_" fill="#021F31" d="M10.5,11.7c32-12,72.7-8.3,91.1-6.1c16,1.9,43.9,7.9,50.8,9.5
			c-10.6-3.7-21.3-7.1-26.5-8.5c-10.5-2.8-17.7-3.3-17.7-3.3S98.1,1.8,85.6,0.5S55,1,41.1,3.4S10.5,9.5,1.7,13.3l-0.1,1L10.5,11.7z"
			/>
		<path id="XMLID_48753_" fill="#FFFFFF" d="M21,25.5c0-0.1,0.1-0.3,0.2-0.4c0.2-0.2,0.6-0.2,0.8,0l0.7,0.8c0.2,0.2,0.2,0.6,0,0.8
			c-0.2,0.2-0.6,0.2-0.8,0l-0.7-0.8C21,25.8,21,25.7,21,25.5z M22.9,23.6c0-0.2,0.1-0.3,0.2-0.4c0.3-0.2,0.6-0.4,0.9-0.6
			c0.2-0.2,0.6-0.1,0.7,0.2c0.2,0.2,0.1,0.6-0.2,0.7c-0.3,0.2-0.6,0.4-0.9,0.6c-0.2,0.2-0.6,0.1-0.7-0.1
			C22.9,23.8,22.9,23.7,22.9,23.6z M23.9,28.7c0-0.1,0.1-0.3,0.2-0.4c0.2-0.2,0.6-0.2,0.8,0l0.7,0.8c0.2,0.2,0.2,0.6,0,0.8
			c-0.2,0.2-0.6,0.2-0.8,0L24,29C23.9,28.9,23.9,28.8,23.9,28.7z M26.5,21.4c0-0.2,0.1-0.4,0.3-0.5c0.3-0.2,0.6-0.4,0.9-0.5
			c0.3-0.1,0.6,0,0.7,0.2c0.1,0.3,0,0.6-0.2,0.7c-0.3,0.2-0.6,0.3-0.9,0.5c-0.3,0.1-0.6,0.1-0.7-0.2C26.5,21.6,26.5,21.5,26.5,21.4z
			 M26.8,31.8c0-0.1,0.1-0.3,0.2-0.4c0.2-0.2,0.6-0.2,0.8,0l0.7,0.8c0.2,0.2,0.2,0.6,0,0.8c-0.2,0.2-0.6,0.2-0.8,0l-0.7-0.8
			C26.8,32,26.8,31.9,26.8,31.8z M29.7,34.9c0-0.1,0.1-0.3,0.2-0.4c0.2-0.2,0.6-0.2,0.8,0l0.7,0.8c0.2,0.2,0.2,0.6,0,0.8
			c-0.2,0.2-0.6,0.2-0.8,0l-0.7-0.8C29.7,35.2,29.7,35,29.7,34.9z M30.4,19.7c0-0.2,0.2-0.5,0.4-0.5c0.3-0.1,0.7-0.1,1.1-0.2
			c0.3,0,0.6,0.1,0.6,0.4c0,0.3-0.1,0.6-0.4,0.6c-0.4,0.1-0.7,0.1-1,0.2c-0.3,0.1-0.6-0.1-0.6-0.4C30.4,19.8,30.4,19.8,30.4,19.7z
			 M32.6,38c0-0.1,0.1-0.3,0.2-0.4c0.2-0.2,0.6-0.2,0.8,0l0.7,0.8c0.2,0.2,0.2,0.6,0,0.8c-0.2,0.2-0.6,0.2-0.8,0l-0.7-0.8
			C32.6,38.3,32.6,38.1,32.6,38z M34.6,19.1c0-0.3,0.2-0.5,0.5-0.5c0.3,0,0.7-0.1,1.1-0.1c0.3,0,0.6,0.2,0.6,0.5
			c0,0.3-0.2,0.6-0.5,0.6c-0.4,0-0.7,0.1-1.1,0.1C34.9,19.7,34.7,19.4,34.6,19.1C34.6,19.1,34.6,19.1,34.6,19.1z M35.5,41.1
			c0-0.1,0.1-0.3,0.2-0.4c0.2-0.2,0.6-0.2,0.8,0l0.7,0.8c0.2,0.2,0.2,0.6,0,0.8c-0.2,0.2-0.6,0.2-0.8,0l-0.7-0.8
			C35.5,41.4,35.5,41.3,35.5,41.1z M38.4,44.3c0-0.1,0.1-0.3,0.2-0.4c0.2-0.2,0.6-0.2,0.8,0l0.7,0.8c0.2,0.2,0.2,0.6,0,0.8
			c-0.2,0.2-0.6,0.2-0.8,0l-0.7-0.8C38.4,44.5,38.4,44.4,38.4,44.3z M38.9,18.7c0-0.3,0.2-0.5,0.5-0.5l1.1-0.1
			c0.3,0,0.5,0.2,0.6,0.5c0,0.3-0.2,0.5-0.5,0.6l-1.1,0.1C39.1,19.3,38.9,19.1,38.9,18.7C38.9,18.8,38.9,18.7,38.9,18.7z M41.3,47.4
			c0-0.1,0.1-0.3,0.2-0.4c0.2-0.2,0.6-0.2,0.8,0l0.7,0.8c0.2,0.2,0.2,0.6,0,0.8c-0.2,0.2-0.6,0.2-0.8,0l-0.7-0.8
			C41.3,47.6,41.3,47.5,41.3,47.4z M43.1,18.5c0-0.3,0.2-0.5,0.5-0.5l1.1-0.1c0.3,0,0.5,0.2,0.6,0.5c0,0.3-0.2,0.5-0.5,0.6L43.7,19
			C43.4,19,43.1,18.8,43.1,18.5C43.1,18.5,43.1,18.5,43.1,18.5z M44.2,50.5c0-0.1,0.1-0.3,0.2-0.4c0.2-0.2,0.6-0.2,0.8,0l0.7,0.8
			c0.2,0.2,0.2,0.6,0,0.8c-0.2,0.2-0.6,0.2-0.8,0l-0.7-0.8C44.2,50.8,44.2,50.6,44.2,50.5z M47.1,53.6c0-0.1,0.1-0.3,0.2-0.4
			c0.2-0.2,0.6-0.2,0.8,0l0.7,0.8c0.2,0.2,0.2,0.6,0,0.8c-0.2,0.2-0.6,0.2-0.8,0L47.2,54C47.1,53.9,47.1,53.7,47.1,53.6z M47.4,18.3
			c0-0.3,0.2-0.5,0.5-0.5l1.1,0c0.3,0,0.5,0.2,0.6,0.5c0,0.3-0.2,0.5-0.5,0.6l-1.1,0C47.7,18.8,47.4,18.6,47.4,18.3
			C47.4,18.3,47.4,18.3,47.4,18.3z M50.4,56C50.4,55.9,50.4,55.9,50.4,56c0-0.3,0.3-0.5,0.6-0.5c0.3,0,0.7,0,1.1,0
			c0.3,0,0.5,0.3,0.5,0.5c0,0.3-0.3,0.5-0.5,0.5c-0.4,0-0.8,0-1.1,0C50.6,56.5,50.4,56.2,50.4,56z M51.7,18.2c0-0.3,0.2-0.5,0.5-0.5
			l1.1,0c0.3,0,0.5,0.2,0.5,0.5c0,0.3-0.2,0.5-0.5,0.5l-1.1,0C51.9,18.7,51.7,18.5,51.7,18.2C51.7,18.2,51.7,18.2,51.7,18.2z
			 M54.6,56c0-0.3,0.2-0.5,0.5-0.5c0.3,0,0.7,0,1.1,0c0.3,0,0.5,0.2,0.5,0.5c0,0.3-0.2,0.5-0.5,0.5c-0.4,0-0.7,0-1.1,0
			C54.9,56.5,54.6,56.3,54.6,56C54.6,56,54.6,56,54.6,56z M55.9,18c0-0.3,0.2-0.5,0.5-0.5l1,0c0.3,0,0.5,0.2,0.6,0.5
			c0,0.3-0.2,0.5-0.5,0.6l-1.1,0C56.2,18.6,55.9,18.3,55.9,18C55.9,18,55.9,18,55.9,18z M58.9,55.8c0-0.3,0.2-0.5,0.5-0.5
			c0.3,0,0.7-0.1,1.1-0.1c0.3,0,0.6,0.2,0.6,0.5c0,0.3-0.2,0.6-0.5,0.6c-0.4,0-0.7,0.1-1.1,0.1C59.2,56.4,58.9,56.1,58.9,55.8
			C58.9,55.8,58.9,55.8,58.9,55.8z M60.2,17.9c0-0.3,0.2-0.5,0.5-0.5l1.1,0c0.3,0,0.5,0.2,0.5,0.5c0,0.3-0.2,0.5-0.5,0.5l-1.1,0
			C60.4,18.4,60.2,18.2,60.2,17.9C60.2,17.9,60.2,17.9,60.2,17.9z M63.1,55.4c0-0.3,0.2-0.5,0.5-0.5c0.3-0.1,0.7-0.1,1-0.2
			c0.3,0,0.6,0.1,0.6,0.4c0.1,0.3-0.1,0.6-0.4,0.6c-0.4,0.1-0.7,0.1-1.1,0.2C63.4,55.9,63.2,55.7,63.1,55.4
			C63.1,55.4,63.1,55.4,63.1,55.4z M64.5,17.8c0-0.3,0.2-0.5,0.5-0.5l1.1,0c0.3,0,0.5,0.2,0.5,0.5v0c0,0.3-0.2,0.5-0.5,0.5l-1.1,0
			C64.7,18.3,64.5,18.1,64.5,17.8C64.5,17.8,64.5,17.8,64.5,17.8z M67.3,54.7c0-0.3,0.2-0.5,0.5-0.5c0.4,0,0.7-0.1,1.1-0.1
			c0.3,0,0.6,0.2,0.6,0.5c0,0.3-0.2,0.6-0.5,0.6c-0.3,0-0.7,0.1-1.1,0.1C67.6,55.3,67.4,55.1,67.3,54.7
			C67.3,54.7,67.3,54.7,67.3,54.7z M68.7,17.8C68.7,17.8,68.7,17.8,68.7,17.8c0-0.3,0.2-0.5,0.5-0.5c0.4,0,0.7,0,1.1,0
			c0.3,0,0.5,0.3,0.5,0.5c0,0.3-0.3,0.5-0.5,0.5c-0.3,0-0.7,0-1.1,0C68.9,18.3,68.7,18.1,68.7,17.8z M71.6,54.3
			c0-0.3,0.2-0.5,0.5-0.5c0.4,0,0.7-0.1,1.1-0.1c0.3,0,0.5,0.2,0.6,0.5c0,0.3-0.2,0.5-0.5,0.6c-0.3,0-0.7,0-1.1,0.1
			C71.8,54.8,71.6,54.6,71.6,54.3C71.6,54.3,71.6,54.3,71.6,54.3z M73,18C73,18,73,18,73,18c0-0.3,0.3-0.6,0.6-0.5
			c0.4,0,0.7,0.1,1.1,0.1c0.3,0,0.5,0.3,0.5,0.6c0,0.3-0.3,0.5-0.6,0.5c-0.3,0-0.7-0.1-1-0.1C73.2,18.5,73,18.3,73,18z M75.8,54.1
			c0-0.3,0.2-0.5,0.5-0.5l1.1,0c0.3,0,0.5,0.2,0.5,0.5c0,0.3-0.2,0.5-0.5,0.5l-1.1,0C76.1,54.6,75.8,54.4,75.8,54.1
			C75.8,54.1,75.8,54.1,75.8,54.1z M77.2,18.7c0,0,0-0.1,0-0.1c0.1-0.3,0.4-0.4,0.7-0.4c0.3,0.1,0.6,0.2,0.9,0.3l0.2,0.1
			c0.3,0.1,0.4,0.4,0.3,0.7c-0.1,0.3-0.4,0.4-0.7,0.3l-0.2-0.1c-0.2-0.1-0.5-0.2-0.7-0.3C77.3,19.1,77.2,18.9,77.2,18.7z M80.1,53.9
			C80.1,53.9,80.1,53.9,80.1,53.9c0-0.3,0.3-0.5,0.6-0.5c0.4,0,0.7,0,1.1,0.1c0.3,0,0.5,0.3,0.5,0.6c0,0.3-0.3,0.5-0.6,0.5
			c-0.3,0-0.7-0.1-1-0.1C80.3,54.5,80.1,54.2,80.1,53.9z M81.3,19.8C81.3,19.8,81.3,19.8,81.3,19.8c0-0.4,0.3-0.6,0.6-0.5
			c0.3,0,0.7,0.1,1,0.1c0.3,0,0.5,0.3,0.5,0.6c0,0.3-0.3,0.5-0.6,0.5c-0.4,0-0.7-0.1-1.1-0.1C81.5,20.3,81.3,20.1,81.3,19.8z
			 M84.3,54.6c0,0,0-0.1,0-0.1c0.1-0.3,0.4-0.5,0.7-0.4c0.3,0.1,0.7,0.2,1,0.3c0.3,0.1,0.4,0.4,0.4,0.7c-0.1,0.3-0.4,0.4-0.7,0.4
			c-0.3-0.1-0.7-0.2-1-0.3C84.4,55.1,84.3,54.9,84.3,54.6z M85.5,20c0-0.3,0.2-0.5,0.5-0.5c0.4,0,0.7,0,1.1,0c0.3,0,0.5,0.2,0.6,0.5
			c0,0.3-0.2,0.5-0.5,0.6c-0.4,0-0.7,0-1.1,0C85.8,20.5,85.5,20.3,85.5,20C85.5,20,85.5,20,85.5,20z M88.3,56c0-0.1,0-0.1,0-0.2
			c0.1-0.3,0.4-0.4,0.7-0.3l0.3,0.1c0.2,0.1,0.4,0.1,0.7,0.2c0.3,0.1,0.4,0.4,0.4,0.7c-0.1,0.3-0.4,0.4-0.7,0.4
			c-0.3-0.1-0.5-0.2-0.7-0.2l-0.3-0.1C88.5,56.4,88.3,56.2,88.3,56z M89.8,19.8c0-0.3,0.2-0.5,0.5-0.5l1.1-0.1
			c0.3,0,0.5,0.2,0.6,0.5c0,0.3-0.2,0.5-0.5,0.6l-1.1,0.1C90.1,20.3,89.8,20.1,89.8,19.8C89.8,19.8,89.8,19.8,89.8,19.8z M92.4,57.1
			c0,0,0-0.1,0-0.1c0.1-0.3,0.3-0.5,0.6-0.4c0.3,0.1,0.7,0.1,1,0.2c0.3,0.1,0.5,0.3,0.4,0.6c-0.1,0.3-0.3,0.5-0.6,0.4
			c-0.4-0.1-0.7-0.1-1.1-0.2C92.6,57.5,92.4,57.3,92.4,57.1z M94,19.7L94,19.7c0-0.3,0.2-0.5,0.5-0.5l1,0l0,1.1l0-0.5l0,0.5l-1,0
			C94.3,20.2,94,20,94,19.7z M96.6,57.7C96.6,57.7,96.7,57.7,96.6,57.7c0-0.4,0.3-0.6,0.6-0.5c0.3,0,0.7,0.1,1,0.1
			c0.3,0,0.5,0.3,0.5,0.6c0,0.3-0.3,0.5-0.6,0.5c-0.4,0-0.7-0.1-1.1-0.1C96.8,58.2,96.6,58,96.6,57.7z M98.3,19.7
			c0-0.3,0.2-0.5,0.5-0.5l1.1,0c0.3,0,0.5,0.2,0.5,0.5c0,0.3-0.2,0.5-0.5,0.5l-1.1,0C98.6,20.2,98.3,20,98.3,19.7
			C98.3,19.7,98.3,19.7,98.3,19.7z M100.9,58.1C100.9,58.1,100.9,58.1,100.9,58.1c0-0.3,0.3-0.5,0.6-0.5c0.3,0,0.7,0,1.1,0
			c0.3,0,0.5,0.3,0.5,0.5c0,0.3-0.3,0.5-0.5,0.5c-0.4,0-0.7,0-1.1,0C101.1,58.6,100.9,58.4,100.9,58.1z M102.6,19.6
			c0-0.3,0.2-0.5,0.5-0.5l1.1,0c0.3,0,0.5,0.2,0.5,0.5c0,0.3-0.2,0.5-0.5,0.5l-1.1,0C102.8,20.2,102.6,19.9,102.6,19.6
			C102.6,19.6,102.6,19.6,102.6,19.6z M105.2,58.1c0-0.3,0.2-0.5,0.5-0.5c0.4,0,0.7,0,1.1,0c0.3,0,0.5,0.2,0.6,0.5
			c0,0.3-0.2,0.5-0.5,0.6c-0.4,0-0.7,0-1.1,0C105.4,58.7,105.2,58.4,105.2,58.1C105.2,58.1,105.2,58.1,105.2,58.1z M106.8,19.5
			c0-0.3,0.2-0.5,0.5-0.5l1.1,0c0.3,0,0.5,0.2,0.5,0.5c0,0.3-0.2,0.5-0.5,0.5l-1.1,0C107.1,20.1,106.8,19.9,106.8,19.5
			C106.8,19.6,106.8,19.6,106.8,19.5z M109.4,57.8c0-0.3,0.2-0.5,0.5-0.5c0.3-0.1,0.7-0.1,1-0.2c0.3-0.1,0.6,0.1,0.6,0.4
			c0.1,0.3-0.1,0.6-0.4,0.6c-0.4,0.1-0.7,0.1-1.1,0.2C109.7,58.3,109.5,58.1,109.4,57.8C109.4,57.8,109.4,57.8,109.4,57.8z
			 M111.1,19.4c0-0.3,0.2-0.5,0.5-0.5l1.1,0c0.3,0,0.5,0.2,0.6,0.5c0,0.3-0.2,0.5-0.5,0.6l-1,0C111.4,20,111.1,19.8,111.1,19.4
			C111.1,19.5,111.1,19.4,111.1,19.4z M113.5,56.8c0-0.2,0.1-0.4,0.4-0.5c0.3-0.1,0.7-0.2,1-0.4c0.3-0.1,0.6,0,0.7,0.3
			c0.1,0.3,0,0.6-0.3,0.7c-0.3,0.1-0.7,0.3-1,0.4c-0.3,0.1-0.6-0.1-0.7-0.3C113.6,56.9,113.5,56.8,113.5,56.8z M115.4,19.3
			c0-0.3,0.2-0.5,0.5-0.5c0.3,0,0.5,0,0.8,0l0.3,0c0.3,0,0.5,0.2,0.5,0.5c0,0,0,0,0,0c0,0.3-0.2,0.5-0.5,0.5l-0.3,0
			c-0.3,0-0.5,0-0.8,0C115.6,19.8,115.4,19.6,115.4,19.3C115.4,19.3,115.4,19.3,115.4,19.3z M117.4,55c0-0.2,0.1-0.4,0.3-0.5
			c0.3-0.2,0.6-0.4,0.9-0.6c0.2-0.2,0.6-0.1,0.7,0.2c0.2,0.2,0.1,0.6-0.2,0.7c-0.3,0.2-0.6,0.4-0.9,0.6c-0.3,0.2-0.6,0.1-0.7-0.2
			C117.4,55.1,117.4,55.1,117.4,55z M119.6,19.4C119.6,19.4,119.6,19.4,119.6,19.4c0-0.3,0.3-0.6,0.6-0.5c0.4,0,0.7,0.1,1.1,0.1
			c0.3,0,0.5,0.3,0.5,0.6c0,0.3-0.3,0.5-0.6,0.5c-0.4,0-0.7-0.1-1.1-0.1C119.8,19.9,119.6,19.7,119.6,19.4z M120.9,52.5
			c0-0.2,0.1-0.3,0.2-0.4c0.3-0.2,0.6-0.4,0.8-0.7c0.2-0.2,0.6-0.1,0.7,0.1c0.2,0.2,0.1,0.6-0.1,0.7c-0.3,0.2-0.6,0.4-0.8,0.7
			c-0.2,0.2-0.6,0.1-0.7-0.1C120.9,52.8,120.9,52.7,120.9,52.5z M123.9,19.8C123.9,19.8,123.9,19.8,123.9,19.8
			c0-0.4,0.3-0.6,0.6-0.5c0.4,0,0.7,0.1,1.1,0.1c0.3,0,0.5,0.3,0.5,0.6c0,0.3-0.3,0.5-0.6,0.5c-0.3,0-0.7-0.1-1-0.1
			C124.1,20.3,123.9,20.1,123.9,19.8z M124.2,49.8c0-0.1,0.1-0.3,0.2-0.4c0.3-0.2,0.5-0.5,0.8-0.7c0.2-0.2,0.6-0.2,0.8,0
			c0.2,0.2,0.2,0.6,0,0.8c-0.3,0.2-0.5,0.5-0.8,0.7c-0.2,0.2-0.6,0.2-0.8,0C124.2,50.1,124.2,49.9,124.2,49.8z M127.3,46.9
			c0-0.1,0.1-0.3,0.2-0.4c0.3-0.3,0.5-0.5,0.7-0.8c0.2-0.2,0.5-0.2,0.8,0c0.2,0.2,0.2,0.5,0,0.8c-0.2,0.3-0.5,0.5-0.8,0.8
			c-0.2,0.2-0.5,0.2-0.8,0C127.3,47.1,127.3,47,127.3,46.9z M128.1,20.5C128.1,20.4,128.1,20.4,128.1,20.5c0.1-0.4,0.3-0.6,0.6-0.5
			l1.1,0.2c0.3,0.1,0.5,0.3,0.4,0.6c-0.1,0.3-0.3,0.5-0.6,0.4l-1-0.2C128.3,20.9,128.1,20.7,128.1,20.5z M130.2,43.8
			c0-0.1,0-0.3,0.1-0.4c0.2-0.3,0.5-0.5,0.7-0.8c0.2-0.2,0.5-0.2,0.8,0c0.2,0.2,0.2,0.5,0,0.8c-0.2,0.3-0.5,0.5-0.7,0.8
			c-0.2,0.2-0.5,0.2-0.8,0C130.3,44.1,130.2,43.9,130.2,43.8z M132.3,21.3c0,0,0-0.1,0-0.1c0.1-0.3,0.3-0.5,0.6-0.4
			c0.4,0.1,0.8,0.2,1,0.2c0.3,0.1,0.5,0.4,0.4,0.6c-0.1,0.3-0.4,0.5-0.6,0.4c-0.2-0.1-0.6-0.1-1-0.2
			C132.4,21.8,132.3,21.5,132.3,21.3z M133,40.6c0-0.1,0-0.2,0.1-0.3c0.2-0.3,0.5-0.6,0.7-0.8c0.2-0.2,0.5-0.3,0.7-0.1
			c0.2,0.2,0.3,0.5,0.1,0.7c-0.2,0.3-0.4,0.5-0.7,0.8c-0.2,0.2-0.5,0.3-0.7,0.1C133.1,40.9,133,40.7,133,40.6z M134.9,19.1
			c0-0.1,0-0.1,0-0.2l0.4-1c0.1-0.3,0.4-0.4,0.7-0.3c0.3,0.1,0.4,0.4,0.3,0.7l-0.4,1c-0.1,0.3-0.4,0.4-0.7,0.3
			C135,19.5,134.9,19.3,134.9,19.1z M135.6,37.1c0-0.1,0-0.2,0.1-0.3l0.6-0.9c0.2-0.2,0.5-0.3,0.7-0.1c0.2,0.2,0.3,0.5,0.1,0.7
			l-0.6,0.9c-0.2,0.2-0.5,0.3-0.7,0.1C135.7,37.5,135.6,37.3,135.6,37.1z M136.4,15.4c0-0.2,0.2-0.5,0.4-0.5c0.1,0,0.2,0,0.4,0
			c0.2,0,0.4,0,0.6,0.1l0.3,0c0.3,0,0.5,0.3,0.4,0.6c0,0.3-0.3,0.5-0.6,0.4l-0.3-0.1c-0.1,0-0.3,0-0.4,0c-0.1,0-0.1,0-0.2,0
			c-0.3,0.1-0.6-0.1-0.6-0.4C136.4,15.5,136.4,15.4,136.4,15.4z M138.1,33.7c0-0.1,0-0.2,0.1-0.3l0.6-0.9c0.2-0.2,0.5-0.3,0.7-0.1
			c0.2,0.2,0.3,0.5,0.1,0.7L139,34c-0.2,0.2-0.5,0.3-0.7,0.1C138.2,34,138.1,33.8,138.1,33.7z M140.6,30.2c0-0.1,0-0.2,0.1-0.3
			l0.6-0.9c0.2-0.2,0.5-0.3,0.7-0.1c0.2,0.2,0.3,0.5,0.1,0.7l-0.6,0.9c-0.2,0.2-0.5,0.3-0.7,0.1C140.7,30.5,140.6,30.4,140.6,30.2z
			 M140.6,15.8C140.6,15.8,140.6,15.8,140.6,15.8c0-0.3,0.3-0.6,0.6-0.5l1.1,0.1c0.3,0,0.5,0.3,0.5,0.6c0,0.3-0.3,0.5-0.6,0.5
			l-1.1-0.1C140.8,16.3,140.6,16.1,140.6,15.8z M143.1,26.8c0-0.1,0-0.2,0.1-0.3l0.6-0.9c0.2-0.2,0.5-0.3,0.7-0.1
			c0.2,0.2,0.3,0.5,0.1,0.7l-0.6,0.9c-0.2,0.2-0.5,0.3-0.7,0.1C143.2,27.1,143.1,26.9,143.1,26.8z M144.9,16.2
			C144.9,16.2,144.9,16.1,144.9,16.2c0-0.3,0.3-0.6,0.6-0.5l1.1,0.1c0.3,0,0.5,0.3,0.5,0.6c0,0.3-0.3,0.5-0.6,0.5l-1.1-0.1
			C145.1,16.7,144.9,16.4,144.9,16.2z M145.6,23.3c0-0.1,0-0.2,0.1-0.3c0.6-0.8,0.6-0.8,0.6-0.9c0.2-0.2,0.5-0.3,0.8-0.1
			c0.2,0.2,0.3,0.5,0.1,0.7l-0.6,0.8c-0.2,0.2-0.5,0.3-0.7,0.1C145.7,23.6,145.6,23.5,145.6,23.3z M148.2,18.3
			c0-0.2,0.1-0.3,0.2-0.4c0.2-0.2,0.6-0.2,0.7,0.1l0.9,1.2l-0.9,1.1c-0.2,0.2-0.5,0.3-0.7,0.1c-0.2-0.2-0.3-0.5-0.1-0.7l0.4-0.5
			l-0.4-0.5C148.2,18.5,148.2,18.4,148.2,18.3z"/>
		<path id="XMLID_48691_" fill="#FFFFFF" d="M27.1,25.9c0-0.2,0.1-0.4,0.3-0.5c0.3-0.2,0.6-0.4,0.9-0.6c0.3-0.1,0.6-0.1,0.7,0.2
			c0.1,0.3,0.1,0.6-0.2,0.7c-0.1,0.1-0.2,0.1-0.4,0.2c0,0,0,0,0.1,0.1l0.7,0.8c0.2,0.2,0.2,0.6,0,0.8c-0.2,0.2-0.6,0.2-0.8,0
			l-0.7-0.8c-0.1-0.1-0.1-0.2-0.1-0.4c-0.2,0-0.3-0.1-0.4-0.3C27.1,26.1,27.1,26,27.1,25.9z M30.5,29.6c0-0.1,0.1-0.3,0.2-0.4
			c0.2-0.2,0.6-0.2,0.8,0l0.7,0.8c0.2,0.2,0.2,0.6,0,0.8c-0.2,0.2-0.6,0.2-0.8,0L30.7,30C30.6,29.9,30.5,29.7,30.5,29.6z M30.9,23.9
			c0-0.2,0.1-0.4,0.4-0.5c0.3-0.1,0.7-0.2,1.1-0.3c0.3-0.1,0.6,0.1,0.6,0.4c0.1,0.3-0.1,0.6-0.4,0.6c-0.4,0.1-0.7,0.1-1,0.2
			c-0.3,0.1-0.6-0.1-0.7-0.4C30.9,24,30.9,24,30.9,23.9z M33.4,32.7c0-0.1,0.1-0.3,0.2-0.4c0.2-0.2,0.6-0.2,0.8,0l0.7,0.8
			c0.2,0.2,0.2,0.6,0,0.8c-0.2,0.2-0.6,0.2-0.8,0l-0.7-0.8C33.5,33,33.4,32.8,33.4,32.7z M35.1,23.3c0-0.3,0.2-0.5,0.5-0.5
			c0.3,0,0.7-0.1,1.1-0.1c0.3,0,0.6,0.2,0.6,0.5c0,0.3-0.2,0.6-0.5,0.6c-0.4,0-0.7,0.1-1.1,0.1C35.4,23.8,35.1,23.6,35.1,23.3
			C35.1,23.3,35.1,23.3,35.1,23.3z M36.3,35.8c0-0.1,0.1-0.3,0.2-0.4c0.2-0.2,0.6-0.2,0.8,0l0.7,0.8c0.2,0.2,0.2,0.6,0,0.8
			c-0.2,0.2-0.6,0.2-0.8,0l-0.7-0.8C36.4,36.1,36.3,36,36.3,35.8z M39.2,39c0-0.1,0.1-0.3,0.2-0.4c0.2-0.2,0.6-0.2,0.8,0l0.7,0.8
			c0.2,0.2,0.2,0.6,0,0.8c-0.2,0.2-0.6,0.2-0.8,0l-0.7-0.8C39.3,39.2,39.2,39.1,39.2,39z M39.3,22.9c0-0.3,0.2-0.5,0.5-0.5l1.1-0.1
			c0.3,0,0.5,0.2,0.6,0.5c0,0.3-0.2,0.5-0.5,0.6l-1.1,0.1C39.6,23.5,39.3,23.3,39.3,22.9C39.3,23,39.3,23,39.3,22.9z M42.1,42.1
			c0-0.1,0.1-0.3,0.2-0.4c0.2-0.2,0.6-0.2,0.8,0l0.7,0.8c0.2,0.2,0.2,0.6,0,0.8c-0.2,0.2-0.6,0.2-0.8,0l-0.7-0.8
			C42.2,42.3,42.1,42.2,42.1,42.1z M43.6,22.7c0-0.3,0.2-0.5,0.5-0.5l1.1,0c0.3,0,0.5,0.2,0.6,0.5c0,0.3-0.2,0.5-0.5,0.6l-1.1,0
			C43.8,23.2,43.6,23,43.6,22.7C43.6,22.7,43.6,22.7,43.6,22.7z M45,45.2c0-0.1,0.1-0.3,0.2-0.4c0.2-0.2,0.6-0.2,0.8,0l0.7,0.8
			c0.2,0.2,0.2,0.6,0,0.8c-0.2,0.2-0.6,0.2-0.8,0l-0.7-0.8C45.1,45.5,45,45.3,45,45.2z M47.8,22.5c0-0.3,0.2-0.5,0.5-0.5l1.1,0
			c0.3,0,0.5,0.2,0.6,0.5c0,0.3-0.2,0.5-0.5,0.6l-1.1,0C48.1,23.1,47.8,22.8,47.8,22.5C47.8,22.5,47.8,22.5,47.8,22.5z M47.9,48.3
			c0-0.1,0.1-0.3,0.2-0.4c0.2-0.2,0.6-0.2,0.8,0l0.7,0.8c0.2,0.2,0.2,0.6,0,0.8c-0.2,0.2-0.6,0.2-0.8,0l-0.7-0.8
			C48,48.6,47.9,48.4,47.9,48.3z M50.8,51.4c0-0.1,0.1-0.3,0.2-0.4c0.2-0.2,0.6-0.2,0.8,0l0.1,0.1l0.4,0c0.3,0,0.5,0.3,0.5,0.5
			c0,0.3-0.2,0.5-0.5,0.5l-0.9,0L51,51.8C50.9,51.7,50.8,51.6,50.8,51.4z M52.1,22.4c0-0.3,0.2-0.5,0.5-0.5l1,0
			c0.3,0,0.6,0.2,0.6,0.5c0,0.3-0.2,0.5-0.5,0.5l-1.1,0C52.4,22.9,52.1,22.7,52.1,22.4C52.1,22.4,52.1,22.4,52.1,22.4z M55,51.8
			c0-0.3,0.2-0.5,0.5-0.5c0.3,0,0.7,0,1.1,0c0.3,0,0.5,0.2,0.6,0.5c0,0.3-0.2,0.5-0.5,0.6c-0.4,0-0.7,0-1.1,0
			C55.2,52.3,55,52.1,55,51.8C55,51.8,55,51.8,55,51.8z M56.4,22.2c0-0.3,0.2-0.5,0.5-0.5l1.1,0c0.3,0,0.5,0.2,0.6,0.5
			c0,0.3-0.2,0.5-0.5,0.6l-1.1,0C56.6,22.8,56.4,22.6,56.4,22.2C56.4,22.3,56.4,22.2,56.4,22.2z M59.2,51.5c0-0.3,0.2-0.5,0.5-0.5
			c0.3,0,0.7-0.1,1.1-0.1c0.3,0,0.6,0.2,0.6,0.5c0,0.3-0.2,0.6-0.5,0.6c-0.4,0-0.7,0.1-1.1,0.1C59.5,52.1,59.3,51.9,59.2,51.5
			C59.2,51.6,59.2,51.6,59.2,51.5z M60.6,22.1c0-0.3,0.2-0.5,0.5-0.5l1.1,0c0.3,0,0.5,0.2,0.5,0.5c0,0,0,0,0,0
			c0,0.3-0.2,0.5-0.5,0.5l-1.1,0C60.9,22.6,60.6,22.4,60.6,22.1C60.6,22.1,60.6,22.1,60.6,22.1z M63.5,51c0-0.3,0.2-0.5,0.4-0.5
			c0.4-0.1,0.7-0.1,1.1-0.2c0.3,0,0.6,0.2,0.6,0.4c0.1,0.3-0.1,0.6-0.4,0.6c-0.3,0.1-0.7,0.1-1,0.2C63.8,51.6,63.5,51.4,63.5,51
			C63.5,51.1,63.5,51,63.5,51z M64.9,22c0-0.3,0.2-0.5,0.5-0.5l1.1,0c0.3,0,0.5,0.2,0.5,0.5c0,0,0,0,0,0c0,0.3-0.2,0.5-0.5,0.5
			l-1.1,0C65.1,22.6,64.9,22.3,64.9,22C64.9,22,64.9,22,64.9,22z M67.7,50.4c0-0.3,0.2-0.5,0.5-0.5c0.4,0,0.7-0.1,1.1-0.1
			c0.3,0,0.6,0.2,0.6,0.5c0,0.3-0.2,0.6-0.5,0.6c-0.3,0-0.7,0.1-1.1,0.1C68,51,67.7,50.7,67.7,50.4C67.7,50.4,67.7,50.4,67.7,50.4z
			 M69.1,22C69.1,22,69.1,22,69.1,22c0-0.3,0.2-0.5,0.5-0.5c0.4,0,0.7,0,1.1,0c0.3,0,0.5,0.2,0.5,0.5c0,0.3-0.3,0.5-0.5,0.5
			c-0.3,0-0.7,0-1.1,0C69.4,22.6,69.1,22.3,69.1,22z M71.9,50c0-0.3,0.2-0.5,0.5-0.5c0.4,0,0.7,0,1.1-0.1c0.3,0,0.5,0.2,0.6,0.5
			c0,0.3-0.2,0.5-0.5,0.6c-0.3,0-0.7,0-1.1,0.1C72.2,50.5,71.9,50.3,71.9,50C71.9,50,71.9,50,71.9,50z M73.4,22.3
			C73.4,22.2,73.4,22.2,73.4,22.3c0-0.3,0.3-0.6,0.6-0.5c0.4,0,0.8,0.1,1.1,0.1c0.3,0,0.5,0.3,0.5,0.6c0,0.3-0.3,0.5-0.6,0.5
			c-0.3,0-0.7-0.1-1-0.1C73.6,22.8,73.4,22.5,73.4,22.3z M76.2,49.8c0-0.3,0.2-0.5,0.5-0.5l1.1,0c0.3,0,0.5,0.2,0.5,0.5
			c0,0.3-0.2,0.5-0.5,0.5l-1.1,0C76.4,50.4,76.2,50.1,76.2,49.8C76.2,49.8,76.2,49.8,76.2,49.8z M77.5,23.3c0-0.1,0-0.1,0-0.2
			c0.1-0.3,0.4-0.4,0.7-0.3c0.3,0.1,0.7,0.2,1,0.3c0.3,0.1,0.5,0.4,0.4,0.6c-0.1,0.3-0.4,0.5-0.6,0.4c-0.4-0.1-0.7-0.2-1.1-0.3
			C77.7,23.7,77.5,23.5,77.5,23.3z M80.4,49.7C80.4,49.7,80.4,49.7,80.4,49.7c0-0.3,0.3-0.5,0.6-0.5c0.4,0,0.7,0,1.1,0.1
			c0.3,0,0.5,0.3,0.5,0.6c0,0.3-0.3,0.5-0.6,0.5c-0.4,0-0.7-0.1-1-0.1C80.7,50.2,80.4,50,80.4,49.7z M81.7,24.1
			C81.7,24.1,81.7,24.1,81.7,24.1c0-0.3,0.3-0.6,0.6-0.5c0.3,0,0.7,0.1,1,0.1c0.3,0,0.5,0.2,0.5,0.6c0,0.3-0.3,0.5-0.6,0.5
			c-0.4,0-0.7,0-1.1-0.1C81.9,24.6,81.7,24.4,81.7,24.1z M84.6,50.4c0,0,0-0.1,0-0.1c0.1-0.3,0.4-0.5,0.6-0.4c0.3,0.1,0.7,0.2,1,0.3
			c0.3,0.1,0.4,0.4,0.4,0.7c-0.1,0.3-0.4,0.5-0.7,0.4c-0.3-0.1-0.7-0.2-1-0.3C84.8,50.8,84.6,50.6,84.6,50.4z M85.9,24.2
			c0-0.3,0.2-0.5,0.5-0.5c0.4,0,0.7,0,1.1,0c0.3,0,0.5,0.2,0.6,0.5c0,0.3-0.2,0.5-0.5,0.6c-0.4,0-0.7,0-1.1,0
			C86.2,24.7,86,24.5,85.9,24.2C85.9,24.2,85.9,24.2,85.9,24.2z M88.7,51.6c0-0.1,0-0.1,0-0.2c0.1-0.3,0.4-0.4,0.7-0.3
			c0.3,0.1,0.7,0.2,1,0.4c0.3,0.1,0.4,0.4,0.3,0.7c-0.1,0.3-0.4,0.4-0.7,0.3c-0.3-0.1-0.7-0.2-1-0.4C88.9,52,88.7,51.8,88.7,51.6z
			 M90.2,24c0-0.3,0.2-0.5,0.5-0.5l1.1-0.1c0.3,0,0.5,0.2,0.6,0.5c0,0.3-0.2,0.5-0.5,0.6l-1.1,0.1C90.5,24.6,90.2,24.3,90.2,24
			C90.2,24,90.2,24,90.2,24z M92.8,52.8c0,0,0-0.1,0-0.1c0.1-0.3,0.3-0.5,0.6-0.4c0.3,0.1,0.7,0.1,1,0.2c0.3,0.1,0.5,0.3,0.4,0.6
			c-0.1,0.3-0.3,0.5-0.6,0.4c-0.4-0.1-0.7-0.1-1.1-0.2C93,53.3,92.8,53.1,92.8,52.8z M94.5,23.9c0-0.3,0.2-0.5,0.5-0.5l1.1,0
			c0.3,0,0.5,0.2,0.5,0.5v0c0,0.3-0.2,0.5-0.5,0.5l-1.1,0C94.7,24.4,94.5,24.2,94.5,23.9L94.5,23.9z M97,53.5
			C97,53.5,97,53.5,97,53.5c0-0.4,0.3-0.6,0.6-0.5c0.3,0,0.7,0.1,1,0.1c0.3,0,0.5,0.3,0.5,0.6c0,0.3-0.3,0.5-0.6,0.5
			c-0.4,0-0.7-0.1-1.1-0.1C97.2,54,97,53.8,97,53.5z M98.7,23.9c0-0.3,0.2-0.5,0.5-0.5l1,0l0.1,0.5l0,0.5l-1.1,0
			C99,24.4,98.7,24.2,98.7,23.9C98.7,23.9,98.7,23.9,98.7,23.9z M101.2,53.9C101.2,53.9,101.2,53.8,101.2,53.9
			c0-0.3,0.3-0.5,0.6-0.5c0.3,0,0.7,0,1.1,0c0.3,0,0.5,0.3,0.5,0.5c0,0.3-0.3,0.5-0.5,0.5c-0.4,0-0.7,0-1.1,0
			C101.5,54.4,101.2,54.1,101.2,53.9z M103,23.8c0-0.3,0.2-0.5,0.5-0.5l1.1,0c0.3,0,0.5,0.2,0.5,0.5c0,0.3-0.2,0.5-0.5,0.5l-1,0
			C103.3,24.4,103,24.1,103,23.8C103,23.8,103,23.8,103,23.8z M105.5,53.9c0-0.3,0.2-0.5,0.5-0.5c0.4,0,0.7,0,1-0.1
			c0.3,0,0.5,0.2,0.6,0.5c0,0.3-0.2,0.5-0.5,0.6c-0.4,0-0.7,0-1.1,0.1C105.8,54.4,105.5,54.2,105.5,53.9
			C105.5,53.9,105.5,53.9,105.5,53.9z M107.3,23.8c0-0.3,0.2-0.5,0.5-0.5l1.1,0c0.3,0,0.5,0.2,0.5,0.5c0,0.3-0.2,0.5-0.5,0.5l-1.1,0
			C107.5,24.3,107.3,24.1,107.3,23.8C107.3,23.8,107.3,23.8,107.3,23.8z M109.7,53.4c0-0.3,0.2-0.5,0.4-0.5c0.3-0.1,0.7-0.1,1-0.2
			c0.3-0.1,0.6,0.1,0.6,0.4c0.1,0.3-0.1,0.6-0.4,0.6c-0.3,0.1-0.7,0.2-1.1,0.2C110.1,54,109.8,53.8,109.7,53.4
			C109.7,53.5,109.7,53.5,109.7,53.4z M111.5,23.7c0-0.3,0.2-0.5,0.5-0.5l1.1,0c0.3,0,0.5,0.2,0.6,0.5c0,0.3-0.2,0.5-0.5,0.6l-1.1,0
			C111.8,24.2,111.5,24,111.5,23.7C111.5,23.7,111.5,23.7,111.5,23.7z M113.8,52.1c0-0.2,0.1-0.4,0.3-0.5c0.3-0.1,0.6-0.3,0.9-0.5
			c0.3-0.1,0.6-0.1,0.7,0.2c0.1,0.3,0.1,0.6-0.2,0.7c-0.3,0.2-0.6,0.4-1,0.5c-0.3,0.1-0.6,0-0.7-0.2
			C113.8,52.3,113.8,52.2,113.8,52.1z M115.8,23.5c0-0.3,0.2-0.5,0.5-0.5l0.4,0c0.2,0,0.4,0,0.7,0c0.3,0,0.5,0.2,0.5,0.5
			c0,0,0,0,0,0c0,0.3-0.2,0.5-0.5,0.5c-0.2,0-0.4,0-0.7,0l-0.4,0C116,24,115.8,23.8,115.8,23.5C115.8,23.5,115.8,23.5,115.8,23.5z
			 M117.4,49.9c0-0.2,0.1-0.3,0.2-0.4c0.3-0.2,0.6-0.4,0.8-0.6c0.2-0.2,0.6-0.1,0.7,0.1c0.2,0.2,0.1,0.6-0.1,0.7
			c-0.3,0.2-0.6,0.4-0.9,0.6c-0.2,0.2-0.6,0.1-0.7-0.1C117.4,50.1,117.4,50,117.4,49.9z M120,23.7C120,23.7,120,23.6,120,23.7
			c0-0.3,0.3-0.6,0.6-0.5c0.4,0,0.7,0.1,1.1,0.1c0.3,0,0.5,0.3,0.5,0.6c0,0.3-0.3,0.5-0.6,0.5c-0.3,0-0.7-0.1-1.1-0.1
			C120.3,24.2,120,24,120,23.7z M120.7,47.2c0-0.1,0.1-0.3,0.2-0.4c0.3-0.2,0.5-0.5,0.8-0.7c0.2-0.2,0.6-0.2,0.8,0
			c0.2,0.2,0.2,0.6,0,0.8c-0.3,0.2-0.5,0.5-0.8,0.7c-0.2,0.2-0.6,0.2-0.8-0.1C120.8,47.5,120.7,47.3,120.7,47.2z M123.9,44.3
			c0-0.1,0.1-0.3,0.2-0.4c0.3-0.2,0.5-0.5,0.8-0.7c0.2-0.2,0.5-0.2,0.8,0c0.2,0.2,0.2,0.5,0,0.8c-0.2,0.3-0.5,0.5-0.8,0.8
			c-0.2,0.2-0.5,0.2-0.8,0C123.9,44.6,123.9,44.4,123.9,44.3z M124.3,24.2C124.3,24.1,124.3,24.1,124.3,24.2c0-0.4,0.3-0.6,0.6-0.5
			c0.4,0,0.7,0.1,1.1,0.2c0.3,0,0.5,0.3,0.4,0.6c0,0.3-0.3,0.5-0.6,0.4c-0.3-0.1-0.7-0.1-1-0.2C124.5,24.6,124.3,24.4,124.3,24.2z
			 M126.8,41.2c0-0.1,0-0.3,0.1-0.4l0.7-0.8c0.2-0.2,0.5-0.2,0.8,0c0.2,0.2,0.2,0.5,0,0.8l-0.7,0.8c-0.2,0.2-0.5,0.2-0.8,0
			C126.9,41.5,126.8,41.4,126.8,41.2z M128.5,24.8C128.5,24.8,128.5,24.8,128.5,24.8c0.1-0.4,0.3-0.6,0.6-0.5
			c0.4,0.1,0.7,0.1,1.1,0.2c0.3,0.1,0.5,0.3,0.4,0.6c-0.1,0.3-0.3,0.5-0.6,0.4c-0.3-0.1-0.7-0.1-1-0.2
			C128.7,25.3,128.5,25.1,128.5,24.8z M129.6,38c0-0.1,0-0.2,0.1-0.3c0.2-0.3,0.5-0.6,0.7-0.8c0.2-0.2,0.5-0.3,0.7-0.1
			c0.2,0.2,0.3,0.5,0.1,0.7c-0.2,0.3-0.4,0.5-0.7,0.8c-0.2,0.2-0.5,0.3-0.8,0.1C129.7,38.3,129.6,38.2,129.6,38z M132.2,34.6
			c0-0.1,0-0.2,0.1-0.3l0.6-0.9c0.2-0.2,0.5-0.3,0.7-0.1c0.2,0.2,0.3,0.5,0.1,0.7l-0.6,0.9c-0.2,0.2-0.5,0.3-0.7,0.1
			C132.3,34.9,132.2,34.8,132.2,34.6z M132.7,25.7c0,0,0-0.1,0-0.1c0.1-0.3,0.3-0.5,0.6-0.4l-0.1,0.5l0.2-0.5
			c0.3,0.1,0.6,0.1,0.9,0.1c0.3,0,0.5,0.2,0.5,0.5c0,0,0,0,0,0c0,0.3-0.2,0.5-0.5,0.5c-0.4,0-0.7,0-1.1-0.1
			C132.9,26.2,132.7,26,132.7,25.7z M134.7,31.1c0-0.1,0-0.2,0.1-0.3l0.6-0.9c0.2-0.2,0.5-0.3,0.7-0.1c0.2,0.2,0.3,0.5,0.1,0.7
			l-0.6,0.9c-0.2,0.2-0.5,0.3-0.7,0.1C134.8,31.5,134.7,31.3,134.7,31.1z M136.6,24.7c0-0.1,0.1-0.3,0.2-0.4
			c0.2-0.2,0.4-0.5,0.6-0.7c0.2-0.2,0.5-0.3,0.7-0.2c0.2,0.2,0.3,0.5,0.2,0.7c-0.2,0.3-0.5,0.6-0.8,0.9c-0.2,0.2-0.6,0.2-0.8,0
			C136.7,25,136.6,24.8,136.6,24.7z M137.2,27.7c0-0.1,0-0.2,0.1-0.3l0.6-0.9c0.2-0.2,0.5-0.3,0.7-0.1c0.2,0.2,0.3,0.5,0.1,0.7
			l-0.6,0.9c-0.2,0.2-0.5,0.3-0.7,0.1C137.3,28,137.2,27.8,137.2,27.7z M138.7,21c0-0.1,0-0.1,0-0.2l0.4-1c0.1-0.3,0.4-0.4,0.7-0.3
			c0.3,0.1,0.4,0.4,0.3,0.7l-0.4,1c-0.1,0.3-0.4,0.4-0.7,0.3C138.8,21.4,138.7,21.2,138.7,21z M139.7,24.2c0-0.1,0-0.2,0.1-0.3
			l0.6-0.8c0.2-0.2,0.5-0.3,0.8-0.1c0.2,0.2,0.3,0.5,0.1,0.7l-0.6,0.9c-0.2,0.2-0.5,0.3-0.7,0.1C139.8,24.6,139.7,24.4,139.7,24.2z
			 M142.2,20.8c0-0.1,0-0.2,0.1-0.3c-0.1-0.1-0.1-0.2-0.1-0.3c0-0.3,0.2-0.5,0.5-0.5l0.1,0l1.3,0.1l-0.9,1.3
			c-0.2,0.2-0.5,0.3-0.7,0.1C142.3,21.1,142.2,20.9,142.2,20.8z"/>
		<path id="XMLID_48666_" fill="#FFFFFF" d="M32.7,120.1c0-0.3,0.2-0.5,0.5-0.5l0.4,0c0.3,0,0.6,0.2,0.6,0.5c0,0.3-0.2,0.6-0.5,0.6
			l-0.4,0C33.1,120.7,32.8,120.4,32.7,120.1C32.8,120.1,32.7,120.1,32.7,120.1z M36.3,119.7c0-0.3,0.2-0.5,0.5-0.5l1.1-0.1
			c0.3,0,0.6,0.2,0.6,0.5c0,0.3-0.2,0.6-0.5,0.6l-1.1,0.1C36.6,120.3,36.3,120.1,36.3,119.7C36.3,119.8,36.3,119.7,36.3,119.7z
			 M40.5,119.4c0-0.3,0.2-0.5,0.5-0.5l1.1-0.1c0.3,0,0.5,0.2,0.6,0.5c0,0.3-0.2,0.5-0.5,0.6l-1.1,0.1
			C40.8,119.9,40.5,119.7,40.5,119.4C40.5,119.4,40.5,119.4,40.5,119.4z M44.8,119.2c0-0.3,0.2-0.5,0.5-0.5l1.1,0
			c0.3,0,0.5,0.2,0.5,0.5c0,0.3-0.2,0.5-0.5,0.5l-1.1,0C45,119.7,44.8,119.5,44.8,119.2C44.8,119.2,44.8,119.2,44.8,119.2z
			 M49,119.1C49,119.1,49,119.1,49,119.1c0-0.3,0.2-0.5,0.5-0.5l1.1,0c0.3,0,0.5,0.2,0.5,0.5c0,0,0,0,0,0c0,0.3-0.2,0.5-0.5,0.5
			l-1.1,0C49.3,119.7,49,119.4,49,119.1z M53.3,119.2C53.3,119.2,53.3,119.2,53.3,119.2c0-0.3,0.3-0.5,0.5-0.5l1.1,0
			c0.3,0,0.5,0.3,0.5,0.6c0,0.3-0.3,0.5-0.6,0.5l-1.1,0C53.5,119.7,53.3,119.5,53.3,119.2z M57.6,119.4
			C57.6,119.4,57.6,119.4,57.6,119.4c0-0.3,0.3-0.5,0.6-0.5l1.1,0.1c0.3,0,0.5,0.3,0.5,0.6c0,0.3-0.3,0.5-0.6,0.5l-1.1-0.1
			C57.8,119.9,57.6,119.7,57.6,119.4z M61.8,119.6C61.8,119.6,61.8,119.6,61.8,119.6c0-0.3,0.3-0.6,0.6-0.5l1.1,0.1
			c0.3,0,0.5,0.3,0.5,0.6c0,0.3-0.3,0.5-0.6,0.5l-1.1-0.1C62,120.1,61.8,119.9,61.8,119.6z M66.1,119.9
			C66.1,119.9,66.1,119.9,66.1,119.9c0-0.3,0.3-0.6,0.6-0.5l1.1,0.1c0.3,0,0.5,0.3,0.5,0.6c0,0.3-0.3,0.5-0.6,0.5l-1.1-0.1
			C66.3,120.4,66.1,120.2,66.1,119.9z M70.3,120.2C70.3,120.2,70.3,120.2,70.3,120.2c0-0.3,0.3-0.6,0.6-0.5l1.1,0.1
			c0.3,0,0.5,0.3,0.5,0.6c0,0.3-0.3,0.5-0.6,0.5l-1.1-0.1C70.5,120.7,70.3,120.5,70.3,120.2z M74.6,120.5
			C74.6,120.5,74.6,120.5,74.6,120.5c0-0.3,0.3-0.6,0.6-0.5l1.1,0.1c0.3,0,0.5,0.2,0.5,0.6c0,0.3-0.3,0.5-0.6,0.5l-1.1-0.1
			C74.8,121,74.6,120.8,74.6,120.5z M78.8,120.8C78.8,120.7,78.8,120.7,78.8,120.8c0-0.3,0.3-0.5,0.6-0.5l1.1,0
			c0.3,0,0.5,0.2,0.5,0.6c0,0.3-0.3,0.5-0.6,0.5l-1.1,0C79.1,121.3,78.8,121,78.8,120.8z M83.1,120.9
			C83.1,120.9,83.1,120.9,83.1,120.9c0-0.3,0.2-0.5,0.5-0.5l0.9,0l0.1,0c0.3,0,0.5,0.2,0.5,0.5c0,0.3-0.2,0.5-0.5,0.5l-0.1,0l-1,0
			C83.3,121.4,83.1,121.2,83.1,120.9z M87.3,120.8c0-0.3,0.2-0.5,0.5-0.5c0.4,0,0.7,0,1.1,0c0.3,0,0.5,0.2,0.6,0.5
			c0,0.3-0.2,0.5-0.5,0.6c-0.3,0-0.7,0-1.1,0C87.6,121.4,87.4,121.1,87.3,120.8C87.3,120.8,87.3,120.8,87.3,120.8z M91.6,120.6
			c0-0.3,0.2-0.5,0.5-0.5l1.1-0.1c0.3,0,0.6,0.2,0.6,0.5c0,0.3-0.2,0.6-0.5,0.6l-1.1,0.1C91.9,121.1,91.6,120.9,91.6,120.6
			C91.6,120.6,91.6,120.6,91.6,120.6z M95.8,120.2c0-0.3,0.2-0.5,0.5-0.5l1.1-0.1c0.3,0,0.6,0.2,0.6,0.5c0,0.3-0.2,0.6-0.5,0.6
			l-1.1,0.1C96.1,120.7,95.9,120.5,95.8,120.2C95.8,120.2,95.8,120.2,95.8,120.2z M100.1,119.6c0-0.3,0.2-0.5,0.5-0.5l1.1-0.1
			c0.3,0,0.6,0.2,0.6,0.5c0,0.3-0.2,0.6-0.5,0.6l-1.1,0.1C100.4,120.2,100.1,120,100.1,119.6C100.1,119.7,100.1,119.6,100.1,119.6z
			 M104.3,119.1c0-0.3,0.2-0.5,0.5-0.5l1.1-0.1c0.3,0,0.6,0.2,0.6,0.5c0,0.3-0.2,0.6-0.5,0.6l-1.1,0.1
			C104.6,119.7,104.3,119.4,104.3,119.1C104.3,119.1,104.3,119.1,104.3,119.1z M108.5,118.8c0-0.3,0.2-0.5,0.5-0.5
			c0.4,0,0.7,0,1.1,0c0.3,0,0.5,0.2,0.5,0.5c0,0,0,0,0,0c0,0.3-0.2,0.5-0.5,0.5c-0.4,0-0.7,0-1.1,0
			C108.8,119.4,108.6,119.1,108.5,118.8C108.5,118.8,108.5,118.8,108.5,118.8z M112.8,118.8C112.8,118.8,112.8,118.8,112.8,118.8
			c0-0.3,0.2-0.5,0.5-0.5l1.1,0c0.3,0,0.5,0.3,0.5,0.5c0,0.3-0.3,0.5-0.5,0.5l-1.1,0C113,119.4,112.8,119.1,112.8,118.8z M117.1,119
			C117.1,118.9,117.1,118.9,117.1,119c0-0.3,0.3-0.5,0.6-0.5l1.1,0c0.3,0,0.5,0.3,0.5,0.6c0,0.3-0.3,0.5-0.6,0.5l-1.1,0
			C117.3,119.5,117.1,119.2,117.1,119z M121.3,119.2C121.3,119.1,121.3,119.1,121.3,119.2c0-0.3,0.3-0.5,0.6-0.5l1.1,0.1
			c0.3,0,0.5,0.3,0.5,0.6c0,0.3-0.3,0.5-0.6,0.5l-1.1-0.1C121.5,119.7,121.3,119.4,121.3,119.2z M125.6,119.4
			C125.6,119.4,125.6,119.3,125.6,119.4c0-0.3,0.3-0.5,0.6-0.5l1.1,0c0.3,0,0.5,0.3,0.5,0.6c0,0.3-0.3,0.5-0.6,0.5l-1.1,0
			C125.8,119.9,125.6,119.6,125.6,119.4z M129.8,119.5C129.8,119.5,129.8,119.5,129.8,119.5c0-0.3,0.3-0.5,0.5-0.5l1.1,0
			c0.3,0,0.5,0.2,0.5,0.5c0,0.3-0.2,0.5-0.5,0.5l-1.1,0C130.1,120.1,129.8,119.8,129.8,119.5z"/>
		<path id="XMLID_48639_" fill="#FFFFFF" d="M45,122.8C45,122.8,45,122.8,45,122.8c0-0.2,0.2-0.4,0.4-0.4l1.1,0
			c0.2,0,0.4,0.2,0.4,0.4c0,0.2-0.2,0.4-0.4,0.4l-1.1,0C45.2,123.2,45,123,45,122.8z M48.2,122.9C48.2,122.9,48.2,122.9,48.2,122.9
			c0-0.2,0.2-0.4,0.4-0.4l1.1,0c0.2,0,0.4,0.2,0.4,0.4c0,0.2-0.2,0.4-0.4,0.4l-1.1,0C48.4,123.3,48.2,123.1,48.2,122.9z M51.4,123
			C51.4,123,51.4,123,51.4,123c0-0.2,0.2-0.4,0.4-0.4l1.1,0c0.2,0,0.4,0.2,0.4,0.4c0,0.2-0.2,0.4-0.4,0.4l-1.1,0
			C51.6,123.4,51.4,123.2,51.4,123z M54.6,123.1C54.6,123.1,54.6,123.1,54.6,123.1c0-0.2,0.2-0.4,0.4-0.4l1,0c0.2,0,0.4,0.2,0.4,0.4
			c0,0.2-0.1,0.4-0.3,0.4l-0.1,0l-1,0C54.8,123.5,54.6,123.3,54.6,123.1z M57.8,123.2C57.8,123.2,57.8,123.2,57.8,123.2
			c0-0.2,0.2-0.4,0.4-0.4l1.1,0c0.2,0,0.4,0.2,0.4,0.4c0,0.2-0.2,0.4-0.4,0.4l-1.1,0C58,123.6,57.8,123.4,57.8,123.2z M61,123.3
			C61,123.3,61,123.3,61,123.3c0-0.2,0.2-0.4,0.4-0.4l1.1,0c0.2,0,0.4,0.1,0.4,0.4c0,0.2-0.2,0.4-0.4,0.4l-1.1,0
			C61.2,123.6,61,123.5,61,123.3z M64.2,123.3C64.2,123.3,64.2,123.3,64.2,123.3c0-0.2,0.2-0.4,0.4-0.4l1.1,0c0.2,0,0.4,0.2,0.4,0.4
			c0,0.2-0.2,0.4-0.4,0.4l-1.1,0C64.4,123.7,64.2,123.5,64.2,123.3z M67.4,123.4C67.4,123.4,67.4,123.4,67.4,123.4
			c0-0.2,0.2-0.4,0.4-0.4l1.1,0l0,0.4l0,0.4l-1.1,0C67.6,123.7,67.4,123.6,67.4,123.4z M70.6,123.4
			C70.6,123.4,70.6,123.4,70.6,123.4c0-0.2,0.2-0.4,0.4-0.4l1.1,0l0,0.4l0,0.4l-1.1,0C70.8,123.8,70.6,123.6,70.6,123.4z
			 M73.8,123.4C73.8,123.4,73.8,123.4,73.8,123.4c0-0.2,0.2-0.4,0.4-0.4l1,0l0,0.4l0,0.4l-1,0C73.9,123.8,73.8,123.6,73.8,123.4z
			 M77,123.4L77,123.4c0-0.2,0.2-0.4,0.4-0.4l1.1,0c0.2,0,0.4,0.2,0.4,0.4v0c0,0.2-0.2,0.4-0.4,0.4l-1.1,0
			C77.1,123.8,77,123.7,77,123.4z M80.2,123.5c0-0.2,0.2-0.4,0.4-0.4l1.1,0c0.2,0,0.4,0.2,0.4,0.4v0c0,0.2-0.2,0.4-0.4,0.4l-1.1,0
			C80.4,123.8,80.2,123.7,80.2,123.5L80.2,123.5z M83.4,123.4c0-0.2,0.2-0.4,0.4-0.4l1.1,0c0.2,0,0.4,0.2,0.4,0.4c0,0,0,0,0,0
			c0,0.2-0.2,0.4-0.4,0.4l-1.1,0C83.6,123.8,83.4,123.6,83.4,123.4C83.4,123.4,83.4,123.4,83.4,123.4z M86.6,123.4
			c0-0.2,0.2-0.4,0.4-0.4l1.1,0c0.2,0,0.4,0.2,0.4,0.4c0,0.2-0.2,0.4-0.4,0.4l-1.1,0C86.8,123.8,86.6,123.6,86.6,123.4
			C86.6,123.4,86.6,123.4,86.6,123.4z M89.8,123.3c0-0.2,0.2-0.4,0.4-0.4c0.3,0,0.7,0,1.1,0c0.2,0,0.4,0.2,0.4,0.4c0,0,0,0,0,0
			c0,0.2-0.2,0.4-0.4,0.4c-0.4,0-0.7,0-1.1,0C90,123.7,89.8,123.5,89.8,123.3C89.8,123.3,89.8,123.3,89.8,123.3z M93,123.2
			c0-0.2,0.2-0.4,0.4-0.4l1.1,0c0.2,0,0.4,0.2,0.4,0.4v0c0,0.2-0.2,0.4-0.4,0.4l-1.1,0C93.1,123.6,93,123.4,93,123.2z M96.5,123.2
			l0-0.4l1.1,0c0.2,0,0.3,0.2,0.4,0.4c0,0.2-0.2,0.4-0.4,0.4l-1,0L96.5,123.2z M99.7,123.2l0-0.4l1.1,0c0.2,0,0.4,0.2,0.4,0.4
			c0,0.2-0.2,0.4-0.4,0.4l-1,0L99.7,123.2z M102.6,123.3C102.6,123.3,102.6,123.3,102.6,123.3c0-0.2,0.2-0.4,0.4-0.4l1,0
			c0.2,0,0.4,0.2,0.4,0.4c0,0.2-0.2,0.4-0.4,0.4l-1.1,0C102.7,123.7,102.6,123.5,102.6,123.3z M106.1,123.4l0-0.4l1.1,0
			c0.2,0,0.4,0.2,0.4,0.4c0,0.2-0.2,0.4-0.4,0.4l-1.1,0L106.1,123.4z M109,123.5C109,123.5,109,123.5,109,123.5
			c0-0.2,0.2-0.4,0.4-0.4l1.1,0c0.2,0,0.4,0.2,0.4,0.4c0,0,0,0,0,0c0,0.2-0.2,0.4-0.4,0.4l-1.1,0C109.1,123.9,109,123.7,109,123.5z
			 M112.2,123.6C112.2,123.6,112.2,123.6,112.2,123.6c0-0.2,0.2-0.4,0.4-0.4l1.1,0c0.2,0,0.4,0.2,0.4,0.4c0,0.2-0.2,0.4-0.4,0.4
			l-1.1,0C112.3,124,112.2,123.8,112.2,123.6z M115.4,123.7C115.4,123.7,115.4,123.7,115.4,123.7c0-0.2,0.2-0.4,0.4-0.4l1.1,0
			c0.2,0,0.4,0.2,0.4,0.4c0,0.2-0.2,0.4-0.4,0.4l-1.1,0C115.5,124.1,115.4,123.9,115.4,123.7z M118.6,123.9
			C118.6,123.9,118.6,123.9,118.6,123.9c0-0.2,0.2-0.4,0.4-0.4l1.1,0.1c0.2,0,0.4,0.2,0.4,0.4c0,0.2-0.2,0.4-0.4,0.4l-1.1-0.1
			C118.7,124.3,118.6,124.1,118.6,123.9z M121.7,124.1C121.7,124.1,121.7,124,121.7,124.1c0-0.2,0.2-0.4,0.4-0.4l1.1,0.1
			c0.2,0,0.4,0.2,0.3,0.4c0,0.2-0.2,0.4-0.4,0.3l-1.1-0.1C121.9,124.4,121.7,124.3,121.7,124.1z M124.9,124.3
			C124.9,124.3,124.9,124.2,124.9,124.3c0-0.2,0.2-0.4,0.4-0.4c0.4,0,0.8,0.1,1.1,0.1c0.2,0,0.4,0.2,0.3,0.4c0,0.2-0.2,0.4-0.4,0.3
			c-0.3,0-0.7-0.1-1.1-0.1C125.1,124.6,124.9,124.5,124.9,124.3z"/>
		<path id="XMLID_48638_" fill="#FFFFFF" d="M123.1,4.2c-7.4-1.4-14.7-2-14.9-0.7c-0.2,1.2,7.1,2.3,15.3,4.1
			c8.2,1.8,32.3,8.5,43.3,14c11,5.5,34.6,18.5,36.4,41.6c1.8,23.1-2.1,34.8-27.5,47.9s-43,15.6-56.3,15.8
			c-13.3,0.2-13.7-1.1-21.3,0.5c-7.6,1.6-12.3,1.4-12.3,1.4s32.5,1.6,47.6,0.9c15.1-0.7,41.7-7.5,51.1-13S216,98.9,216,74
			s-10.5-36.2-27-46.2S129.5,5.5,123.1,4.2z"/>
		<path id="XMLID_48637_" fill="#FFFFFF" d="M174.8,109.5c22.8-11.8,26.9-22,26.9-37.8c0-2.5-0.1-5.3-0.4-8.4
			c-1.8-23.3-27.1-35.9-35.4-40.1c-4.7-2.4-11.8-4.9-18.9-7.2c-5.2,3.4-13.8,14.6-13.8,51c0,20.2-1.6,39,11.1,54.6
			C152.9,119.4,162.9,115.7,174.8,109.5z"/>
		<path id="XMLID_48636_" fill="#FFFFFF" d="M86.3,129c-8,0.9-18.7-0.9-25.2-1.8c-8.5-1.2-16.9-3.9-28.1-1.5
			c-12,2.5-18.2,4.4-20.1,3.1c-1.9-1.3,8.3-5.6,14.3-6.5c6-0.9,30,1.5,39.2,2.5c9.2,1.1,23.5,3.5,27,3.9
			C90.8,129.3,86.3,129,86.3,129z"/>
		<path id="XMLID_48633_" fill="#E4E5E6" d="M110.2,42.5c0-2.7-2.6-4.6-6.1-4.9c-3.4-0.3-5.8,2.3-5.8,5c0,2.7,2.4,4.8,5.8,4.8
			S110.2,45.2,110.2,42.5z M101,42.6c0-0.6,0.3-1.2,0.7-1.6c0.4-0.4,1.1-0.8,2.1-0.7c1.8,0.1,3.6,0.9,3.6,2.2c0,1-1.4,2.2-3.4,2.2
			C102.3,44.7,101,43.8,101,42.6z"/>
		<path id="XMLID_48630_" fill="#E4E5E6" d="M116.5,97.2c0.2,2.7-2.2,4.8-5.7,5.4c-3.3,0.5-5.9-1.8-6.2-4.5c-0.2-2.7,2-5,5.3-5.3
			C113.4,92.6,116.3,94.6,116.5,97.2z M107.3,97.9c0,0.6,0.4,1.1,0.9,1.5c0.4,0.3,1.1,0.7,2.2,0.5c1.8-0.3,3.5-1.2,3.4-2.5
			c-0.1-1-1.6-2-3.6-1.9C108.5,95.8,107.2,96.7,107.3,97.9z"/>
		<path id="XMLID_48627_" fill="#E4E5E6" d="M95.6,98.6c0.2,2.7-2,4.8-5.2,5.3c-3.1,0.5-5.5-1.8-5.7-4.5c-0.2-2.7,1.8-5,4.9-5.2
			C92.7,94,95.4,96,95.6,98.6z M87.2,99.3c0,0.6,0.3,1.1,0.8,1.5c0.4,0.3,1,0.7,2,0.5c1.6-0.3,3.2-1.2,3.1-2.4c-0.1-1-1.5-2-3.3-1.9
			C88.2,97.1,87.1,98.1,87.2,99.3z"/>
		<path id="XMLID_48624_" fill="#E4E5E6" d="M74.6,99c0.2,2.7-2,4.8-5.2,5.3c-3.1,0.5-5.5-1.8-5.7-4.5c-0.2-2.7,1.8-5,4.9-5.2
			C71.6,94.4,74.3,96.4,74.6,99z M66.1,99.7c0,0.6,0.3,1.1,0.8,1.5c0.4,0.3,1,0.7,2,0.5c1.6-0.3,3.2-1.2,3.1-2.4
			c-0.1-1-1.5-2-3.3-1.9C67.1,97.5,66,98.5,66.1,99.7z"/>
		<path id="XMLID_48621_" fill="#E4E5E6" d="M90.9,39.3c-0.4-2.1-2.5-3.7-5.3-4.1c-2.9-0.4-5.2,1.6-5.2,4.2c0,2.8,2.6,5,6,4.7
			C89.4,43.8,91.3,41.6,90.9,39.3z M83.1,39.3c0-0.5,0.2-1.1,0.6-1.5c0.3-0.3,0.9-0.6,1.8-0.5c1.5,0.2,3,0.9,3.2,1.9
			c0.1,0.9-0.9,2-2.7,2C84.5,41.3,83.2,40.5,83.1,39.3z"/>
		<path id="XMLID_48618_" fill="#E4E5E6" d="M73.1,37.1c-0.2-2.6-2.7-4.4-6-4.8c-3.2-0.3-5.6,2-5.6,4.7c0,2.7,2.5,4.9,5.9,4.9
			C70.7,42,73.2,39.8,73.1,37.1z M64.2,37.1c0-0.6,0.2-1.1,0.7-1.5c0.4-0.3,1-0.7,2-0.6c1.7,0.2,3.5,1,3.5,2.2
			c0.1,1-1.2,2.1-3.2,2.1C65.5,39.2,64.2,38.3,64.2,37.1z"/>
		<path id="XMLID_48617_" fill="#F0F2F3" d="M88.6,98.7l10-40.8c0,0,5,0.2,7.1,0.4c2.1,0.2-1.2,13.7-3.7,21.4s-7.5,19.4-9.2,20
			C91.1,100.4,88.6,98.7,88.6,98.7z"/>
		<path id="XMLID_48616_" fill="#F0F2F3" d="M107.2,42.8c0,0,2.7,12.9,2.8,18.6s2,21.7,2.9,27.9c1,6.2,0,7.6-2.2,7.8
			c-2.2,0.2-4.5-0.5-5-4.7c-0.4-4.2-3.8-36.8-3.8-40.8s-1.1-6.6,1.2-7.7C105.4,42.8,107.2,42.1,107.2,42.8z"/>
		<path id="XMLID_48615_" fill="#F0F2F3" d="M65.5,38.8c1.5,3.4,14.5,43,14.7,43.8c0.3,0.8,7.7,0.1,7.7,0.1s-9.7-24.6-11.5-28.5
			s-6.1-15-6.4-16S64.3,36.2,65.5,38.8z"/>
		<path id="XMLID_48614_" fill="#F0F2F3" d="M71.2,98.6c-1.2,0.8-4.3,0.5-4.3,0.1c0-0.4,9.3-22.5,10.1-29.6C77.9,62,77.4,54,77.4,54
			s5-0.4,6.1,0.1c1.2,0.4,1,0.4,0.9,1.7C84.3,57.1,77.1,94.4,71.2,98.6z"/>
		<path id="XMLID_48611_" fill="#E4E5E6" d="M57.1,104.3c0.2,2.7-2,4.8-5.2,5.3c-3.1,0.5-5.5-1.8-5.7-4.5c-0.2-2.7,1.8-5,4.9-5.2
			C54.1,99.6,56.8,101.6,57.1,104.3z M48.6,104.9c0,0.6,0.3,1.1,0.8,1.5c0.4,0.3,1,0.7,2,0.5c1.6-0.3,3.2-1.2,3.1-2.4
			c-0.1-1-1.5-2-3.3-1.9C49.6,102.8,48.5,103.7,48.6,104.9z"/>
		<path id="XMLID_48608_" fill="#E4E5E6" d="M52.6,31.1c-0.2-2.6-2.7-4.4-6-4.8C43.3,26,41,28.4,41,31c0,2.7,2.5,4.9,5.9,4.9
			C50.2,36,52.7,33.8,52.6,31.1z M43.7,31.1c0-0.6,0.2-1.1,0.7-1.5c0.4-0.3,1-0.7,2-0.6c1.7,0.2,3.5,1,3.5,2.2
			c0.1,1-1.2,2.1-3.2,2.1C45,33.2,43.7,32.3,43.7,31.1z"/>
		<path id="XMLID_48607_" fill="#F0F2F3" d="M44.8,32.8c1.5,3.4,16.7,50,16.9,50.8c0.3,0.8,7.7-0.9,7.7-0.9s-9.7-24.6-11.5-28.5
			c-1.9-3.9-8.3-21-8.6-22C49,31.3,43.6,30.2,44.8,32.8z"/>
		<path id="XMLID_48606_" fill="#F0F2F3" d="M52.7,104.6c-1.2,0.8-4.3,0.5-4.3,0.1c0-0.4,8.3-26.5,9.1-33.6S60.9,56,60.9,56
			s5-0.4,6.1,0.1C68.1,56.6,58.6,100.4,52.7,104.6z"/>
		<path id="XMLID_48605_" fill="#F0F2F3" d="M84.5,40.2c0,0,14.8,35.2,13.5,43.1c0,0,4.6-0.6,8.1,0.4c0,0-10.4-39.1-18.5-43.9
			C87.6,39.8,84.7,38.1,84.5,40.2z"/>
		<path id="XMLID_48582_" fill="#FFFFFF" d="M45.9,3.4C45.9,3.4,45.9,3.4,45.9,3.4c0-0.3,0.3-0.6,0.6-0.5c0.2,0,0.5,0,0.8,0.1
			c0.3,0,0.5,0.3,0.4,0.6c0,0.3-0.3,0.5-0.6,0.4C46.8,4,46.6,4,46.4,4C46.1,3.9,45.9,3.7,45.9,3.4z M49.8,4.1c0,0,0-0.1,0-0.1
			c0.1-0.3,0.4-0.5,0.6-0.4l1,0.2c0.3,0.1,0.5,0.4,0.4,0.6c-0.1,0.3-0.4,0.5-0.6,0.4l-1-0.2C50,4.6,49.8,4.4,49.8,4.1z M53.9,5.2
			c0,0,0-0.1,0-0.1c0.1-0.3,0.4-0.5,0.6-0.4l1,0.3C55.9,5,56.1,5.3,56,5.5C56,5.8,55.7,6,55.4,5.9l-1-0.3
			C54.1,5.6,53.9,5.4,53.9,5.2z M58.1,6.2c0,0,0-0.1,0-0.1c0.1-0.3,0.4-0.5,0.7-0.4l1,0.3c0.3,0.1,0.4,0.4,0.4,0.7
			c-0.1,0.3-0.4,0.5-0.7,0.4l-1-0.3C58.2,6.7,58.1,6.5,58.1,6.2z M62.2,7.4c0,0,0-0.1,0-0.1c0.1-0.3,0.4-0.4,0.7-0.4l1,0.3
			c0.3,0.1,0.4,0.4,0.4,0.7c-0.1,0.3-0.4,0.4-0.7,0.4l-1-0.3C62.3,7.8,62.2,7.6,62.2,7.4z M66.3,8.6c0-0.1,0-0.1,0-0.2
			C66.4,8.1,66.7,8,67,8.1l1,0.3c0.3,0.1,0.4,0.4,0.4,0.7c-0.1,0.3-0.4,0.4-0.7,0.4l-1-0.3C66.4,9,66.3,8.8,66.3,8.6z M70.4,9.9
			c0-0.1,0-0.1,0-0.2c0.1-0.3,0.4-0.4,0.7-0.3c0.3,0.1,0.7,0.2,1,0.3c0.3,0.1,0.4,0.4,0.3,0.7c-0.1,0.3-0.4,0.4-0.7,0.3l-1-0.3
			C70.5,10.3,70.4,10.1,70.4,9.9z M74.4,11.3c0-0.1,0-0.1,0-0.2c0.1-0.3,0.4-0.4,0.7-0.3c0.4,0.1,0.7,0.3,1,0.4
			c0.3,0.1,0.4,0.4,0.3,0.7c-0.1,0.3-0.4,0.4-0.7,0.3c-0.3-0.1-0.6-0.3-1-0.4C74.5,11.7,74.4,11.5,74.4,11.3z M78.3,12.9
			c0-0.1,0-0.1,0-0.2c0.1-0.3,0.4-0.4,0.7-0.3c0.3,0.1,0.7,0.2,1,0.3c0.3,0.1,0.4,0.4,0.4,0.7c-0.1,0.3-0.4,0.4-0.7,0.4
			c-0.4-0.1-0.7-0.2-1-0.3C78.5,13.3,78.3,13.1,78.3,12.9z M82.5,13.9c0,0,0-0.1,0-0.1c0.1-0.3,0.3-0.5,0.6-0.4
			c0.3,0.1,0.7,0.1,1,0.2c0.3,0.1,0.5,0.3,0.4,0.6c-0.1,0.3-0.3,0.5-0.6,0.4c-0.4-0.1-0.7-0.1-1.1-0.2
			C82.6,14.4,82.5,14.2,82.5,13.9z M86.7,14.7C86.7,14.6,86.7,14.6,86.7,14.7c0-0.4,0.3-0.6,0.6-0.5l1,0.2c0.3,0,0.5,0.3,0.5,0.6
			c0,0.3-0.3,0.5-0.6,0.5l-1.1-0.2C86.9,15.1,86.7,14.9,86.7,14.7z M90.9,15.2C90.9,15.2,90.9,15.2,90.9,15.2c0-0.4,0.3-0.6,0.6-0.5
			l1.1,0.1c0.3,0,0.5,0.3,0.5,0.6c0,0.3-0.3,0.5-0.6,0.5l-1.1-0.1C91.1,15.7,90.9,15.5,90.9,15.2z M95.1,15.8
			C95.1,15.7,95.1,15.7,95.1,15.8c0-0.4,0.3-0.6,0.6-0.5l1.1,0.1c0.3,0,0.5,0.3,0.5,0.6c0,0.3-0.3,0.5-0.6,0.5l-1.1-0.1
			C95.3,16.3,95.1,16,95.1,15.8z M99.4,16.3C99.4,16.3,99.4,16.2,99.4,16.3c0-0.4,0.3-0.6,0.6-0.5l1.1,0.1c0.3,0,0.5,0.3,0.5,0.6
			c0,0.3-0.3,0.5-0.6,0.5l-1.1-0.1C99.6,16.8,99.4,16.5,99.4,16.3z M103.6,16.7C103.6,16.7,103.6,16.7,103.6,16.7
			c0-0.3,0.3-0.6,0.6-0.5c0.3,0,0.7,0,1.1,0.1c0.3,0,0.5,0.3,0.5,0.6c0,0.3-0.3,0.5-0.6,0.5c-0.4,0-0.7,0-1.1-0.1
			C103.8,17.3,103.6,17,103.6,16.7z M107.9,16.9C107.9,16.9,107.9,16.9,107.9,16.9c0-0.3,0.2-0.5,0.5-0.5l1.1,0
			c0.3,0,0.5,0.2,0.5,0.5c0,0,0,0,0,0c0,0.3-0.2,0.5-0.5,0.5l-1.1,0C108.1,17.4,107.9,17.2,107.9,16.9z M112.1,16.9
			c0-0.3,0.2-0.5,0.5-0.5l1.1,0c0.3,0,0.5,0.2,0.5,0.5c0,0,0,0,0,0c0,0.3-0.2,0.5-0.5,0.5l-1.1,0C112.4,17.4,112.1,17.2,112.1,16.9
			C112.1,16.9,112.1,16.9,112.1,16.9z M116.4,16.8c0-0.3,0.2-0.5,0.5-0.5l1.1,0c0.3,0,0.5,0.2,0.5,0.5c0,0.3-0.2,0.5-0.5,0.5l-1.1,0
			C116.6,17.4,116.4,17.1,116.4,16.8C116.4,16.8,116.4,16.8,116.4,16.8z M120.7,16.7c0-0.3,0.2-0.5,0.5-0.5l1.1,0
			c0.3,0,0.5,0.2,0.6,0.5c0,0.3-0.2,0.5-0.5,0.6l-1.1,0C120.9,17.3,120.7,17,120.7,16.7C120.7,16.7,120.7,16.7,120.7,16.7z
			 M124.9,16.6c0-0.3,0.2-0.5,0.5-0.5l1.1,0c0.3,0,0.5,0.2,0.6,0.5c0,0.3-0.2,0.5-0.5,0.6l-1.1,0C125.2,17.1,124.9,16.9,124.9,16.6
			C124.9,16.6,124.9,16.6,124.9,16.6z M129.2,16.4c0-0.3,0.2-0.5,0.5-0.5l1.1,0c0.3,0,0.5,0.2,0.6,0.5c0,0.3-0.2,0.5-0.5,0.6l-1.1,0
			C129.4,16.9,129.2,16.7,129.2,16.4C129.2,16.4,129.2,16.4,129.2,16.4z M133.4,16.2c0-0.3,0.2-0.5,0.5-0.5l1.1,0
			c0.3,0,0.5,0.2,0.5,0.5c0,0.3-0.2,0.5-0.5,0.5l-1.1,0C133.7,16.8,133.4,16.5,133.4,16.2C133.4,16.2,133.4,16.2,133.4,16.2z"/>
	</g>
</g>
</svg>
