<?xml version="1.0" encoding="utf-8"?>
<!-- Generator: Adobe Illustrator 17.1.0, SVG Export Plug-In . SVG Version: 6.00 Build 0)  -->
<!DOCTYPE svg PUBLIC "-//W3C//DTD SVG 1.1//EN" "http://www.w3.org/Graphics/SVG/1.1/DTD/svg11.dtd">
<svg version="1.1" id="Layer_1" xmlns="http://www.w3.org/2000/svg" xmlns:xlink="http://www.w3.org/1999/xlink" x="0px" y="0px"
	 viewBox="0 0 303.8 196" enable-background="new 0 0 303.8 196" xml:space="preserve">
<g>
	<path fill="#F6EBD3" d="M12.4,58.3c-2,0-3.7-0.3-5.2-1c-1.5-0.7-2.6-1.5-3.5-2.6c-0.9-1.1-1.6-2.4-2.1-4.1c-0.5-1.7-0.9-3.3-1.1-5
		C0.2,44,0.1,42,0,39.8C0,38,0,36.2,0,34.4c0-2.2,0.2-4.1,0.4-5.8c0.2-1.7,0.6-3.3,1.1-5c0.5-1.7,1.3-3,2.1-4.1
		c0.9-1.1,2-1.9,3.5-2.6c1.5-0.7,3.2-1,5.2-1c4.3,0,7.5,1.2,9.3,3.5c1.9,2.3,2.9,5.8,3,10.4v1.1h-8.2v-1.2c0-1-0.1-1.9-0.2-2.7
		s-0.3-1.5-0.6-2.3S15,23.4,14.5,23c-0.6-0.4-1.3-0.6-2.1-0.6s-1.5,0.2-2.1,0.7s-1,1.2-1.3,2.1C8.8,26,8.6,27,8.4,27.9
		c-0.1,1-0.2,2.1-0.2,3.3c-0.1,2.7-0.1,6.7,0,12.1c0,1.2,0.1,2.2,0.3,3.1c0.1,0.9,0.3,1.8,0.6,2.6c0.3,0.8,0.7,1.5,1.3,1.9
		s1.2,0.7,2,0.7c0.7,0,1.4-0.1,1.9-0.4c0.5-0.3,0.9-0.6,1.2-1c0.3-0.4,0.5-1,0.7-1.6c0.2-0.7,0.3-1.3,0.3-1.9c0-0.6,0.1-1.3,0.1-2.2
		v-1h8.2v1.1c-0.1,2.2-0.3,4.1-0.8,5.8c-0.5,1.7-1.2,3.1-2.1,4.4c-1,1.2-2.2,2.2-3.8,2.9C16.4,58,14.6,58.3,12.4,58.3z"/>
	<path fill="#F6EBD3" d="M29.9,57.8V0h8.2v20.9c1.2-1.1,2.2-2,3-2.6c0.8-0.6,1.8-1.1,3.2-1.7c1.4-0.5,2.8-0.8,4.4-0.8
		c1.8,0,3.2,0.6,4.3,1.9s1.6,2.9,1.6,4.7v35.2h-8.2V26.8c0-1.4-0.2-2.5-0.5-3.1c-0.4-0.7-1.1-1-2.3-1c-1.7,0-3.5,0.8-5.4,2.4v32.6
		H29.9z"/>
	<path fill="#F6EBD3" d="M83,54.5c-1.9,2.6-5.1,3.9-9.5,3.9S65.9,57,64,54.5s-2.9-6.3-2.9-11.2V30.9c0-4.9,1-8.6,2.9-11.2
		s5.1-3.9,9.5-3.9s7.6,1.3,9.5,3.9s2.9,6.3,2.9,11.2v12.4C85.8,48.2,84.9,51.9,83,54.5z M71.9,51.3c0.4,0.2,1,0.3,1.5,0.3
		s1.1-0.1,1.5-0.3c0.4-0.2,0.8-0.4,1.1-0.6c0.3-0.2,0.5-0.6,0.7-1.1s0.3-0.9,0.5-1.3c0.1-0.4,0.2-0.9,0.2-1.6c0-0.7,0.1-1.2,0.1-1.6
		c0-0.4,0-1,0-1.8V30.9c0-0.8,0-1.4,0-1.8c0-0.4,0-0.9-0.1-1.6c0-0.7-0.1-1.2-0.2-1.6c-0.1-0.4-0.3-0.8-0.5-1.3s-0.4-0.8-0.7-1.1
		c-0.3-0.2-0.7-0.5-1.1-0.6c-0.4-0.2-1-0.3-1.5-0.3s-1.1,0.1-1.5,0.3c-0.4,0.2-0.8,0.4-1.1,0.6c-0.3,0.2-0.5,0.6-0.7,1.1
		s-0.3,0.9-0.5,1.3c-0.1,0.4-0.2,0.9-0.2,1.6c0,0.7-0.1,1.2-0.1,1.6c0,0.4,0,1,0,1.8v12.4c0,0.8,0,1.4,0,1.8c0,0.4,0,0.9,0.1,1.6
		c0,0.7,0.1,1.2,0.2,1.6c0.1,0.4,0.3,0.8,0.5,1.3s0.4,0.8,0.7,1.1C71.1,50.9,71.5,51.1,71.9,51.3z"/>
	<path fill="#F6EBD3" d="M113.7,54.5c-1.9,2.6-5.1,3.9-9.5,3.9s-7.6-1.3-9.5-3.9s-2.9-6.3-2.9-11.2V30.9c0-4.9,1-8.6,2.9-11.2
		s5.1-3.9,9.5-3.9s7.6,1.3,9.5,3.9s2.9,6.3,2.9,11.2v12.4C116.6,48.2,115.6,51.9,113.7,54.5z M102.7,51.3c0.4,0.2,1,0.3,1.5,0.3
		s1.1-0.1,1.5-0.3c0.4-0.2,0.8-0.4,1.1-0.6c0.3-0.2,0.5-0.6,0.7-1.1s0.3-0.9,0.5-1.3c0.1-0.4,0.2-0.9,0.2-1.6c0-0.7,0.1-1.2,0.1-1.6
		c0-0.4,0-1,0-1.8V30.9c0-0.8,0-1.4,0-1.8c0-0.4,0-0.9-0.1-1.6c0-0.7-0.1-1.2-0.2-1.6c-0.1-0.4-0.3-0.8-0.5-1.3s-0.4-0.8-0.7-1.1
		c-0.3-0.2-0.7-0.5-1.1-0.6c-0.4-0.2-1-0.3-1.5-0.3s-1.1,0.1-1.5,0.3c-0.4,0.2-0.8,0.4-1.1,0.6c-0.3,0.2-0.5,0.6-0.7,1.1
		s-0.3,0.9-0.5,1.3c-0.1,0.4-0.2,0.9-0.2,1.6c0,0.7-0.1,1.2-0.1,1.6c0,0.4,0,1,0,1.8v12.4c0,0.8,0,1.4,0,1.8c0,0.4,0,0.9,0.1,1.6
		c0,0.7,0.1,1.2,0.2,1.6c0.1,0.4,0.3,0.8,0.5,1.3s0.4,0.8,0.7,1.1C101.9,50.9,102.2,51.1,102.7,51.3z"/>
	<path fill="#F6EBD3" d="M134.2,58.3c-3.4,0-6.1-1-8.2-3c-2.1-2-3.5-4.6-4.2-7.9l6.2-2.1c1.5,4.1,3.5,6.2,6.2,6.2
		c1.3,0,2.3-0.4,3-1.1c0.7-0.7,1.1-1.7,1.1-3c0-1.9-0.7-3.5-2.1-4.8l-8.2-6.2c-0.9-0.6-1.7-1.2-2.3-1.8s-1.3-1.2-1.9-2
		c-0.6-0.8-1.1-1.7-1.5-2.7c-0.3-1-0.5-2.1-0.5-3.2c0-3.5,1.1-6.2,3.4-8.1c2.2-1.9,5.2-2.8,9-2.8c1.8,0,3.4,0.3,4.8,0.9
		c1.4,0.6,2.6,1.4,3.6,2.4c1,1,1.8,2.2,2.4,3.4s1.1,2.7,1.5,4.2l-6.2,2.1c-0.3-0.8-0.6-1.5-0.9-2.1c-0.3-0.6-0.7-1.2-1.2-1.9
		c-0.5-0.7-1.1-1.2-1.8-1.6c-0.7-0.4-1.5-0.6-2.3-0.6c-1.3,0-2.3,0.4-3,1.1c-0.7,0.7-1.1,1.7-1.1,3c0,1.3,0.7,2.4,2.1,3.5l8.2,6.2
		c0.9,0.7,1.7,1.4,2.4,2.1s1.3,1.5,1.9,2.4c0.6,0.9,1.1,1.9,1.4,3s0.5,2.3,0.5,3.5c0,3.5-1.1,6.2-3.4,8.1S137.9,58.3,134.2,58.3z"/>
	<path fill="#F6EBD3" d="M163.2,58.3c-2,0-3.7-0.3-5.2-1c-1.5-0.7-2.6-1.6-3.5-2.7c-0.9-1.1-1.6-2.5-2.1-4.3
		c-0.5-1.7-0.9-3.5-1.1-5.2c-0.2-1.7-0.3-3.7-0.4-6c-0.1-1.8-0.1-3.6,0-5.4c0.1-2.1,0.2-4.1,0.4-5.7c0.2-1.7,0.6-3.3,1.2-4.9
		c0.6-1.6,1.3-2.9,2.2-3.9c0.9-1,2.1-1.8,3.5-2.4c1.4-0.6,3.1-0.9,5.1-0.9c1.8,0,3.3,0.2,4.7,0.7c1.3,0.5,2.5,1.2,3.4,2.1
		c0.9,0.9,1.6,2,2.2,3.1c0.6,1.1,1,2.5,1.3,4.1c0.3,1.6,0.5,3.2,0.6,4.8c0.1,1.6,0.2,3.4,0.2,5.4v1h-16.5v2.1c0,0.3,0,0.7,0,1.3
		c0,0.8,0,1.6,0,2.5c0,0.8,0.1,1.7,0.1,2.5c0,0.8,0.2,1.6,0.4,2.3s0.4,1.4,0.7,1.9c0.3,0.6,0.7,1,1.2,1.3c0.5,0.3,1.1,0.5,1.8,0.5
		c0.9,0,1.6-0.2,2.1-0.5c0.6-0.3,1-0.8,1.2-1.5c0.3-0.7,0.5-1.3,0.6-2c0.1-0.7,0.2-1.5,0.2-2.5v-1.7h8.2V45c-0.2,4.4-1.3,7.7-3.3,10
		S167.3,58.3,163.2,58.3z M159.2,33h8.2v-2.5c0-1.1-0.1-2.1-0.2-2.9c-0.1-0.8-0.3-1.6-0.6-2.4c-0.3-0.8-0.7-1.4-1.2-1.9
		c-0.6-0.4-1.2-0.6-2.1-0.6c-0.8,0-1.5,0.2-2.1,0.7c-0.6,0.5-1,1.1-1.3,1.9c-0.3,0.8-0.5,1.7-0.6,2.5c-0.1,0.8-0.2,1.8-0.2,2.9V33z"
		/>
	<path fill="#F6EBD3" d="M194,68.1v-6.2c1.6,0,2.9-0.1,3.9-0.3c1-0.2,1.7-0.6,2.2-1.1s0.8-1.1,1-1.8c0.1-0.7,0.2-1.6,0.2-2.7
		l-9.3-39.4h8.2c3.2,17.7,4.9,27.3,5.2,28.9c0.5-2.9,1-6,1.5-9.2c0.6-3.2,1.2-6.8,1.9-10.6c0.7-3.9,1.3-6.9,1.7-9.1h8.2l-10.3,43.3
		c-0.7,3-2.1,5.1-4.4,6.4s-5.3,1.9-9.2,1.9H194z"/>
	<path fill="#F6EBD3" d="M243.7,54.5c-1.9,2.6-5.1,3.9-9.5,3.9s-7.6-1.3-9.5-3.9s-2.9-6.3-2.9-11.2V30.9c0-4.9,1-8.6,2.9-11.2
		s5.1-3.9,9.5-3.9s7.6,1.3,9.5,3.9s2.9,6.3,2.9,11.2v12.4C246.6,48.2,245.7,51.9,243.7,54.5z M232.7,51.3c0.4,0.2,1,0.3,1.5,0.3
		s1.1-0.1,1.5-0.3c0.4-0.2,0.8-0.4,1.1-0.6c0.3-0.2,0.5-0.6,0.7-1.1s0.3-0.9,0.5-1.3c0.1-0.4,0.2-0.9,0.2-1.6c0-0.7,0.1-1.2,0.1-1.6
		c0-0.4,0-1,0-1.8V30.9c0-0.8,0-1.4,0-1.8c0-0.4,0-0.9-0.1-1.6c0-0.7-0.1-1.2-0.2-1.6c-0.1-0.4-0.3-0.8-0.5-1.3s-0.4-0.8-0.7-1.1
		c-0.3-0.2-0.7-0.5-1.1-0.6c-0.4-0.2-1-0.3-1.5-0.3s-1.1,0.1-1.5,0.3c-0.4,0.2-0.8,0.4-1.1,0.6c-0.3,0.2-0.5,0.6-0.7,1.1
		s-0.3,0.9-0.5,1.3c-0.1,0.4-0.2,0.9-0.2,1.6c0,0.7-0.1,1.2-0.1,1.6c0,0.4,0,1,0,1.8v12.4c0,0.8,0,1.4,0,1.8c0,0.4,0,0.9,0.1,1.6
		c0,0.7,0.1,1.2,0.2,1.6c0.1,0.4,0.3,0.8,0.5,1.3s0.4,0.8,0.7,1.1C231.9,50.9,232.3,51.1,232.7,51.3z"/>
	<path fill="#F6EBD3" d="M259.3,58.3c-1.8,0-3.3-0.6-4.4-1.9c-1.1-1.3-1.6-2.9-1.6-4.8V16.5h8.2v32.6c0,0.9,0.3,1.6,0.8,2.1
		c0.5,0.5,1.2,0.8,2,0.8c0.5,0,0.9-0.1,1.3-0.2c0.4-0.1,0.9-0.3,1.3-0.6c0.4-0.3,0.7-0.5,1-0.6s0.6-0.4,1-0.8s0.7-0.6,0.8-0.7V16.5
		h8.2v41.2h-8.2v-4.4c-0.8,0.7-1.4,1.2-1.8,1.5s-1,0.8-1.7,1.3s-1.5,0.9-2,1.2c-0.6,0.2-1.3,0.5-2.2,0.7
		C261.1,58.2,260.2,58.3,259.3,58.3z"/>
	<path fill="#F6EBD3" d="M285.2,57.8V16.5h8.2V22c0.8-1.6,2.1-3.1,3.7-4.3c1.6-1.2,3.4-1.8,5.3-1.8c0.1,0,0.5,0,1.3,0.1v9.1
		c-1.5-0.6-3.1-0.9-4.6-0.9c-1.7,0-3.1,0.5-4.2,1.5s-1.6,2.4-1.6,4.1v27.8H285.2z"/>
</g>
<g>
	<g>
		<path fill="none" stroke="#F6EBD3" stroke-width="3" stroke-linecap="round" stroke-miterlimit="10" d="M17.9,194.5v-123h29.7
			c10.7,0,18.5,3,23.4,9c4.9,6,7.3,14.6,7.3,25.9c0,5.6-0.5,10.4-1.6,14.5c-1.1,4.1-2.6,7.5-4.5,10.2s-4.4,4.8-7.4,6.4
			c-3,1.6-6.3,2.8-9.8,3.4c-3.5,0.7-7.6,1-12.2,1.1v52.6H17.9z M43,124.3c1.3,0,2.5-0.1,3.5-0.2c1-0.2,1.9-0.3,2.7-0.5
			c0.8-0.2,1.5-0.6,2.1-1.1c0.6-0.5,1.1-1,1.5-1.4c0.4-0.4,0.7-1.1,1-2c0.3-0.9,0.5-1.7,0.6-2.3c0.1-0.6,0.2-1.5,0.3-2.9
			c0.1-1.3,0.1-2.4,0.1-3.2c0-0.8,0-2,0-3.7c0-0.5,0-0.8,0-1c0-1.8,0-3.1,0-4c0-0.9-0.1-2.1-0.2-3.5c-0.1-1.4-0.4-2.5-0.6-3.2
			c-0.3-0.7-0.7-1.5-1.3-2.4c-0.6-0.9-1.3-1.6-2.1-2s-1.9-0.8-3.1-1.1c-1.3-0.3-2.7-0.5-4.3-0.5V124.3z"/>
		<path fill="none" stroke="#F6EBD3" stroke-width="3" stroke-linecap="round" stroke-miterlimit="10" d="M74.3,194.5l26.6-123h22
			l26.5,123h-24.5l-5.1-26.3h-16.1l-4.8,26.3H74.3z M105.4,152.8h12.7l-6.2-45.7L105.4,152.8z"/>
		<path fill="none" stroke="#F6EBD3" stroke-width="3" stroke-linecap="round" stroke-miterlimit="10" d="M165.6,194.5V90h-18V71.4
			h60.6V90h-17.7v104.5H165.6z"/>
		<path fill="none" stroke="#F6EBD3" stroke-width="3" stroke-linecap="round" stroke-miterlimit="10" d="M216.4,194.5v-123h24.9
			v50.4h17.8V71.4h25v123h-25v-54.9h-17.8v54.9H216.4z"/>
	</g>
</g>
</svg>
