<?xml version="1.0" encoding="utf-8"?>
<!-- Generator: Adobe Illustrator 17.1.0, SVG Export Plug-In . SVG Version: 6.00 Build 0)  -->
<!DOCTYPE svg PUBLIC "-//W3C//DTD SVG 1.1//EN" "http://www.w3.org/Graphics/SVG/1.1/DTD/svg11.dtd">
<svg version="1.1" id="Layer_1" xmlns="http://www.w3.org/2000/svg" xmlns:xlink="http://www.w3.org/1999/xlink" x="0px" y="0px"
	 viewBox="0 0 232.1 131.2" enable-background="new 0 0 232.1 131.2" xml:space="preserve">
<g id="XMLID_9692_">
	<g id="XMLID_9693_">
		<path id="XMLID_9724_" fill="#FFFFFF" d="M0,0v100.1h232.1V0H0z"/>
		<g id="XMLID_9694_">
			<rect id="XMLID_9723_" x="137.3" y="2" fill="#798BC4" width="92.8" height="96.1"/>
			<path id="XMLID_9722_" fill="#FFFFFF" d="M222.1,49.4c0,21.2-17.2,38.3-38.3,38.3c-21.2,0-38.3-17.2-38.3-38.3
				c0-21.2,17.1-38.3,38.3-38.3C204.9,11.1,222.1,28.2,222.1,49.4z"/>
			<g id="XMLID_9713_">
				<g id="XMLID_9718_">
					<path id="XMLID_9721_" fill="#F8AE3F" d="M163.8,56.9c0.4-0.2,1.3-0.6,1.7-0.8c0.5-0.2,0.4-0.4,0.3-0.8
						c-0.6-1.8-0.9-3.8-0.9-5.8c0-10.4,8.4-18.9,18.8-18.9c10.4,0,18.8,8.5,18.8,18.9c0,2.7-0.6,5.2-1.6,7.5
						c-0.1,0.2-0.1,0.5,0.2,0.6c0.3,0.1,1.4,0.6,1.8,0.8c0.3,0.1,0.5,0.1,0.7-0.3c1.1-2.6,1.8-5.6,1.8-8.6c0-12-9.7-21.8-21.7-21.8
						c-12,0-21.7,9.8-21.7,21.8c0,2.5,0.4,4.8,1.2,7C163.3,56.9,163.5,57.1,163.8,56.9z"/>
					<path id="XMLID_9720_" fill="#F8AE3F" d="M158.3,59.5c0.5-0.2,2-0.9,2.4-1.1c0.4-0.2,0.3-0.5,0.3-0.7c-0.9-2.5-1.4-5.3-1.4-8.1
						c0-13.3,10.8-24.2,24.1-24.2c13.3,0,24.1,10.8,24.1,24.2c0,3.4-0.7,6.7-2,9.6c-0.1,0.2-0.2,0.5,0.2,0.7
						c0.4,0.2,2.1,0.9,2.4,1.1c0.3,0.1,0.6,0.1,0.7-0.3c1.5-3.4,2.3-7.1,2.3-11c0-15.3-12.5-27.8-27.8-27.8
						c-15.4,0-27.8,12.5-27.8,27.8c0,3.4,0.6,6.6,1.7,9.6C157.7,59.3,157.9,59.7,158.3,59.5z"/>
					<path id="XMLID_9719_" fill="#F8AE3F" d="M150.8,62.9c0.5-0.3,3.8-1.8,4.4-2c0.6-0.3,0.3-0.7,0.2-0.9
						c-1.2-3.3-1.9-6.8-1.9-10.4c0-16.7,13.5-30.2,30.2-30.2c16.6,0,30.2,13.5,30.2,30.2c0,4.2-0.9,8.2-2.4,11.9
						c-0.1,0.2-0.2,0.7,0.3,0.9c0.5,0.2,3.7,1.6,4.2,1.8c0.4,0.2,0.8,0.2,1-0.5c1.8-4.3,2.9-9.1,2.9-14.1
						c0-19.9-16.2-36.2-36.1-36.2c-19.9,0-36.1,16.2-36.1,36.2c0,4.6,0.9,9,2.4,13C150.1,62.7,150.3,63.2,150.8,62.9z"/>
				</g>
				<g id="XMLID_9715_">
					<path id="XMLID_9717_" fill="#ED5030" d="M183.7,41.6c2.1,0,3.9-1.7,3.9-3.9c0-2.2-1.7-3.9-3.9-3.9c-2.2,0-3.9,1.7-3.9,3.9
						C179.9,39.9,181.6,41.6,183.7,41.6z"/>
					<path id="XMLID_9716_" fill="#ED5030" d="M185.2,61.9c0.8,0,1.4-0.6,1.4-1.4v-8.5c0-1.1,0.8-2.5,1.5-3.3l8-8
						c0.5-0.5,0.5-1.4,0-1.9l-1.5-1.5c-0.5-0.5-1.4-0.5-1.9,0l-7.2,7.2c-0.5,0.5-0.8,0.8-1.7,0.8c-0.9,0-1.2-0.3-1.7-0.8l-7.2-7.2
						c-0.5-0.5-1.4-0.5-1.9,0l-1.5,1.5c-0.5,0.5-0.5,1.4,0,1.9l8,8c0.8,0.8,1.5,2.2,1.5,3.3v8.5c0,0.8,0.6,1.4,1.4,1.4H185.2z"/>
				</g>
				<path id="XMLID_9714_" fill="#0657A3" d="M210.4,64.9c-1.4,0.5-3.9,3-5,4L205,69c0.4-0.5,2.1-2.7,2.6-3.4
					c1.4-2.3-1.2-4.4-4.1-2.8c-1.1,0.6-2.9,2.5-3.8,3.2l-0.3,0.1c0.4-0.4,2-2.5,2.4-3.2c1.2-1.9-1.4-3.6-3.6-2.2
					c-1.6,1-2.9,2.3-4.2,3.3l-0.2,0.1c0.4-0.4,1.3-1.4,1.6-1.8c1.3-1.5-0.6-3.2-2.6-2.2c-1.9,1-4.7,3.8-7.7,5.7
					c1.4,0.8,3.9,0.9,7.8,2.6c3.9,1.7,5.2,5.6,2.6,8.7c-2.4,2.9-6,1.9-9.1,0.9c-3.6-1.1-4.9-2.3-9.3-3.8c-2.8-1-4-1-4-1.8
					c0.1-0.9,2.5-0.4,4.8,0.5c6.4,2.3,14.9,7.6,16.9,1.9c1.6-4.5-5.7-6.4-8.5-6.9c-3.9-0.7-6.6-3.6-10-5.5c-5.1-2.8-9.1-2.8-12-2.3
					c-3.1,0.6-7.6,3.1-10.4,4.8c-1.9,1.1-1.8,2.8,0.1,5.5c6.5,9.3,17.3,15.4,29.6,15.4c13,0,24.3-6.9,30.7-17.1
					C215.8,66.2,213.6,63.8,210.4,64.9z"/>
			</g>
			<rect id="XMLID_9712_" x="2" y="2" fill="#0657A3" width="135.3" height="96.1"/>
			<g id="XMLID_9695_">
				<path id="XMLID_9711_" fill="#FFFFFF" d="M106.8,89.8c0,1,3.7,2.2,5.7,2.2c1.9,0,4.7-0.7,6.1-4.2c1.5-3.6,7.6-24.6,7.6-24.6
					l0.7,0c1.4-0.2,1.9-1.1,1.9-3.2c0-0.7-0.1-0.8-0.7-0.8h-5c-0.5,0-0.5,0.1-0.7,0.6L118.1,76c0,0-4.3-16.1-4.3-16.1
					c-0.1-0.5-0.2-0.6-0.7-0.6h-5c-0.6,0-0.7,0.1-0.7,0.8c0,2.1,0.5,2.9,1.9,3.2l0.7,0c0,0,4,14,6.1,19.9c0,0-0.3,1.1-0.3,1.1
					c-0.7,2.2-1.8,3.2-3.7,3.2c-0.4,0-2.9-0.4-2.9-0.4c-1.4-0.1-1.8,0.5-1.9,1C107,88.9,106.8,89.6,106.8,89.8z"/>
				<path id="XMLID_9710_" fill="#FFFFFF" d="M89.7,51.4h-6c-0.5,0-0.5,0-0.6,0.6l-3.4,20.9l-4.1-20.8c-0.1-0.6-0.2-0.7-0.8-0.7
					h-2.7c-1,0-1,0.2-1.2,0.7l-4.2,20.8L63.5,52c-0.1-0.5-0.1-0.6-0.6-0.6h-6.1c-0.6,0-0.7,0.1-0.7,0.8c0,2.3,0.5,3.1,2.2,3.3l0.6,0
					l4.7,25.7c0.2,0.6,0.2,0.7,0.8,0.7h4.1c0.6,0,0.7,0,0.8-0.7l4-20l3.4,20c0.1,0.7,0.1,0.7,0.8,0.7h4.1c0.5,0,0.6-0.1,0.8-0.7
					l5.3-25.7l0.6,0c1.6-0.2,2.2-1,2.2-3.3C90.4,51.5,90.3,51.4,89.7,51.4z"/>
				<path id="XMLID_9707_" fill="#FFFFFF" d="M105.3,78c-0.2-0.9-0.5-2-0.5-4.1v-8.1c0-5.1-2.2-7.4-7.2-7.4c-3.5,0-7.2,1.5-7.2,2.5
					c0,0.1,0.2,0.9,0.4,1.5c0.1,0.3,0.3,1,1.8,0.9c0.6,0,3.2-0.5,4.3-0.5c2.8,0,3.1,1.7,3.1,3.6V68c-3.6,0-11.2,0-11.2,7.7
					c0,4.3,2.4,7,6.3,7c2.9,0,4.4-1.6,5.3-2.6l0.3-0.4l0.1,0.6c0.2,0.9,0.4,1.6,1.1,1.6h5.2c0.7,0,0.7,0,0.7-0.8
					C107.8,78.9,107.2,78.1,105.3,78z M100,76.9c-0.6,0.6-1.7,1.9-3.4,1.9c-1.7,0-3-1.4-3-3.3c0-4.2,5-4,6.4-3.9V76.9z"/>
				<path id="XMLID_9706_" fill="#FFFFFF" d="M69.1,40.1l-0.5,0V21.9c0-0.4,0-0.5-0.4-0.5h-7.2c-0.6,0-0.7,0-0.7,0.8
					c0,2.5,0.7,3.2,2.8,3.2h0.5v14.7l-0.5,0c-2.1,0-2.8,0.8-2.8,3.2c0,0.7,0.1,0.8,0.7,0.8h10.3c0.6,0,0.7-0.1,0.7-0.8
					C71.9,40.9,71.2,40.1,69.1,40.1z"/>
				<path id="XMLID_9705_" fill="#FFFFFF" d="M66,12.7c-1.7,0-3.1,1.4-3.1,3.3c0,1.8,1.4,3.3,3.1,3.3c1.7,0,3-1.5,3-3.3
					C69,14.2,67.6,12.7,66,12.7z"/>
				<path id="XMLID_9704_" fill="#FFFFFF" d="M31.8,18.5H32c2.2,0,2.9-0.8,2.9-3.4c0-0.8-0.1-0.8-0.7-0.8h-9.9
					c-0.6,0-0.7,0.1-0.7,0.4l0,0.4c0,2.5,0.7,3.3,2.8,3.4h0.1v15c0,2.9,0,6.8-4.6,6.8c-4.3,0-4.6-3.1-4.6-6.8v-15h0.1
					c2.1,0,2.8-0.8,2.8-3.4c0,0,0-0.5,0-0.5c-0.1-0.3-0.2-0.3-0.7-0.3H9.6c-0.6,0-0.7,0.1-0.7,0.8c0,2.6,0.7,3.4,2.9,3.4h0.1v15
					c0,8.1,3,11.5,10,11.5s10-3.4,10-11.5V18.5z"/>
				<path id="XMLID_9703_" fill="#FFFFFF" d="M54.9,40.1V27.8c0-5-1.6-7.2-5.3-7.2c-3.3,0-5.1,1.9-6.5,3.4c-0.1-0.5-0.2-0.9-0.2-0.9
					c-0.2-1-0.4-1.6-1.1-1.6h-5.6c-0.6,0-0.7,0-0.7,0.8c0,2.4,0.6,3.2,2.6,3.2c0.3,1,0.5,1.8,0.5,4.1v10.6c-2.1,0-2.7,0.8-2.7,3.2
					c0,0.7,0.1,0.8,0.7,0.8h6.6c0.4,0,0.4-0.1,0.4-0.5l0-16.5c0.6-0.6,2-2,3.8-2c2.5,0,2.5,2.9,2.5,4.1v14.4c0,0.4,0,0.5,0.4,0.5
					h6.6c0.6,0,0.7-0.1,0.7-0.8C57.6,40.9,56.9,40.1,54.9,40.1z"/>
				<path id="XMLID_9702_" fill="#FFFFFF" d="M81.5,44.9c2.9,0,5.3-0.8,5.3-1.4c0-0.1-0.2-1-0.3-1.4c-0.4-1.7-0.6-2.3-3.7-2
					c-0.4,0.1-0.7,0-1-0.3c-0.6-0.6-0.6-2-0.6-3V25.4H84c2.2,0,2.8-0.8,2.8-3.2c0-0.7-0.1-0.8-0.7-0.8h-4.9V15
					c0-0.6-0.1-0.6-0.3-0.6c-0.2,0-1.2,0.1-1.8,0.2c-1.4,0.2-3,1.4-3,3.9v2.9h-2.9c-0.6,0-0.7,0-0.7,0.8c0,2.5,0.7,3.2,2.8,3.2h0.8
					v10.7C76.2,40.4,76.2,44.9,81.5,44.9z"/>
				<path id="XMLID_9699_" fill="#FFFFFF" d="M106,33.2c0-8.4-2.8-12.6-8.3-12.6c-5.4,0-9.1,5-9.1,12.4c0,9.9,5,12,9.3,12
					c3.4,0,7.4-1.6,7.4-2.6c0-0.2-0.2-0.9-0.4-1.6c-0.2-0.5-0.5-1-1.9-0.9c-1.1,0.1-2.9,0.6-4.5,0.6c-3.2,0-4.8-2-4.8-6.2h11.5
					C105.8,34.2,106,34,106,33.2z M93.9,30.2l0-0.4c0.1-1.5,0.5-5.2,3.7-5.2c3.2,0,3.2,3.7,3.2,5.6H93.9z"/>
				<path id="XMLID_9696_" fill="#FFFFFF" d="M126.4,40.1c-0.3-0.9-0.5-1.8-0.5-4.1V13.3c0-0.4,0-0.5-0.5-0.5h-6.7
					c-0.6,0-0.7,0.1-0.7,0.8c0,2.4,0.6,3.2,2.6,3.2l0.1,0v5.2l-0.4-0.3c-0.8-0.5-1.8-1.3-4-1.3c-5.2,0-7.9,4.5-7.9,13.1
					c0,7.3,2.5,11.3,7.1,11.3c3.6,0,6-2.6,6-2.6l0.3,1c0.2,0.8,0.2,0.9,0.9,0.9h5.8c0.6,0,0.7-0.1,0.7-0.8
					C129.2,40.9,128.6,40.1,126.4,40.1z M117.2,40.6c-3.1,0-3.7-2.8-3.7-7.7c0-5.2,0.6-8,3.9-8c1.3,0,2.3,0.3,3.4,1v12.9
					C120.2,39.6,119.3,40.6,117.2,40.6z"/>
			</g>
		</g>
	</g>
</g>
<g id="XMLID_9640_">
	<path id="XMLID_9689_" fill="#FFFFFF" d="M19,124.3c-0.4,1.1-1.7,2.6-4.8,2.6c-2.1,0-3.7-0.6-4.5-1.9c-0.5-0.7-0.6-1.3-0.6-2.6
		v-9.7H12v9.2c0,0.9,0.1,1.4,0.2,1.7c0.3,0.6,1,1,1.9,1c1.2,0,2-0.6,2.1-1.6c0-0.3,0-0.5,0-1.2v-9h2.9v9.4
		C19.2,123.5,19.2,123.7,19,124.3z"/>
	<path id="XMLID_9687_" fill="#FFFFFF" d="M27.5,126.7V120c0-1.2-0.2-1.5-0.9-1.5c-0.5,0-1.2,0.4-1.9,0.9v7.3H22v-7.5
		c0-0.9-0.1-1.7-0.4-2.4l2.4-0.7c0.2,0.4,0.4,0.9,0.4,1.3c0.4-0.3,0.7-0.5,1.2-0.8c0.5-0.3,1.2-0.4,1.9-0.4c1.1,0,2.2,0.6,2.5,1.5
		c0.1,0.4,0.2,0.8,0.2,1.5v7.5H27.5z"/>
	<path id="XMLID_9684_" fill="#FFFFFF" d="M34.3,115.2c-0.9,0-1.7-0.7-1.7-1.7s0.8-1.7,1.7-1.7c0.9,0,1.6,0.7,1.6,1.7
		S35.2,115.2,34.3,115.2z M32.9,126.7v-10.1l2.7-0.4v10.6H32.9z"/>
	<path id="XMLID_9682_" fill="#FFFFFF" d="M41.4,126.9c-1.4,0-2.5-0.6-2.8-1.5c-0.2-0.4-0.2-0.6-0.2-1.6v-5.6h-1v-1.9h1
		c0-1,0-1.7,0.1-2.4l2.7-0.7c-0.1,0.9-0.2,2.1-0.2,3.1h2.4l-0.7,1.9h-1.7v5.2c0,1.3,0.2,1.7,1.2,1.7c0.2,0,0.5-0.1,1-0.2l0.3,1.6
		C42.8,126.8,42.1,126.9,41.4,126.9z"/>
	<path id="XMLID_9679_" fill="#FFFFFF" d="M47.2,122.4L47.2,122.4c0,1.7,0.8,2.6,2.2,2.6c0.9,0,1.8-0.3,2.6-1l1,1.6
		c-1.2,1-2.4,1.4-3.9,1.4c-3,0-4.9-2.1-4.9-5.3c0-1.9,0.4-3.1,1.3-4.1c0.8-0.9,1.9-1.4,3.2-1.4c1.2,0,2.3,0.4,3,1.1
		c0.9,1,1.4,2.4,1.4,4.5v0.6H47.2z M50.4,120.3c0-0.8-0.1-1.2-0.3-1.6c-0.3-0.4-0.6-0.6-1.2-0.6c-1,0-1.6,0.8-1.6,2.2v0h3.1V120.3z"
		/>
	<path id="XMLID_9676_" fill="#FFFFFF" d="M61.3,126.7c-0.1-0.2-0.1-0.3-0.2-0.6c-0.7,0.6-1.5,0.9-2.4,0.9c-2.6,0-4.3-2-4.3-5.2
		c0-3.2,1.8-5.4,4.4-5.4c0.7,0,1.3,0.2,1.8,0.6c0-0.2-0.1-0.9-0.1-1.5v-3.5l2.7,0.4v10.7c0,2.5,0.2,3.4,0.4,3.8H61.3z M60.7,119.1
		c-0.5-0.4-1-0.7-1.5-0.7c-1.2,0-1.7,1-1.7,3.3c0,2.2,0.5,2.9,1.9,2.9c0.5,0,1.1-0.3,1.3-0.7V119.1z"/>
	<path id="XMLID_9674_" fill="#FFFFFF" d="M82.5,126.8h-3.1l-1.2-5.7c-0.4-1.8-0.6-3.5-0.7-4c0,0.3-0.3,2.1-0.7,3.9l-1.2,5.7h-3.2
		l-3.3-14.1h3l1.2,5.5c0.6,2.6,0.7,4.6,0.7,4.6c0.1-0.5,0.3-2.5,0.7-4.5l1.2-5.7h3.1l1.3,6.3c0.3,1.3,0.6,3.7,0.6,3.7
		c0-0.4,0.5-3.3,0.8-4.7l1.1-5.3h3L82.5,126.8z"/>
	<path id="XMLID_9671_" fill="#FFFFFF" d="M93.7,127.2c-0.6-0.3-1.2-0.7-1.5-1.2c-0.2,0.2-0.4,0.4-0.6,0.5c-0.5,0.4-1.2,0.6-2.1,0.6
		c-2.3,0-3.5-1.2-3.5-3.2c0-2.4,1.7-3.5,5-3.5c0.2,0,0.4,0,0.6,0v-0.4c0-1.1-0.2-1.5-1.2-1.5c-0.9,0-1.9,0.4-3,1.2l-1.1-1.9
		c0.5-0.3,0.9-0.5,1.7-0.8c1-0.4,1.9-0.6,2.8-0.6c1.7,0,2.9,0.6,3.3,1.8c0.1,0.4,0.2,0.7,0.2,1.9l-0.1,3.5c0,1.1,0.1,1.6,1,2.3
		L93.7,127.2z M91.4,122.2c-1.9,0-2.5,0.3-2.5,1.6c0,0.8,0.5,1.3,1.2,1.3c0.5,0,1-0.3,1.4-0.7l0-2.2H91.4z"/>
	<path id="XMLID_9669_" fill="#FFFFFF" d="M101.8,126.9c-0.7,2-1.2,2.9-2,3.4c-0.7,0.5-1.6,0.8-2.5,0.9l-0.9-1.8
		c0.6-0.2,1.3-0.4,1.7-0.7c0.3-0.2,0.5-0.5,0.8-0.8c0.3-0.4,0.3-0.6,0.6-1.2h-0.7c-0.3-1-0.9-2.6-1-2.9l-2.4-7.3l2.8-0.3l1.8,6
		c0.2,0.6,0.5,2,0.5,2.1c0-0.1,0.2-1.1,0.3-1.7c0.1-0.3,0.2-0.9,0.4-1.4l1.6-4.9h2.8L101.8,126.9z"/>
	<path id="XMLID_9666_" fill="#FFFFFF" d="M118.6,125.5c-0.8,0.9-1.8,1.4-3.4,1.4c-2.8,0-4.6-2.1-4.6-5.3c0-3.2,1.9-5.4,4.6-5.4
		c1.5,0,2.6,0.5,3.5,1.6c0.8,1,1.2,2.1,1.2,3.8C119.9,123.3,119.5,124.5,118.6,125.5z M116.4,118.7c-0.3-0.3-0.7-0.5-1.2-0.5
		c-0.6,0-1.2,0.4-1.4,1c-0.2,0.5-0.3,1.3-0.3,2.3c0,1.2,0.1,2.1,0.3,2.6c0.2,0.6,0.8,0.8,1.4,0.8c1.2,0,1.7-1,1.7-3.5
		C116.9,120.1,116.7,119.2,116.4,118.7z"/>
	<path id="XMLID_9664_" fill="#FFFFFF" d="M126.8,114.1c-0.6-0.3-0.8-0.3-1.1-0.3c-0.7,0-1.1,0.4-1.1,1.2v1.5h2.6l-0.7,1.9h-1.9v8.5
		H122v-8.5H121v-1.9h1c-0.1-0.4-0.1-0.9-0.1-1.4c0-2,1.2-3.2,3.3-3.2c0.9,0,1.6,0.2,2.4,0.6L126.8,114.1z"/>
	<path id="XMLID_9661_" fill="#FFFFFF" d="M139.9,126.7l-1-3.3h-4.1l-1,3.3h-2.9l4.6-14h3l4.4,14H139.9z M137.4,118.2
		c-0.1-0.6-0.6-2.5-0.6-2.5s-0.4,1.7-0.7,2.7c-0.3,1-0.4,1.7-0.7,2.6h2.7C138.2,121,137.7,119.6,137.4,118.2z"/>
	<path id="XMLID_9659_" fill="#FFFFFF" d="M149.6,126.7V120c0-1.2-0.2-1.5-0.9-1.5c-0.5,0-1.2,0.4-1.9,0.9v7.3h-2.7v-7.5
		c0-0.9-0.1-1.7-0.4-2.4l2.4-0.7c0.2,0.4,0.4,0.9,0.4,1.3c0.4-0.3,0.7-0.5,1.2-0.8c0.5-0.3,1.2-0.4,1.9-0.4c1.1,0,2.2,0.6,2.5,1.5
		c0.1,0.4,0.2,0.8,0.2,1.5v7.5H149.6z"/>
	<path id="XMLID_9657_" fill="#FFFFFF" d="M161.5,126.3c-0.7,0.4-1.5,0.6-2.5,0.6c-2.8,0-4.5-2-4.5-5.3c0-2.4,0.9-3.9,2.1-4.8
		c0.7-0.5,1.7-0.8,2.6-0.8c0.7,0,1.4,0.2,2,0.5c0.4,0.2,0.6,0.3,1,0.7l-1.3,1.8c-0.5-0.5-1.1-0.8-1.6-0.8c-1.2,0-1.8,1-1.8,3.5
		c0,1.3,0.2,2.2,0.5,2.6c0.3,0.4,0.7,0.6,1.2,0.6c0.6,0,1.2-0.3,1.9-0.8l0.2-0.1l1.2,1.6C162.1,125.9,161.9,126.1,161.5,126.3z"/>
	<path id="XMLID_9655_" fill="#FFFFFF" d="M169.7,126.7v-6.9c0-1-0.3-1.4-1-1.4c-0.7,0-1.5,0.4-2.1,0.9v7.4h-2.7v-11.9
		c0-1-0.1-1.9-0.2-2.4l2.8-0.6c0.1,0.6,0.2,1.5,0.2,2.5v2.1c0,0.3,0,0.7,0,0.9c0.7-0.7,1.9-1.1,2.9-1.1c1.3,0,2.4,0.6,2.7,1.5
		c0.2,0.6,0.3,0.9,0.3,1.9v7.2H169.7z"/>
	<path id="XMLID_9652_" fill="#FFFFFF" d="M182.5,125.5c-0.8,0.9-1.8,1.4-3.4,1.4c-2.8,0-4.6-2.1-4.6-5.3c0-3.2,1.9-5.4,4.6-5.4
		c1.5,0,2.6,0.5,3.5,1.6c0.8,1,1.2,2.1,1.2,3.8C183.8,123.3,183.4,124.5,182.5,125.5z M180.3,118.7c-0.3-0.3-0.7-0.5-1.2-0.5
		c-0.6,0-1.2,0.4-1.4,1c-0.2,0.5-0.3,1.3-0.3,2.3c0,1.2,0.1,2.1,0.3,2.6c0.2,0.6,0.8,0.8,1.4,0.8c1.2,0,1.7-1,1.7-3.5
		C180.8,120.1,180.7,119.2,180.3,118.7z"/>
	<path id="XMLID_9650_" fill="#FFFFFF" d="M191,118.7c-0.3-0.1-0.5-0.2-0.8-0.2c-0.6,0-1.1,0.3-1.7,0.9v7.3h-2.7v-6.9
		c0-1.4-0.2-2.4-0.4-3l2.4-0.6c0.2,0.4,0.4,0.9,0.4,1.5c0.6-0.8,1.4-1.5,2.4-1.5c0.4,0,0.6,0,1,0.2L191,118.7z"/>
	<path id="XMLID_9647_" fill="#FFFFFF" d="M199.7,127.2c-0.6-0.3-1.2-0.7-1.5-1.2c-0.2,0.2-0.4,0.4-0.6,0.5
		c-0.5,0.4-1.2,0.6-2.1,0.6c-2.3,0-3.5-1.2-3.5-3.2c0-2.4,1.7-3.5,5-3.5c0.2,0,0.4,0,0.6,0v-0.4c0-1.1-0.2-1.5-1.2-1.5
		c-0.9,0-1.9,0.4-3,1.2l-1.1-1.9c0.5-0.3,0.9-0.5,1.7-0.8c1-0.4,1.9-0.6,2.8-0.6c1.7,0,2.9,0.6,3.3,1.8c0.1,0.4,0.2,0.7,0.2,1.9
		l-0.1,3.5c0,1.1,0.1,1.6,1,2.3L199.7,127.2z M197.4,122.2c-1.9,0-2.5,0.3-2.5,1.6c0,0.8,0.5,1.3,1.2,1.3c0.5,0,1-0.3,1.4-0.7l0-2.2
		H197.4z"/>
	<path id="XMLID_9644_" fill="#FFFFFF" d="M211.3,118.3c-0.3,0-0.5,0-0.7-0.1c0.4,0.5,0.6,1,0.6,1.7c0,1.8-1.6,3.1-3.8,3.1
		c-0.1,0-0.2,0-0.4,0c-0.7,0.3-1.1,0.6-1.1,0.8c0,0.1,0.2,0.2,0.4,0.2l1.5,0c1.6,0,2.4,0.3,3.1,0.9c0.6,0.6,0.9,1.3,0.9,2.2
		c0,0.9-0.3,1.5-0.8,2.1c-0.9,1-2.5,1.3-4.1,1.3c-1.5,0-3-0.2-3.9-1.1c-0.6-0.5-0.8-1.1-0.8-1.8c0-0.6,0.1-0.8,0.2-1h2.5
		c-0.1,0.2-0.1,0.4-0.1,0.7c0,0.8,0.7,1.3,1.9,1.3c0.7,0,1.3-0.1,1.7-0.3c0.4-0.2,0.7-0.6,0.7-1c0-0.9-0.8-1.2-1.9-1.2l-1.1,0
		c-1.2,0-2-0.1-2.5-0.3c-0.5-0.2-0.8-0.6-0.8-1.3c0-0.7,0.2-1.3,1.9-1.7c-1.5-0.4-2.2-1.3-2.2-2.9c0-2.1,1.7-3.5,4.4-3.5
		c0.6,0,1.1,0.1,1.9,0.3c0.6,0.1,0.9,0.2,1.3,0.2c0.7,0,1.5-0.3,2.1-0.9l1.1,1.7C212.6,118.1,212.1,118.3,211.3,118.3z M206.8,118.2
		c-1,0-1.6,0.6-1.6,1.5c0,1,0.6,1.5,1.6,1.5c1.1,0,1.7-0.5,1.7-1.5C208.5,118.7,207.8,118.2,206.8,118.2z"/>
	<path id="XMLID_9641_" fill="#FFFFFF" d="M216.3,122.4L216.3,122.4c0,1.7,0.8,2.6,2.2,2.6c0.9,0,1.8-0.3,2.6-1l1,1.6
		c-1.2,1-2.4,1.4-3.9,1.4c-3,0-4.9-2.1-4.9-5.3c0-1.9,0.4-3.1,1.3-4.1c0.8-0.9,1.9-1.4,3.2-1.4c1.2,0,2.3,0.4,3,1.1
		c0.9,1,1.4,2.4,1.4,4.5v0.6H216.3z M219.4,120.3c0-0.8-0.1-1.2-0.3-1.6c-0.3-0.4-0.6-0.6-1.2-0.6c-1,0-1.6,0.8-1.6,2.2v0h3.1V120.3
		z"/>
</g>
</svg>
