<?xml version="1.0" encoding="utf-8"?>
<!-- Generator: Adobe Illustrator 17.1.0, SVG Export Plug-In . SVG Version: 6.00 Build 0)  -->
<!DOCTYPE svg PUBLIC "-//W3C//DTD SVG 1.1//EN" "http://www.w3.org/Graphics/SVG/1.1/DTD/svg11.dtd">
<svg version="1.1" id="Layer_1" xmlns="http://www.w3.org/2000/svg" xmlns:xlink="http://www.w3.org/1999/xlink" x="0px" y="0px"
	 viewBox="0 0 407.6 238.4" enable-background="new 0 0 407.6 238.4" xml:space="preserve">
<g>
	<path fill="#F7EBD3" d="M11.6,87.5L0,25h11.1L18,72.5L24.6,25H36l6.6,47l6.8-47h11.1L48.5,87.5H37l-6.6-43.1l-6.7,43.1H11.6z"/>
	<path fill="#F7EBD3" d="M77.9,88.4c-3.5,0-6.4-1.5-8.9-4.5c-2.4-3-3.6-6.4-3.6-10.2c0-3,0.5-5.8,1.5-8.3c1-2.5,2.1-4.5,3.2-5.9
		c1.1-1.5,3-3,5.7-4.6c2.7-1.6,4.7-2.7,6.1-3.2s3.7-1.5,7.1-2.9c0.6-0.2,1-0.4,1.3-0.5v-4.5c0-3.2-0.4-5.6-1.3-7.3
		c-0.9-1.7-2.5-2.6-4.9-2.6c-2.1,0-3.7,0.7-4.6,2.2c-0.9,1.5-1.5,3.5-1.6,6.1c0,0.4,0,0.9,0,1.6H65.4c0.1-6,1.7-10.8,5-14.3
		c3.3-3.5,7.9-5.3,13.7-5.3c5.8,0,10.4,1.8,13.7,5.4c3.3,3.6,5,8.3,5,14.2v28.1c0,6.5,0.5,11.7,1.6,15.6H92l-1.7-9.4
		c-0.7,1.3-1.2,2.3-1.6,3c-0.4,0.7-1,1.6-1.8,2.7c-0.8,1.1-1.6,1.9-2.3,2.4c-0.8,0.6-1.8,1.1-2.9,1.5S79.3,88.4,77.9,88.4z
		 M84.1,78.1c0.9,0,1.7-0.3,2.6-0.8c0.8-0.5,1.5-1,1.9-1.5c0.4-0.5,0.9-1.1,1.6-2c0.1-0.2,0.2-0.3,0.2-0.3V56.2
		c-0.5,0.4-1.4,0.9-2.6,1.7c-1.2,0.7-2.2,1.4-2.9,1.8c-0.7,0.5-1.6,1.1-2.6,2c-1,0.8-1.8,1.6-2.3,2.4c-0.6,0.8-1,1.7-1.5,2.8
		c-0.4,1.1-0.6,2.3-0.6,3.5C77.9,75.5,80,78.1,84.1,78.1z"/>
	<path fill="#F7EBD3" d="M113.7,87.5V0h12.5v87.5H113.7z"/>
	<path fill="#F7EBD3" d="M137.3,87.5V0h12.5v48.1L165.4,25h12.5l-14,21.8l14,40.7h-12.5l-9.4-30.2l-6.2,8.3v21.9H137.3z"/>
	<path fill="#F7EBD3" d="M205.1,15.6V3.1h12.5v12.5H205.1z M205.1,87.5V25h12.5v62.5H205.1z"/>
	<path fill="#F7EBD3" d="M229.5,87.5V25H242v6.7c1.9-1.7,3.4-3,4.5-3.9c1.2-0.9,2.8-1.7,4.9-2.5c2.1-0.8,4.3-1.2,6.6-1.2
		c2.7,0,4.8,1,6.5,2.9s2.5,4.3,2.5,7.2v53.3h-12.5V40.6c0-2.2-0.3-3.8-0.9-4.8c-0.6-1-1.9-1.5-3.8-1.5c-1.1,0-2.1,0.2-3.2,0.7
		c-1.1,0.4-1.8,0.8-2.4,1.2c-0.5,0.4-1.3,1-2.2,1.8v49.5H229.5z"/>
	<path fill="#F7EBD3" d="M298.3,87.5V25h12.5v7.1c4.5-5.3,9.7-8,15.6-8c3,0,5.2,0.7,6.6,2c1.4,1.3,2.3,3.4,2.8,6.3
		c2.1-2.7,4.3-4.8,6.6-6.2c2.4-1.4,5.4-2.1,9-2.1c1,0,2,0.1,2.8,0.3c0.8,0.2,1.6,0.5,2.2,0.8c0.6,0.3,1.2,0.7,1.6,1.3
		c0.5,0.6,0.9,1.2,1.2,1.7c0.3,0.5,0.6,1.2,0.8,2.2c0.2,0.9,0.4,1.7,0.5,2.3c0.1,0.6,0.2,1.5,0.2,2.7c0.1,1.2,0.1,2.1,0.1,2.8
		s0,1.7,0,3.1c0,0.3,0,0.5,0,0.7v45.5h-12.5V41.9c0-0.2,0-0.4,0-0.8c0-1.1,0-1.9,0-2.5c0-0.6-0.1-1.3-0.3-2c-0.2-0.8-0.5-1.3-1-1.7
		c-0.5-0.4-1.1-0.5-1.8-0.5c-1.3,0-2.5,0.3-3.8,0.8c-1.3,0.5-2.3,1-3,1.5c-0.7,0.5-1.6,1.1-2.6,2v48.9h-12.5V42.1c0-0.2,0-0.5,0-0.9
		c0-0.9,0-1.6,0-2.1c0-0.5-0.1-1-0.2-1.8c-0.1-0.7-0.3-1.3-0.5-1.6c-0.2-0.4-0.5-0.7-0.9-1c-0.4-0.3-0.9-0.4-1.6-0.4
		c-3.1,0-6.2,1.3-9.4,4v49.2H298.3z"/>
	<path fill="#F7EBD3" d="M370.1,103.1v-9.4c2.5,0,4.5-0.2,5.9-0.5c1.5-0.3,2.6-0.9,3.3-1.7c0.7-0.8,1.2-1.7,1.4-2.7
		c0.2-1,0.3-2.4,0.3-4.1L367,25h12.5c4.8,26.8,7.5,41.4,7.9,43.8c0.7-4.4,1.5-9,2.3-13.9c0.9-4.9,1.8-10.2,2.9-16.1
		c1.1-5.9,1.9-10.5,2.5-13.7h12.5L392,90.6c-1,4.5-3.2,7.7-6.6,9.6c-3.4,1.9-8,2.9-14,2.9H370.1z"/>
</g>
<g>
	<g>
		<path fill="none" stroke="#F7EBD3" stroke-width="3" stroke-linecap="round" stroke-miterlimit="10" d="M14.1,197.6l26.3-5.1
			c0,2.6,0,4.9,0.1,6.9c0.1,2,0.3,4.2,0.7,6.5c0.4,2.4,1,4.3,1.6,5.8c0.7,1.5,1.7,2.8,2.9,3.8c1.3,1,2.7,1.5,4.5,1.5
			c5.1,0,7.7-3.3,7.7-9.8c0-9-5.1-17.9-15.2-26.8l-8.1-6.8c-2.6-2.1-4.6-3.9-6.1-5.3c-1.5-1.4-3.3-3.4-5.4-5.8s-3.7-4.8-4.8-7
			c-1.2-2.3-2.2-5-3-8.2c-0.8-3.2-1.2-6.6-1.2-10.1c0-10.4,3.3-18.6,9.9-24.7c6.6-6.1,15.4-9.1,26.3-9.1c9.1,0,16.8,3.2,23.2,9.7
			c6.4,6.5,9.6,14.3,9.6,23.4l-0.1,0.9c0,0.6,0,1.3,0,2.1l-26.8,3.7c0-0.5,0-1.3,0.1-2.5c0.1-1.1,0.1-2,0.1-2.7
			c0-1.7-0.1-3.4-0.4-4.9c-0.2-1.6-0.6-3.1-1.2-4.7c-0.5-1.6-1.4-2.8-2.5-3.7s-2.5-1.4-4.1-1.4c-2.9,0-5,1.1-6.4,3.4
			c-1.4,2.2-2.1,4.9-2.1,7.9c0,2.7,0.4,5.2,1.2,7.5c0.8,2.3,2.1,4.5,3.8,6.5c1.7,2,3.2,3.7,4.7,5c1.4,1.3,3.3,3,5.7,4.9
			c2.4,1.9,4.1,3.3,5.1,4.2c3.7,3.2,6.7,6.3,9.3,9.1c2.5,2.8,4.9,6,7.1,9.6c2.2,3.6,3.9,7.4,5,11.5c1.1,4.1,1.7,8.6,1.7,13.4
			c0,9-3.2,16.3-9.6,22.1c-6.4,5.7-14.2,8.6-23.4,8.6c-5.9,0-11.2-1.1-15.8-3.3c-4.6-2.2-8.3-5.2-11.2-8.9c-2.8-3.8-5-7.9-6.5-12.5
			C15.2,207.7,14.3,202.8,14.1,197.6z"/>
		<path fill="none" stroke="#F7EBD3" stroke-width="3" stroke-linecap="round" stroke-miterlimit="10" d="M93.6,234.3V106h25.9v52.6
			h18.6V106h26.1v128.3h-26.1V177h-18.6v57.2H93.6z"/>
		<path fill="none" stroke="#F7EBD3" stroke-width="3" stroke-linecap="round" stroke-miterlimit="10" d="M177.8,192.1V149
			c0-30.3,12.5-45.5,37.5-45.5c25,0,37.6,15.2,37.6,45.5v42.5c0,5.1-0.4,9.9-1.1,14.2c-0.8,4.3-2.1,8.5-3.9,12.4
			c-1.8,3.9-4.2,7.2-7,9.9c-2.8,2.7-6.4,4.9-10.7,6.5c-4.3,1.6-9.3,2.4-14.8,2.4c-5.5,0-10.4-0.8-14.8-2.3
			c-4.3-1.5-7.9-3.6-10.7-6.3c-2.8-2.6-5.1-5.9-7-9.7c-1.8-3.8-3.1-7.9-3.9-12.2C178.2,201.9,177.8,197.2,177.8,192.1z M226.9,197.9
			v-55.5c0-12.6-3.9-19-11.6-19c-2.3,0-4.3,0.6-5.9,1.7c-1.6,1.2-2.8,2.8-3.6,4.8c-0.8,2-1.3,4-1.6,6c-0.3,2-0.5,4.1-0.5,6.5v55.5
			c0,12.6,3.8,18.9,11.5,18.9C223.1,216.8,226.9,210.5,226.9,197.9z"/>
		<path fill="none" stroke="#F7EBD3" stroke-width="3" stroke-linecap="round" stroke-miterlimit="10" d="M266.5,234.3V106H320v17.8
			h-27.6v34.9H312V177h-19.5v39.5H320v17.8H266.5z"/>
		<path fill="none" stroke="#F7EBD3" stroke-width="3" stroke-linecap="round" stroke-miterlimit="10" d="M324.9,197.6l26.3-5.1
			c0,2.6,0,4.9,0.1,6.9c0.1,2,0.3,4.2,0.7,6.5c0.4,2.4,1,4.3,1.6,5.8c0.7,1.5,1.7,2.8,2.9,3.8c1.3,1,2.7,1.5,4.5,1.5
			c5.1,0,7.7-3.3,7.7-9.8c0-9-5.1-17.9-15.2-26.8l-8.1-6.8c-2.6-2.1-4.6-3.9-6.1-5.3c-1.5-1.4-3.3-3.4-5.4-5.8s-3.7-4.8-4.8-7
			c-1.2-2.3-2.2-5-3-8.2c-0.8-3.2-1.2-6.6-1.2-10.1c0-10.4,3.3-18.6,9.9-24.7c6.6-6.1,15.4-9.1,26.3-9.1c9.1,0,16.8,3.2,23.2,9.7
			c6.4,6.5,9.6,14.3,9.6,23.4l-0.1,0.9c0,0.6,0,1.3,0,2.1l-26.8,3.7c0-0.5,0-1.3,0.1-2.5c0.1-1.1,0.1-2,0.1-2.7
			c0-1.7-0.1-3.4-0.4-4.9c-0.2-1.6-0.6-3.1-1.2-4.7c-0.5-1.6-1.4-2.8-2.5-3.7s-2.5-1.4-4.1-1.4c-2.9,0-5,1.1-6.4,3.4
			c-1.4,2.2-2.1,4.9-2.1,7.9c0,2.7,0.4,5.2,1.2,7.5c0.8,2.3,2.1,4.5,3.8,6.5c1.7,2,3.2,3.7,4.7,5c1.4,1.3,3.3,3,5.7,4.9
			c2.4,1.9,4.1,3.3,5.1,4.2c3.7,3.2,6.7,6.3,9.3,9.1c2.5,2.8,4.9,6,7.1,9.6c2.2,3.6,3.9,7.4,5,11.5c1.1,4.1,1.7,8.6,1.7,13.4
			c0,9-3.2,16.3-9.6,22.1c-6.4,5.7-14.2,8.6-23.4,8.6c-5.9,0-11.2-1.1-15.8-3.3c-4.6-2.2-8.3-5.2-11.2-8.9c-2.8-3.8-5-7.9-6.5-12.5
			C326,207.7,325.1,202.8,324.9,197.6z"/>
	</g>
</g>
</svg>
